<mxfile host="Electron" modified="2024-11-18T10:56:01.500Z" agent="Mozilla/5.0 (X11; Linux x86_64) AppleWebKit/537.36 (KHTML, like Gecko) draw.io/24.4.0 Chrome/126.0.6478.234 Electron/31.4.0 Safari/537.36" etag="OHn_aNeY3g3wTgDPG7Ub" version="24.3.1" type="device">
  <diagram name="Page-1" id="pGhgPci9PSoHXhpqtFla">
    <mxGraphModel dx="1570" dy="1004" grid="1" gridSize="10" guides="1" tooltips="1" connect="1" arrows="1" fold="1" page="1" pageScale="1" pageWidth="850" pageHeight="1100" math="0" shadow="0">
      <root>
        <mxCell id="0" />
        <mxCell id="1" parent="0" />
        <mxCell id="8AlbYs3zOn7eQTXVhcZB-26" value="Engineered System" style="rounded=0;whiteSpace=wrap;html=1;dashed=1;verticalAlign=top;" vertex="1" parent="1">
          <mxGeometry x="345" y="140" width="310" height="140" as="geometry" />
        </mxCell>
        <mxCell id="8AlbYs3zOn7eQTXVhcZB-1" value="" style="shape=image;verticalLabelPosition=bottom;labelBackgroundColor=default;verticalAlign=top;aspect=fixed;imageAspect=0;image=data:image/png,iVBORw0KGgoAAAANSUhEUgAAAggAAAFcCAYAAACtC0YfAAAR43pUWHRSYXcgcHJvZmlsZSB0eXBlIGV4aWYAAHjarZpZlis5ckT/sQotAfOwHIznaAdavq4hIpn5auqqkpJdj8FgAHD4YG4Gttn/89/H/Bd/sYRqYio1t5wtf7HF5jsX1X7/7ff9uedsvP9+/bn3X2d+ftHH+7XnTuA9PB9LfO+H9/7XRPnzzkR/8IVLvxkQPuv7nwuX/lnY/2KRdc7bn3/1+79zVj1nP7vrMeOG/GzqGWm+puFBNhbDHZZ5Ff5LXJf7aryq7Xa6aJeddvCarjnvgj0uumVcd8dtt3ifbmJj9NsX3r2fPtx7NRTf/Aw2uBD1cseX0MIKNfgw/Q4hRBP8xxZ31213vekqKy/Ho94xmWPIX77Mf3rg77zOmdbIw3ImoXdPgL0cjhmKnP7lMQLizhu3dB389fr8mR+BDUQwXTdXNtjteKYYyX3nVrgJEHgu8f7klytLUfM3SyJrJ4xxgRDY7EJy2dnifXEuBl8JUMdyH6IfRMCl5BdG+hhCJjaVPGJtxhR3n/XJP/cpFeKTQg7UERHqBCvGRP6UWMmhnkKKKaWcSqqppW5yyDGnnHPJqrleQokllVxKqaWVXkONNdVcS6211d58C5RkarmVVltrvbNmj6anzujOE70PP8KII408yqijjT5JnxlnmnmWWWebffkVVlxp5VVWXW317TapZHbcaedddt1t90OunXDiSSefcuppp3+i9kb1d69/EDX3Rs3fSOm58okad0vRRHcKJ5xJihkR89ER8aIIkNBeMbPVxegVOcXMNk9VJI+RSbFZznbjMiGM2/l03Cd235H723Ez+Po/xc3/ncgZhe7/IXLe7PCbuP1B1JaQcN6IPVUon9pA9fFM95X/4ez34v/6/u8mij5aB7LpMw2oB58NXpl9ztVIDV9bBiDL6ngObMeT7GuHeC+s1eXSbG7tHHSn1OXuZTF1hVw/o56HPxP8HPUZc4czaC78NOYsZx/XTfi6ygtct/sEkGzMXO8FeT1zGzH9HPM9ZEfFGpBc0fz1I2Gfz+x30vq1UBvtlMfgscYZhu/WXj83MtbvB/2ZSd+7MHoQZ9OAitvM13vyfbgUms3V+pNcnHVHu4e+bTIwJbaS1vIu+VpsHNmuZGZXTtdJD2IRFk4x5uJDK1Tgmth6Ane1UOxcHvJ/Bz9kte2z5BFSIz2ZaDtK1bU9o76MRBAz3ikiGc/8rZ9WKZBcVpmHur2b3xGLDkWzgQ0D5LQb0ql1V0hy0di5hTKe+4ydujp21DIxF6OCnvEtMgpfeberWTcei/4NCMbhymNBp/rI2XiwrKcytxJoFKpXgalyQwU3mCgfF2jtRtBQaNpK5cNKe6VAAZ+yG6XbdvGl5WnvbGuG7XupbGEc+xgwOktPv0zElruFrVCfcg1T1ft79xw4TCju+TT4dNrAHpcbJmF94Wt9Z8retzRq6nSDfm/6lZ8EfOctZF8j6bTLUGTzj2nnnbaYUgEczeseu76mbTgTb7dNNR/t4O6cWcqtu7JTrHnfmNoz+zC7sDPGrf3kxvfIcFf6WiiNL59oRn+eGVXAmrMs078n3SW91pwva/L5sjPgyzD5irnKtzdTWcMXEtmUQwdbOz4QcpYnh04r20+c2YEvf24F0wbSHmETLBfB7542+BXSHNs6Qmr8xARXN1mX8dOsyss8M+xOJeNAo7jnnqHYHdzqo1Ya16Q9NbKf+qh71b42hD2WstaqbQ/aQqqLgixxg2GhbaviYyNxPha705I7uSmTZji+w25bqm1VYzcd1LOhElcclCM78mukNMYoUQAQUyBbHV1K16ojt565BDaaLbGSmQJVLcTeaE0hM5FS5nXzTEF5ombZublUG2tpNr9+WpbAoxjP7vpAiRUNomp00d5RBSyEbstE6rPUsOdJcSz4G5kaxgC+7TZW09OgU4h9ATlATA2LqRZ4N4BGWqxvfQlePFCk9OquCAJHo/OTCIuS6oZ58HBIgALkiPrtLqmKSyHVoTapDEgJXxMrBu1A52auMZ6eY1OvNlDMZqmQ6nSKNTTDh/sAXZ/ESwWqeRHcfeDfU+4J69ryoFqYSnKwt5sJlZmAZKHcwVyXBtUIR0jHh44JdxB5X28CWA3b4gY1e+V+HsQpQkEMeL4JfO8L/FWj9DPBk84YieHUsp23cAJIqbzpze3FRDCNrru1DqKUh2FCCAZ+PydlmeJJw3pY49h4p47Hw7spstWBuxX3QfA81mj7gRYGgTIAXDwr65NfqrAjOSFrKLh52PJU7+DjxYbkIDpqckoCl8Pe10dALeIrIr5QY6NNrAa2KA4Uwgw5e5rIUDKTkfAKaJVYEU4BrIOTpoKAniYGYogkKUuTIfHOTOmocon1aT4H9gec5xto12mOrg8obKQv0nSmh90g45B9PRh6ARmItsyFDuSwF5VBeSMHIzjOzAhFfCPX7rlARQgnqFAveCf6GrUd7DBt5X06WUeyU1A50byac2Mv8Sc7nLJg5bGRnQXXRHrJ2kOoFtQeKfcgsgNh9yDqbYDVkd2QiQ58UV7rpuYcdQGJAAoAVdfTQlXVMUMzlWVHjWEbR6FUlWeBrZYn6Vo4U7FFGJbuKNtaynSgJHSYGzat6yUgcQ3hDCSwGGEDDA1rk595p4qbktpuZnOq/jxiH1QKBRawnU8ikjh9Ub2gfu4L2k4XIRF9uJtuh9oE5C8S/VKdqk02lAdEg+ZNbglMnl4bnnfyyD3167W/8GGJVPAaY6MTYKo4CS5y2ZXtu1YgIwI0+AMihXHpOjuIXWXKCzq7OxCz5TGAy6aRbhgCXoy4cAFIwCceOXPnjgqBIOAEBGQH/DNgdh/i8ui4Y3hHboKVMK01L3wEGLNNmRzL24kEN9pK6Y0G0UkolhY9phi8nE+eEBa+oqLd1DlD0hZggpMuylaBj92SupmN9LqmO8pTMg2iBajvGk/l7vFxQvgA9AfOOklLe2ngu1Ky0hiinBVwMf7CqQcBo01Aj0lMVAziCS3UK/XAqFjxVqMAsQNEoPo2TYNGFW2G0cKZj9QDVRxkaMhQKQP9EaxLZ1x4j3WQtSXRwmBmpP16OhjyTFka9/AdrCG+qUCQV7qj+jK3OIBYYTbOJyxqAPWiYlFihPHVGdhNdEXUSTgMBbO509s86aWElKGz+n2zDxeybbZs3XbtD4Dfy1vthRaI3atf+ja1KlGFkEEhx3ZkUnyY0ontnYr7BTp4kXQD7/d7SpbGD2Am4Mfoe8rRCp0HpsJr7BafGPCkBiugruD0TiJUVUUOpqlO4YrOe6Q0cGRbBjSS2ZGSoqNOWkK6ZwYUX9kdgXuDACEEiCBcmZSvoMxEP6C+ZwXq2XHG2dQ++dQEC7zR8SaXwgcs32DtCJDUkYP3EB6IAwQq0XwzszxJUI7SzSASQGoyrG/Ecp/ZE270joVsq9RKlu2SLfaT390i+QuIujeYtqSdIVrES4wAggnc0FfK9KwEVZznAX3w6YSe0I8RgCQmaBlBEzB3keKJrYFFBxEJ4vMm3kGL0ywTEACrpnSK7fomqdDo10QcYUhFIPwJ1YLvwhUMKuVc6JVkiF3nGAvtB4mYsVAulpY4kVw6BqEsG6LKp9Frbn0nB4ZY6cwezSax524N5RiDh/lEMBHOkFeN9BmU3paTaM3ic4GUIcLNii6isugFLsUm3a9iuvjXqR8AFRUnkJRSOpEbj2T0kKlN2B6CNWi1UJk62P956ojqT4U4ziI22oa97ou3lNSQVUy0kclDBzBALFHLQbwTxwrLPzhtPkB9YRq3yLC5f8K07gtKdBqN7o06M5Hzu61A472GaF0AvgirvEiRZkz1kkNRsIlsyHiBiZf6ZPF3WO5UL74VSQQuMvUwqf6aXWOejtVOPFr6GcGJDx6dAUmFb8LnLJWQrbhvCzqIB9VPwXwwyUezfJo26VANOoAwnwFuElsm3SAZVB/C0UPgSOuu9WDDxcFR4Q/bcRNu7AJMyBT4kIUX4LGjbMk22F7RsyQyY6CA7HKCULOlcStk7y81vpPf4nPA+QT8E5BAbuIUkOlG62Y7ghjCh3qBMhUB/lMW9eZ/Vj9WbyBmjKu3Qc44iyppiBkC6Ojybddwgb6OZr4I61NfTaWBvp6YSMoDu7WNqsMTGgYtmyprgHIMuDEDIsUiDX2dUko0Qxov1eDgkzxNtTSd9iSP2qKzbNEzapBbZuQJuEaH8671nXiE7HKEpEzQuyCY504t3qqD9W3xSHiwgBbegh4En1ojaovSIu4DMMwAKoVY1Ty7Vj9ZrZuyCFKQFGwiXVbP9wcZEiGQaSxlHVsbhJU58a7TqV+nRnuD/cTlMrQMzC62eUlBP7x104IOcDtWZkoIFQxCP1aYWGfoLtB5hxVjrrR1spM1k3Jiw7cKzXrkjPvpqm2gLjqdUXJbZ5a4pCKijA4xoDoOTUUiwthTVO8XGHvgGF0U0UWL1IMFv+Van3JlyucJEszhbAtEUY88kG3ttOZKs44VtCHBhhsX4affvxAxVRvwj8aYwoORIKMZ5gpn8tQy/aPn54hJimhlHX7QE+j1ZyoTL/EA7oDTAlQdpbW/T5rfPRp0e/zxBBhFmwzSPHMcYBMwbyejUZXZQxJ/AhC+/Pji+z69R4p3LqpcQi/WQK+hXYTZvpc0WlMcAVRBdbFjYp+UtItmkIN97ZkgAXByMkzxekmFJ6CVp2WF2exEFIR2JhJKrwYAhUpMlgKKIsAkFvujAR8qGCk4QQ2Kbw/nuo2RyhsWhOz2ePscroQhYy/LpmBBgi9r8VAn26GkDRBCeUGSWtD5zDx9bZ3uGAGrixBqaM9j8ihNJr+TAxlbR5Rg3JBy5q0XuvTMzt0h7wCjQx2rEyTfKrhHEoR7AC9GNt14vB1yDGJmu0Ekn0zybOg5FBtFCWre1o76Row8brRHYSNooKED1mCyYT7tiQV1pE5ng5U05KLIC25zzcA9nI4gdWR7ZRUMWCU85rzdv+sUb15OndhP27vT6aWz+/HUZrYZQlCLkSw60XvAuoQH7nTsgQ8v4nVLN2+TrkCLr6JiKdOskdQ6EaWFK3vLhGghFPEoCkc4wjQ0iI1YRZ+SwZCdlGOrEcXjtvSg8gNBTN9DRTtw8GSxukjLPkChALOjJJuFXEiSU7QoKQh3nRlYobcNmiy8QhQMbMixUKKxNYhGazOHZWzxLA5SwUZWRav0JFYITDoy8JSiHzRmHfOMe7o1vM7GlKcEeu9Fp5gkRjY5ekRQqJ5kp8Gih+nfEwJNV53oTiaNOorHNfW2BvTjQAQPpbvX0ROtxpdmAj0jfXXR1hNdgo0vu/I9aQSfdOx784Uh3V5cJI40ddeLfn0B8dJwBkAttS3FUj9Aj1jhchmejKiVqoMWxaMDWTY66BJD4UuQDUqcvEME06Jb66YUiFbqVySgjlnrNq7q7Hsakr/Ou2uH6j2Hv/6eZ8d7oEWt48tgWERjHQChekWdxbuCfqCjw8qVuFyzHB0Jk4/PUatHEl0b3oNZk+gdUGl4eb4zvxNL0H6P1Li6ag1dbf3XWdq+UxjN4ZXd97DpMwtxwyf1tYaGckb/bBE9IPvHt/1hG9jW5WweZ4bLa2BUsqO8dlC58/1wzaDdPpv57AX+EYDan5u5HP4zrjLzEeI+jo3vkM8I/EoLC9euZF7Hlp11qPz+TCG01S9OkjR3c0+LYnM/hmpkupO7G7XtX3vQSADZaj8m8/pda7V6LUQYeh2JVJ0a3c2h2d7N5f5o2vA9XTsA+4ZMyRL7WnJKu6jgoL0bgYB+A37hC+AWejwgsEy/eYBUqzpz1K2fd677a4T5wXhFbVxp8LOa1dkDEhIiBJ9AQhnqRKdm2SpQ1+6i3JDV6A/8j2yi2ZWA/MgZZVi9tAkgo6OB0fG714GtofHMAonQCdtSRKw+IZWz2BXCM8IWlwT0QSQD7ed5UFn3PgqanGLep9MvT7tfPonq76ofgjfpsEKidWIxmq1X/fiCcKb6SWK3JZ2BP8dyw9k84fcXd+m1BZkMI0qhSyQDpVFnpC5+Ls79ea+ZrUM4qYevi7D/esSfDDD/eMSfDDD/eMSfDDD/Zht/NMD8zRHbwv67nfp/eUicOmmyn+/mtzf+7fvfm4jyXo3I/C+zLDuia+9hpwAAAYVpQ0NQSUNDIHByb2ZpbGUAACiRfZE9SMNQFIVPU6VWKg52EHHIUAXBgqiIo1ahCBVCrdCqg8lLf4QmDUmKi6PgWnDwZ7Hq4OKsq4OrIAj+gDg5Oim6SIn3JYUWMV54vI/z7jm8dx8g1MtMszrGAE23zXQyIWZzK2LoFWEEEMIIwjKzjFlJSsG3vu6pl+ouzrP8+/6sHjVvMSAgEs8ww7SJ14mnNm2D8z5xlJVklficeNSkCxI/cl3x+I1z0WWBZ0bNTHqOOEosFttYaWNWMjXiSeKYqumUL2Q9VjlvcdbKVda8J39hJK8vL3Gd1iCSWMAiJIhQUMUGyrARp10nxUKazhM+/gHXL5FLIdcGGDnmUYEG2fWD/8Hv2VqFiXEvKZIAOl8c52MICO0CjZrjfB87TuMECD4DV3rLX6kD05+k11pa7Ajo3QYurluasgdc7gD9T4Zsyq4UpCUUCsD7GX1TDui7BbpXvbk1z3H6AGRoVqkb4OAQGC5S9prPu7va5/ZvT3N+PxGScoCIazhJAAAACXBIWXMAAA9hAAAPYQGoP6dpAAAgAElEQVR42uy9y44kWVL/b+5xv1/yVl3V0z0zoGGENILFPABrNogX4AHYsEJizQPwCPAIgMTit0Piv0CwYwFCoBmmu7q6Ki9xv3pEuPt/UfWxsfCOzIyIjIiMyDpHyqnpzAi/HD9+zOxrX/uaF8dxLG644YYbbrjhhhtm+G4K3HDDDTfccMMN5yC44YYbbrjhhhvOQXDDDTfccMMNN5yD4IYbbrjhhhtuOAfBDTfccMMNN9xwDoIbbrjhhhtuuOEcBDfccMMNN9xwwzkIbrjhhhtuuOGGcxDccMMNN9xwww3nILjhhhtuuOGGG85BcMMNN9xwww03nIPghhtuuOGGG244B8ENN9xwww033HAOghtuuOGGG2644RwEN9xwww033HDDOQhuuOGGG2644YYbzkFwww033HDDDTecg+CGG2644YYbbjgHwQ033HDDDTfccA6CG2644YYbbrjhHAQ33HDDDTfccMM5CG644YYbbrjhhnMQ3HDDDTfccMMN5yC44YYbbrjhhhvOQXDDDTfccMMNN5yD4IYbbrjhhhtuOAfBDTfccMON5x5xHEscx49+xg03nIPghhtuuPGZOAZhGDrj78bOhhe71eSGG2648WKcBBERz/PcZLjx5JF2U+CGG2648UIiPucYuOEchMc9aDfccMMN5wi4fdU5aM5BcB61G2648dmMQxtst49u/nxewpyl3YvkhhtuuHFaQc9zGB+3lz7+XKggeSkOlXMQ3HDDDTdOZC8Lw1CiKDr4vub7vv44NOFxe+MchBN5WIPBwK3az+CldJuWG2444/ecc+P7vv6byWQkl8ud/Fy9uDJHjMVisZDJZCJRFLnV64YbbrjhxkFHoVCQTCajTsIpBjIvTigJ52A6nUoYhm6VuuGGG264cfARBIHMZrMl23Rq48WlGHAO5vP5yT4UN9xwww03Tt8WiYimHE5xvDgEYTwe64NJpVJulbrhhhtuuHHw4XmehGEos9nsZNHsk0cQLIUiCALN81By4sZhXwjP846K9+EIjG644cZz7YdxHCuanc1mJZPJnNSedNIIgp3o6XQq0+nUrcrnXEy+L2EYHtXid86BG27s9l1w79T6+yFzFYahLBaLo9sfX7SDgIc2nU5lMpm4hfvMIwxDSaVSJwOnOYTJjc9p7ArZc5VhmwWwoKrz+Vxms9lJzd/JIwjT6VSCIBDfd52rj+F5zOfzk3DUfN+XdNr1KnPj5b+TURTtjI/lgrDNHCmcAZyE2Wx2UhV2/ilOOpEfHpnneSpS4cbhRnKzoBf9KWwiYRhu9ZKeck2zG5/nOwpZblcOhxvb7ZEg3kEQSBAEastwIpBpdg7CE5wD8jqz2UyCIFhauG7DPnx0wsJfLBayWCxOJip3a8WNz81IOQ7CcewxOGyr7Nexze1J4vKz2UzG47ETQjoChw3obLFYSKFQ+GycIjfccMONbR2HKIqUWH/M6fGTchB835cgCGQ8HjvE4IieCcjBSzeeyftzzoIbbrixDarA3pFUW3QOwhPGfD5XWMZxDo5jseMNuy5vbrjhhhuP75kEt6lUSnzfl9FodLROwlE7CNYBoPmSRQ6cQXr+QfvZfQtTHcOzThKO3HDjpa1xN/Zv05IoAigsCsDOQdjghaFUZDqdOsTg2BaPQQ0Osbm5DdSNl248jiG6dePw41gbDJ4EgjAajRwh8YiduM+Bf+CGG59TdOvG4Z1CKhvm8/nR7KdHjyBQreAW7vENnLZDNMVyDogbbrh37KXOOXwuhP+ORW3Ri49oVdjJiqJIRqORikc47/b4hlVog4fghhtuuOHG0+yg7/tSLBZVV8YqMh5ynz0qBMGy4pOcA2d8jm9QSeKcNzfcOM3h3tvjfB7IMtMJ8rmqxI4uxRBFkdaGWuPjFrLbXJ7bq3fDjZe2xlzjpePbUyGLohZMKtc5CLKsdeAQBDeee6N2joEbL9FQO9TvuJ0E1BXDMJTpdKolkId+Zs/uILAB4zGBHFhI5RibWLjxcjdq0lz2hXSbqRu72PRp0JMUejv0+nIljce7/1gunsjHEsjZbPYslXz+Mbw4TMJ8Pr+3YsEt5uOOtF/CvaAIKXKYygw3Pj+EAAh5sViI53kyn88PGh0mz+Ec39MY2MdDI01HkWKgbfMx1X+68Xk5Olb+1K1BN/blgGKQU6mU9jBJp9N7M9RJ5T7HOTi9wfObz+eqJnywcz9nmWMcx7JYLCQIgmfLsbjxBO/yE2T6ErzzbDYrcRxLGIZ6X8fcZc2N03MQeGfCMNQ1t2/DYtOzrn/Nyxj5fF7S6fRBUM70IV+QpPFHOQrnAN4BeRjnLJyGZ3vqzkEqldI1l0ql1Elww41dO9MY7Ewms1djDc8hiiJJp9Pakt2lzk57r43jWEn8h3iWB0MQiDQtO3M+n8t8Pl8i8LhxWhHRY47coZyI5Np5rLGSjazS6bTM5/O9vHC7er0OMY+ryMDOST9cwLTLZ2jr6dlz3R57/AHTuvuF7/uKJOxzPR00xRCGoUZrk8lkLxupG/szUqsW6WML81Ab0n33eN+1Ja97X5vnLpCIQ1Xx7Oocj93zru7nFFGefTtcIAdhGOoat79zyNjp79Xsu1EUSalUWnISdr3GDpZiQJZ3sVhofwVSCs45OGx0fcjN7lDPNnmeh9qC2zIzNkyQrGM1CM85j/u436fez7EiG8/dEjyp4ZFKpSQIAslmsxJF0d5TG864H86WiogEQaApK9LzJ+kg4MF2Oh1FEpLMXrdwT8tBWOd5HWqTTF5L8kWxa8xyXWwkuo/1d2ophkOtnZc4KGF8Tu0MeA7UzPu+L4vFQhaLhdzd3UmpVJJSqeQe1jPts4+ticfSfHEcSzqdXuJOeZ4nZ2dnks1md44QHSzFEMex9ru2pDA3jsOz3SZStI209mn4dvHi2U173f4Ru7q2Q0eu+5zHl7aut7lfy79JOqP2X7hVh3IYLAmSHxwEHOLxeCy5XE4KhYKEYbh22uGY9+rHeDP7LCFNBsGPzdmmHJ919lff9yWTyUixWJRMJrPTezxoisHzPMnn8zubPDe282xXbQjbQsm7eEbJY6xzvdsa6n2jVc+1ZlelUR7bwLbZjI4tYn/q/rHp/eJYYoxtoJPMAScdhH3Pw31kXNDadDotw+HwwT34pSI7z+GgriP4t+k7umqvs9LMuyYrHsxB6Pf7Mh6PJZPJ3Ftu4xyEw3jYqzatbSJhFuVTntM6zPlVnnnyO+tWIOxaLGadqOE5nMBVzyR5rascsedQ8zuUw/DUa0FIy/d9nSsIYvcNW621WCz2gpza95Drs3NAejedTkur1ZKLiwsJgkCjzZeELFljue93chfrbZt9eNUxcFpzudxO9TUO5iCEYSjD4VCy2awqiD22AF3N7uGMxzYvkSWYbvsSrrqWx16aVd09tzn/Y99ZJ0LYxXXsY7NaNa+PITOHJFmdGoKA4UmlUhsbS5xSfnY5z/YdXLVfJisa/u///k9yuZwEQaBphseex6kFattE5fvYV9d5Bx/7zjrHsPdYqVRO00GgbSUiD8moxcJztuWlQxJ2v7nuaoO2MOt9x9zmXOvA5ZsaSPt91tw6+b/n2NDWQVm2cby2MQT7cIC2jewPce77jInlFGzjXCS5AbtaN8mU2arnBXogInJ9fS1ff/21ytrP5/OTKn1cxxY8l9O+TkXePlAu++xLpdJO0wzPqqS4agIsfGf/9hKchF0s1F2Jcexqs31qFco6XJR1jrspNLeuk7CPNbDp/W1DxltnXrdZF/sSg1kH5TrEu4Oq676i6Mccn03Os47DgYPAZ1Cutam25+gS+Jz730u91n2cL33Ii08yfC2JJ/nvqs87B2F30f+uHARbUrUKPl3H4Dy19n7Vy7HK4Kwikz11Xe1LJ+Cp59lVyudQVRqP8SN2teb3ydhf5/gESpbomHQQ7ktdWWSV+VlnnqwjQUohqZfgxumOfdrG9KFv4j7HYJXTsMq5+NzHrpT5djGfFj1Ytdmts3hXbU67gOGS+djkJpxEqrYxFLuEip+6Aawz77uex13e7zrnPYQhW/V+7ZI3gECXbWv/2PPlO7ZqAgdjnf0A4iKfT6qGntLeus3+dyy8oFMc6eeasKRTkBSDcA7B8aMZ9qW1oh1PvZbkJrAOBLoORM3vrHNwaAThUBvJqndqm1TNvmrKVwlbPXbeQ2jd3+e87KqcF90ByIP3OXf2x6IFvGc4GOvwSpI8oVVVDi6oOl0HYV1dl6N2ELiBh4Q5kgjCLmpEjxkK2gWUvu0xdgElW+7BfZvoY+fZlXrfulH2LoVrVpVUrXMvu0BVHpujbSPuQxE3t6kEONZ3cpPjW6N+H3fnoWuwConrclPsOqWr42PlmS7iPp5rW/fc1uk8SQRhl964G8f3AiWrT47xRQPtOPWo6VBqcW7sNkha99klne9tn7F13h/6cYb49B2EfTzPg5MUnYPwsp2E53jx1qmisLyDQwkCuY31dIz2vud2W6d5V63Uj9kpOJXg8VhUUg85f8/iILjxMtED/v+uEYSHWjlj8PncfdC6dQ7WhWdfmkPg2OqHN1rrpIv2baAeqpI4pj3ZOQfbnXuf7/VBHQRIbKvyX3ah2kYjdiGvyq+syiFGUSTpdHqJKfzUB7IPAYxDbeqHKo2EHZ0kxz12zKeU5Fkn4T4xmlUiN/ua+8fIdttUeqw7j8fidBzqWvahnnlfeeFzGZhdkGjZe1OplDZums1mW6lCnqKRfUyqfR1O1jqqqevYgG0axK0jRc/z3XXq9PiYKismZpOFRWOSp7BzVzHAt/HUj2UcojSSObebzrbM+eSzuM8xtHyCx2SDt3mm69zzqrl+6DzrbiKbViCso+L2XJoGxzS2ubanzNu2ImL7FGaya+yQFWOnhFRswhPZ93nWOe6+5vbZOAjrMHfX2fSSYz6fL1VLbCtTu+kGvUro5VCytMdyjGQEv4va9fs2MLvx2rm+70XZRoxpG2XBVdHJKoTrsZd7nWqPY4jKn0sS+TmO+xSI/6G97L41so4zs25Ua3VKnivde0yOyKbGfV/Xvk4/lMc+g517EUqKDzHdd6GoR1Q5nU5lNBodLMWwr7GLqO+Q6Q5qtO8TTtp2DlYJHSVFtTaVqd3HnGzriBxi/T1WAnVM78ouNvldrINk6fVjsPx9gc5jKFnyGOsiHds0rHouGftDnWcdNHGbd3AXc7+L86y632RfjpPrxfAQxGVvdFPP9j7BlVarJe12W49Fw5JttPD3JWSzTY38NkjFY9/ZNve8ah6t4tuqa1v18m6iw79KcRPew0PfeyynuOl1rDqGyA+1/LfZJJ7rme6qo+ouoNdtxibXatfvJk7CYy3OkykF/s3lclIsFiWdTq89P7tygNhn7f5KKnYVYXeddNxj1xZFkeTzeZlOpyIiksnmZBZ6kopFPIkl8kKZp0IJU6Gk4ljSUSRelBaJc+LHKZHYk9APZe7NxBORzCIjmTAtUWoqoaQk8tLiSyiZaCYpmYp4kYSeLwsvI16c+3iNv73a5TmRWOLE76P403PzRPzYk6zE4vlDGaQrMpeKNOcdKYVjmfgVGWVS4slU4rAkoT8X8eeSijxJh2kRiSVMLWSeDsQLUlJMl3+A4ljb99jcb+OYnKSDsC6sZaHiVd3KNnkhFovF0oswm822go+2JUNtKvS0CllJRn3JTXAdY3KfId/HHFi1wlXnWgdCe+ylSBJaV51nnfvZ9Lmuq3u/i89s+jx2ARnvWkBr3Q1t3TWwi+e5DZnYOr3WyPL7xWIh2WxWPM+TIAgkn8+rg+z7vgRBILlcbumdWMcR3mf0vknKY5tUbzqdlslkItls9mOzKIklTnniRbFkQ0/iOC1pLysSi6QjT/JzkbE/kcCfSnqelnTkS+jPJZNdSOjH4qdi8SWWrBfJwkvL4tN3/VRKfPFl4YnM/azEkpJ0GIhIfH9Q4nny0R8wewrPRjzxJJY4CiX257LwfAnjnIh44ksoXpwSiVOSkUjy81AWqUgi3xM/yogf5iWStASyEEnNJF/wJRhOJJ1OS6FQUPtj06LJa3uuUvGjcBAeW3DJXN22LZ+BuReLhfi+L+l0WiO7pA75PhGCXbBeH5MdXqemfx2kYh1lvm0N31Nbd99ncDjmQ42Zjg323hXr/7ng2m2uax0W+S6IjZsgPttwZJIpUpt2mE6nUqlUJJPJyO3trTSbTd17+v2+VlXxDmcymb082/uUG5OpOFC3TR3/TZHdt2/fyvv37+Wu3ZJUPie5MJLMwpfYE4kzvkTifXQQQpEgG8o8G0l24Usm8iTyIpFMLPNULJF4Enu+pPxIIslKFBdExJdUPFfDvZC8eOJLMTVbwgx+sLZS/op5sp/xJJ1OSZgeSBjfireoyQe/JymZSBx1JfQ88f2eFCOR0IslkpR4cVoyUpRYshJ5Igs/EkktJJPxtPfG+fm5lMtlRbK31WO5L2100hyEx1CE5IbxlI5qePVIik4mE/l//+//qQe3zcLfppveprr2q86xyiF4Khxt278+JeJ+yMng/heLhczn8wd5CffBtxaOg1uCFv2m0eMuuAHboDXbXMuuUIhdEA73JXu9awRhm/OBLq56H9bZx2wTJH7/xRdfyGg0klarpZH0dDqVv/zLv5Tz83O5vr6WSqWiKMMqh3cfTtKqwMtWfO3csKTT8m//9m8ShqH8x3/8h7Q6ben2OpINRVJRJJEfyzwrsvBj8eNIUnEsGa8okipI7ImE3m+fUyyRiBeLSCRROpRY0pKKsuLFoaRkJr7MJRWL+FFWvCgrUSq5z66Yo5V7cQzEIF4qJWFqIplFQdKLogSZmUSphWTmefElkkV6JLEu2Vi8WCTjp8SPPUlFnviRSJzNSbvfky+++EK+/vpr+Z3f+R1pNptyfn7+JD2W++zGi1FS3CRNsA3xwkKCs9lMFouF/Ou//uu9VQ37qKdeNZLGfptoMjkHGN5NvrPK0D12jFU57sfy73wPJ2E+n8tisVjKxbEJZDIZhWntM7I8g/t6dKzzTNf5zkOVA8n1aNv1rnuMda9tm2Ns4zTtKwpZtUaf0xlY5bQ/xiVY9z2I41gymYzm2mu1mvzsZz+Tfr8v33zzjUynUymXy/JXf/VX8vbtWykUCpLJZGQ+n0smk9FUhF1fD8krr+JN4DSv2iMfC8q2RRAeImP6vi9v376VxWIh//AP/yB///d/L5FEEkssXuxJJorFF09m4kvkpcSLRT4mCkIJvVhCLxYvJSJhWrwoK75EEspUYnmYZOuLJxkRmXs2wbDybj46A54nEsfiSfzxP81fPc+XWGJJx7FkfU9GcUZCPyVeHIsvgUQiIlFOPElJLCJxeiqS+XR9c5HUIiUisYQSSSaTkTAM5Y//+I/lz//8z6VSqUihUFhZqfJUTZiTRRCSDX1WdW9c9Tu7iDdxEHjxME5BENxrBHfhIOwiotvGmGwTPa/jvOzi2uzv4U6sSvFYb3rVhma72a173k2N8EPXz7WwobO+MpnMUl5xEzjwoWtZRbZ77H7W+c5zjW2Ijrvee6xOx7alfnb9gTqAVrJXjUYj+d///V/58Y9/LD//+c913dzd3Um5XFbnAANBuoH1PxgMJJ/PSzabldFotISGinws406lUhKGoWSz2SXtkWazubQeuTfrQNh5gLi9KyfQQuetVkv++7//W/7xH//x4zmjT46NxDITkVwlLRKHIuOZxJ5IMrSIFyIShxJjjNd5PhJL8AkBSKdTS8/K+gae50sc4fRHksulZREsFG2IYhEvjsQTkTAlMvRiicO5SBRJnIlESp546Vii6vQjqzHyxPNFJO1L3I5FOiKhn5aPFx7IfD4XEZF/+qd/kl/84hdyeXkpxWJxbfLnc5DonyXFsA8Deh+UhnOAJsJgMNCX/BDd9LZ5kNsgCrsqg9wFNL4utJtsN2tRonW6ke2DX/AYPGuhU1To4Lg89RqcbPJhHIR1gpXHgo4wDFdqrOB4RFEkvV5P/ud//kfOz8+lWCzKf/3Xf0kcx1IsFlXdlWsoFAoymUwklUrJZDKRf//3f5c/+IM/kLOzM1ksFtLpdOTDhw9ye3sro9FIgiDQa8rlchIEgfR6PWm1WjKfz+Wv//qvV1aHsVdYRA7HYlepjfl8Lul0Wvekb7/99t7jB4P5Pp+4hNGntFH8gwv9OPe+/xE98DyZz6PfYhOfPq//vfSHhchMJCRTfSuf6iFWzV+w8sr+8z//U/70T/90o/f+OQWm0sf0Eu/iMzaviLcdx7H0+331pDflAuzqAe1LrnkXHuY2x9i2EuKpBn5TcaJ15+AxkSWMQ7lcXtLYeOomuwsHwTkM6607yxzfBEFIHuM+IjV/m0wm8u233ypiViqV1Pm1BMUgCDS1lk6n5Te/+Y2USiX58OGDjMdjefv2rfz617+WX//619Lv9yWOY81jX1xcSKVSkVKpJEEQyLt372Q6nSpnx0LYFvXA0blvP9zFfE+n0yWi+K7bEK/3vLwfGu84FvF8iaNYPvkIEh5IYdSSW0Eg1wnwnIOwgcFZ15EgNx8EgXieJ3d3d5LP59X7f+g8q/57FTlw04e4TpnjU43wvhbYoUQ/1vn8Y6z4bc/z0D3ac4xGI4Vok+fb18u8qfPomqKtXh+rHMl1CbrJMkebZrAqhTaK5nygmZanA9Gx1+vJP//zP0u1WpV+v7/03TiOJZ1OSzabXeI/pNNpyeVy6mxQqfUv//IvEsex/PKXv9RrzWazeg2z2WzJcNv031OHTRNms1n56U9/KqlUSiH2gw7fEwnjVeCCSByLn05JtFjIY2yFXa/DfD4vmUxmJdn6GMezlDmuOzHbTCAvURiGMpvNxPd9WSwWEsfxvTyEZGezJCt03Zdj0016G4O6Tt3sqvw0nIxcLqfzg2efzWZ/8BJvIxK0jTO3zZys4jBsahDXncf7jEgSKn7KtRzCoTj182yDFqz6/TblejaNwL8glHYd2HMnKxOA8+Eb4Cxg+Hu9nlSr1SWugK2SsJGnreqBQ5DJZCSTyUgul5O3b9/KeDxecmR418MwlPF4LJlMRoIgkEwms6QQuS6icJ/GiyUq2vLyZ7Fs94IWkXhhJKl7fIh9j0wms0TCfuo7Rto2Wc764hCEU9pQtzH+u2jMsW0TERTcyD3iFLDZsfltspFuI/KxjwYm26iPPfYZGxVugvwk5Z/3tRbXQRC2YUifSsvdh3q33IcWWEW7dRyCVU6iLU3kb1TmrDPH91XGzGYzmc1mSyWUq67d/j2dTv/AwEPIhtdgYW0R0UqiZHXQLtT3kuTPfZVQPrpOREQiT+JUfK+TEIuILyK+50l0wGu0juNzk3edg3BAh2Ido7YLg3pfGdNjxnOVPLGtLNjUKB7SkO/C+G/b+GaTRl3batwfypCvMwebbujH1rnxvqon+/9X1f8/ZNDuk09O/pvUAVnnGRKxT6dTGY/HSxyBVZUWSecABIHrH4/HslgsNLUKcpBOpxVNnc/nS71Mks7ItvufjYrT6fTzGED/o1GL55EsHlian4oqpFRIy2CyOgXie55E1Vikt1v04Ji7nToH4UAOwjqf2YURXqcZC+VHjx0jmUvd9NrWcYD24SDsAqZ7CEHYpvPbJmV0+9owDoEGHCPi8BhhdZXxTiIAyXSjrbCxz9am77ZJc/G94XAonU5HuQrZbHYJUbDvNAaYlAJ8hHQ6Le12W6bTqaZTqbbh85RMJtMXqwz9tvuS7/uSzWaXdE1W0AWXQv5a/LEqcPDUhx+JzD+hA6nYl/CBIslI5F7nQEQ+Ci4tdosu5PN5ddZ2VUHyIhwEu8j32Z7SQmbrQr3rGIJkaRSe+Sr40cL1fC6Z47NG2R6Ll9YyjJONnbgWXnKrBJdKpWQ2m0mpVFqq4ojjWLLZrG4WqxCDVUxtvg88mcvlluqnk4bUwqbJTc1uwrb0apVITLI0y0Z/HCPJ0k5uUvY6ZrOZpllspGPzu8n6cKt5YDdBO1f0+Fh17OQ82LlOfja5xu5r6sK6YL2Q502W3SUNC+skmadMrkd7vmQ5nCX4Ju/NChAl36dVnJ4oipZKRm2O3c5dUjSLv1uDzHXa/PwqZ9keOxn923WVTCtYrYNVe5ot3bVOxEPoE8YaB340GsnNzY3eAygBx8Yp4G+kCQuFgr6XqVRKrq+vJZvNynA41GPg3LBP4Hjkcrl7naNtkCZbQZZKpfT4IiJp35f5famd3Qbpavy9pxrfRfRDgYYdOAiWpLjLlOs+xJIOjiAcqsXoKvGlXQ42jCR0nzSWvDhsIBaOxhjZDZHN2G78ybIsS8Rk07N12BhxhFSsA2LZs3zPGgxbCmXzZEnD5/u+QpV8JmkMubakQ3hfVHQfNJx0XlZF3qucQXseu1kxd3a+uR9rYKxx3eTY1lFM5mUfqkZY1ZDKdt6z36FEKtmZz86XNbIY5ORxVnVQtc4ZOe5kzjRpQJNOj/2sdcS4Dr6bTqfVGUs63auuNUnWs2tklZFPynUnv7sqLbGKUP1Qusk6wKtIzg/1nWEP+NnPfiae58nbt29/kAJJVlHYuWMdWDShUCjIdDpdqnxgjnEUkhUYu0BQHyJ4R7H/yWwfEEmS44vO70t77eKY+wi6X1yKIWmk9zWSdaxEkfblTlYJEMXbzdLmB63xwnBxPyiuscHaTdcSDTFYQRAslRjxXRuR5PN5NfLMVz6f1xwm90AVCOxbrtUqwLGx2+tI9k6wzkiyCoB7sIbAnpNN2IpfWRKWnXfrnduNlWiYc2AwuT+u1xo3i9wkkZ1kpM28snlDYLPXZJ+zNYz2WVojaI2EbRVsI/GkkV9V62+JqBZx4BpWIW+2d4nlrBD18nvrqCQZ93bekyiSdVosMc/OqT2PrSKwjlASjeDeV62DpDOy6pnav1nj/JiA2ipH8D4HAaTP8zyp1+vyZ3/2ZzIajeTv/u7v9D1IOu/W4crlch3jpr0AACAASURBVBqNsoek02n5/d//fT0v82GdDMtBAMWwDtsuDJ9FPBS9ij7lEuTz1uvgHd6k/8Zno4OwCrbex80fgj2bzWal0WhINpvVlxWDQJ18uVzWUqZ2uy2ZTEbK5bJuQkHwUYazXC4vRfCTyUQ129koR6OR5vXYwMbjsfi+L7VaTWaz2ZI8a6VSkSiKVDilWq2qYQiCQMIwlGKxuLSxTSaTJcPB5jadTmU+n0utVltyYsbjsRQKhaU66+l0KrlcTnK5nBoPjlsqlXTzh5BVLpd14w6CQGazmRSLxaVNezgcLsGpIh+1CHK5nOY5RUQmk4mIiBQKBX1O8/lcZrOZVCoVdTiCIJDhcKhzzBiPx5LNZpccIchelMkWCgU1QNSVcw9suDz/XC6nczudThUWxvAWCgU9D/PBM6HJ2GKxkHw+rxv9fD6XyWQipVJpybi2222ddzZmnjNrk+9zH5TdMe9cL2uANWd144fDoXieJ8ViUQ3+dDqVKIokn8+rQZvP5zKdTlU2GCea32GoM5mMDAYDdU4Z5NC59+Sasw7YdDrVXh72u8VicYkEGIahlEolXfPT6VTfT+vsvH//fillwO8fktNe9fNQkDKdTpeIg+wXf/iHfyh/9Ed/JBcXFxIEgXzzzTfy1VdfyVdffSV3d3fi+768efNGfv7zn8vPfvYzOT8/lyAI5Pvvv5erqyt5//79UoCSTH3hIMBNSDZQ25aDkEQZU6nUspyw/0nV8DPX82LtrzvXz83xOWgvhk1y/rtCEHbhKNzXZRGDQzTNRmYhfl5Q61WziWI0IPXYSAyiEkYKY0CksFgsJJfLqQPAZigiqvlO1GgFXDB+6XRaer2elMtljUhSqZQ6GBhZjCCbHt+3mz+pDBsh060OURZkZcnRIthieRFBEOg85XI53cBwAmzEhLPDdXOdOG+01+XZYQS4x2KxqA4GBoBnSMogSUzjOMwBsrc8U6LYdDot+Xx+KfXApgzqQiooWVHCvRJhWqEcuzbsPeHsYSR55hY9so2BuDaumcZBzCVGixy5Rcp4PjDobX6e9cr6ZL1Z/g3nwPm1Drd1MJhH7gnRM1A661xxbXa+reFn/rkXzssa4t6z2ay8e/duqS3zOs3Q1mlzntzwMRK8W3ats37CMPrEI0hJOu1JKuWJ73s6J9lsTu8xiYZZR83Os72nVZ0sd7FnWjROn48XvVDvICPihSJxtLaDYHu6bJPOOSSx8eAIwn25uF06CEvQ1gYSnw85LslrZxM8OzuT9+/fqyjTdDqVN2/eyHA4XFJFq1ar4nmedDodyefzMhqNpFqtSrFYlLu7u6WotVKpyO3trURRpJHY5eWlCqpgJMvlsnz55Zfyq1/9Snzfl7OzMykWi7rZRFEktVpNgiCQTqcjxWJRjbo1fjbvm+QZsPGWy2XpdrtqqGazmdTrden3+zKdTnV+zs/PpdVqSa/XUyizUqnIbDbTFrgY4WKxKDc3N+pkBEEg5+fn0ul0dLObTqfy9ddfy7t372QwGMhsNpP5fC5ffPGFDAYDmU6nCqWC2AwGA0UgMpmMNJtNubu7U9JWFEVycXEh7XZbDWEcx1Kv12U4HEqv19O1A7ozGo2kVCrJeDxW5EbkY/e+m5sbjXSDIJCLiwsZjUaKCnCcKIqk2+0qkjIYDJZSO+l0WgaDwdL6vbi4kFarpRHnYrGQZrMpg8FA5Z5ns5meczQaaYvhbDYrlUpF+v3+kqJetVqV6+trVeILgkBev34tNzc3qvY2nU6lUqlIEAQyHo+VSFer1RRdsHB/LpeTXq+nDkAQBNJsNqXT6aihp7Mhx+QZge5wP0EQaEvku7s7yeVyauAbjYZ0u10l2zEfs9lM1ycOEetgNptJoVCQQqEg/X5fHY50Oi3FYlG63a5EUSSDwUCd2vtak2+KICS7kiZLIh9KZ3mRJxJFH5saxaH4/kIkTknK8yScR9pLwF4H73SyKZPdB3GwLSeB768rTrfKaFkUNJvN6voXEUlFsbxMF2G+0U3xftj0z3Oj4UeDICRRhGOBUbYZPGCMxdXVlfi+L/1+Xx2DSqWiPIDJZKKRQb1el1qtJtfX1worl0ol8TxPBoOBhGEolUpFqtWqbvZE3FdXVxKGocKj79+/l8vLy6XfNZtNjXD5t9FoyGQykfl8rtFYrVaTMAwV8WCjIBohshyPx4pMAAOPRiNNJ5RKJclms9pQJpvNSrlc1mvHUWg0Gvq7yWQis9lMGo3GEuEuDEPdzNlY7+7u9Jg0teFeK5WKVCoVPY/neVIul6VYLEoQBDKdTtW45/N53chGo5H4vi/FYlE5Iujigy4gXhPHsT4LoGvg7vF4LKVSScrl8hJCQbRMyqDf70s6nZZarabHXiwWUiwWlZ/CmikUCjKbzSQIAun3+5LP59X54RmSskmlUks19Hyf9BXOCekZru3y8lJRnsFgIN1uV/L5vF6vzeMT3edyOWXHM0eLxUKJttwbRob7s6ksUDfQAt4NnEYcstvbW11zzDfvQbFY1DTDeDzWZ/HFF19oOs7zPJ2L0WikRh+nHL0AUiv1el1Go5G+Z5v2aLCOwnOkbZPIpiVOWl4P88Bz26fxsQjOpwTGZ59jAGU7lXGwK00y2J8LMtnl/eTzeWm1WlKpVGQ8HstkMlHiHxAuKQecCqKy2Wwm1WpVhsOhbtTz+VxKpZLc3t7qJo9jMR6PlXzIMW39M9ElG+xgMJDFYqEbKJEE/41xxzBOp1MZDAa68Q6HQ80vk8PGIHDvs9lMI+fJZCLNZlPvh+PiIBGxLRYLjfAwFmxU6XRaOp2OlEolnbtqtao5c+Yon8/LYDDQz5FnJ7+KAeZlhFtAhAQaQh4fqJlcOt/n2ufzuWSzWXXceAbZbFam06kUi0WFicvlskrZYpRxvOCWWMLgcDhUSB9jZcvWQAKAorl2DCzXS2oIJIY0A+fkueVyOWm1Wnq/zGcQBEtpoXw+L71eTxEFnEX73Njw4jiWTqezlLcvFovS7/f1fjk3ziYpILthlkoldcoKhYKuR0vgnEwmeg3MyWQykUajoXwT1jrvC9wQ1gTHp0S1XC7re5Yss30MTbyPmHgY50B+0AvCciYsQmAdAusg7KsfAHuEVsR4InHmWALBlHzsz3z4YTlCp2D3/EMb1cc65p0KmmC7oZHHJCdOusHmAuEKEG1ZBraFwzEStgSReaGdKpsj3AXOA4R6d3cnpVJJKpWKphWAdGu1mqTTaalWqxpFk+OuVqsapRF1AocNh8MlFr1leltWOLln5gS4lOOAFljIkyZaGGtLsoLkSDTC72wO1ZLwVjHlkxoTtm7ePkci82RJoM35c89A3jxPW00B6sBcgMYkDYitmkiWXtoueKQHbFrIltmu0h5Iak8Aq3OttkoGR4frt2I8XJutrkiua3gPlm/As7e8Ff6eLN21PVPsurdMeJxgnAqOa6sckloBOJ2WtwHfIFm+iFPxUClukuO0bgC0aRC1LYpwn8FJ3qt1IPZppJZVA71PP89s7fyciKTFl+dplGR7cTgE4QEHYZWu+qqXc9uf5Ka9iceW9MpXfS+fz0un05Ef/ehH0mq1FJp8+/atnJ+fy2g00oh2MBhIpVKRbDYr/X5fKxVGo5FcXV1Jr9dTozOZTKRer8vd3Z2eG5QCFIJIiCidTSCTyWg+V2SZGAd3wV5/v99XcpYlStrSJzgLwMuQJjudjiInwP2dTkeurq6k3W5rxDydTn9QfYCjA9Tb6/UknU5Lt9uVL774QrrdrkZ83W5XfvSjH8nt7a2mS4bDoTSbTZlMJlrlMB6Pl3gARM9xHMv5+bleSyqVkru7O3n9+rWMx2NNt5Azh/MB/wFo3T5Py/6v1+vSarV0rm9vbzUNREQLoTSXy0m/31cDD3udZ8Mco5c/nU7l/Pxc0Sny9OTcIWX2+305Pz/XZ8McLBYL5VWwTiaTydKaA87/6quvZDQa6Zz2+31tUUxVAFA96RscvtFoJBcXF3qdmUxGWq2WnJ+fL5271+tJqVTSMlqR31aOsF5Bt4IgkLOzM+WtwFs4OzuTbrer78J4PJZ6va5VChZmByEZjUaK6HS7XU1vwdEZDAaKrFnugdV0sJt60slZubEmSk/tnrTqh33HXsOqoMTzRMJwIZ4nS+WX1km0ToB17nDUQYNsufWmzoJ1MuxxOIYVA/J9XwqpgtTmhYP7CJ6I5EQkLyKpSESiSDxZiMQiqb3bO/mBnD2I5iZk0ORcv1gOwqafOWYvC6icFxDIjpeCFxGIj/JGcshsriwAjBfRTzab1c3abjqwu9lQMWJEXpb4ZisdyFfDBKd8z5KarKqerb+38CtIBBsl57EvADwDNisgeAh0bGjZbFa63a4Ui0WFhm2Ebzc7olW70QHBW5QCI2m/x7OwES/PkBI5Ns0krA83BIMM0zxJMsOQ8hx47qSKiHrhX7B+uGZLXsO5sOx/1hdIC2gTaAXHIp2D82GrDJKGxPIHrL4ExpbnAZQP/wLnhu/xHoD+rGqLbFUOeUYgNRgr1jIOJAPnKInS8Ax5DiBYGChLxLMGHgTOIoGU4iYDlEPDwLtuGpcMeg55X6S/PvK0PBFZSMoX2YA3/mTvIE6JBOKJxB+LDdLy0bmii2Mu7YuIJ5l0ShZRJPNFKGG0g7nJfOKWfkoHsy6//PJLKRaL0mq1XLOmpzoQx+wgELHf3NxIqVRaKt+CzW1L4mCN1+t1VTsbDodyd3cnzWZTy7aGw6G0Wi0pFApSr9c1tQDRzvd9mUwmMhwOpVqtymw208oI8q3FYlHa7bZC9pAByV2HYSiDwUAuLy+Vq5DJZGQymah+QrfbXao3Z5FznXEcS7/fV+Ii89FqtZR0SQkjFQSQJzn/zc2NvHr1ainy6HQ6Uq/X1ThVq1W5vb1VAhywe6vVknw+r3MPgiHykaVva/n5Po7BeDyWVqsl1WpVSw1xVrLZrJydnS1xFeI4lkajoet0OByqhsNwOJRKpaJpmvl8Ljc3N1Kr1TTPnc/n9TjNZnNJtwFmP45do9HQMtPRaCSdTkeazaauozAM9dlSojqbzeT29lZJkVYnYz6f6zoicu92u9JoNNRYwP2oVqsKgRJtp1IpqVarutFR4QEJFR4F7YrZ9HK5nHS7Xf0d1wlZs1KpKEmx1+tJoVDQOS6VStLr9fTecSqn06nON7we+DI4Ggy4FSIf9SZADbgX0m4gIRzz5uZmyUk4RX7UffurFfPa9x5bKpXk/Pxcq3ems0B8L5YoJbLrcgZfREqZjAz8hXiLWPxQJPRFJPspjI8yIgtPYgkl+qSdTBweh5GkUr5MpjPxPh0rLSKh50kqjmXmf7rUSMQTT+K6L172kwRzKCIzT+I4+u39RB9P6YcpCaNIxJelkt2f/vSnGqycwvo6OElxU2j/Maj/OV84+Aa5XE5fQMRBLIkMFjgbGhEVL48lw2GQIZYBg8PAtxEqcDLRoyU7wsbHmSFtYElwVh/B1sRzzVYoKIqiJbIb/AQ+Z1M5sPBhhdvzshaYE6u2RzWFrYencgDjSxRPBQLMfiufa5ncGBeMRxiGKixFBGqRHiJeUgM270y0SeRsa/I5NiRRiwTYOQQuh+9gRVNwApK9B3AS7TXjHEDGs6iKlR5mzonuIZdapMGSIG0aBafPSjjbdQPMb0WBkuRU5t8+A6v/gFMDfMp7YBUCrfofvAKQI54X6xAnCAeJY+KEciyeH8eiEmRV98RTHsk+IJaAuU+12clkIq9fv5a/+Zu/kUajIblCSeaSkjgWkVxZfPE/GR/vB/+7rt3wvI9OQNHPi8wL4nlliT3T4Xkmkpp6UgxSUgzTkhGRyP9ImBTPE/FSEsW+zBcfvxOKSOx9tP2LbF78VEoykYhITvJSkpqUpdqvit8SyQ1jyfbSkpmcSW7qix+KeHFWUlKR7CwtElUllSovoaV/8Rd/IT/5yU80DRceDEo5AQThsV7uD5FrHuIvPDYsQclu9pvCcvZ3GLjBYCDNZlNzwJlMRtrttlQqFY3QUY8jpTAYDKRWq0kURYoUTCYTLaPrdrsKj1pSHAxyoN1GoyGtVkvS6bScn58rVI5hbjabS9K/RIiU2gVBIDc3N1oKhrEiR24FlMIwlH6/L2dnZxqtU2Pe7Xbl/Pxc2eQgI7VaTY2E7/syGAzkzZs3aiwxwNZQ3N3dadQOCjAajbRqwZYSok55cXGhRoJUgYWhSRfgNFF5UqvVlO/BM7WlldboYryoEKB8LwgCZcrz/V6vp+fDibLkU2vQLbxvxY2oIV8sFlIqlfQ8NOGBdW9LSTH8VliIqgsr993r9eTs7GwpN40mB2sOFUccRkvepIwV54BqA77P+bvdrs4x3JB+v6/cDT5n0zzMMShNsVjUNUWqC6SrXq8rmpbP57VUknWAnkLSOcFJ4H5QCAUVoRpk071qF/vjDySzxfZ0IT0k4vm+hOFvw3BLcL1v38WZtGmUJG/hIcGnbRCE2Wwmv/zlL+Vv//Zv5V/+5f+Tu1ZbxFtIHGfEjyNJeSKReOLL4qNz4KUl9m1874lISiTyZBZMJYwWcn5+LjNZyLg/+PgOLuaSiVLiS1qiVCzih+LFH+fLExE/9sWPfYnFk8iPJPJC8f2UePeQIbxPcxr5afHj6FNhpi9pSYuP/fAjib3oY3wdp0W8ucTeQkSy4sW+eBJLJGmJ4pnkcx8R3T/5kz+R3/u939MUsyUAb4NeJ/kun6WD8FAObRO28FO95FWetuUW3NzcKKkQEhhKhRCkzs7OZLFYKEmReu5GoyHv3r3TKMfzPKnVanJ7e6uGgU2cyJrIB5iVjZnNkeiKDR+nqFQqqcQwmwObNEx0rgFjBtzNBo+xgUR2c3Mj7XZbN59GoyHtdlv6/b5G+2dnZ+L7vrx//15RhkwmI9VqVT58+KDyt9Txv3//Xq9jMBjIV199JR8+fFjKkb9582ZJNwJNhHw+L8PhUCaTiUagjUZDPnz4sKRqWalU5ObmRgWdRD6K8AwGA7m7u1NVRNId7XZbyZY8B1I2fJ+XHyJdv9/XdYs4UqvV0s0TRxOiHYbRsvQzmYx0u13lb6Bz0e/35fb2Vg3/+fm59Ho9JXzidPm+r+kYSzz9/vvv9ZlPp1O5urqSVqulRhjS5mQyUXGh0Wgk9XpdU1BwKqgmuL6+1rU1Ho/l6upKut2uOhiz2UxqtZqSGXu93pLEMpLLrLFyuSy3t7ca9SNwdXd3J+12W52ger0ui8VCWq2WpnBsageNBtYYzwt9Ba690+n8IOJ+zsg/jpeDas/7lEv/ZLYoc1zneh8ihW+z/z02LBHyF7/4hfzu7/7uDwzZqv9+rHMhaKqt+rLfW2UXVrWhf+wzlgOjf/dEfM9fcrp+O0ci6XRqZdocpMDuNaeSunqWds+75Co8FwRIJEgJHlUGwOue50mpVNK2y+gD8LsoitQQZTIZ3eTIG5MfB1quVqtLksAo2fEy4ixgwCwCgTIddekYs0ajoQQ6ygkxKij32dryQqGwlMYgv42h6XQ6auAymYyUSiWFb0mpoEbItdZqNSkWi1oGOh6PVVwHg06EjJHFCQiCQHPcEOtwbkg/cP/ValUj0U6no/NEGobKBQR2QBEgdVqeiYX5OSYbYr/fVxQAw0kKgyjVljciEMScwBdAKInnyPO1MsSoc+KY0DeBjdOiCCA/ROylUkk5Jhhv7tGmvdBeoAqDNEuxWJRKpaJVKYvFQtcsETpRPak0q2CIKBJ8FPqZMJ84o4VCYYkXQ2lupVLReaWqx6p/2mjZdqTkfbPETa4dhO/UuAXHmoLFycUoJkl593WEfDAn/om3QqoW5/Mhx2eVzVi3hbJ1TB7rELzqmOzNtjldsimZ4yCIbBX5H/NLgaEmsmTzqVQqGsWxIROlj0YjbZLj+75Uq1VNOdicOU1lqI4A0uVeR6ORCv1ks1np9XoqeUyOvdvtqhwvZD9IcSAbwOQQ/HjxqHKwnAiMEqiClV5mPiipw2FA7Q8ng+9zfObJ9htAKMmK3dze3i4p/LGR20ZNVH0A7VtxKJvKwYGA6Gfba9NkiePy3EByrOEMgkDLAEFeINthnDDUFs4lEmf9sHHAEWATgctAsyYtF/tEXrQwf6lUUhQnybkAeaKaA0SBvP98Ple5b6u7YCWIbdfPIAgUFeOZLhYL6fV62g+C50GFihXKglDItbO5W16M7RVClG8Z8cwH9wR58uzsTOWSKU2lCoU0DmgTc8/zsE7YqToIxzRsjxPQHNtJFo6M/blPlMr+2Koe3qeHWrHbyhn785g9Sn7+PsfjoZ9ka3OcJKtP4hCEB7y2pyzq50QSrBdoS9QwBra5jS0B4yWwLFZeIFv2hscNVGznj02UDdTzPGk2m0vRZbfblWazqTmu8XismvgY38FgIJ1OR8mMbORs4OT7uXZeSK6Ja8Q5WNUylzkh6kfj34rY8HlL2kvKxVpxIKJB2xjI5p6tZ243FebfSs7aunPrvHAeG42CxljVQzZAyIwITPGcIcqVSqWlJk08K85r88+2+sKucUpUgeNx3iDKch32WVhSpd24USckjWIbQTEn3KuV7OZ8IAOgT8w7Bt8iDbYtN3NNn4fks+KabTUCTjKRP9wXEdHqHQtpW10Me2/j8VidB9AG7ssSM/e9j2ws4Ryb7Hgcq/7BY/tnkiX/GPdq1/dNma7tXrqL1sZ2fcNlsTyhVc8waYxXXUcyxZAkENpo/zEkwd4LHCG7v1gn+NgdhYMKJa3yIFd5d+v+POY57nLRJxXIaH17dnamxD7f96XX60m9XtdNG9GXQqGgpCsWIN0Uu93uEjMbeJ30BcJKNjdGOZv9QWwHSN7WzCNmMxwOl5orwSdggydqtsx+IlcEhYB1K5XKklbDcDiUer2uDYcoLeNarP49KQtbDz+ZTFRkivkejUby+vXrpQZKlqgXRZEaBGRMLflRRDSXjlFYLBbaTtcaQWSUQTwoyYN8iJAVvAz6cGBkXr16taTBMJvNPpKqTKRtzzMej7WUkd4GnU5H0zLk562mBOgSsD7P4uLiYqlCBqeOUkyOB6GQskq4FAgyscZIQSVVPkF1rIMUBIGubTbpdrstjUZDJbtJa5G+wXGcTqe6dnF6uLdarSb9fl+d5ul0Ks1mU0m/jUZDU0fValUFp+r1ulSrVanX64qIlMtlOTs7k4uLC938cd7L5bKSZvcVidtodp09Jo4/kuyiRGdaTzyJok/aJcYg3icyZx1tq1eSNHaPQfyborb2vbDqm8mofJvz2ADC/v/kHr2JsNBj502iDuui5FZ0zpISN20k+Fk4CPsy4skHu8920gwiUh7+aDTSboN4trbMDeh+MBjIZDJR9jWRO9wDoOq7uzvdeBESombbSgVbwR4+Y18cINV6va4OB7oEcCFQexwOh5q/n0wmasRsVQBGgqgZ44wzQGQ/HA41Pw50izEARaCrJT0nrBHkXvksGwNzxPdtzwgMDU2UhsOhRrCkX3CGOB6lmDwzoh9+Z/tc2L4KOGI8XyJQrhEDDXqBCiHOUVJu2bZTtiWFREBwJnCCmDvuyQpZ8ewoJ8S5hIDIvcMNAb2Bn0CqhudBagooHhKiLYOlcRlcFpvmoOrFlkQyR/ba7TO3KRrbQIm5o0Ml6yWTyej65bpxdjkWaxZuD/dun+Wp6R4ca4rhkKle3j0rYObGiaUY1oGSdrXI7QuzTzEKKwwEiSuOY21Ra/PRyA83Gg0plUrKGbi7u5NKpaLkPVj/5MMRh6HbHL8fj8cq+kLkRO61VqupLLIVsMHQAfsRqRQKBU01IMF7eXmpGzmOQqVS0agL54LSRyBFmP0Q4HCKiHJt/Xy329VOlKQ9KI8DBhYRub6+VjIkqAfpEX7ITxMRWnGdfr8v9XpdjUOn09HyOYiHGDHP85QQynxQrQIkCIcAQiFEP6Sr4SvYPLrVwYBgSgkixg3ynxVS4t4QVLLnwyGrVqvKBykWi+pwgFDQfwN9AuYDZMA2r+L54nxBhgzDUKszcM7gJsxmM5lMJnJ2dqYGnGMyx+iD0Om00WjIdDqVi4sLef/+vRJYKUXt9/taMsz9cv2QCnEa4P1AmgStw0GEh4EzQTqC9UnZZKFQkLu7u9NxDu7J0X9OzoJV+6R09hQi81MZz953chU89lSn4BAIgoViMVzD4VAjJptPZuO3howWvhhoG8lY/XsioCSEluwvb/svsHGCUgAnLxYLGQ6Hqsho5Z1tVQSVGEg1W3gQCJlySl5OyGJEf8jZAg/DWCf3huNkI0O7JqyEMCkaK5KEoWTjx/nB4No8oe1uyP2R1rFNesjxW1iUSBSym+0hAWPfckLIeXNsCH0cC3jeEg+t0BaEQpwsUAXbSdOiASAftoojKakLmkXqyqJCaDqQJ7VQKkiAldTmuonWkgqL3Af3aQmJOJsgYpRolstlTS8wn9wv/3ItVlOk3W6ryiipE9Ztv99XkiIOeRRF0m63lYdjSaPc73Gxyq0egP1XN72ld/9zRBEsl8lWNLjxQhwEDEKylvUpPAGMmc257WNh2i6FQPZs3EDMbM7Ug9vywVQqpXwFNqxisSi3t7dLJZHValXa7bbK3haLRTk7O9PcMqVtyMeSx4bRT2nfcDhcyomRz4djAGQH7MtngJ55NjbvZ8ltvKC2SQvoAIbSGhFr0PD6MTrAw0TytP5NpleYR6sqabkFtiuiVdprNBoKk3NffJf7sRsvPSgos4IbwDxZbgFrGW0GS6aiagBY1PbXwFHDENKzAbSKtEm/31djDfwP2992JmQ+LQmT6wSKhe2P4cf4IqudTH3gFFpHkTJc5timvqxQEWuBe2d+Mf5WuRECJA4nUb99py3hC2fHkkutY4YTxfvKHsEzRCk0mfrcVefDJBF1PfcgFM+LPl2HiCfpj//6nkTxXMSLVzZKSp4Xp4tnm2wKtU1V2LrfsT1R7PvEWk2y/uE9oAqqGwAAIABJREFUrduKmnfcBha8p/fd4y44FuseY9Uxk+j2U9WD7Ry8mBTDQ2mHp3rCh8jJkYf9yU9+ItfX17rpBUGgyEC/31cDgOAOJD+MAUbf1vBTncALY+WGbZWAZfGTd242mwqbdzod6XQ6S10e0c0PgkA78FnRm3q9LvP5XEVvMPQWxiZabjQaqo5nBXfu7u601BFxHaI6XmJSEB8+fJBmsymDwUDr20kfYBQRMGJeZrOZkkNtjr9cLmsvDNtQqNlsaj8GS5Ak/cAGSinozc2NIhN0syRyxQFChIdUCGmZu7s7NZQQ6TqdjvR6PTVOwOs4KCAKGEbSQKSQYIGTCoJzQZrE932p1+vS7/dV1AjHqVQqSafTWWohTp8EfoeeBSmF0WikaS16aZTLZU0z4fDilHBtNzc3es2sRQiYbNak0uz6BjUZDodLZMVyuaz9NWz6Q+SjqBJ9K3iHut2ulMtl5UmAGJBe48c2HMO5ubm5UU6HRSCts/U8SQSLHng/+Pux1tETSDDP9L2wzbVWVRck9+1tAjxb5bQKFVpnznYxrziDpM0IAmxQtIsAlnVqq7R2tS7Sx7iwdslL2Ccr2batZYNn0yGaJUqzC5dIiciSiB3OAFLMPHikmDEUdpOz2vvT6XQpkkP2uNFoKAELI4jXybXgfODAkLdm08QI2GY8fNf2iQBpgGmPI4ABtyVJsNpxjEipgIiA0CD7i9ORLE8E0uZ+kPYlikC1Ev6CjZRtqSDVAkhSgwYgooSh4x6ZDwy7lVy2HRM5B8bMRv1JVjlGnOtkvsi789/wMM7OzpaEmKxAE9E+a5M5I9UFasSaZW2JiKaESE1w7MFgoPwDUB4QELg4pNlIEdjSXxvls25tJ004JZATi8WiVjJgXJDuZv5teoINkmeEEwRHxBI9bQdLJMfb7fbBux6+xGHR1V6vpyXApLlWGf+nIjT23CBI7CubOgC7eu7wc9jr2dt2Hazui5x5lAmbXfES9jkgrt3d3SmxDKU8FhhVCigK2o5zkPkgwvX7fbm7u1PoGMnfdrutESApAWR2WXBs0qAEMO6B9a0QDNBtqVSSVqu11PQIMSHbRIh8LUiBNS5Eq/xUKhUlplmlwlarpYaLeSNXTNkbuX8EkPh8rVbTucM54Tw4ZsjyzmYzjUJR5rPRLoaNCJTzWD4Jjh3zgmwzzg2M+NFopKRNjBCy0axZuA4YVwh/8D1w7khDWKeBc9n1T7oHo4YjYmF3jCyaAChT5vN5TS3c3t6qccU5Q6+ByCuXy6maIRG+5a4gEsX83d3d6e8QyAKlYL2AupFC4nmAJFihIlv5AqpAP4r5fC4XFxd636SOLKJhHSn+O5fL6XOHv4L8OI4mjrpNL7ixndEajUaqFvujH/1oqSOr5fjsImq3kLxdE5sY+nVgfdsI7bHSR/aA8/PzpQZ2dt3u0kGw1T4vMsWwyknYlHCY5DEkv7urqICFMh6P5fz8fAkqxqDYvB8bFdEUESXsdIRjWq2Wpin4HaWEIqLtotnY0Bwgh4oxJuI6OzuT29tbJSwyr1bvn0VlxZuYI45tVeeIwDAeLHiiVmRrMWakPEhXWLKlLbGzbP5kQx3yzTbatc2biFhxJGwZqt3kISLSstme2wpXWYVEi0bYdMMq4wGqYtEYK86UhAAhV1mBLCIvjsezIoKGd4IRJd0BjMnxWJM270uzIxwO1jFoib1G5sdKEkNE5T5BukBPOL+VxCX9dh/EyvPC2cWhRVCJKiCImGhBkM4Bjbq4uNAqHLRARERJpRaCtQidTfHsanN9CNZed/+x+5+NypVfsmYq1cL5qxQGd8nL4tggB5VKRWq12lKJ8L5R3nWabT2VZ7DuZ0Ec0+m0nJ2dSavVkvF4vBGKkBSAstoWvLPrije9CARhlaOwyY3bzfep5KKHHv5oNJIvvvhCo1kiMWB+FhNEKx42cFscx1peRkRdr9el3W6rcURHgOoD22mPlw+HAIMNkZHSQTo4Em2TyoBUiYGEmW8JhAjslEolPRalY/V6Xbrdrn623W6rWBAbEukWPGeiYKJU6uExfM1mU4035MBKpbJEkqTyo9vtak+G+XwulUpFmx+JiKZV0IDAaeAZ0U/CRqpcnxVPoqOiLbU7Pz+XwWCw1IYZUSRST1EUSbPZ1DQHz9M6UMDxpD84FoJL4/F4SdMC0SzbX4DPWwPIxgEJ1la3XF5e6nPl3qvVqpbZskZBDEhJcX6u3RL4EJ7i2S4WC2k0GtpkCpEpeC08G/5FoRHnuFAoSK1Wk8FgoNyYarWqvTtSqZQ0Gg0pFotSq9WkWq2qUwDHhHkC/aKqgTU3n89VJCpJpDuJkbjWTYzhzg2JqdiyYmb1el0d5c91WFQXRJSS6qcEp9iITZtvvSgHYRUqsOnD2QdMiFcOrNrv92UwGEi73dbIhTwqqQUa+ZCXteI6wN02+sJo2OY3RGoQvdhcUcmznRHZJGlyRGUD6QfbIIpSMnK0GF5gdzZrfkcUa9UMQTEwjggWlUolrZlHEAoHZzQaqfGHMIbOAJAcmwxGhn4NsM5RqyT3jkFmYyL9gB4DcDSf4bjwFDB0XBeGnfvHSPL/OT9pIL7P70AccDqIvJlHIgyIk6AcaC2QQkL1EieK6JvOibYPBlGxdTIoc6VvBY7DdDrV1syIFUEkxYHBIbaqhzgUrGl0B3j26IAgvGR7fYCu4ZxSZUA6BmeGNUZ6jPfu/fv3eh00qsIZBeEolUpKDsURZ73wPSu8xLo7GcMjj7PvLSqGE7RPQ8jeRcrzFMWn9jVAOC0/aFtnLCkZv6+RfukPZV8VDRj16+trFSfK5XJac01uOYoiZeUTCVv4+PLyUtrttqYcgiCQ8/Nz6XQ6ChtNp1Nt58vvbOkc3jm8AdvUBIgdLQaY4FQqpNNpFc0BJRD5KOhkJZBhqNOZD/SDiA5H7Pb2dinvTNklokqo6VFy2Wg0FF2BeEc1Avfz4cMHTcvAu+h0OlqJAecBA1UqlZYUKmHS4yh1u13VQSA3bpEH4GZQFRAU/kZVAox5jDB9AnjuQRAoTwPnA0dORKRWq2m03ev1FNlgPkABiMDZ6LPZrDabYn3UajUJgkAjE44F54TIHaIh/AmQL0SJ7DrEYHKfNAYD/WH94Xwx7zitiCrZVBBORbVaVeSMOcZpxpDZSh04FzgZlj9BdEaVB07eaDSSy8tLrXr58OGDijbxHqAQeXl5qcJnp7i/3bfH2bTRPh0Eq2uSDILc+O2AZzQcDtWx3ZZzYDVh9jVORlXCCsA8JRe4K2cBowE7H0cAGNpuZsCeVriGB2vr/m2e3W6OeOUYLaoXrHdOxAc0zXXk83kl7xEZBkEgtVpNCZHAxcCvnIONHuNPuWEYhloNQUdI2P8cE1Y/x6J7IIaeSNA6M6AU9XpdnRgQlFqtpvfJhnh+fq75Tgw156IkkQoKDMl4PJZms6nRPQ2LrJ6F7TBpxZe4TvgA3JNVUgRRwuGxpDjmhnSD5RrYygtbAcMzxiimUimFb+EmEKmhtAgKRFUGz9iW0cJfgFg7Ho91roncKbeEmAh3hfVqWztTVUD+n7VUq9U0NYEziwOIY2DfGYiEOHzoYEwmE0W1BoOBXF5eqg4IKTccSpC4RqOhCB7ICw4TRq3RaCiSY0viHqvt3yQPvg6sv9W+dE99/X3ntU3Udj14L0CqWHNu/PA522Zqm/IqksjBvgn8JyU7tapN5zptO5N9yHcxMpmMdLtdbU4kIhqhQkpko6KEbjwe68ZOVHVzc6NRdKFQkEqlojoCcA5oeoMxgQE+Ho+l3W7r54ksyc1zHjYGSgWTAjQ4MZaLYDcWooDhcKjRNaQvKzbE/7cKgUDQnI9z2g56bNaUe3J+fm9V7jCUSEzbEkfWB2kRW4KHw0BHQNvYKNl10CIvVjCHSJ5nYIl9sPAtARBSH/l/nASr4GhV4JKdHklzwMBnXm06BEMNORXnBr0BnAjbVtkKNRFFW+0Ey5uxc8Q1WQ0DjoFDYA20XWdWYAs+CHNsnWSIg7ZLI+826BHrwKo8WtEq1gLETRxlUCOcLuvYWOXKx5j1yb9vQqC2pM9NhXnuIzo+xJ+wXQNZP6uO+5hozzopV3s9p9Cp8LkD3nXWAb+z/CLreLkUwxHnkzDi9FXAiDabTTWgEN08z1P4nBeIDc3ms2Fn00kPwxUEgVYw0JCHtAZ53sFgoBUVcAPoQlipVOT6+lqjt263K2/evNG6bxHRDn5xHCuXgmsGhub6YY3f3t4qQWw6ncrZ2Znc3d1pqSaVFKPRSHtGUOWRyWS0hJNI//LyUm5ubpQ3EASBvH79Wq6vr9XjpusjESUESJyuyWSyRDa8urpSFjy56svLS7m9vVUvfDKZqLCPJQWSWuj1ekss/GKxKO12Ww11FEWaBsKgki66vb3V/D3PEYEqDBZpANJRHLNer0uv19NUCPC55dZYuWJbcWG5LJbUWC6X5fb2domEyLOkzJIcso3QKZlknYMoTKdTfW6U/Pb7fbm6utL0EvAqnTWpVACOjqJI2zFTvUPXydFopNeFrsPt7a0+y2q1qkqhvJsgMqwl1ilrF4PGu8G9nxqZbh0EwY3jfWbrOhIENLzjhxon6SA8N9uYKMcyufkd0KwVMSIyJtLlYQO3IngTx7FcX18vQaFAysDubLTUu2MAiI6Hw6FGQlZ8h9p0ojRLfrSwuu04yEZrdf5tKSRRvfViuTbQCtIaRK7MExGz7ecOEY7ny3E4Dy+GbT1NyoLrsC+V7QmBkcQokF+3amc4Y5yH7/Ndm3KwKnFEhRYp4H6S1Re2XBHHyP6d+WAjseWeGD+cI9IEIApoMxClU03DNcGHsOe2a8HKFNvW2Kxj5s/q39vnSaqFtW618e07kyyltD8Qei3p1HamtDLakC1ty3AcJ1s1wTrGKbHRm20uBenxZAyN7EYi+LmNoBuP2xrbm+aQyEz6lCfuORahhcSJTC4vL3UTJycPUa1UKsnt7a2KuyCGxMZ/dXUlNzc38s0332i+uFQqyfv375fK9d68ebOUt6LxTbK9LRLPIAlsjLe3t9JoNDRaazabcn19rWWS5K6Rh67VagrDdrtd6ff78tVXXyk7PZPJyM3Njbx69erjQvpkFG5vb+Xs7GyJL0H0bY1Tq9XSqBtWb71el+vra3nz5s1SW+Xr62t59eqVGgbbJZEcOefh2jHS4/FYnxGphkajoV00y+WyGqNWq6UpIIwNvBLmgxx5v99XtIUSuk6no8gPn729vdVSSWr9kb9GrRByKCgGa2w0Gkm73daukZaLQsoE56darWpOnnJNuAN8zm42PEOik+vra+22iUOJaiK8CoiHIBuWv9FqtTRVBgnx9vZWLi4u1Ain02npdrtLBEmrhQGHAWfFVkjYPgKrSKOgXPAsQGfgfFCaCfJmU2GtVkuq1ao65McAPa/vIohzDk7Qdm0ykhoW9835PvgI6Zc40cnmT/tY/OTqqbGnLW2v19P8KdEbKlrz+VyVCcMwVH3ybDarCAIpgWKxqLAqgkgsFKB0yvaAijHUlpRkCXa2mYkVASKSxsFAUMl+l5y7bWQEImKjb9s3wnrAGAmuFxQFHkOhUFiqDbaKZVbohfNbNMOSr2ykbYVgVjWMsaI5pHw4rxUnsURKImTLbQBFIKXBObi/ZCMyG+1a0RPmiM+xxkhDUA6IfDbHwJGoVCqqHgnXAh4KhpYUCO2vrSCWjaB5PkmRHsoNk2iLnSuLzNjnZsu8iN7pykivErQ70M7gvaL6h3eI58d3WBc2z27VJfm8LfmzQlC2k+S6pYO7aOKUNAT2mDZSTPIPPn5G7uVhJdeufd8e422tY/Tv42Ycgjj3UlIMq+bJvjtWVp5xXwosKXK2q2fgv9QHsG8vlo2UUjJy4dT7E3GNRiPNPwOp8yDT6bTmRlkw9Xpd3r17p3XwdiOE/Ah0zUtPqmOxWGjDGkvaGwwG0mw2NQViN2UclHQ6rcTG0WikPSZsTp2oFaEkUhxsNEgaE8Wy2VHfD5RPGSgRrtXpr9Vq2sRqPp9rSZ5tsAP5bzQaKeERGNlq8nPMSqWifAZQkkqlovX53IdlXlvyHnl2IG4cOFj41POfn59rfhsHC+TACjLhMDKfNuVApM93EDBi3VABYXUEKD+EfGefl21JzfxZhATdgEqloj0PSC+wLplPdCmI/m1p29XVlSIBVFAgMU6qxJJHmZ/pdKrXCG+DVAc9SUAKWL8gAnyeKgfeIf6OI0NfC/tZNmJ0OliHJ7bTOQ7CCQa1DxnvpELic1eCpF/iA7C8gH2mItLptMKwRHxsWnShExGN9m5vb5fyvsDTtgWzLU1EDx/ngO8Cz9NU6MOHD1KpVDSyFPnY6yGZU/72229VtGgwGMiPf/xjub6+ltvbW82hN5tNyefz8v79eyVtWX0HjBWEs263u8RZuLy8lO+++07a7bZWJpyfn2sbawwXBEvIZrwQpVJJ3r17p+jLbDaTr776Sr7//nvpdrtqOEm5IOwDGdJWKWCIzs7O5ObmRp0fUj+UzmEQr66upNfryc3NjRrkWq0mnuep4A4tuXO5nNzd3S3xHxB+urm50bUHaRPEYbFYyMXFhYxGo6UmRPRG4LmxiVSrVbm+vl76fr1eV+OMg9FsNnX9g/ZgJGmYBU8ABxcnYzabyfn5udzc3Oh9QvqEXEtJL+cG0QI9WiwWqjdBp1JIikQ9NOqBrMr3zs/PpdVq6TOnKoJqGcv1odSWaGsymcjr16/VaUVgi/4TpF2o/OHa4MBQ6vj27Vt1HE6JhHCsHAQ3tksvrGoz/pxpr/Tn9gB2OWgtfHl5uQTrU6MPwYq8/sXFxZJUcRzH2oLYNtqg+yJlekRPRM78hGEovV5P3rx5o9979+6d1Go1laGN41j7O7x+/Vrz3vl8XisVbOdGlA6/+uorNSDD4VBLOjFeOAk2d9vr9eTu7k6q1apWbti2xvV6XY0X5zo/P9fnRtkmeWucrW+//VZqtZqiH9PpVHq9nhplEBNQDxwnHAgr6MRcY4gRJqJRFGWlPDt6QzCfkN96vZ7eD8JPQONnZ2eaAoJMCHlwNptJv98XEVEdB649CAI5OztTXglch2q1utRkCqQKfYfBYCBffvml/OY3v1HDH4ahNJtN6fV6WiliiaL9fl+RHdI7VlsBjgsObiaT0c6KOKcgHkEQyHg8VgeNNBVVD7a0VUS0VBEUxnbqTJIka7WaVs70ej1N51G+C6cDQ4/zQyllrVaTi4sLmU6n0ul0VMgKB52W6I1GQ5uvnZB/4JyDF2i/bJ8Sq43zHOOkUgzr1OnaHtu77myVvBY2d5tnJdfLBsdmWq1W9Xe2xIprBPGgsxzlgKQsgPKBQjGUbPhERBcXF6pBjywylRLkmC2sC1cAzXzIlxjXfD6vlQJEsFwryAHlN8gCwxmAcY5RsH0YSDcwd5APbZ7UQuR8n1QFkTTRO3wAIm2ukYjSMoExrhhdC4MTYQPl88N8A8uTC6fkEAeLigDuo9/vL1WtZDIZvUbWTzInDkqCk2JbZBeLRY2gmUMMfalUUrVL0BJ6UYB6WKidhmBcb5Ldb9MlturEQqDkt7lPjgESgLohMD5OmK2T/+6777T7Jg4FYkmUV5I2YO1OJhN1PHEEbIUEa8Y+w1KppPfAWiHNBtfnvlr0x2rVLbflvhwx/z6krbAKgrbtzZfOlWjisyrStIJsVnfjof102734OYK0Uxys++S/SSXcx+bZOQgbGuxVSMK+Fiu182/evNGNGGEbW3oIS7rdbi+RoTCW1PCzmVLB0G63lwhZ6Bxg4KzmPYYCeN06IuTqMQ6gD8Cp6PQT1fE78r5cK6WOyQ3GaulzTKtzz8aEAbFdCweDgW5gtiuZ7fLHZ+lBgTGljbMlJZJ/tyV7yY0Xw4fjYQmV9jx2U8fRwqmDI4EDY/PqtszOPm9LFIMXYh0syyPBQBPBWwEjOB04cjiU7XZb1TtpVU1+nYG0sRV1ymQy6oRatUgMju1mCeRveQmgImgXsInZv1tSKQhFUtXPzp0lSHJdzANIU1K+Go6KdQ5JLfB59DFs7xMQIsqAd9Hl7xCbePJ8jxHTHvvMIa7dttL+XEdyfnFYbQM0a7eeGxlKv8TJP4SnhcCMbVxjmaeUWRHZFQoFabfbS8xUNOGBpsnrNptN3WAp3YPshrHC2GezWbm5uVkqBYOIB7GOEsvr62sVvUHSeDweq/FGv3+xWEir1VK9ARYw14mRpeW0NW5IMBONT6dTVYLEyBLBNhoN6XQ6S+TAcrksg8FA+RyTyURevXqlokggC4gaoTFBJz/mDHTC8zyp1WrSarVU7Y/UDkJOOBz1el2Gw6F0Oh2NgvP5vLbwBoHgmPQawJG5uLiQdrutDsd8Ppfz83PpdrtLTiRdDpH4tZLGg8FgSd6aFrFEwfA0yKOz8YL6WCnWJKIGCpCstLDoAb/D+aGyBg4D5bv0VGBO6vW6lonaNAfODc/HKvrhBJBmwwmhesGWVZKiqNVqmipA1rnRaGgvDNADkJxut/uDrqQ4BTjZ1WpV2u22Igxuz9vP2Jfq30PG9FgM7SpHzbZAt7LzxzReJAdhXx0ck55foVCQ29tbjfxheiPQAjyLAUENj42JCNEyv0EHbJmgbRdq2+UChdMZETlmDDrRLSViNjImaiJqJJKnIoCcOWQy2z/ClpURtVGuaCN1jktEz3eAxLk++5KQjwZus9UI5XJ5CVUgFZN03Lh3S26zEs02BUWNP3wPjovDhL4E/A/WFvNJx0RecFAbK9wkIku9ImxUnCxLsoJaROc8L6Jh5ox1A0+FDnGgDzhr8GVwVmkuZbtxgkaQSqLNNsbeNvkCgbDdFq3zFgSB9kEAveIa6fpoU3KNRkOur6+XKhQsJG41EyziwxrmfaCFd7KUtFAoaCURmzLzTJWORbJOOe16StHzIY5rEcRjmJ9kKsaKxlmBtGMZLxbvsZvuvrwyYFxy2RZKhnSFXCwNcqzOPMQ+BH+IsEhTQAa0uW6IK5ybCArJWeBrjhnHsUasEMvoLHl3d7eEZDQaDd3o2SyBqGHcw3kgF849IcrUarVUoKZYLEq9XpdOp7Mk02s7LWL0IRDazo2pVEpb9nLdIh+7IF5fX2tpI7X+RJGw1THeCOlYJMZyPRDpmUwmCs9znvF4rNoWOBk0faLCgeifTpYYKIigGHe0I4bDoRp63/dVqtoqIXL/vV5PFTBtUyhSBhh/W7UAfwLDijS3bbtMW2mcOlIhaA2AOKDSaJ8R846x5pj1el0JhAg/wX+ggx3PvFar6b32ej0V7EL3ACIlDg1cBoi19rlDOAUtof8Cpas4J6SHrIok12WJoJvA+89hVFdxFOw1JfUQknvhY/uiq4zY/zO1kug2nbnNfO/zOb1oB8HyAO57uZ5y/NFopE1xMDZEfFYn30a3VmjJig4hUcyGbhsp2W56Nn/r+75uskC6COCADBDJk1og5WCJkURQlgxHaSVOipXPhe8A8YtrtPcPEmE7EUKqpFTQiuzgOHBsK4Nr+1mQq8MQ2I6W3AfXax010BuLYCBJnWzyQ/TJtdmGTknhIF50yv1wJGxuH8Njc/w8Q0vctIJQrJtkuS49KnCCcD6oFqGqpFQqafUCDH1KFEldFAoFrcBB4RCVQ6J5ShNxaDGuzKNtfGQ5AzhIFm2zrbXhSpAusQJHSEizBljbXId9v/k7ThprDYfblgjbNt7WCeZakop1STGhhwzxOshmsoPrKiO8ilvA3mHf2VVEtihBWkyKftnjPCQk99zEuFNCL7ZBuK1sOXvKJqh38tkk15NzEDZ8IPd1MHvqcWezmbx69Uomk4m0223p9XpK6uNB2qjGMvxFRJvwEF1jvBHxIRqdTqdSq9XUsEOQg2RlSWIfPnzQGn8+2+v1tL8DhoueDaAekLgw5Baqtj0aGN1uV0Wi2ID6/b6yyYHVbSWGJUHazd+KBUGks22Vgb9xODAilOKR2rHwOMROiJ7wBXDGqtWq3g+oAOgCA2OXy+WWOlVSXglXAoibGn2ucTQaKbqD04GSJMe3Spa2hTfPHZEnHBFSB6SnaHJkNdq5L3LxRPi2dwfnJ3XCOrBRJ2gB1RuWfArSZB0Zvktqx7bmRjAMzgXXZ9ULrXInz2M8HqvDgBy3fW5wYaiO4N2Al8J9gfrYdQ7fgUoG22viJRlHG526CoPnHTisdPk99vFZdHNMbny8LDZq2Gry0mktHyyVSnoeHAY2qVevXkmxWJRf/epXS8zvWq0mtVpNvvvuOy27Qpfg7du36gT0ej159eqV1Ot1+f777/UYpVJJKpWKfPjwQUlk9EFot9tas04EdXNzo47DdDqVH//4x9LpdOTDhw9qWL7++mtJpVLyzTffKCxOqgCxIZyHQqEg7969Uzg8jmN58+aN3N3dKflxNpvJ69evxfM8abfbahgos/vuu++0a2CxWJRKpSI3NzeKdsxmM/nRj34kHz580HMsFgv58ssv1eCQkmk2m9qJkuoQZKy///57ZbGnUim5uLiQDx8+KNnO9325vLyUbrerglZ0SSwUCirSRPkc/QsgZHqeJxcXF9Lv97XhlIjI1dWVtFotdVqiKJIvvvhCpYQtudP3fSVtspEgHGWJdWdnZ5r6ALm4urqSIAi07bN1YugjYds6Mw/07qAywnI1EHTqdDrqeJ2dnWnqAccHsutwONRqFrgdw+FQ1+vZ2ZmKLIE20QGUdBnljaAZ7969U4eD3w8GA0VegiCQN2/eyHw+l5ubG43KSElcX19rxQboGp0frTz49fW1ciMOXZGwz8G7eowyyLY805Z/3+fkPGWvPhYOAvdKms45CEf+8my78DCc3W5Xzs7ONAoloqKZTRRF0m63ZTgcysXFhUbW8/lcjTj160Th/X5f6vW69lxgM0WdjkhyNptpi2eEk1C9q1ar6rRgqBuNhqYkBoOBdDr0pFLdAAAgAElEQVQdmc/ncnl5qQ2HBoOBqgpiJBEmurq6UsKabep0dnambYFhnV9dXWlOn+j/8vJSdQzG47GMRiP54osv1OlA4pkctc2XY+j5HUqEr1+/VpQDwt3Z2ZkayeFwqJG8bVVMRI12A7/3PE8FjIig4TXAc8BRaDQaUigU1PgSjduOihBLQRJIIbFBWCTErhuuxzL6mXdIrDQdCoJAU1TwSfjMbDaTdrutRMFSqaQCX+Tq4V10u11Nl5GXJ1VQLBa1AgAxKdYgThtzAXyNwwFCxLGJ3knR4ETAA4AjMhwO1VHgd5PJRLkKoAo4wjS6os/JbDbT94XnyDNn3q1gF1UTzw1L79KIW1LuczsID/VNuc85YH+2qRWbqmXffeh8x+Ic4Lzajq9Hjz69VO7BqvTCKsjQ5j43RQ8sx4GyPmrkMdjk7m20Qs7z4uJCCVpAvrVaTWvacThsLTfnKhaLapAg7/m+ryVflGyxwSMLTNRly9LQOSiXy1qBwUuIUJKdJ2rw7+7upNlsKhRfLpel1+tpigQEAi4F7Hf78tr6flIfGARSM3d3dwotwyugBTa/I81gy/dg+dvWyKQc6IHBM8EoUqlAV0CiZBj9cCE4DpB7KpWSDx8+SLFY1JwgcsxE0xhFhI6sUBTogOWNUBoLN8O2B2ctQBSkNNN2aCQ1YUmw6CDw33AWSHNVKhXlC1iVQ7gkOAGsy0KhIHd3d1IoFNThgTjIHEIoBCEgnQYfgXcI4iPnQUUSJ4ZrsuWIVM9YLQvLS7C5d9QdebdQh7QtxlftEUnOAQ7QJimIdRok2ZxyFEXirfi7FaGynJhVvIkkcspzTPIo1tlTreDUfYbNluo9JAa16hi2nbt9B+zn7PdxSh8ysseIArG+Lc/pIX7BOte+z1LOz1u1IgHDbeoN9/t9ubq6WoJRYcVTroWsMs1qbEOdfr+v5Y1EiMPhUGVk2dxxCoCjganCMNQonQ2cHDi/J2eOEFI2m1V5Xit1SxmcLcMkj0ykaHPbRO2gA+TUYMNbcR2EmzguBhzIH+djMpnoZ9nUgOataBAbI6I9SeIV126vk/JTtAaIXIk+aJ1NJG676kGU5N5ZL5bcxjPEyPNyA7mzZmz/Au7bdoK0nyHiB5K0pbGWp4Ejiu4Az4PyVtukiXmwRhahIao+yP+DPNGAi+9SRsuaI8Vi+QW2cyLfwbG25bG2hJf1B6ICXwCnjfMw72yKOEW2BBXuBBGm5dOgnUGawvJAjgWCX8twy+M6CPY4VhPjueB1axSTHSqT3K3HDJ7lc/HfbrgUw96gn03SDUTDbCzkZDEyGKjJZKJQbRRF2hcAw9tsNqXVaqlhgLF/c3Mj5+fnMhqNZDgcKoxvlQ3J/QP3s0mUy+Wlqgdgahvp0eERfXuOU6lUVIwJjf5MJqN5Zlt+d3Z2JsPhUFGGXq+nCAbGiuPgKOE9p1IpaTabMhwOtSnUfD7XnD3sefLetpyUeUMMivng71SXkO7h+6R2aCDV7XaX6vdh1NNMCA6DlVHGyQDut6V/FxcX0u12tcKA3gqdTkeNHwbXltxZoqgVfqIqpdVq6docj8faVIprn06ncn5+ru3DSUmRnkqW9lkjgUNoN1vWIk4AHRxBRWw3RVJsk8lEkbD/n703jZEsr868T2wZ+77lUkt3m271y2LotputAYnxYDwgy6OR7EGMx8PYyBqPAMFoLGss/AVZGsm2jDTI9gcLWXyZL5bHMhpbMFho5jVD07SxGkO3+wWapiorM2Nf7o01IyLz/VD1O5y4FblUVWZWblcqVVVmxF3/9/8/5znPeR7GJgEd2h3hcFjLSwTPBBm0aBLwcO31el2Jr6A2kCYJlFKplHS7XfXkoJvEciAIrAh2eFdAohCyOltmTQdnmhZmf9gBgtca+6gzXsbxXpbIl9slgvBA0fq9TA6WcwBkS80f1j4TNPVmSg9EumRVdrK0bYWULbyBCxmY/Rz7oMZrRTeYhPmboMb29VsPBCunzKRO2YFWMuB7oEsWFCYiaw9N1mB1/Dk25w00b3/Os4HAZ9sE7X2ybGAySp4RCyIZIwsb3wWa5v4Ab1oEwLug2rZEfkZ7prVr5X5zfNutQObq9aawcKFFB7jPdLZ4e6g5R3s87h/jlPEEWkRgZd0trbcGmgTWYprx5rqu1Go1RaeQvm61Wlrrt1wXugxALsgSbenFvhs8A9uSSIDC+LJoF9fLc0BvxKIrBLKMb1uGsK2AZ7Wsuh+CYN/L01D+Pc5E77JT44IECPfTbsREeS+qaPczcJnoLdkK1jmWuQj9JBIJZbzbIAIlRiyYqdXW63XJ5XK6v1KppMxtFixQANd11cUum83KbDZTu2Iy2Wg0Kt1uV4rFogoTFYtF7UDguIVCQTNTAgOCgFu3bkkqldLFF3Y9JlSI1nA9uBomEgm1fmZBBnaGa5FIJBQ5WV9f1zZA9vHqq6/qeUQiEclkMiqUJHJbnplaMgZTBBC7u7vSaDSUI0FP/sbGxlw/fygUUlEjng2Iguu6WqtncUHgygYuGxsbWodH/vjWrVta+mC/7XZb75nlF1BysvuAhW/twWHrJxIJiUQiEo/H1RKaBY/FFk4HZSveC0o+sMf5GSUdi1bBs7DmUalUSomfoCrJZFLJjAgwJRIJdYOku4Z7zLhHiZF3CTJps9mUdDqtP4tGo7K1tSXJZFLft2QyKd1uV4MDy/NwHEey2eycTTT32AaYcB1sgLYo87XtmDYbXlQ39mbLXjj9uIIDW27zaidYTYRFOgj3QmI8DCfhPAciD7qmWaLlva6De/EUjiMwukQQ7nMDOmVBpDaKBK8VJWJhs0GLN9smc4MXQDQM452FzQr0oCMPIZCebmrYTAZ4MwC5su9QKKSTKjwDEdFzJbsDUgbStaiHFfghOyG4cBxH0RMyVxYva9pj+/zhMUDmZL8IHoG0hEKhORY/maNFDngGZBVWrtpyN6wPANkowYd3AmbxstdrnRnteVuSqJWItgqZZOf2PnIPLKLBGCC4ImunHm8NwjhfKxxFPZ7FMxaL6SJNFwSIAZk25R94G47jaCBHCYuAlncgHA5rCcXagvO8KacQnCCWZHUiGG/WAMsictadkK4W9oGbKkEM5Qz7bljPFAIU2lUXTcpnfbHyKideZtiX22WAcIJRKoEAGSu1aiBZatQssEzoSAhD1kO4JZfLzRkvUb8lcIAUt7S0JM1mUxeWcDisugLsE+nlQqGgi78Vk+n1emojzCQN0dEy4S1bHIIgxyGDgKPQ7Xa1DRQY2AYgLAJ2ERMR7a7g3Kml093AZ4HnMTGChc+CYsWT0IvgvodCIel0OmqIRUBBmcjaWFsnQ0iErusqKmP5C2gZ2H5uywex5069HUMvWy4giCRwoFxlbZeRziY4YXH3Eie5NvgZuIdaWB00yKIELKr2PKLRqKRSKQ2A7HsAlG8dGK1LpQ2gCGxspwWy09wbkAoULwl8bBBhUTu0Ebhey6mhcwMtC3gePA8CB1C0RcqGZ718avlJD5ODcD+ByaLz3U8F8jIAOtrtkqR4v5HVHVGbK1euSKvVkkKhoKQnFiT67fFOYFEja4tEIpJMJqVeryvTe3t7W0qlkqyvr0s6nVa2fy6Xk52dHXV3JCCAfEgmlM/nJRQKSbvdVjSDrOrmzZsqJjQej2VlZUUcx5F2u61yzsViUXw+n1QqFSUsAutTfiDrLhaLUqvV5oRsyuWydDoddV8UEc3cHMfRCYsMemtrS0sSw+FQCoWCGmCJ3BadunLlilQqFQ0o0GmgLx5vAqSEWRhYqJLJpLTb7bkaOy6Jto+fBR4BIqSLfT6fthZay2LHcZTDAEmx0WhoMEIffq1Wm0Mw8vm8BkzA+JRfIIXCTeDcLcMfcmi329XnWyqVtBxCSyHZfLfbVS0HeABk/WTkIFcERCBPjUZDAwNMnWq1mnbFTKdTyefzWlbjXoBC4RTK/SCopGQG9wDBJjot0F5AOIpxl06nxXEc5VRAZvS6TlIOqtVqEolEtCQEadcr4Vyv1+fq8+fJh8DC2Q8zQFjUjrwI3bAkw0XlC0um9eocnCbNg8sA4ZRm9rbutqh16SgGEcQ9zF7sBElWy/+BQamFomFQq9U0A0OPgLoxQkmW9IhOArD6ZDKRdrutHIRYLKbdD3gkkDGLiFy9elUXOIhjZKRk/ggyLS8vzzlBohFALbvb7SpcjzBQr9dT0ZpUKqXWwLR3oiFAMIJ4lCX80U3APlEcXFpaUr4D5zMYDCSbzSrqAMISj8cV5qZbJBwOKwze7Xa1K8I6L5LZQook6Nrd3dVFEvQDsR5Ic6g6chxIm0hNcz4sdnQW4A9A6Yf7C2LE/bCaEmTViURCbbhppeSzoBTWbhwona4UWzaC2IdAkm2rtGI1BFOgAQQtvFOQTHkPCEgIOghabfuuFQtDtMl1XW3BpQWY68G9lHeLc2W84b7Z7/elUCjIeDyWYrEo9XpduT7oOYB2wflB7fO4MuiDhHssIXP3EDXpw2TRloRtOVr2eCdR97fdJN7v3YuehNeefJGXxV7X9KCKjMeFQl+WGE5oA6oHhl5kXnIUimJMkp1OR/x+v2QyGVXWg/SGwBAcAWqo8BJoDyMDYvJiIrMQLvC99btH2pbjs89qtaoBCnLBrVZLM3ebQTMp40+AYBKTr9VySCQS0u/3NTCo1Wra6gkM3ev1FO2woiC2zQ60APlgu0jVajWFvDFUqlar6knAPsfjsQYxLFZMrBY9mE6nKjZEGSOfz2tWz2QBWY1OAct2p6QQDAYll8sp38PaMgeDQUVDrO1ztVqdI61FIhHp9/sqqW27KiirIBOMUJK1Ow4Gg5rV00qLWBEICRk0aoEIA7FYN5tNRQ5EROW8eWcYn9xjOh4sysS1k7ETjPJ3KBRSBIbzJOBCbwF0ympgUPYJh8NKMmTMUI6jnZF7haso7z+BDu2R3AdadUFoQERAtrhGS/LjHbRExfsNDqxo06EEcfYgPHq/4y13LpKWh1dj4fn9xIyOo5RwFN4DVqlzvyBrv/XhYZYgFj27o+C72MDoKK/vwnEQrGTng24wqMlcqI1aCVr7wGzLIuI3lBUIJIC6CUIspEZNl/O3UDR6+dRb7aChxMDPkEW2yoqYMYFUkOnZiYZaNkGOVUW0PchMuPyfjJnghqyUBRo+hBUgsrVGMnEmSu5xq9WaI+mRxc+p0d2pdTP5w7Gw6pMQ3qwLJfsBgeD5ECDBG7ATVjgc1gwJRMK2PvJMWRDxkRARRWqsRDOZOfuyCoGUA+BKAKnzzOlIsIsL9X4WC47D9RHI8fxBJdBCcF1XnyOaDByHsgpohg0yeGa0BFMuARWwzHqegQ1ILNcDbQ2CRM7RIkA8c2ShCT5pteQ4VvbW66Z5FkoMhxVKOi01+dNC2HyY53EYRc1LBOGcDFRqpSx4ZE/UsLe3t/XfTE4siAjOUJPlvGhbrNfrCsl1Oh1JJBKaeTBxYniEsA8Qey6XmyNJAtHDdSALLRaLSu4iyMhkMnMWx2RcxWJRxuOx/sGLgDp6IBCQRqMhpVJJg5LhcKglENv+iWQwLnpAwmSsViGx0+nI2tqakjIRmyoWizqhs3BnMhlJpVJzCwOtkvgasDCurq5qFonYUCaT0QXT2nlnMhlxHEcXNJu5sthiSsWChnfAysrKHFlvMBioSRflHlw90+m0mkIxTlZWVubUHblHlJgGg4F6CTDmuMd0JHS7XUUfQEEQ1+LaE4mEBiRk9el0Wrs9aFekpAakDw8GUiBtjiBXBAMEbcViUQMHUCJKIFwngRltt+FwWPr9viJfPEOMn6zTqbesw5jjHqP3gG4C0s1wdg4L4Z+SiexQGehpWZROw4L4sM/hLAUHFzJAOKoHw+JZKpW0Hk4rGLArbVh0Ilj5Wwv3sRiQcbJ/S/6jXAJpkc8TMLiuOwe9kVEzMVsXPzIyFi3q6nbgYq5DJmvbETkHuiks4kDwAnoCBM8xMWUCJaCu7EVgrHwzfecs3FY617bNWYlo7hvHt7LJQN4EJfTss6iiBMkfS8wEbidYIdPmeCA+ZLNwT7hOkAA7Fvic9WIYjUaK1FilTvs8FvlZcDz+RmOBY9t7wOeGw6HEYrE5/QPbUplMJufUO7leWzajVEQ5AxQLOWt7DlaO2iJAtq0XdCwYDGoAbTuBbJeEbYEFheN37NsiE4xt3k/rPcI9OktujocVSjqpRWmve7bIe+Ai1/3PQpAQPG8PymrAL9JXP6rjWuMQO/in06n2k5PNY71r28uAiBGTAQGAW4AIDjViFmsyT1q06CZgYut0OhqUoJuAWRDOdnYRYlKnbozoDLVfftZut6VQKKgi3c7OjrTbba2jc59h4bNAkL1B6hS53W0ACY19krlWq1XJ5XL6LMnu4AVwbvAfqN/7fD7lNED0i8fj0ul0tAxEGyo/hxxKEAFKABGUcoTP51PyHxn5bDbTLgDLqYhGo9oJYFtT7f1wHEeliRHTwu6Yrgl0CCAVkv3Dwl9aWtKygg26sDROJpNaFuDaKSXhFmpbFBuNhmpiWNIhugkQDWnjJJigZRakgMUd8SOuh3FOqyHkzlgsJo1G4y4yI5wIOjFsmyliX3SoNJtNNXiiZEdgSScQ4whNDQJmkCDeWe7BfpC0VxDpqOY/y3PY2dkRr1uTzT69gkyLatDWn8IKJ9l/H9UixTH2U2sk0fFyKk56QX6YQQJlQJKZRWJV9xpIeNe3o3TtPPcIwnH1/tqWL1TYmMzsAIhEIrK+vq6saxYba5hDbzaTV7Va1UkRqJ/FgxcM0h11b6BuXAdRIxS5zXbf3Nyccw9kMSbgsO2TXrc8rsmSPK3oEUgBgkwI1FhegpUIZr9WTtmbwVkhGyu0Q6bJAg4pkJfPut3xe3t/bNATi8UU2QCRIOOGeMcYopREgEQ2zf6wCuZ6ef4o90FYxVaZ4AZ+hHWv437C5rdiVnzfas4Hg0EtM1mWt9UwsE6YBIaUn9BIQDgLFGA0GqkK4mg0kk6no50BBD/wAFBHbLVac/wIOmZAPeAe8A6R5RMQMuZpu8RhlEUe7w8CAJA2HEAJjieTiT5fni3tx3SzEChA9rWdGg+dh3DICf60ZaEHnc9BJkx7qTwe1VrwsBEE0E87P1+WGB7yZoVrjnq/LCRMLlaEKBgMSrvdlmvXrkmj0dDzIDiAn+CFe9fW1jSTB4aPxWLSarWUgGXNf8gSLBMf2Nzv90u9XpfV1VUlDxIQLC8vS6vVkp2dHclkMgrX0nvO/uEhAIfbMgW959aCud1ua4BjvQSAyIGNmeSZDAKBwJyQjrWKpmzB4sB9Bu625QwEpqjRW/1+OAsrKyuKdlASsIsniyIBAOgO5QLrUcB1WVMogjoQJMoP3CObVVGW8WY5MPZtYNLr9aRcLs+VC8jUmYC5dmtjze+A/yEHEtQRsPGOcJ8JgggcILZCaIzFYvo9AgLrkUAQaa3CvQqQljRIoISeiA2Q6EywQRcdGwRNkBfpmOD5gmrQ7sm58FkIrgdZFl9uDxY87FdmsFyVe7E5PmsJK3O2tSi/LDE8jOjnzoCzEqpHOdhRKHRdVzKZjPISyHioiZbLZWm1WlKtVnUizOVyysRn0ED6SyaTqrIH2/3q1asSDAalUqlopok+favV0hePdr9OpyOu6+qCkEgk5Ic//OGcm+Pa2po0Gg3p9Xriuq66HIbDYXn11Ve1d5/ySKfT0bbKyWQiqVRKGo3G3OJWLBbFcRz1P+j1elIoFGQymajNMmTIUCgk1WpVSW0s7GTYZMilUklardac66UVX4Lglkwmxe/3S6VS0cUjFotJKpVSpIcgh4XRWlQXCgVpt9tK6kOoyEL4BC8IXNHmSYtpu93WQGV7e1t/Rla9vb0ty8vLc8ENCxhIgNUUyGQy0mg0dMGaTqfqBmp5AvhMUJaAeIhYEQGbdU60GgIEu5YkCHeE7xLE0dqby+W0dICuBpocZEq4l5IVplIpJRwyjgjcWq2WBiaJREKVQi1PA/dT0I/d3V0pFovS6/U0ELIoAQJXBHWU4Wxgnk6n9VlyP05jzfo8BAj7zcX3Wq45q8+G94t238sAwVO3O0rIf6+aDRnNInGOowo+EGwZjUZqwMMEDqy7u7urGTVlASZIggHLCQDipt7Noslin8/nNeO0YjC8XN1uVw2iKA10Oh3Z3t5W8SXrpmd9Afr9vmb2KysrCn8z8SJeFA6Hpdfric/nk3w+P9deB8yLVTXBwXg8VuMc6tdkvpYgh8RuOp2WXq+nKAJqgZZE5ziOrKysKIzM/SsUChqIobrHcbgmUIJsNqskRISjbN0cYR60IQgM4X6QCVBHR0AJpAENhVwuJ4PBQLN3MleLJGAFzdiCq4B3BSgNyBALK0EbJRLKSlbFk44G2hTJ4hlTkDUtMRKFRNoAp9OpxONxLX/Y9kvrqgg3wZYMCI5YCBBjspoS6XRazxPECCEuiL3W8ZNnZ+XCCXT4LKgOnRuIXnnJmyAwBGaL6roPAlFb7s+i7Ne7X5+IeJWSFvEO+LdFPhbV3L3HPg42/UH350xZaZ9AyZsggX/zzizivBxU7j6u7gj/w7pJJ7Xv47RxtX3Y6XRaSqWSEg7RCUin09Jut7XuymLTbrd10SGSZLHZ2NiQXC6nRDcgYwhwdgEgGEIZjtIFwQjytOvr67oQk5neuHFDMpmM1nvJLJmALasesSfq3KAZdsL2+Xxy69YtKZfL2gZnOzm8sBokNduJwCIPvB2LxeTmzZsaHECAdBxH5YW5r5YNDyKRzWal1WqpnC9kTHgeXC8ZaTab1eu0bYDWHpu6uPUG4Dy570D2HAe4OxKJqH8GKoHcO7Ju0JN4PK5ZNRA5pSaCCFpErXUxizFlEhwjUYBEWRI5ZAJZ1CPpIIAfkEgkFKGifkrJiYAAHgbKhJRdKJHwGWSxreS2RUx4RrQGI3+9tLQkmUxG1tfX54JS7gvP0F433USMMcaxJeshTAYh1ktkWxQoPMxa/pxg0j3OhydVNrkszdx7uQFNmdMWRPnP401nsjtIcetBtp2dHcnlclKpVJQRzmREfZiFDzTAmtlwrrabgO/QdUA2zmQIqYvPWYMfBHDIVqwglJ18gY1Z1GgLs0GBzUhQ+LPOlCyM1J9tWx9lBbJ+AgOY5Uzc1NW9bF72zTNEEtnyBQjO0Dvg3tHVYdn9ZNyUETgmLHZgZfaB3THwMwJA1kGQbJZ9sG/kkNFFEJG7jsM9tYEMkDzPkmOCfFklQktmJViks4LgKRQKKcGR58diTqcG32dRh/zHM6PMlUqlFCWIx+PSaDT0GLQlQlLENXE0Gul4tI6XZEwEKyAZIA22xZZxYTkakBEZs1b6GUTMmyXzflnimxW5gkBreS4Pqpp4r4jqcR7L1vVPQ8n3crt7Y644LnLmZYCw4KU7iSgZkhcMcCZy4GMm0Fwup4REyGcWvgViZnCk0+m7Pk8pw7bV0b/N5Aq5K5FIKOxKHXhtbU2Ji6jKUcsmgqWOz0LIcfg9iy/6+ZlMZk4oyXVdKZfLMhgMdDJg8SBI4VrxQWDh4jhWiIcgCaSArI97ymLOJEgZh4yTOjvESe4drpFWrwHEA3iaAJNFzh6HMhLIAotaoVDQVkvuHZ9jzNjWPyZt2xlig1u4KlailuyffXFuVtOCoAPlSyuSBApg9STI5LlWAhwLhxJY2oUbIitdD7ZkRGABEgHPhXIH5Swswcn6rWdDNpu9i/RJ6QmSIsqj1mYdVIjSEagVKJzVD+n3+1IsFueCxJOYP04iOPCWGR52dm9VUi+3+aDJS1K+cByERRyBoywn7BchH8dNRyv++vXr0mg0VE2ORQliGVAx8rPAv+gUNBoNzVjQ4CfLrdfrWncuFov6eSZxmOW4MVoTHAacXbwh2nGeEMEgFA6HQ9XZt4QxPCJ6vZ7UajWtfQ8GAzXascgDxDnbleG6rjSbTa0v53I5CQQCsrW1pUGJz+eTTCajpQsUKlmMarWaLoL4XjSbTX0m+XxeeQd0c9Df3m63dcGyZYB6va5QNBwJ1PcGg4Gsrq7K9va2VKtVDfrwZdja2lJOh23ZbDabcwu+z+eTarWqCxqtpaAb8DP8fr9Uq1XVr4BQCJmSfYL0EAxNp1NVe6TToNVqqYgXCBcaAqgXWqdPgjmOPZ1O1XsjFotpIFgoFOZkmtno9MBRk0W/3+9rzR8iLGOdcgZIiRUR43c8N8YhYmI8t+FwKKVSSabTqbTbbQ284G1AOAXNIThmsSIwwWX1sAvYovnrqPT09d8HHM93yJKtbS++nz77o9q43wcFMBeBGGqvG16U9QJhTbCoy35B3nHds+BpCgru5yL3Mr+wMOMi85Kj4B8gfmN1/8lEgbjH47FOPtjNoroYCASkWCxq3b3X66mbIv3nZEBI4yIiNJlMxHEctT5mAq3VaspRgHOAPn4mk9FsbDgcSr1el3Q6rcTHWCymboxIJhMINBoNrf3S3jgej5WQyQKDMVI0GlUpZRZMjgOHYGdnR5aXl3UC63a70u12JZVKadCBXLXf75d8Pq+TPcRJ3CCRpA4EArogsrhCiqPjgH3ivDibTiS8FJJ6rSqRcERCfr8EA37ZCfjktf/vlTvPNCHT/m10obN1S8bb25KIx8XpO+Lz+5RRf7v0Ehd/ICDuaCSVO5NiKp2RHdmRSDgqnXZLRHySTqfE77/Naei5ruzeuR7GkR07cCiYOOhUYDxjUETZiUBmMBhIvV7XskY2m1VyKwgTAQCBCKgOfAdaVeGIwC2AOwESgOYEpbNmsyn5fF6DYjphCOYozyCpzfOl82J7e1tSqZSEQiHlMkDCzWazOqHS+UGAR2lpd3dXO1sIHOlwAE0hcObdsI6He0HzXr8Gb0niQecx/f4hUIaDSiIghl7i5b3OwQd9dxFB8jD3YT9C3mlyXjzqwMC6atpAgHfSeoUcVJqxpeSjDi98qJIAACAASURBVPjORZvjw1LlYiKiFk90bGur1HhZxOn1h4GPYyHwrFWV8/aqQ2pED4DsEOh0NBrJ8vKybG5uqkKgyO3ug0qlohk2ioxbW1uyvLyssrxWnIYSA/VusngIYdlsViqVipTLZS0jQL68cuWKMsYtGY8XAaY6pRFQgnQ6LRsbG3L9+vU5W2DunzVrouWNCZISCTVo6tzxeFyq1ept+N91RXZ3ZNzvy0v/+B1ZWy5Kq1qX9v0On/qDWQMn79T4oiGR7R2ReDolmTsKlj6fX5ZicRnPdiQejch0MpHdO5k6gR2ZP4FiOp3WYIGg0JIKMVWi7GJlqCm70HWBhkQymVSkgg4G20XBMRinjHsr8MWCTOnGmiKBuHlbC1G7LBQKSixE34OFnBbLWq02VyaAs2L9S2hN7Xa7OvYIILa2ttRKnPtxHEnFkc97cm88Bq+C4mnXeriIXQ/WXM+rj7IfCnSuSgxnPThg8NKTff36dZ0UmVyodaLSZmV4aXerVCoKj0ajUanX67ogt1otyWazSpwDioZgRv272WxqX30sFpNbt27p7yEI4g+BMU0wGNTJt9VqaZYHD4CShvV+sJbPcCsgvaEKhrrg5uamrK6u6mAnq6TWbR0jmcTt9VFDJnCgBZJWPyBs+vtZmCB1Uufe3t4W1+mKU6/K1//pn6QvInbKebVSf6hj173zd/cOqt1qObLecu763D9+9yXJiEiukJZ4OifJYlknd+SEkZ4mmEulUrKxsSErKyt6b1HUtBbKlEr4rl3YrYGVRQvgIfA84T/Y1k1q+47jKNJBRw0ojnehBh3w+/1KpoRTwzgCPSNYIehwHEdbhukschxHSyLob/B7eBMIafGZM2HS9OMI4VBGTfzurAUIF3GzHCC6lEAFH8a4PNMBwsN8mYFQi8WiwuL8HHtjFq21tTXZ3NxU2JNsBlEfgotwOCypVEo6nY7MZjMtF1iXw1arpZMiPeKbm5tz9W0RUd157lO5XJbNzU0NNqbTqRIKm82mcghQ+dva2tLBGo/HVRgIb4LZbCarq6uyvr6u8Dp+D47jyK1bt/T7+XxeIWxEdnBz3NjYUPRlZ2dH90lwM5vN5Pr161KpVNTXAFfA8XgsjuOofgHlhmq1KsFAQBqVLdmsN87FxNERkU6jK9Loirz6muRE5M3vebck0hlVG7RQI7bfKA1CCCXAs0JFfNd2ZoDC0JFAAAiM3+v1VO0zFApJqVSSSqUypzJJp4KVwramUizMdCfAkeFdgOfT6/UUlSsWi9JsNueMn9DcAEnBl8Hn88nW1pZyTFKplAYTBM0QQe17eNC8chpRhcPOhZYpfxkcnM41DbQNHo/X9+Mku0FOLEAgM7Euaw8C7+/1QsDqhwPghWaO6uXGsyAcDstkMtE6KMqD1P2YuNAeAEHgHmCZ6/P5pNFo6KRK7zma+AQXmUxGyVmTyUR6vZ4iACIitVpNEomEiiXNZjPpdDrS6/VURMjn80m9XlfBnmw2q7A0x8vlcjqx9vt9zUDJ8Or1ugwGA4nFYnPkPtrRSqWSLgQsFqgfUuZwXVd5CeFwWCqVilr1YutLC57f79cJHiOgwWCgyn1kpdPpVOLRiAQCQWmek+Bg0dYSka//v38n73nf+3TxYyEXEQ3M2u22dr9Qax8MBnNIAVwRLJEphYXDYdUiICClxARKAx8FiWcQIcbMbDbTcgbZO+UMxvlgMJB2u63vAiqRcBRQGEUl0ufzSS6XU7IkwUI8HpdUKqVtkNPpVIrFos4DKIFGIhHluHS7Xen3+2oFjey0NTqyC/Aig6RFc5G3Hkxpxfq0LFoc+MwdgOCu39t24EWSxHzf+pvY0hx8kv3m0MMgtZfBxYOtgzwf7zjgmVlpckpy9t9eBGiRMeFRbGeqzdEyPB92fQpiFUFBKpWScrksmUxGIU506OEI8FLGYjEl/9HKSLCADwJwr1XJgxOAAQ81V7Jv6s0I6nAOwLeo121vb2srJdwAq4sA/AxBEgIc0r27u7tSKBRURhe4OZ1Oa/cD2Z0VsqGOzPkizsT/EZVKp9MK+abTaWk0GnPCTzDiqcETdY9GI2k1m/LCt/5BvvnNb8r4nE822WhIqlubcwZTcDysABL3HpKsXSBAeeziRLmBrggblFOusFyCQCCg5FTbdUK93xp/0QZq/RqsmBYBst0PdViMqmgdhffAWGBypbPEantQDoGXYoWhXNeda388U2WGQyRTlwv72Q4oeCeYV4/DnfhcBAg2kj9O16/DbMCd1WpVmeHA71boBbiTOhIQKn9YRK0ePj9nwqL3HbjJ+tpb1Ubsce3vvUqS9t4RXFgYmOCASZ3BCexshYJspmcDtr1sZW0GZkWS4A7s7OwotwL+AoZO9jPsk4XPRtO1+m1ewUWgN1WGE/nH774k29vb0m63tVOGMddutyUajaoEMV0EEFJpk4UngAooCytE0UXQpn2+lA68mTP6AzwzUCiCFxs8IOwE4gZZl8/a49sAx54b52pruNbdkXcFdGGvBfNUuDkeYYBwyTc4+wGebXP2zqfHOUbPFAfBKvadBlUuBHkgGZIJ0YFgF2uydCbeQCAguVxO4VG/3y+u6yrXgEmw1WqpOAyZlLX+ZYEGwqWzgeOLiHQ6HSkWi1oS2NnZEdd1lSkOtAthC2iY86QMgdoeddxyuaxs8Z2dHWm32/o5MkSRH9eyLSeCzgayV8ox5XJZyWoiouUO6uMECixsTPwEWsdhzHUWkDUWdRZMFkcQKgIqOmAINJHo5h7aroZcLqclHwu1g9ZYxcd8Pq/KljgvUvYgCKUkNJ1OpdPpqFw1bo1wJOiIoeSF9DTCU61WSzt66N7o9XpzJEVr5U1wy/chw1LmQvDLqo2eFxThMkA4+xtcGVqFH7Sl9lQiCDbiOexApVaz6IYxGR70Qi8SmjiKDbgUExgWaQR6gDO73a5mS8PhUHq9nvT7fZ2cqZcCvbKY9vt9/ax12uv3+9rCJiJaN6WeCszb7/dVyIjJodPpyGAwUFU7esyHw6H2sqPR32w2ZTweKyoC1NvtdrWOTF273+9ruYX2ShAVhHai0agS25iwWeRt+x0qkMPhUAaDwZx6XrfbVQ0JWkuZ+CljAIlfpM25wx3gXeFep1IpcV1XhYkoE6FKGYvF1CiJkgLcFkiOBBKMO5AsbMDtuwdZFJ0GFnZQLMpmPNNYLKbBKeUI9kVwg8Io73o6nVYBrl6vp90OjOPRaKTnQZkDYy+CY+Sg+/2+fhcyJEGtzd6888xeyOZh5hgrkOP9sxevYNGxdnZ2ZLYzu0urwSKr3Dcv8rJXJ8O9zI+Lzv9e5/eLuNm220X326LL1oiL50bpldLZcZeNTjWCYG8SzHlq4sDNBw3ug1zTHuTcLBzLhEQGzWQGGarZbEoqlVKBFsdxpFqtzgnBdLtd6XQ6kkgkdHJm4qY9kZavyWQio9FI1Q/pHUcVETIjojP9fl/W1tbmbKE3NjYkHA6rsBDIwGw2k+XlZSVUDQYDqdVqks1mddLf3d2VRqOh/fjBYFBc15VaraYBASY5zWZTQqGQ6hZwTq1WS8mQ1NpowyPQCYVCsr6+roJM3Ndms6mukUz83I+LtsXicVlaWpKtra056e9cLietVku63a7U63WVt55Op1KpVNSsKRKJqOYBzyIUCkmj0dBgFw4IAQftpfAeBoOBEk7hvRDIoc6IMiKtut4JEOIu3B3XdfUaOVeUN+EcxONxRRoYXzYYLxaLKhpl3w3KI81mU1zXlVKppIjdg5Q/7+d393/Aw+33pFGEywDhCB/xgoAL8i7v33GiCKeag+CNpoEvyTbvtcxwlAOXVqxGo6HdDPAIkKmlI4DsyZLBgI34tyXpcZ0shigJMqlGIhEllOGYyP6xtyW73t3dlWw2K51OR88HRAMWOTV+iI9cCwsNgQaCTrSGIYLDJE+mb1X3iHat0ZJl6FquRDweV60GSglcF66KnJfP55NSqaTnSlZ7HNbepx5BuNPqmcvlJJlMarsnpZ5kMinLy8taGiCwQgSJ8o6t9xM0sDCL/NiS1svEDoVCcy2PjHfMoiizWQlpsniQK/QK6MxxXVe7W2jvpYSHQqTV56C9l3IJwmMQKq3/Bu/bzs6OZDIZNRejhHeetssSw/ncQNYo217IAMELm7H4euUnF70AJ0E08nZUsFjBJ6CXm4mNAMHrOMmi7DiO1mjZrKkS33ddV1EKWrTgJNTrdYnFYhpAIZTEBIrfA9oF+A7APbDoDP3sCN3QKkkmiDy0VZWMx+O6kFDXptYrIkogY5FnwaEsYiFwFiyLHnGvd3Z2tC10NpvpQnARN2r5IDm02sIvIahGKdN2hNDqyPMnOB0Oh8qlsaRQAl6eK8gP4ksEgEiRWxMlSlh8n3fAvkf2fbVurEyEqMstLS0pqkZgCT+JcUxnBZyEZrOpZQveDZRDad08j9tlgHC+Nt4FODbH+VxPdEY9rDa3ZUKziFqlQtu+tEj04yQ83Fk88/m89v67rivtdlvd+obDofZZU0oYDAYqoZzJZJSj0G63dWJHxQ4yFxa3wOjwB+J3oOV6va7mTgQlg8FAgxJau+r1utbr0b5Hong0GmmdluyPOrPP59PrhBfguq4Ui0UVhMJDAkSDzziOI6lUSjkMXH84HJZsNiutVkv3wX3qdrta9+52u3LlyhUZDAZ6TRDLQDy2t7fnWjsvHIJwp84O9yMcDmt9vd/v62JIDzwOn3ANcBeF+wH3BP0CNCcIEJH1xl6btlvgevQJaEcEIYJAi7w4JY9kMqnwP+U2kC2eK14J0WhUXNdVoi3203T7cF4YdTWbTVUcRXIaDhB/UDHFt2MvI6a95qmDeAl2kb7Hpf2OFoJv7s+uLNZI2K/+b4OxRcnUeWrtPI9lBi9XxWpqHGeQEDzJi7RM6MMEEbatg+zZkjus97v3RSArPa6BDzRONguCAAQPLM/iDrQJEoKuPO58ZO6QULgmel9hkvM3x6cbwNaSbcZlBVNoMQuFQgr3zmYzJakB4dPyRiBElhgIBLTuRc86z4dr4n4gbASBk2eXSqWUeAmETXkAfgVkNRAD9P5hw6OhwPnDWL+I5QURkWqtJm956ikdTzzHdDp9Z+Fzxe/3KSxJZwLPlmCXcgNjmXFMp4HXSIexyFhOJBKKoqHiaE2CrGU4wb4tsdn2RUodHBPEgVIH4xiODyUMullslwbnCrLANdp5A2SNe+edhxaRofeaWxZ91qtgeBgdl13xiYhfdsU39+d2Xnfn53ss7t6EiWdpg4i9UNeHgTRcVFfH+0ms7T1irrWt6mcyQLgnWMOjb8BieFC9xYq5HHeJAaJWvV5XmWW/3y+ZTEZ/BrQKmxpbXn4OLErQQBYGGRDp5M3NTclkMjrxpdNpqVarIiJzBEPOAedGK8xUrValWCxqmYbFA8dHdPSBgVmMYZiDGBB8JJNJqdVqsrKyovec86ftEWdLbKt5huj2W8VGjr++vi6PPPKIEtcikYhUq1V1sSRIqlQqWjahrx9p6osKO9I90Ov15MUXXzzU95588klZXl5RXxDa/zBBikajKrAFcXA4HCosT0DabrdleXlZuxZAtjDZCgaDc2UGK+BEiyKBKe8HPiaWrT0ej6VYLCqPhufO+0Yg02q1FJEgkAXVyuVyWnYBPcjn83PZ9VnNqr2Bwb0qJj6s+d4bMC1CRO6n2+IibLToHtax80wHCAxqggEgzHupL59EBIwyXbPZVAY0pD40AFjkOXcU5JhsmRyBcmOxmLTb7buiwVAopJ8HrkWoyUq4ooIYDocVkWDQYHRE1kbQsrKyIiKi50RbGBMLGRmcB1AdrgsRJZAE9glqYDUPEonEnGKjdcAkiyRgsWJL3Ev2BVMddj0ERn5GG+VF2l566SW5cePGPX/vlVdekVdeeUV8Pp+8//3v18zcm6XwTjLW+AylIysBa1UzCRbQsaDkgRspnJq1tTUtGdCymM1mZWlpSZrN5hw8vrS0JNVqVT0mCFoJfm1wO51OFT3A4dNKDlvXUi+h7yzD7lyDV2b+tPEQbLveQfO4V/Ttcpu/N8ehLuw/rYNbRJRMZPXJT8tGW9mVK1ek0WholgRz205EtpWLzIdaaTwe1y4Fx3G0FkymjTgR/g1MsplMRjqdjkKpsLCRyiUjp2c8HA5Lr9fTl7Jarcqjjz4q9XpdF15Mf7ySs7TAgXaQoVHjhfjluq5cv35dNjc3dfK1rHVcHWlF5Od0K6DHjx7+9va2NJtNKZfLaj7FdYJ2UEPnJbmIwYGI3Fdw4M3YvvSlL6nxF3wQSnvWLtoqXYqIDAYD9UAgwHAcR8c5hFRKYozTaDSqbbbU/zOZjGQyGSmVSvqsU6mUlEolyWazEo1GteW2UCioYRnjCLIr10Cwwf/D4bBqZsBxSCQSajt9ELx7VgIDb8a9V/ngYV7fYUstl8HBwUEWSd5RBwnBkx4Q3qjcDmKyDy7WDuBFCMJeJin2ZbBoxFHWtba3t2V5eVkzG8dx9Oe5XE7G47HU63WdEIHDESAiowmHw9rCxUIdDAal2Wxqnb5YLIrrutpxMBqNJJ/PazkDvwdIi+12W4mK3FOOw31lMk2lUlKv1xWCzeVyqtsAGQ2pXlowGZQgC+12W19i2OXoIbRaLVlbW9Oec4SQcrmcBAIBqdfrEo/H1YOCbg4kgQkwsMDmmMDheD8MBgMlslG/vtzufXvhhRfURIv7yViwUsm1Wk3i8biiVDw3kR8rjCIERmBKiQ3yKdAyZSh4AIiC0bGQTqe1DAZaRJstgQZtk4wZUDcQCXwlCCDohrIaCfBqLPl5UW33Xo2b7Hf240XtJZrkdfPzHncvwTj+DQpIq7EVS/LKoR82aDiKxfpe5uLz1KG03zi4n/tquQjnpsTgffG87mPeVsaTGoj3cv6dTkdr/bFYTCHN8XisrV8QuLrdroRCISkUCjoRNZtNCQaDKqhEXzc1fjwWGEiFQkFJeTDIy+Wy8g5QJczlclpqqN/xJvD5fHM8Btjqw+FQcrmcRCIRzfIJSjB/ajQaEggEtHMCZ73d3V1d6AmOWCBwY7x27Zo0Gg2ZzWZSKpXUZpp9FgoFCQQCEovFZDQaqRkPx0EUqtfrydramtaNYcsXi0VVcLQqjZfb3du1a9ek2WyKiEi/39+37PDOd75TkZl0Oq0qla7rqolWPB5XLYNeryfpdFpLb3QaUB5CNdNxHHWGJBiAtGoNp0RkTlYd4iM6GzhUUoKCJGv1MGazmeTzeeVUEHQi52ydKIvFogYNJ2mGcxRz234LDQisyI81Kk7Lhlvt5XZ6t4caltl6n+15Pozc6MPeWJwqlYpkMhn1PQDyhjNAzza1c6s3kM1mpVarabaPKBGTMBPexsaGpFIphXdhihcKBe06iEajkkgk5rIHetGRLabOj8BSs9nUQKDb7crS0pJCrrTNUWcGHaBTIBKJSK1Wm+MrRKNR2draUgtm66SXTCY1s6NDwdt+Zy1+yeQgJK6urspoNNIJD7IZEDZ1zEsC0/yWTqXkZ37mZ+Tnfu7n5I1vfKO8613vkscee0w++MEPyhte//o9v/f1r39dg0C6U3hXrWSzRafgkyB6tb6+roqedBQwjkDCGCPRaFRhf5/Pp4qNiB4h8IUvCB4mSCfT7QN6wTsBMdZ2AllTJwi8cBe83QtnJSO1pD4vj4Ig6jhIbA86h15ulwHCwg1I3ZKabHBw2utNMKrJomynBYueLZ3woiJGY2v7IAW2TguaQPZjvwdBkFY/SGBWp5sJArgWNji/p3SAYBKyyED0LOBM+FbMhgkfvgKTOnoLtt0QsiJkU+vkSMBjOzAs34SABEte2rWm06kaTXknvdCdxexyE/npn/ppedNP/qQ+S2smNplM5Pojj8gH/sW/2PP7N2/e1Odv4WzaSukYYIzCNYBMi5Ih74MdC14CHYqMaHIwL1hiI63CECKn06kMBgMRue0GieMdwYDlAdG1wBjC4ApEzs47i2r3pzkwsP/3BghclxcZOQ3z5+V2+rcTKzHYBZOsBMEcXn4LizEx3Q/0z0Jp623exfooSgxLS0s6WSI6Q512e3tbF0X8FVAjpHcbGWSseplg0+m0NBoN9XVIJpNausB0KZlMKpEPOBV9g1arpfsTEXXGQ1CGDI3zAMaHbIZ5FAEGcsocdzweq7wtxjh0dKCHjwQ1JDPEczCXQgXPXruISC6XU1Eb6s3ZbFbr2yK3HR5xp+Qe4xS4XC7L+vr6hX+x3/GOdygCZcWSfD6fSm+nUikZjUbytre9TZ5//vm79lGpVOQNb3iDdDodVUVkIYaMC/wPHyYSiegCkEqllGRLQJ1MJtVEDMQK5AyVR96tTqej4wd4fDgcqq8JaBolPLuwg0h1Oh0teVj9epAq1DsxiyKIXSQk9CAEsMMEHos6Dbx8Ki+Piw6OvZIqnjutnnsZNd1PcLJXwHK5+B8cGO117++H/wH/wKK5R/UMTixA8JYQ0PEXuS0Ve9QklOMW2vD5fNJoNOTxxx+XTqcjoVBIfRPIfizx0Io7EdmTUZHR+Hw+7WyADIiU7M2bN6VQKCjaEIvFlLRIsAWLFdJiNBpVZUfuMZ+hzLCxsaEIgrXvJauycK0VuCGTQ6wGZriIqAkTC5MVWhoMBiqiw/0ALYC1jngUJQ5aM0FAOEfspckgKTdc9O3pp5+ey5CtTLVtP7X23k888YR873vfu2tf6+vrcu3aNR3z9FxTvgItIniF2Go7WOykCFLgXXBt+YifE9zAfYhEIhKNRqXb7Uo+n9djxGIxee211+TJJ5/UYxM8owpKYMA4oyQBidmqtZ646dIDHGsRguCdd08r+hGJRJQIex6CChIrx3FOjOh5bhAEr92zVTs7i3Vjsibr0kgdk+wIMtRsNpNarSaRSEQzfxbGWq0m5XJZX5hAICAbGxtSKBRUu6DVailRjJovLHLreogcbqlUUtg2EokohwGFQibQ9fV1yeVyqpqXTqel1WqpNwMvMgTIYrE4Z7rEtXOcYDAo1WpV8vm8dmhMJhMlh0EypPWy0+nMCS2RCWaz2bleetAUMiAruANKwX3fq6f6Im2FQkHRKhFRIq2IqAU5BmMiogjRou173/ue/MRP/ITqD7Tbbe1GQGug2WzKbDbT94CSWKfTkXg8rgv/bDZTrkI6ndaSGvwXi6LBocGtEX8RvEngL4A8FItFaTab+j4QMOOwCgIHgsfCyTXFYjENMs/atldnmDdbPS0Lkt/vl+Xl5XMnjQ6Cm8vlpFKpnAtn2RMLL62QA5knRDSbNZyllxICFfa11D5psRL5sTWnXcj5Pgsziy6lERZX6vyY8NhWKT4HGkEbk0UeUB2kg4G2MCvcBHRrSUzWIZHMCiY6+yAj5ThcGwgGXAE6POA4cI5LS0sK6TKJoeBIIOOFLBkn8CSwNqYUQgZ7kbe3vOUtOraAlxGzshA3z5ZFcr8gHQib8cgzAPliPzx3C3VScmAMidyWNYYHw1jgMxZJw2iq1+upZwddEvy/1WrJ9va2HhvVT/g9oFciouPFturyPdxNz1qy4m1vXBQUnDZHx/MYHHjfl5WVFR3XlwHCPd48InzbwrRosB8VcnEs0EswqBKtEOjQmicwYHHEUIgaKteM2xwiQMC+qMwB4ZJpUR4AOiUzZ0IF2mLBpBUTLgM6A5AbOTaZ1mAwkEAgoDbBLPJM5JSFyNow1GFSRxWS3nPrVknrJ6Qyq8Ro3QFBHSgrUCqhrXFnZ0eJi/1+X0WluC8XvcQAWoC5VyAQUC8LnoH1BxER6Xa7EovF5PHHH1+4T8Y0gQZupRyHsQ/hlZ8z1ngf6Oix4lhwd9g38wBlDNBGC0UTHNJ2axUUs9msomW2nIYQGWRKkdu8KIzP9uqe2s+IaVHHw16f38tMbr9jHdRuaTlVe+3f8hYWGdud9IY89nnf/H6/5PP5A4O7yxKDuWHU370iSA9yww4SmrA1uKMkb1hRIMdxpFqtKiqSy+WUyIXaIQIzqP/1+32JxWKSSqVka2tLF8hgMCiZTEZu3Lihk/xkMpFisagtXf1+Xx5//HFpt9vSaDQ0i8cZ7+bNm8oBAPpH7IYJmRbJ7e1t7Qbo9/uqVYD/A1bREArJNrlOghsWgeXlZZlOp1Kv15VVXi6XVTuBBSedTkskEpGbN29KMpmcE2qq1WraajkYDOR1r3udrK+vq8PkbDaTlZUVDXRqtZqS4s4iRHxUW+IOHG8JwNTsd3d3lewXCoVkc3NThbUmk4mUSiV57bXXFu63UqlINptV10c7DnmvA4GAVCoVicViKnedzWal0WhoJw2iR/1+X3USEEqaTqfSbrf1HaIEgroo6pmQYlOplKJvlLsymYwGJt5SH+6SBAWcIwnLrVu3JBaL3UWm9ooOLQoMvDbV+82B+4kRLdr/IuVDb7eXd16zP/d2UdmgYa9j3k+idVjBHzhDx7X97u/+roTDYfnN3/xN/Vm73ZbPf/7z0u/35aMf/aisra2dyPsYjUbv4sIdxRp0FOJKpy5AgAyE1fFBxkunfaM0QgZbLBZFRKTX62l2hXAMAQGEvlQqJZlMRjY3N8Xv90sikZBsNit+v1/a7ba4rivZbFbK5bJ2F9AuViwWZWlpScmFq6urWq/t9/vS6XTk6tWr4vf71dQJQlkymRQR0QkaTwaU6kAGRqORXL16VSF7FBQTiYR2QjiOo50R1HTb7bZ0Oh0taRB0IMqUTqeVK4E2w5UrV+Z0D2C6s89QKCTValWCwaAkk0ltAcX+OZfLSSaTmZMBvqjb4088IclkUgmno9FI6/g4HRJklctlXRB9Pp8ady3aQqGQ7pdgEmEwbJdns5lks1mV5GYcxWIx5ThY3w66VNANQZSLMYrAF74ioAeUKWzJjZIJ5TIWUES1KGPwnmAFDdF4MpnIysqKGoOdVGngqPaxl5TyorLCot+f5MbzO4758zaAQwAAIABJREFU+Dvf+Y785V/+pTzzzDNzv/vkJz8pP/rRjyQajcpzzz0nf/EXf6EE+eNOii9LDPcwmK0r23nYaCkEskUMxorLwCAH9qcFEle6brerC9xwOJSlpSVxHEcnY9jdqM1Np1OtzZIZwSwnK7L95rQNJpNJhYoRT2KiJxskA4dkRn2fUoftPkDp0LawZbNZRUYIbNDCFxFta6PeS3lkPB5rbZm2R84/lUpJt9tVRIF6M8x0EVHomkXxIm5XrlyRcDisXgMskmTUPPt4PC6tVusuIh8B6KItHotrGYAJnhIU5SGydco8kUhEOp2OcmmsHTklIasUilgS6p6MfwSZbDsuGhiUO+Ab8A4ydlBRZHxxDYx/WihRUwSROkvbXsjGfhyE08ZJuB/0tt/vzz2rP/zDP5SPfOQjd+k9/OhHP5Jvf/vb8vnPf17+/M//XMbjsbzwwgsL9/m1r31NPve5z8lf/dVfXWgk8qEFCLyg50VX28JHtkPAykSDlJAlWXtnFmnbo0zWQ9YELMl3rTARPeTWeZGF2C6+NtuyIkosIrQsWsIfXSbsl3qw1W/nxQLqnUwmc9ceiUS0nQz0yLLprU68V7uCRQidA8YQgQX8CBajs9wR86DbM888I4VC4a5eeRZvgkICR+r63FOQo1deeWVxgJCIz7VMwq8BAUAZMRwOz41ZCIt79WhbQiLjz5YhrbgXVs38znEc6fV66j5K8DkajRS9YNygu8C5ci6MdYJrFE8f9uL+oHDzIq6B9+dnOUlrNpvy7LPPSqfT0Z/96q/+qnz5y1++q+6P2Nf169cVSVuk+fGlL31JPvaxj8lzzz0nn/nMZ+TjH//4Zcu0nLAXA1kHC9VxwHKLzJps7e3IblwwKJ1OR173utdJpVLRFq9WqzVHXGQxxKyJFjOy3Xw+r853ZNv5fF7rvru7u5qVQ/ZD3946OHKcUqkknU5HOwSGw6F6H+RyOWV4l0olqdVq2onBxA305rquhMNhjaTL5bIiEbRT5vN5qdVqUiwWZTgcynA4lNXVVXVlpDSSy+Wk1+sp+RAUAOMlBH3q9bqsrq5KvV6XdDotOzs74jiOXLt2TarVqqTTaRWgKhaL0uv1dLGwan4XbYNTMhwOFYFhgczlcuI4jraNIjLVaDQkkUiI3++XarUq169fl5dffnnP/dvgHtTJKnti+oWxl+u6srKyoiJLPOtUKqX6C3iIMOZoXQR549xpF0bbgGtA6ItuhkQioagSpahAIKDXyVghGOD9QKyM8WOVQxcZMXl/ftj5gmCJpOBe57K9smnrirgoCLAqq8dVErHJ0nEHH9aAj43AwFvCwEiOgHhpaUleffXVu/b5hS98Qd797nfL5z73OXn11Vfly1/+spZ6TxoRup/7QdJ41PfeL5fbfW1kOPApyIaZeCyMak1nFimgsT+gcvt9JhUGvg14yLpYdMniWezZD8JNMMo5poV/bfnHOyHyMrLA2Guw+yBTDAaDMplMtFMBeNn2uHP+BIyj0UjhZjI7asugDF75ahYMu8/gnYngom0WPbBBOFm8RfC4f3TXwKXZLwAhGOA5WLlsKwTGYkQmzsRsx4J9NxgH9plTOmDRsyJgPHMQOES96LQhQLRtwnS+gHSwWLJY2/2eBAJ1HMc47bLQR7FtbGzIN77xDfn7v/97mc1m8sILL8g3vvEN2dzc3Lcc4f3/ovbDD3zgA/J3f/d38iu/8ivy0ksvyS/90i+dSHBwHJ17ZxZBOG9bKBTSTJ8seGlpac66lolya2tLlpaWJJPJaPnAdV1FHMh8sE9Op9M6kCFPJRIJicViOpmikggBrdfrSbPZlHK5PCdDu7GxofbIZDPWZIqJ1XEchewhkc1mMxkOh8oct9EqqATnCQqQzWbnJHer1ao6N5Iduq4rjUZjTiip3+9LtVrVcyUIq1QqKuhEsFGpVCSRSEgikVCtCKy0L9qWTCalWq0q4ZQSAmTUfD6vLaOj0UgqlYqUy2V9PqFQSF588cWF+y6VSmqTjM6AJYyCcLVaLRX3ogSBaBbohd/vV1EkGN6TyURljjOZjAai3W5X90mACnIF8ZAACPMzOA3WDZZOBfxKyAoJZCORiDiOowjgWbMK93ZanOft5ZdfnutO+K3f+i0REfnsZz8rq6urC7/DmGIcTKdTeeyxx+763C//8i/L6uqqPP/88/J7v/d70uv15G/+5m/23O9F2S4RhAfYgPGZqIBIIfaBEKCwZaVkcbwj02Py5t9kfGTIlqWNghwZGSgFiz0ZJJCaiCh8ChqBfa7tKKFVErIZ2V0oFNL2NSZWsn2CE2u0hFEO5QnaQS0Cwj7JbiF42tqzleqF/GkNviAu2kXgIvRYLxqH8DPs87ee88hQs4CDHsA3abVaC/d99epVHaMIb7EYUfKyvBA6JyCvEiAjvEWAB+RPR4M1dAINAD1jfDMWaC1utVrKRSgUCuK6rnS7XRkOh9LtdpV3QSBOIEAgbruDaKk9y0JJ53173/veJy+++KJ85StfkUAgIF/96lflxRdflPe+9717fueRRx4REZEbN25oR9Vb3/rWuc+Mx2P54z/+Y2k0GvLpT39avvjFL4rI7fbei44g+B/GQD7sn/vdhyUhHRv0coeDkM/npdvt6oIHxwDfe8iEZEZ0KojcJtuwmDL5TqdTFSBCgRAyohUZYhLFhIbF3CpWiohKF7daLW0ZQ6621WppzzwwPqRGFlrq+9YES+S230IqlZJGo6HXg2FSvV6XTCaj17G0tKS+ERAJWaRAJJLJpHo40KeOqE4kEpF6va5ZI7AyyATnTQBy0TYMh5BXJmCA60FmHY1GxXEcKZVKKpQVDAblxo0b+763iGTxtyWoJhIJ6fV6atJFC6HjOJJMJtX0y0oad7vdudKC67qa5RFoYnoGgZFAmE6IdDot6XRakTo+n0gk9FoJbGjFBUUA7aLrg/IdPKGDeAf7zUu8f16DJ2tpv98xvJC4dVFdpMlwmI4EyiwEkNawyULv3nO/17nZnvNxl9MOuz366KPyzDPPyK/92q/JL/7iL4rf75ennnpq7jOgj3/wB38gn/jEJ+QjH/mIRKPRY9NL8Abvi8bAfn8WlVEe1EzsoZcYTtrk5LjNmnjhEomEOI4jjUZDAwCg9Ha7rRNqPp+X8XgsjuMo2zqTyUgymZStra25wCOXy8nm5qZaPqMXMBqNpF6va/04Go1KIpGQGzduKPkLnXq0C/C8r9VqmomNRiNZWVlRZzzQgmKxKJPJRKrVqn4P5i996QQh9JY7jiP1el0z+atXr0q/35eNjQ3dLzBxtVrV4A1Rp83NTYXDEdepVCq64I9GI7l27ZpUKhWp1+synU5lNpupToPjODIYDMTn80mhUDhzEPFRbBACHceRbrcro9FIFSjD4bC0221Fjmjzu3nzptbk9+peePzxxyUUCkmz2dTANJlMyu7uru4TyB/xJUptiF4Nh0Op1+vKGUCsCYEvfoa2Bgsii3qlUlFkYWdnRwmWNgmIRqNSq9W0k8O6QSIUZrlCtORatKrZbGq743HNcUeRtOwnLreXCM9pUFBkAwl6oKzW75c3vvGNC6/n0Ucf1fmX7fd///flT//0T6XT6civ//qvL9RA+PSnPy3veMc75G//9m/lve99r3z4wx/WMtxZWvPObIBw2m/w/QYIoAeZTEYnNgiDwJnAnHAQ6EhgEV1aWtLFudPpaEZIPXkwGGjZIZvNzsnmDgYDuXbtmnYLUJvPZDISiUS07Qu+ARnncDjU+j0TOv3mfJb68GQyUfEiar4oMsK/oB+90+lIIBCQTCajCz8EOPZB90G/35eVlZU5QiX7pMuh3+9Lu93WlkkCFKDkbDYr2WxWhZPOSwvtvWzoVwQCAa35gzLhaQA65TiOqhMuLS3JD/dQTxS53bkCd4ByGuOYbB39DhQ3cQ5lTCGyhM4Btu6YPSWTSWm32xrsgn4QSMfjce1o4d1AbZQSHEiU7YBgHFhLaqvmCk+C7ItgGNb7WSwzeIOA09jO2Ov1HlgsKZfLyRe+8IWFv/ujP/qju36WyWTmuAt7IcLvf//75f3vf/+RXet5aLv2n4WBfxrrM9RSgVL5GS1gKLeRyVl7XbJgJIhjsZjWYNG0p77O5IWkMdAU9XpgU+xs0+m0DAYDJZAB4cdiMa23MhGSQYIGWPMcMjY08a22PYZLWPFasx7c8tBgQE8BqJNzBgIH6eE8Wq2W7pP6OPVkKxmLsBOBCfu+aAIn+XxezYu4XyyYBLIErSK3bbFR/3R7PfnhgpYvEZE3v/nNmtHzDOE2IIAFp4UgmLZYSg2dTkfHtoio7DPjh/EGIkZwQLBISYJyFCJQKEXCl3FdVzKZjPR6PWWpt9ttyeVyMhgM5rpfCB4o64Go0Z553syaTtv2oCjNWdqsTsNlgHCIBfUoREEO2of9+XFmk9YQiYUXgiGTn52UbI3cWz+07WjAoaAQkL5QQrTGRpaLwMSHlDV/CBTgKljnRkoOZFMw1YmogaRZ0OEA2H0TJXPf4SpQ7+Sayd4oU9iWRzI5K7hkN5AF9sXxLQmSYGx3d1euXbt2YQKEtbU1LbFMp9O72lwZV7FYTIMooP3nv/GNPbMpLLftPu14EhENAFmIeH4EFAQRiB3xbpD5E7gw7vijLat3xpvVM7Gtuygr8p4Fg0Hp9XrSaDQU5fL5fNJut+dKHSAh/OHdtUJeB6GaB81jizJ6bzlgv9r+Xp0JhzVwWvTz0+BWubOzo6XG87xR7jsOhHy/sXPUQeGJlhi8hJ9Fi+693lDvdyyR47hfiNFoJI888ojWU5GcxT0RUiEEKmt4RBCQSCS0XZEFP5vNiuM4ep9wUWRRZHLEQrrb7apt7e7ursrOWttkMiXOp1QqqRgSbYzxeFxbwcgcQR+AlrnuYDAo6XRaut2u1pBd15VcLifdbndu0gc16fV6c5bV8Xhcz53zymazKrFLtloul1UeGPZ9Pp+XXq+n9fbd3V3JZDJaprkoGz4fhUJB4f5AIKBBQzKZVMlj0KBUOi3/53//7z33+da3vlWdOa3rI86NBK68W7PZTCWLCRrI6hH5gi+CvDgaBtYwCeSN4DeZTEqj0Zh7N1KplCIL1rsDF1Q6IkDyKLtwjltbWxKLxSSdTus9abVaUq1W1QCKcoS3hdA7b91PskPSchjXx0VExP0SJft7gm/bRWJRxUUBy73Mlw9iGETrdaFQ0CTkPGx09nQ6nX2Dg4OCvIPWuP1Iokd9L4On7QYf5+eP+lzJcIDDyaZh+6MXAPvassDJhNCst9KwZNHUcAkkaD8kW6T/nw6B0Wik5Q4WUiY2NBFYJIBTbdDA5EqnBeUCrslqINjsFHSESYhjAP8nEgnlLNjzJJvkXtl7yzmSfUJy49rIbvkeDoBnsZf9KMaibXm1RkXA//a57xccPPnkk/ps2S/8hul0KtlsViaTidaSudfcdyvIxXhhcd/Z2VF0ySYLtMySwYNERCIRaTabc2UIL1JCWYV3kHcoFouJ4zhq+sU4IfC0zqYEvnuxxM/StsiY6TSWG8bjsWxsbJy7rqPz1m56qgOEwwyeh/VAUBGs1WpqTcuiW61WZWlpScrlsmZiqH3lcjlt30Ijfnl5WSH/7e1tJZGhXUDdGMteEIFutyuu60qpVFLuApErFsrWawHbZtp6EB4ik0IEB4IjJk4gDpwj9tHdblfy+fxc2QJJZOrDkBKxrAbeplcdF8xQKCTtdlvbMoGug8GgbG5uSj6fl1AopOWGRqOhPBCkq7e2tiQajaoN9UXYYPvXajUJBoMSj8cVOWJ8IWbluq4899xze+4rlUzJlStXdAGFHIqiHOZkCCXBa3EcRzqdjj5fSm6dTkcDQbQParWaLC0tqSV6KpWSW7duKRkRdK3Vasl0OpXV1VUNjOmaSKfTikqMRiMNkOERgORZoiRBCW2gtPNi8ASh+LjcBh9GoHAWzJkuonfKWdrOPLbzMImM9F/D8CZDo5UM6eTpdCrpdFp7tJmkyP7J5Onph6mNJTOIg0UHYPRns1ntdIhGo1IoFBTWJwNcWlqSSqWi/AZEbOghB91goYZgSCcBbUEgI0yo/J8sbmlpaa6kANoBAmK5FdTF7bMDHrMyu9SG2Tdci+l0qippvV5PyZ7cw4uyQfgjkER8yhLzQIP2Cw5ERN76trfqM7Dqh/bdQhjLCnpFo1FxXVcRAmr6LM42+9/Z2dEOBBZ4niOcBVsioGOF66NTZTgcSr/f19IHjqmcG10T+JsMBgNpNptqUz0ajfSd63Q6KvB11r089jNlushW6JfbGQgQvOIh+y30i0QjDiPYwees94GtyxxVEMHijlBSOBxWkxzL8GYx7PV6Ws9lIur1emqtjDARLG3qrbRxhUIh6XQ6mvED4Xc6nTk1x62tLYnH4zKZTFTqeTAYSKFQUNEaggYrvMSCgIUzz4iFHoiYoGEwGEg8HleuA1B2JpORer0upVJJ66A26CGAwKaa8gG/I7uDUzGbzaRQKEi9XldDKwIkGPGgFywcF0lN0Y4VFj0gdRj9P/jBD+TrX//6vvt529veplwUEdGOGzJtdAeGw6GOA3gw/X5f8vm8vnsEdalUSstPuC2Gw2EdxwQ38G0sSRBOwWg0Umll13W1qwG5Zrober3eXEfF7u6ujg9rzmR9SAic6DJaNBcdJBx02HmJYGs/oSTvfvcqD3jnRuu3sSgYsB1DnMOic7GCO/cj1sN5XG77B3D3qllwGOEqkqajRokeWonhrENLwKPA/4j4sEiS1TNhWzGY8XisaAPaBdb+OJlMSrPZ1Afe7XZleXlZHfHI1CKRiCoQomiXzWY1cABapUSwvr6uAcx4PFYSGbVcRHAqlcqcpXM8HpdAIKBQMhkYBLjhcKg1YMSKXn31VeVc5PN52d7e1j52YO9gMChbW1vKUdjd3ZV0Oi2VSkUZ6L1eTx555BG5deuWNJtNRVtWVlak3W5r6QX/Cr5/UbZut6vulp1OR9rttjG28slWZUvqtdq++3jjG94g8XhcGo2G8hZw/JxOp+r6iSvpbDZT4SwryV2r1SSZTCpxdm1tTarVqqIOiIhRliDQzGazMh6PNdAmKEilUrK5uaktiZTYGo2GykQPh0O5evWq6jvQlYP+Ag6kvV5PksmkakFQDoRXsbGxoajbWZ3zFrU5nvYSw+V2urfLAOEBEAQgUBj0THiQ5yBEwcxm0qJboNlsaqYE3wBkIJFIaO+/bc3K5XIK2WJXm0wmlUdABwCkRttmmc1mNavj52ShlBWAesnahsOhLsr4MeDYJyJ3idtAFCNQIPtE5dF2eMCLoMwBsx3jHFARtBG4H8DGlBtgqHuJmhdhI3gDZkdDot1u72nfbLdnn312btGk9RA0zO/3SyaT0VKC4ziq0Mi4Br2Jx+PaWQOaQfkKng6dONlsVmazmeTzebWJxkuDd6vf70s8HleUbTQaaekAbkO321UhsVgspugcXTvwWeisQEYcxMp1XVXwjMViqhp5Vra9dBC8SMJpDA4w6KI8dNY3UGHHcc4Nt8J/Wgb2Wbuh0+lUrly5Ijdv3pTV1VVd3FlAeSnhHTDBWdGaaDSqkyBBRygUkmq1qgs+KnYIMtEDDjxKKxsTZyaTmUMPAoGAtotRnyYAoXWQSZ1zs3oMcAesRCpKerRJcpxSqSTValVFa1jUyQzhI8CBsEx7eufJgFF4hI0OCRTuBOp7oVBIxYIw2wkGg7K8snIhAgSEkOj9n81m8vzzzx8YHKRSKXn22WfV/IhxSGCG0BHkQLpmQJ+A7CljUdoiM4/FYtLpdDT447m0Wi1JJpNzCwItvKlUak7xkPFFSWFpaUk9Reh64N2gjRj43Ip+8V5C1ESPg1bdVqulqMtZW6j2mj+9XIRTtej4/bKysiJXrlyZU3M963+i0agUi0V55JFHdF67DBDuYSK7H8Om+/ljddoh+R31iwJkakl0LNxkx7R42Ywf6Nz2kAPVWv4EtT6yda6LfdrzINPb3t6ec1aEg8G+yLq5Fyy4fM+2M3IMsjZ61K2QDagILz3ogVdVj8DC1sZtfzmTM9kfEzjnCUeCfYNM2PZHuBKgIKkLgCKkjUXxdDqVb3/72/LNb37zUES717/+9XNKm4hmebNQODR2DPMHoiLPkwDFijER+LEPnr99pmh7WGVN+3lLWrVjwsp+83vbz0+bLTwcK9ZlN8aU12SJ/3tr64vG8GHMihZpHOyVJFm9BH7uPablKdgSg/f4XoEpe58Ok7ztNZ97+WGH3ZaXlxf6IZyXLRAIyMrKirbP3muifD/r3XEl2SdOUjzJ7Tgj593dXen3+7K8vKyGR5QNcrncXC95r9dTWWMWaRQSU6mUCrpsb2/LcDiUXC6ni6s1uYEgBjTKwsr+aO8iu2fidBxHVldX9XzI1JPJpIzHY52sEbWBS2FNclKplDpU4qOQz+c1y9ze3pZWqyXLy8s6aYvIXL88okZkarRSIofruq6SPoGoqVt7s9lUKiXNZlNc11VDq1QqJclkUr0mzvvWdRx5+eWX5fnnn9/XkdFuV9bW5D3veY8qbiKMlc/nVXtDRNTDAfIgbZMQbxm/IGerq6tKhuNZlstlfW4ch/ZGeC+UKChjcU4icpd6KB0PEBIJOJeXl+fGO+UW3iukpR3HURIsgXej0ZDl5WVdWB90jjrubP2w53dQSeFeSg73c0/22nckErkQJGIM+s76unrxnG2OaGNSA+4kC7JdCrYDIJFI6OJG5kPvNiUHJkYsbTFjIivm52Qx1uwGwSVgYqszj4CO67pzkzpeBog8IZaEiIyVUUadkWtCYMa2MiKvDEpC6xt1ZVAOAhK6LeBdTKdT/RmfJTgiSuZnmGFZ3od9OS9Kf3Wj0Tj0Z9/0xjdJLp/Xbg+7MFNeIgjF68CiW3yH+j1IDuORdkTGFEExYxDrb94NuiZYMEAfCCAYV5wXn8WoDCMyUCjGNkFHPB4X13UlEomI67pahiAwoYsGDoZVhzyr237kxEVExZMuP6Cp8aDbdr8vw3Zbtns9EdDYyUSGrZYM2+27/uyY+WEyHMqw3Zax48iup+titr09971FnznsBmfqTK9zl0v9/W0scpVKReLxuNZffT6fNJtNNW6CUNdoNJSMSG200+lIpVJR3Xsm1GazKdlsdk71DRIZLHFkm6118/LystTrdXVvxPOeAKFcLmv7IMxtSGCz2UzS6bSeOy8yZQcEkKgX7+zsSLPZlFQqJdFoVNEAmOy4L85mM2k0GjKbzeTKlStzXIN+vy/lclnLCuFwWOr1uqRSKSXBBQIB2dzclFgspi9cLBbThRH+wWQyUXJQMplUAZ7L7XbA9I53vEMRHdd11RWUiazZbM6JLCGKRBCLuBEtivA/aJejWwXeTDKZVBGxRCKh3ARMxyAaYk0eCoX0c3AFXNdVwS+C462tLR1zEIAxlcpmswql4xhaKpXU9bNWqymZkuCHwAfZ39Nu9nVQR8IikuJhggXbteQtZxzldhRCVN//4hflh7/zOzJ77TXxX70q5f/wH+Spj31MWj/4gbzw+tcv/M67NzclubIi6//3/8o//ef/LNOXXhL/yoqk/uW/lLd+5jMSvHNeze9/X/7+jW/88f177DFZ/tSn5KmPfey+3rszP3ectxLDSWUAEP2QEgbmtixw9A+YYMmgRERFjqwHAhMe9f7RaKTZGxkZWTSELDQLIpGIbG9vKywMWRIiWafTUegfiB6nSTI3CIm4MVqeAjbQruvqZyEZUntGyz6RSNwlHQ1cDPrC4m+lmxOJhFr8gjTAlEdUCWSE+wfMTDkGTQZrFnWRt+XlZXnnO9+pC2csFpNutztnNkb5igmNZ4gGAoGerVsj9MV9Z59wc3huvBu019rxji4C45q/GSO8T1ZgC0EsSnXIOBMkwn+hXZjPTyYTFfeyXihIkI/HY/WvOMhA6aB/7+UZcxhY32vSZP9eZOV8UNfCou9bp0+rGWP3Cb/ntGXAzsaGfP8XfkHSH/iA/NTXvialj35Utj7xCam/8ookV1flLd/6ljz1D/8gvscek/AHPyhPfetb8tS3viWRTEaa3/uefOdd75JAuSz/z//4H1L6jd+Qzp/8iXznT/7kruP89He/Kz/93e9K9sMflq2Pf1w6hyzhPayg8bjQoBMNEBYRe/b7s+jlOex3jrv31+/3S6PRkFKppJkWEx8CL2RDQPPWh346nSoPAGa/iMxNZOFwWBEA9sOLi8lNr9ebQzQajYZC/3yWdi9aztBogP8gIgrdYq/MwgvMa0VlMNaxbZyI6CQSCWk0Gtq+ZLM0FhgmdktGExFt2aRmzIIA4Y3Aimfd7Xa14wK2OpP+9vb2kcGZZ3V78sknpVQqzblkIs4Fl0BE5gioLA4EapZQSPBA2cEGd5DOYKQTJPf7fc1O7YJMuyrdPZQlCEDQ6aADBjIwSAJdPqARjBm0N+AcIMoF0kDgQuBKCYtuCy+Zej8hpHvpxPLOQ4cloC3iRVh3y4OyVEtwtMRHr3PmXnOoJTvfy1x9XFu/WhURkac//Wkp/+RPyls+8QlJffKT0v3hDyWSTsvq00/LylNPiS8SkWCxKCtPPy0rTz8toWhUbn7pSxJ8+9vlPf/9v8uj//yfy9Of/KQUf/u3ZetTn5JBqzV3nPwTT0jpDW+Qn/rt3xYRkcEd3Y/jSGgf9I8N6o76WZzqFOs01wN3d3dVAwBfAZHbNp9XrlxRiBQEoFgsymQyUTEaYPV0Oi23bt2SbDartVlEjayD4/LysoxGI2k2myp+FIvFZHl5WSqVimZ5+Xxednd3pdVqKVy8s7Mj2WxWNjc3FV5FfIl+c/p3V1ZWZDabSaVSkVgsJvV6Xb0ZEL0BxSiVSnLz5k3tkx8Oh7KysiKu68qPfvQjJVEWi0WVxkX3AVShVqtpZjsYDGR1dVX3OZlMpN/vy/Xr12Vh4KwGAAAgAElEQVRra2uuS2JtbU1arZbyHPguapK23fQibo8//riWefDdiEQi2qJ648YNSaVSqn+xuroq9XpdZcAh4CKORUaPYqLrurp4Q2Ld3NxU+e5+vy8rKyvafkmAiQsn78tsNlPiImU4AolIJCKtVkv5OqPRSFZXV+XWrVtKoB0Oh1IqlWQwGGj5gkAiEonIxsaGZDIZ/RvXUdvhk0gkpFqtKkHXMv4fJp/lMCRD27FEsOb9vteJEv7SYV0Fj4rAeRRb6E4g+uJnPys/8aEPSf51r5N3ffazh/pu63/9Lyn8638tIUOSfOLf/Bup/5f/Iv1qVWK53F3fmd0JJgPnxKPjMkA4oY0MpVwuy/b2tuRyubtc5SgtkLlZXQQWPzwFgNVhhyN2RKYDmY+fQUTsdrs68WF4hCY/qASe9yz09M5D1CJoAOHo9/u6z2w2q9l/NBqd0/rHY4KJlcBhMBjIysqKwr/j8VjRAYtgwJRnksPoh/sG5EzHRjQa1ey21+up1W8wGFRNiWAwqKWOQqFwYUybbEnh+vXrWuKhjETtdzAYSCgUkkwmo8EepTBv6QdyLPoc3HvkvkGo6CBIJpO6T8oKZPigYHRE4CUyHo+12wAuC2gZ6FI6ndbuF7pi+BxoGogD6B5dF/ASEOhiXDEO4a1gMAbCt1+54LTAxotUE70SzbbFG+7Q/dTGrSPmw9zyjz8uy3/4h1L5T/9JGr/zOxJ45hlZ+4//UZ780IckeGe+22sb//VfS/hDH5r7WaJcvo3AerqefvA//6f4AwGpfPnLIiKSunr1QgYIl10M97nNZjMplUpy69YtKZfLyoZGqIhJ1e/3SzqdVtllFrlIJCKpVEqq1apaKqOEV61WdXG3wkBWPAkOgIjoxCoi2uIIGTIQCEgikZBKpaKTPAIxHBtzJeSagYmxk/b5fNJut6VQKGggkkwmpVKp6KTM9WxubkqpVFLYGF0I9knNmZICBDQEm0AsgMCRAOZ6KId0u10lQwaDQb02eBYQ7i7Sls/n5bHHHpvjkWB5zGIKIRFORyAQkFQqJfV6XfkGBLKQSzHBAqWi5AQHAZ8QOmgQX6rX65JIJNSwKZlMqpohZSn4D7bTh06Jer0+RzzkPSAAZCwTFEO6pFzG7/kbqXIbIMTjcSXmcj9OQ4BwPwGF14adMgKBltWLuN+y6kO/Tr9fnv7Up+RdGxvy+Be/KJE3vUlu/vt/L9/9sz87OBt+9lmZeUiokzuBgc+jj/Hqv/pX8v1f+AXZ3tiQNz//vETvzHOXCMIxIwIM3PsZbId5Wa2jm61vHzUiYTMkCFQIklgZY69ICZk/9XiyMCY0JioCAdrGyADJ7rykJchZVmyGCY/v054GAsHnmEisKY9tVePzlEXgUBAUWdITNWZa1yzJkTq0vVf2mHaSs3U1SGUsHtacimdqM6S9ZGfP8xaLRqVcLs9ljQhZMb54/lb4h+dv2eXW/Ip7CyeG+01GyRjgntufUWLyioLZjWdta+HW1dMez4437zix+7O1WOsqaQl5/I5xbN897/g5ilo7+/a6Y3rvhfdY3nfDnuMigybvPuxxeQ/hnnj5FAeVU/YTWeJ8DsOLeJBt0GxK57XXZOWppyT18z8vj//8z8vXCwWp/tmfifzGb+z73fjb3y7Od74z97Pqiy/eTnA8AcDPTSbiP0aSs10rjmpdPY77fokgPMADHgwGksvl1I2OTIruBCZE2NqhUEghzdlsJp1OR1vHyOio/WJBS1cExEPIhxAK4SiwoIMeELzQn07WRTYHwRLIF9MpSh0sEv1+X3w+n2QyGW1HA5LOZrMqXYs4TjqdVhiaEkMqldIFwhI16YAgCOr3+1IsFlX9juvJ5/Piuq5OkJRFrOANpE3IZuhNnGfFNi0rlMvy+je8QR0P4agwfuzzGI/HUi6XFaoXES1TWYdN7ru1MYfQatUbCRRyuZzyQehqgATLz3AAxWjJ7/drlw+OjPY8rYgYvIdyuaxcA8Z8KpVSPwbKIJTS6DKi6wEHUoIkdBJ4X+ykexq4B/ca5O7l/Mg7etDnD4tUPKytX6vJi888I7eee06m47GMXVem7bYk3v3uA7+78rM/K85/+2/yw698Rbb7felVq/L9//pfJfjss5JaW7vnZPQSQbjcDnxZ0um0ugoysWIWBNwNox4FQhHRLJt+c9Tp+OxkMpHBYCCtVkvJf2jM0zGA2UmlUlH2PyqO3W73LhTBkhRHo5EUCgVxHEeVB/v9vhQKBQmFQurdADIBsRHlQgIi4FmuKZfLSbfblV6vp+qOlBe63a4GHpDlNjc3tS1tMplIJBKRSqUy19mwtrYm9XpdHMcRkdvyz3A/CBKYBOlzr9frEg6HJZFI6D0/r1sqndasGdEpyjc8I3QLKBmhHUDgFovFpN1uK9Pf2mbDT6DOT+A3Go0kHo9rkEBHDWO3WCxKu93WrB29AXguVhyLfUKahCtgyYzj8VhyuZy2JMLZWV1dVe4LmgwYR3W7XQ0IksmkqkXaLhpIira7xttmeNLBwYMswos6uO7HZvhB0dy9kNcHaT/OP/GExP/dv5PvfOAD8vKjj8ruaCS7nY781Fe/euB3H/ln/0xu/tt/K6/87M/K9554QnYHA5GlJXnmr//6WNCC8xBkXAYI97kBp29ubs45NGJSE4lEtAvB7/dLtVqVYDCoRK5MJiPValXq9brk83kVlHFdVxqNhpL/YH27rnv7BbmT1dHaVavVFFpOpVKysbEh0WhUstmsZogEGcvLy2qtHAwGld2OE2IkElE1vLW1Na03u66r2T2TDs6RxWJR+QLWjCcWi0kqlZLRaKQoAwJIw+FQXNeVwWAghUJBiZyZTEaazaYUi0Wtmfv9frlx44Ykk0lJp9O6gHQ6HRH5sXEUyMRoNJJeryeFQkGCwaDe5/O6vf3tb5fRaCSdTke1IURETYyQN7beIK7rSqlUUu7LYDCQ9fV1iUQiugCHQiG1Aue+Y5/s8/kkl8up9TPBQqlU0tJVPp+XVqulokboDxCAQFwEzWIcYtDVbDa1O4J2Wtd1VUSM4GUwGEi9XpdAIKB8GN6NXq+nnS2BQEA2NjZ0vNB94TiOtNttyWQyKsDlbf07qYz5/2/vS2IkOautb1blVFmVmVWVWVMPbrDw8AwYhEEg/fol80s22AZLz5ZsMzSGhW3AEguGDWxANmwslgwWehueQAjQsx4sYIFhgZgMm3YvsBdu7O6ururKysp5zqz8F/a53Pw6IjMiKiKHqnukUndXZ0ZGRnzx3encc/1oyx4mlOSHEZMlDi+ZCJm58pS5nZ+n//P883TpoYdo9ze/ocV3vINuefTRGzIA8fe9j6LGwLa5cJj+73/9F73x6U/T9v/+LyVuvpn+4/HHKZHNDrwm/p//6cv9hLOpDoJDb8puuIkbo+wk9Y8aGep3qLn52aoDIhfS6iAAgWAFdjWiK2xIiUSCSwKYJIdWSbwPmynSxEixYkOWojIYy4zyANjaqBcfHh5yO+HCwgLPPVhYWKBms8n1ffyuVCqxYJLsW4dgDVLAEKtByQFp/0KhwBkQ3A9MisT9A4nO1IaQg4FQn4OE9NbW1g3EMxAcoQcBZT68D+nj44pbbrmFSYL7+/u0sbHB6X8oUyJF3+l0+Lrs7OzQ2bNnebYCMjkoOUFcC2sBmx2cPDleGWugVCoNdLNIQqHM8CC6B0cB8t7Q5UCZAGsxnU6zjDcUFjFDBM9bp9Ph12FtEBGXu6B3sLKyQqVSieWeUVoDmbJer99Q85f7lZ0WwrD9btiwo2EGftjwJ1OfwRweZZYCMPdCCiJJYaRx6hqgnGU1NMux0YrF6NYHH6RbH3zQ9jV3//d/W/5+PhKhm++9l26+917L/8/edhv9v//5H1++K4KYo9g0Jw6jtHl+8xCUg+D1wgnCHeYvpNNpdggQpeMmQ1++2WzyXALwEdB6BqdGbpzYDMDWxiKAeiF0FpDqRZoX6VrU9sFxQKtirVZjLXtEfSgJoMUMKouQyAXzHCOYUZ+GoQYZTDo72MBKpRJzBNBTjw0ZmQC8vlqtDjDKE4kEcxDwUKHNFJLLcMBQG2+1WsdCC90Ot99+O2d0YNArlcrAjAWk8eUYY+gcSCGtSqXCXAUpxIW0PjJGkBGXRNxYLEblcpnbG+G4gXeDdYj1Nzc3x/oJKG1gPDnWD8oRKKkh+wHBIziucDTAvQAhExwaDGfCpFCUqOBwgFcBkSg5RGjcHASn0sl2Qdeo4zjJhLgZBHWUzOv169eP1E0xCyiXy1wem+UyxcRKDF5TVNMCbKLr6+s8zRFOAwxTrVbj30McqFAo8GYcjUY5rY7IFz3b+/v7LPRTq9VofX2dOp0OHbyl+IVNL5FIcFtkq9WidDrNCxSDnQ4PDymbzfJMA6RmQVbb399npwNcCbRAYjNeW1ujfD7PmzzkmsvlMmc60PpZKBQ4aoRGBESSQHSMRqOUSqWoWq3yZ6DTYWVlhXK5HEf/YNSjzAIHYW1tjZrNJu3s7DAxERmFXC7HvIxsNutqqNE0Y3V1lW655RYqlUrcunp4eMjXHdwP2RqYz+eZjyDFhtAK2Wg06MyZM3Tt2jXObnW7XcpkMtRoNPieVatVWl5eZh2LSqXCmSopxAWDvbq6SoVCgZ0WrIVqtcprpN/vs2BTuVwekGBeXl6mXC7HjgDkvPEMgNOztbXFGzKiZTyDuVyOSwxwzOGs4jkCjwcO8iQUAr3uf1aqelblBb9VZYd1Y4xCvV6n7e1tnn9xHGYW4F50u10qFou+OAcnqsRw3JwEdDEg6gXfYODivkXGw0YIAwa1OYj9SB2DRqPBx00kEpxVgGhNOp3mTRDZh/RbJLXFxUVOC0vxo3w+z/K05jFhRGQbGQiMcAZAfMOwKIjbIIJE7zz4C/1+nzKZDBPUQEySPekgGIL7ANY5BkCFw2EulyDrgrIOIltkT+AUoa2OiFhsCTMFjouDAGPZ7XaZWwC1QvT6I0OD8o28vmhXBR8GHSC1Wo3LVYjgZYkOwkgopaFbBCUnmd5HpgptsnLeB0oDsViMO4CwvrCWYrEYqzci4wV+CUivmEMCh6LdbtPy8jL/Pz4vEolwFwzIj3j+5ubmaG9vjwm/4EqYsxWC3peOYrjtyrZBOQZmkCTbWN2g1WrR9vb2scvwHbfuh7lJXEAndTuvdTGrByUINJtNSqfTdOXKFa6pJRIJrmXCYGEjRZSdTCZZ5wBDlJBdwCbZbDYpmUxylIN5DZJDAW4ANmts5KjdYgOEgmK5XGa1OERtaIlDSho69yhNIGJDi1o8HudNf3FxkQ4ODgbEm9bX1znzUKlU+HqUy2UuuSCyQ5obLZxIbW9tbbEMMDbuZDI5IOsL8adcLsd8DYz3BZsd5w2DcFyQSqVYrhvy1si4oO1QRsu4bygTRKNRnswJZyqVSnGnA9btwsIC5XI5HmkuNSiQ8UG5q9/vUz6fZ3VGXHNIJ+PZSKVSVCqVWLgJJQCsazgSaMeVpQh0wuTzeRZfggMIHg8IwXiG4HzCOY5EIizUhAwEBpAlk0l2LOxmLjjZy4btVW4MtRUXwW54lDmQyYqoKLUQ/NwbsUfZDZVymwGZ9Z8gbeYkPn9sDgIWqSTTOCUDuXEqrB6yoJwEed4wqlKQBdEaHkyUG2CQ0cqFzANeB0KYbN0DyUhqxMupa5jSCJ0DqdMu3wOOA84H54lzRw2ZiAaG10AqF6lqfD6UDCURSpInTTlYfDb+n4hYlQ+RBX4PhUVJwsH5IfMBISdcd0l+wnc/LinMxFvfV4oF4frg3+AbSHEqU4JXri9TZQ/3C/dOClqZz7I8B0mSgsSz5IxgPgLKcHDeoOmB9S95O3IQmDlHQIohmddBkmFxPpK0jNfKzxq2V/hhJOzEjuycASuBNzunZRR3warFcZghd/qd5PqR53mSBMqOmjnwYuPMn6BGc08kg+B2ER71PUGi1+tROp1mpjhS3+gCANELRC20jiGKRwQOchhGRqfTaRaNkWIvaDtD2h9ROGRqe70e7e/vc783rs/BwcGAkE2/36disUjLy8vcogZJZGQLkKUA6REqjfhO9XqdxXVgjCuVCq2srPCEvna7zRMekS0AuRIdHpj8BwPRbDa5Tg3CYbVapbW1NSqXyzcQ0NAtgcgT2gd4L0iPZ86cmflN6Ka3ZizgGsNwIzuE64B7DGcQ5SCUEqB/AYcKnThwziC+lUwmBxQqZXSPNSvnICBThPu4vLzM0Tu4DihRoUyCMhPGm8NhxehyaDDg3CHOhRJCrVajdDrNBEQ4vng2kLnCZyUSCV5veA7wDIPzM649JogSgOnsjIOT4OUYR+limEYct+/DZfJp8bicLDK7OeuTWhAYVrSzs0PXr1/nmvjGxgan/5GyxAyC/f19/r+FhQV+P6YaIhrO5/O8sVWrVVpfX6dkMsnDh5DmXVpaYgGjSCTCJENozssRy+gOwFAlDDOq1WpULpep0WjQxsYGp5cRHSClu7e3R8lkkorFIpPYQBCEg5PNZun69essTgOBGpRJQNKEeuTc3Bzl83na39/nqBVTIiXzHgOHMH0SNedQKEQHBwd8nZFV2Nvb45o8iI9Xr16d6YcVRhDtiGhdbbVaPC200WhQsVjkrAy6DKRgFtL/4CLU63Xa3NzkejzKCFtbW1QoFDjFD6EiOIjIQCGrhDWDttMzZ87Q3t4er+1CoUBra2vckQPnZXV1lVUz4cSi7Hbt2jX+HKI3uSW7u7u8H0CfA0JPyGTFYjFutUTnA0pQIE0ikxUKhXigmZVQUpB7jN/8ADO74+TH6jy86CO4fT2yOscBx7UrQ4WSvKZe3oqSMEFwZWWFpZSR/kQPOYwYugTAUygWi1QoFCidTvMmC9b3ysrKQIsW1BFBTEPmAJkAbOD5fJ4WFxf5d71ej7MWmPKI80TEl06necRvvV5ngxOJRKher3Pkvrm5SUTE+g3hcJgymQwPyoHoTK/Xo62tLc5ESGfh1KlTHAXv7u5SKpWiTCbD5Lrd3V1ue8tkMpwpQWSK9rZms8mKfadOnWLmO5wFiEdBzAodELOMzc1NKpVKHGlDBAjCUxCbgkMKgSioH4bDYV4zUoCI6N9THldWVjjrAmdhY2ODu1bAf8AQJThjkUiEstksO5TggmC6JsoJEEFaXV1lEabd3V0+JoiHMOxra2ssldxsNvk+Q48BpF08MyihYIQ5zqnf71Mul+PvKKehxmIxblGWG33QGcqgyINmuWSUUJIsXZrlAycliaMEauCmoJQ062UGBGJwymfezk1LncZJbc9JesxKNCSo8sLq6irlcjne7DqdDq2srAxMywMRTPb0o98bKokLCwssJJRMJlm3AHXSWCxGlUqFlpeXOauA0bSyFXB+fp4ymQz3dstpfZBjRlvc8vIy1Wo1Vq8DgVIeE6UHkL7ksB+0tS2LISdICct5CvjOMFDoaIDWfrlcZiXEbrdL2WyWDg4OeCIkeAQgdMLpgdATJmXCsMj0NyLZ9fV1KhaL9Pa3v31mH9TbbruNszH5fJ7VJzGQCW2zEBTqdDrcwQHuCBFxxgmcDxhpkEvhiEH0Cp0O4CmASCiFraAxgA4VlDGgCAqNjVQqRTs7O5RKpfj5hOiW7D6QE0xROotGo6yZgCwZRprv7e2xM05EbGySySSvV5QDQYpFBJtMJimXy9HCwgLrjkiOj9ybjrKvyCFR2D+s9j5ZHjIFkez2TZPXJf+EkUerpxx0JcuQVnux2z161LmaAdbW1hadOnWKlpaWBvhNs/oDcu7a2hqdO3fOETnajpvi5gc2D7wiP23f3DidAyuSjd8/4/JCkaYHSxrpW9leJsld0DmA4cTfUefHxgiWtRyMg0WAwTeo28v57hCWAREStV0iYo6EJDWWy+WBdjhEjShHIDrE9zCFn8rlMmcYcO0R2UoBJHlOaFcE0Qzn3BCz2OEUgG8hj4HzgYOByFES7nAdUU9GjR4O26wCThx4Atjc8d1x36AXAD4M2gBBdEVNH62JyMJg5DeMCYiEcm6B/DfWn2xxxOcSEXfISG0BCDdh7cFoYQ1CeAzngPkfuLfVapW7G8B/gOMqSZY4R6xnkDIxfwLnLqfggYuD9YP/Cyp17HQegZf9bBghEk6DFWnRJD4GuZeura0dq+4iq/u7tbXFJGovQfOJLDGM6jiYpXRSt9ulU6dO0c7ODm+C7Xab0un0wJRB1OaxycmZ7aurq1wPxjGz2Szt7e3x8ZDer9frA5s99AKQMYCBRhYB54nacS6X41a3er1O6+vrdHBwwDr+iP7b7TZzGMB1QD05kUiwU4BJlIhcW60WZbNZLr3ASZHXBAJIUJ8kIioUCkxkw/dHOhldD91ul9bX17k0giwCvjfY8CilVCoV1gxA5CwdkVkDHIJWq0WnT5+mg4MD5pegtFCr1dh4IrKPx+N0cHDAbZHYnLe3tymZTDLfIJPJDAxLajabvOawvlCOajabVCqVBrpxYrEY5XI5dsRwv6QokRxEBg4CCLj4uxyYBAEj6Yisr69TLpdjQ9fpdCiTyXAZDA4B1hZKS8iGQZYcew6Oube3xx0ishMkaP5B0Me06pCAY2ZnqMzR634bMWhOnIQyNHhas+okjH0WQ9Ds4HEOVkG0hE0SUQ3mAEQiEVYUhLFFa6Nk9SPFDsMNfX1IGMMgIksh+5qxEDEXAlEUhImguYASBPrfEXGhTREiQzIiRJ0WWQtkIZDBwCYMIRu0j+G8UBrAhi+vB3gFmA8BvgVKEbIVDREijonrjBZRnA8En3CN5RwOqbMw6oGdNuDcQYxFGl2mw/E6lHWwsSP1iWuKbBJIfKFQiMcny2soWwOXlpZYb0IKFSEjBQVPqedRq9UGrj0yFOguQKlC6nXgPNHxgPWBkedSdAv6G1BPJCIu08H4Ye3heZPZFqw32ekAbo25Z/nZJivbTY+6/8jnDfsC9iRziiN+kE1xY+Ts9Be8AgPF3OCf//wnPf/88/S3v/2NPvCBD9BnP/tZet/73kcvvfQSPfnkk5af8Zvf/Ib3qGeffZZ++ctf0nPPPUf33HMPv+7xxx+nCxcu8L9vuukmeuqpp+iBBx6gH/zgB/T888/fcOxHHnmEvv71rzs6bzxjw0pE0xwoj10Hwe5iOeEcOK3HWNURg/DU4vE4XblyhdbX1ykej1M0GqWtrS3a3t7mjQViQbu7uzz0CD386AjAJg4W/vXr15lvEA6HeWwuUvT4rFKpRMVikYcUYVLj7u4uM9ghFnP9+nWecIipf2CDo69cijyhZx3G//Lly3xOEEq6cuUKKy4uLi6y+BLa2SQxDXMTMPkSZZiDgwNaWVlhZwJqkJVKhcWOILC0t7fH6fZUKsUkM9Tm4ShgVDXei1o5yI2zhnPnzrGxXVhYoO3tbb4PiUSCYrEY7ezsUL1eZyObSCRY9z6VSnGdf35+nq5evcr3DWJBV69epXQ6zQY2Ho9zJ0m32x3I1pTLZe6gwT3e3t7mEctQ3PzXv/5FyWSSu1xWV1dpd3d3QMwJ6x2lNziFkUiEDg4OeE1jyuMbb7xBq6urvB+APwFnBWOtIQWN9ZtIJKharfJQKTgJ4FrgmFatgXCSZeZvWP3dap/B/8NJGcY/sDuG1LswdTDwg8wlspdSIMn8bKcR7agOCLdwO82xUqnQJz7xCdrZ2aFHHnmEDg4O6Omnn2aC96c+9Sn6zGc+Q0RvcnXOnz9PDz/8MDt2vV6PXnzxRSIievnll284l4WFBXriiSfoiSeeoNOnT9M3vvEN2t7epptvvpnOnz9Pjz32GBERPfjgg3T+/Hm64447XDlYVtcWjpeT6zkJcaaJlBi8qGxNKxCdooQAIhciYKj+gYWP3m5E8GbkhzZBHA/St3jYYQQRASG6k+N5weSGhoIUsEF7FxwRqUCIejA2D0QYqFUjewAiJt6H+4NMA5wPlDeQMZBKjahTSwEknCs+C7wOZBoajQYbEpQqcHxJQkP0iesJgp4cSjSLTGmUB7BeZB8/MkG4viBvmtcZJR2UFFCqQgkH90iKCUGzAusQaxOZLKwZzG/A33E8GEbJj0A2CQYXjoYkscIo45kC/wKfjWyV1BpB9gDOBJxbZKfq9Tqrf0ohKcynQKeP3JCDyGyaEb7b95udCeZkRpNfgIyBm5ZCK2Elq4mSQQZfEm+88QYREX3ve9/j8ukjjzxCly5dorvuuou++tWvUigUoh//+Md099130+c///mBc37ttdeoUCjQhz70IXrxxRfpy1/+8sC5b2xs0NNPP826GB/+8IfpwoULdN9999G9995LjUaDfvazn9ETTzzhu57KtHMQJkJSnDWpS7vvgzq3bCNEWyKIV5LIB3lkGOBCocAGUJLr0MqIqBodBo1Gg3kJiOoKhcKAAd7e3ma2NjTuG40Gra2tcUQNZwUiTShDwLjiHLGhwLggQiV6U5sglUoxmRDOENraMHgHjgucKaRz5RRHqfuPdrZEIsG1cPS4r62tMfEMGQhIV8OAybHArVaLeQdwbNbX12eSfwAHDU4gDDE2ulQqRa1Wi7kJstQEch+md4IPA4OMjAAIf91ul18H3gMcR6kKKksgMPJoV4V8MaaYIjtg/g5rH4RZfM9ut0tLS0tM7sW6hwS3nPYJkSZcj0ajwbNBUMrC2HDoRkhSMLQZ5Lr0e08x1SyDCqqs1GmRFZLrwnSErDoQhpUVrEoYQQHXDbysxcVF+vnPf07vete7brieVtH4n//8ZyIi+tznPkfXrl1jh8Pq2qErCyUtK62Ik6QUOVYOgh8P3qj3jbOLIRwOUzabpUuXLvEDZpK7UHOHISsWi6wKt7i4yG1WIIJh4t3u7i5PXoS6IMoKMg0cj8cpn89TLBYbqAUXi0Um7+Ec9vb2KJVKsYE/d+4cFQoFnvyIB2RpaYmuXr3KJESUAEAEw2adyWR4dKtkz2cyGSaigU5OmD8AACAASURBVFeRyWTYWEleBFjtOC6yCmtra/T6669TMplkgSCo8FWrVZawhjMCJ0xmENBjjwgUZYZ0Oj0z09bOnDnD3w9Gfmtri/b39zmDABJss9lkhcV6vU6JRIIWFxdpf3+fKpUKZxgWFhbo0qVLPO+j3W7T6dOnWewL9xftodgsoYXQ7XYHDDIyRyCgwgHNZrP8O3RVrK6u0uHhIfNl8GzgmO12m2q1Gi0tLVE8Hqf9/X3mL/T7fdrY2KCdnR12WuD84v34PihJXL9+nRKJBB0cHHD5A50cMq1//fp1zkIEIZTkheznxRgNk4oGB8rq9WYX2LDvbZaJg3YQ3va2txER0fnz5+mee+6h97///fSRj3zEUami3+/TxYsX6eMf/zjdfvvtRET017/+lY9p4uLFi0RE9M53vnOsdnEabNpUlBiOchHcyDFbPWTDyCKuUy9vpU0xVhgdBaVSiaOrxcVFNtBg+6+srHCtvVgsUqVSoaWlJUokEhz1YOTz8vIydz4gPYsecjzw5XKZstksR1x7e3uslgcOAngOW1tbTNrB4BooIoJdjk6Js2fPUrfbpc3NTTo4OODBOEh3I0IHx0JKQCPtDbEmZBFQJgF5rNFo8HmD1dzv97lTYXV1levp+/v7fF1h2JBhwPApGQ3VajU2TtB3aLVaFAqFaHV1dWYcBHx/OZcCWRQ4nShJgfyHay4HVyG7ha6Cra0tLh1VKhVen9AOwHvhhOH+YhBYKpVi7QmoEG5ubnJpoVKpULVaZXEutKaCIwR9BGR5QqEQDxOTiqHpdJq1EEqlElWrVYrH47S6usptxXIUNMoWrVaL6vU6jwRfW1ujXC7HNWesYzg62WyW1xnKIsMM4FH3ESczG4Y5CXYt48OOI7MHdoGbm2FSViWLINpCU6kU/epXv6Jf//rX9KMf/Yh++9vf0rPPPksvvPDCSG2TdrtNf/zjH+mZZ56hdDpNt912G7388sv06KOP8nd9/fXX6b3vfS+/55Of/CTdcsstMxPlm+2pfrb7j5WkKL+MG1ENt576ONqUMGYYQj9wBJACBdMbNVEYRcm0hmiNHOGbSCRY8Q1ytpgGCeY2ShfNZpOPB7U8RP2YkgdH5dq1awN1ZUxIlOOjke5HdIV0MjZ3WeZA18TS0hITy1BeARkRHASUMtBdgI4EPMBwjpAyXlxcZOOOGRBwfuA0IS2NbhFM60NUAecMMr74PaYOzgpKpRIb8k6nw9cGxhDXAaUm3A9Ey+iSQY0fSoa43hBUgliQlKxG+yvuLTYeZDNQpuj3+7S/v89cBziOkNNGehtZKESx4JbA2CDFj44ePBtYs5gMury8PODAYJoj1itURVOp1MBcBjkbAnsSZMXxvaza/6yyCqMM86h9zY6UbZLaRg2PQhZm1KAkHNdu0qOUhbc67rDvIV8XhBZNv9+nM2fO0NNPP01///vf6bnnnqNMJkM//OEPR7734sWL3P762muv0Z133kl/+ctfBoSqlpaW6Itf/CJ94QtfoPvuu49++tOfjq3TyY+yud9dJlPBQbB70GaFg4BaPch1SM0iSpUz7iHoAocBBCkYLplel9ELNj3UZFEqgEHHBj8/P08HBwfsNMgJkXgQ0D2BDRDngcgexhqbNAhictofiJPz8/MDegyydx3fCb/HMXC9QI7EuRMRp4sl4RCbupzMF4lEqFgsDkzNxPpB1gIERmQh5CAtvK/VatmmGKcJyPhI44w6P9aebJ9FiQvXA2sO5D7wRCSjHe8xa/NSmAq8Edn2J8mzMqJcEBMnZdYAJQYcG04IJMMlwQ5rB4YeAPkS3x2lDXwXKfSEzBlaZOX8B1OBTqrhYd1jzXmJiL3U5UdNlHS6t5rZA6tJi1ZKkaMCLvPHVHqUBtdvXLhwgT760Y9y6+w999xD7373u+nKlSsj3/u73/2OiIi+9rWv0cMPP0y/+MUvqFAo0KuvvsqvyWaz9OSTT9JTTz1F3/zmN4mI6B//+MfUZQgmYfPG7iAMcxZmyUHAxrG1tcVGFv3f6AeXgkFo94JqYqPRoHa7TRsbG1QqlTi6r9VqrLkPg4p0O1KnRMTs7FQqxRkDqX2PCX4gnC0vLw/wBQqFAjNy4QQgOkN6utVq8aaOVC0EjKT4EbgWSEFvbW0xIQ7pb6S5cU2azSYtLi5y9gQlCxDxJI8DNetTp06xgalWq9RqtWhzc5OjPxgRiEi94x3vYG4FjAsyPOBiTDOi0ShtbGzwukAEfvbsWXbu6vU61et1On36NDtduEZoPS2Xy9xhkE6naW1tjfL5PJMSy+UybW5u8ppBWQtrAURUlDZAzA2FQrz2lpeX6eDggGq1Gg9eAjcARgWCTiDOYj1JLgSc7V6vR2trawPPRrPZpHNvTbSEg5LL5XguBJzUSqXCg9BQUimVSpRKpfjc8X5kFvb29vgcZTu2Fw0EmX1zYuyPku20KhFYdR/gGbfLSNjt19IRsHIMzGxGEMhkMrS3t0ff//736fLly/TSSy/RhQsX6N577x36vl6vR6+++irdf//99Ic//IFefPFFeuGFF4iI6Pe//73le5BdmqbZLSemzdFc0E4IMdMKSCRL2WFs2ugiQIQNIhYGeaAFEpFYtVplYwpuAzZ+mW0AG12WBBARQy0P1xFpYLDDV1dXqdls0vb2Nm/GSPMi2ut0Ohy1o3Wy1WpxmheTGGUqGdEe7iH+DgdBRqlExHK75jWQ7HE83IgYMAxod3d3INsQjUZ5LDTS1YgAkVWBQ4IOB5QqqtXqVJMV5fhkpL6hIIhoHJkZOToZHSe4fyDolUolvi64f7jXmA1SrVa5ZIPIHw5XsVjkcgW4K/v7+8xlAfkP54qW0lwux6WlRqPBczlkyyb4EVJqGa25GCCGzAa+I36H0gUcFRwHXJtut8u8Hsg/w+nFM4yukJ2dnRvS9Xge3e5xyFq5LcEeJfCyK+l63aOtdBlMZ8Z8jak9Y2e4nUpNExGdPXuWvvKVr9B3v/td+slPfkJEb2qDPPTQQ0PfV61W6eWXX6bHH3+cxZkymQydOXOGLl68OPT+IBvll70L8hhB2s6xOQjSE7dKezkZ5ey0HoPPsyLl+AVEP2DYSyCalZCvg9SrHUDQMmvRozDM67X6TKtztzqG/J38bnafZ3XcYrHo6vq6fT2cj1GAUt60Cybh+1utBatrI9eHvC/5fN7RtbH6f6v7a95bMypFZoHoTfKXzO7IY8r3WK0XJ88t9pRCocCOuhwR7mSvCIVC7OjD4MFphTFzS1A0VValsyGVUM3rJ4+L7yYdFrNF0WybtNIucJKdsNpnTR6CPLb8DlbXZtS9Q5DkBp/+9Kfpgx/8IF2+fJnS6TTdeeedNxzj29/+Np06dWrgc5555hl6z3veM/C6b33rW7S/v09EbxISJSeK6E3VxXPnzv3bSIbD9J3vfIeSyaTr5xhZrSAdCASWUt10JjMIVlkDtxfvqJ0QCoUimKyg0/9zQuIb9RqrVjsvG67V+8ZZqhxlwL20OVppFgyL7q0Ej8zygtyzpWNid92HlRtKpRItLy+7MmShUIhuvfVWuvXWW21f88ADDwz8+/Tp03T69OkbXnfXXXfx3+++++4b/v9jH/vYwL8jkQjdf//9R3L0g8pQBI2J6SCY0stOamNOGLXqJCgUk3UORj2DTp5TJ8/6uJ2doJyDII5r/mmlfGhmG5C1sOIVuA3WhgES4Jubm77OuZg2lMtl28zvrEyWHfuwJvPvTiMKpxdVHYTjAbRXSgloxexnFNw879N47tPuJJjOgJUKoJVGgswumC2OQWRX6vU6bW9vUzabpVgsdmwcBXScFYvFoWVhdRBsFq5kWgdBUpTGxA2TWDF9zgHIdlLWVzH7DoLdIKJhr3GSYQzqOR/1fUwHdpQWARFxO7BpfK3S+sPY6qYOgZ1T4MRJwHc5SvZGSjuPQqvVou3t7WO3Pzs1/n46CW6ndE5tBsFKB8FPkqI6A8fDQQDTXrMH6lS4WTfTlEUwyYgS6NYYds5ezsPqM0dNCpR/Wk2sNM/FSmzJdJjcGKtZiab9hCTCagbBwkkwF4fT/lzFyTAWaA9VqIPg1PiPo6XM7V43qUBGZgSI/i0eJac+IuqUGQs7cSg7rpj8txy0BQdIYX9/1EEY8tCMyh54fXg1g3A8jIU6h4pJBAteSJdWxzD3NbPl2uwIkMbc7nyctCzKEeqmvL3ZLmm2Kw7jiTnJHOBYctS4OvnW9wg6JtNur8bexWC2zIzqZDiqcdEFOlsPjt6v6Y98ptW4T/Ka2A2Iw/eHGJncl6S4ENL6UA+Fzgo4OFJeHPLS0phDelqOrLZySGDAZQnAdBLssgbDygxy74WwG+bBqLNvGN23Zsj4WRIL6hqP1UEwJ4pZtd648VjtLgw+o9/vUywWYyEWr9Kpk9wET9KG7JeTaLVuzHXmdxvdqBrvcYnc/azPz8oz6KXdWkbx0qiDWyO7c3q9Hr3++us0NzdHr776Ko/Z7nQ6dPnyZbp06RLPkQiFQlSr1ahWq/FgNchDyxHWUvtAGn/pHJhZBrvSgpNrIB0BKHCGQqGBWSIK4vH2fl6PIGWXJy61fBSVKTslL1m+wBREK4940oY8qE1Pyyw3OoxerpGTuvhR+/k1C3F8v58sIWA0dzQaZTVJpOErlQpdunSJbrrpJjo8PKROp8NGBM7A9vY2dTodOnXqFK2trTGHAPLo6AyD7DY+G5NAUU4wCYQmV8HsnnAq2WwGX3JwGGSvgxzoNAtrApkDTLYNqvNgZjMIpkjSKKN9FB1xM3UWtKc1TQ6CGqWjXyOr0btW7x1VEpn2DUDXUjDPuhyOhEwmEbFxqFarFA6H2UhgPgrGXi8tLdH+/j6XIrrdLuXzeR4BPz8/T9lsdmCaKiZvYm6FdELAmo/FYo6yXV4UHE1gngrG3JvPwjARpmEOuXw2nTroZleGm/VuSkxb8Tvs2kNlR1alUqHDw0OedjsLjnJ4UpuOlZPg5waGmxiNRikcDtOXvvQlvjlBeLJB3WwvBmaWIrQgtCr8cjb9OCc3Q2lmwRh6uSamo+X1unrJ1kwiW4hZDJFIhBqNBsXjcdY9KBQKlEqleKorIu96vc6dOxjQhe8DYzI/P0+tVovK5TJduXKFut0uraysUL/fp3w+z1NfrcY545zsxkBbXT+5L4/iB1m1OuI8MEwNJRLpOJkZl2H31WtwN0pjw+o7mNfHbRZSDvrCoLhwOMxZHtzPaXfAx97FYDoJ5t/9fIixoNrtNj366KOONz0v3RJWdW63C9fr9/Ti7bvZ+K0yL1bn7uU8RjkIXgyU1Wbl5VzN15iOJSKzYa9xcn+8nIsfx3BiUJ2s0VGf7XWd2xH/THLeMAPn5FytDMNRHQacL1L+IA+ipCAdCSJiBwEBDQYI4U/JH8D3hPPZaDSYg2AnhmRlhJ0aXlOy2Um2zbxX8/PzEyMg+xEQHiXowHUzh0L52eYYlCDgxNocnWQQnGQWnKqpueE6eN2w3UqSTmp2hElI8nIOVobQi3Ngxbh2G30OU7IzyWLDjKV5z8zPtjJ0o67DuJxAL/fQSXZq1DVx8h6vhsGqVXDUvXezgVsZTbto1sk0RPl5Ms2PdY4x54ikDw8PKR6PU7lcpmazSbu7u0wqhCNgtoXj2UVZAcfFe8w1I9e+uY6cBDTme508J8cRJ7XUNpFhTU6jl0kNbPGyYKycjHGJu/hhcJwqrR0lsjedA5Cnjhp9yjS+Wb4aJsTlNtq0OpdR98+LQfVi/IMSCfLDMXFjQIbdN7tJhX4/18OcfycOqnmu0hGen5+npaUlqlarNDc3R4VCgQ4PD6ndblO5XKZIJDJUZhkOAvgGkndg5RyYRn7Y97W7tsPugd2ESIU6CJ4zCFb9tV55CH5sGF4iHi9liWlxcJyIoLiN2t1ce8mq9ruN083x3Bp3MyVodf7ma6bJQRjl1FqtC/M+m/928h43Dqv8u5PPGlcAMMwhNjOjTu4jDHs8HqdEIkGPPfYYRSIR+tOf/kTz8/PMT7ASMIIQUbfbpXa7Ta1Wi9ddNBodyF6MmsOATIZTfoHV8U7CFN1x8VtOtINgOgmjnAMnpCTzfU7qTX5sMn7U04ZtQnYMX7/a85xs2na90U4zCGYKG3VIc6zstKYCR9UInaRb/XJgx8Fj8AKrHvdRz6QVnwVtYDIiNa+/1b01j22uVyfn5/e6kobXDtFodKBcsLCwQIeHh9RsNm9g6IPrgmOiq6HZbFI0GuU2R0gpy/ePGtZklxkYRhxE9m+Wjfs0H9ctpHqm04zp1DkIVi2Ho77ISVBgG2YQrAyDFyKWFZPefA0eeGxa2IjwOvMYVg7CsGgZNVJzIzrqPQ5SqS2I43o95iiHdFLRjJNylbl27LJPZqrbCRF21LGt2s9Mp8LKEXHr+FmJvg27J4eHh2zcMdY8HA7T5uYmJRIJWlpaona7TdFolGKxGC0uLlK9XufuCBwDJEi0PobDYZ5+6mRYk5c1pCWF6XaG/Lw/Y9dBGJU1mBUvLugshN1NNj13Kya9nfF3ki7DvTGP6eYYTqO5aXcAg5ow6DarMM2zKbx8P0Q8Xq6LWy6MlXNsrmUrJ8Ncp5KBPsyxH3afrJyMaDQ60MZ4xx13UDwep7m5Odrc3KRsNkt33nknt8a1223OJKCcgPej1IDXyO9ilh3gXKDzwa0ToPoYJwNjdxCkDOgsp3mCMB5W6cFRm5tXNT+7tKtdJsBJmnbUa6xqytO8BoK4x275H07v8aRayLwa+nEd24kja+V0mzCnE5ota1ZcgVHrHYYaLZDtdpsikQjzC6TDjp9wOMwcBRwD2QaUJ0wHzGqks1Xro9u2vVmBZjxmwEEYVtOadpKL3zMC8OewbIDd9fJimN1umkdVHLPalILYaEb1Z0/DxuKFPDhrm1xQnQVeO4OCcPzMz4UyoumgyXVvli5g1IcNlDM5WnI/MAfdmVye+fn5gc+EToSUUYbjgqyJ3TM0yVHVCnewckRnjoNgesNOpjgG3dJ0lJswatOyS/0Pqws6SakGFSn6UfaxEsI6KmHSTVQTtFHwc90E4UQctwhtmgyRU5LoMNElOUzJqn3RLsNqpx8jDT90E9DhYMXnALfIFJdSg68lk6lxEKxaHf0ySkFkDKzUHk1NcKuUpN3vh206k1ykfm0SkmmtD53iJBsQK6EtO20DM6NgtjnCuNuNXpadH1Lm2Or59sI5mOXsge5DM+AgWPX0TuvNl966dATMP/HQ2zk5dhkQOQf+OEF2PugceIXixufDjOrN7i5E+sg2mD+yw8hUIZUBi9lGisyBXWujXxm/WXUQNIsyBRkEebPctgWN9aK8xew1xXzMfmT54DsZCGI+uFYSwZO4BkGo0c3aOSsUR1nTTrX6rWa2SAcB3QrymJKHYDoKch+Jx+O8byGT4OR8nQZv+sxNN2Z+FoPpDJgL0q18Lx4Gt61zVlwAafyHXXi7h85JrdnJ/AI/CIeTMOhWWu9+fE5Qkxmnue6vmZfjsRm74cWMmmgoX4+WSBAN5UCkWCxGsViMWq0WCygNG9zkdlLipLpl9Jmzh+lA+iliNTEOQhDHtKrLScYvHiyrkadWrOBpwKw8kOM2uOO4P5OS9VWoQRmVhbD6P7RARiIRisVi1Gg0qNlsDrQ1WqkoepGWV0wfkFUCYdWXcfWTdBDcfgE79TLzmMO4A1ZdBN1ud+h56Qbuz2bph2qiX/dDNzzFcc1sIAgCrJQV5XN0HHkHJxGdTodardZAJvyo927s0xyPYjCGzSI3NQRMso5dScPMHPh1ruMyvkddAH54mkE7CH4M9fJy3Sb1ObohawZh2Npw8tlzc3MUjUYHWhul4ej1egO8qVHy14rpX4/tdpsajQZnkfyYtDkWBwGTy7AIW60WRaPRkZuprKXIHmHpENjJDKMn2Mr4B/FwW5EU3fIH/J5s6OQ9R52iOSwb5Bexy6/jSPgx1MuLZr/V+QYh/uPk3IKCl7KYl2fBi4iYk2NbGUYnqojjcATt1qTd95yfn+cfvAZzH2TQ5FSLRjGdzkEoFKJOp0ONRoOdAyuZ8alxEKSYR7fbpU6n47q0YBJs5LQyO+/WSv9/HNGZl88ZtQn5GXVYGY9hEcKoY5hyrVZDcUYZJPket+Om7Y7jZ+TjpT1qUkQvJ73t49rs/fhcqw4fP4yXE4d4WrknXkqyCKKwd8p2R9kqaT7PitlzEur1OpNXYSfn5+ePFBiEg9wksACR+pAPvpuHwywfTGMpwK9N3Y/zNxeEXbRs91lWG4XVMfyI0oO4b34dy8sExUnVc4MyqH6saS8OkZVDGrRBdfuMjHOtes02yA4HGRiYJdjjpsly0pyDfr9PzWaTQqEQRSIRdhRisdh0OghI8TebTapWq9RsNgfSIW7aEXEsLw/OuKKoaSI2jkqHDmsttfp9UI7YtIspeWF3T8pBcJJKn1QGwct19FI+8INXEiQfZxLHxnvi8TiFw2FOPatDcHwQCoWo1+tRrVbjSZ4Y7IV14bXc4KuDINPFh4eH1Ol0BhwEkwfgZBMYFhl52RS9Tj8MQus/qGE05jUzNwNT8dDJxEEnehN2jgjea2UE3Oo+OLmWTq6jF2MyTUbYD0Pt5dzdrE+7rhOvz60fzpoXB8HNWnFjxL2UDNxkNCTHIJ1OUyQSoUgkcoODMC0idV72XcW/+Xn1ep3L8pFIhKLRqGUXn5v7HQ7qhDGXvNFoUKlUokajQbVajYUc/KrDBrGA/DJafkYIw4z9qNe4dSi8jBceRuzC+VgpTo5yZvy6H7MklBTUuvfDCDvlWCBSdSpDPqln30lpxss5eRnr7eb7ujnvw8NDWlpaong8znXpSRhhL8+cl7LSpJyKcXGLTICM32q1qFgsUiKRoEqlQtFolO81nke3Ikphv268vDG9Xo9arRbV63UqlUqUy+XolVdeoatXr1I+n+dBJH5ExnZdDH5uRFLWNMjNy0lbipNNx49arfQyreZGOHmPlVKb0+PI/7caejPqfo0ijfphYCdp2LyopZnvMa+Rk/XntPsDpOKgNk4n19FrGt3r/RlHecltmQHR5O23306Li4vU7/ep1Wq5Oi+/HOVxdWkF0SUU1Ln6cc1AMO31ejzyu9FocEcDyg1On/HAMgjIHCB7UKvVqFarUavVokgkQsvLy5RIJPhLHFUHwcobDsozHIeioVf51iD66GV7qJdUqBxtK8/R7bHm5uYoEom4ehCtOCtO2g/HkZ3yK8LxYvzMOmS32x3pcJsw32N3bnKip9nSPE2Ollvnc9S6Gya45kfd32pk86hjz83NUafToVdeecVT5DuuqNwvYu2k+BVBfa6TgAiOYCaTYRsrx3/DKXTb2eCrgwDeQafTYScBXk0mk6FkMskLwS9d/lF1Vi83zY8sxFFFgSYNeR7Y8N1kkyD5KcsM5pCrcd4PPxwEv9Lix50gZiqWBjWULIjIdxY6H5wGBbjOcOqi0Sh1u11HWbxxRMdB3YtpIeeO67iHh4cUiUS41BCLxThwlg6C1EZw+gyG/foCcsoYnAN4uolEwhdVJ8XkHlynmzEIiVZRzrQ/iEe9B16ckGm/BsdtVG7Q2Ru3g+O8RKFuCJG6507Xegsq6DCB4Kzf71On06FIJMK22c2sBt84CDKd0ev1qNPpUK/XG2BUKiaz4flZHhnWToXoGCmvSUUe43YOTA6O/Pe42mon5SCcNOfA7XHGIYY0q/dD9+bg1owsI8A2d7tdCofD3OngxCH1zUFAbQwOAjZJMCnNNjnF7GURRi16mT0IykBOk3aCXXQAzz3INa8Owmxv/Fbt2mrcdZ34mVWA3ZWihShDyKBxWLbJ1wwCnAQYiHA4zAQzdQ6OnwMhF5/8DBjGoD53mhwEM4MQj8eZexOkMzMtcxVmTZ5XJ4EqJukgjMr4+NHpITvGpJMg/1/uT8M+M3zUh022s0kBnvn5eVpYWAj04R633Omw93jZsCdp6DQyDG5TSCQSXPtTxbrZj/KOU3AzLgnuk3ZdJ5l5cCK4J6W1ZbYfr7fbpzw7CDJC7PV6NzgH8Xj8WEfcs+wgHDfi2bStHTCIlXcz+5vxcTRik5Kf91uUSmEPK8K0mU2QmX87G+bJQZDOgfRIZN1j1jf5oL0+9aCPr4MgvfUgSy0KjXRnKYOgDsL47rFd26tVuUGSyn1zEExHAU7BuIlZQdQUvQyXGZcjopHTbGzAboaSKdRBOAkZBH0WpiejYM5nsMORSgzyg6xkdINedEFJgE6TgxAU78LttEbNkDh/EDVroFAophFy/LcTrYxQ38VOZifQoRti8DfUbwfBrTGfZMuOQqFQKIIJtPFvq7EFYT8OHqThUgdBHYRZzyiMA0FNktPnWqE4uXbFNwdBMR4DM6m++knp2iucYRxDyxQKxQnLNHgpMejGr1AoFArF8YarDII6BgqFQqFQnAyozJtCoVAoFAp1EBQKhUKhUKiDoFAoFAqFQh0EhUKhUCgU6iAoFAqFQqFQB0GhUCgUCoU6CAqFQqFQKNRBUCgUCoVCoQ6CQqFQKBQKdRAUCoVCoVCog6BQKBQKhUIdBIVCoVAoFOogKBQKhUKhUAdBoVAoFAqFOggKhUKhUCjUQVAoFAqFQqFQB0GhUCgUCoU6CAqFQqFQKNRBUCgUCoVCoQ6CQqFQKBQKdRAUCoVCoVCog6BQKBQKhUIdBIVCoVAoFOogKBQKhUKhUAdBoVAoFAqFOggKhUKhUCjUQVAoFAqFQqEOgkKhUCgUCnUQFAqFQqFQqIOgUCgUCoVCHQSFQqFQKBQKdRAUCoVCoVCog6BQKBQKhUIdBIVCoVAoFOogKBQKhUKhUAdBoVAoFAqFOggKhUKhUCjUQVAoFAqFQqEOgkKhUCgUCnUQFAqFQqFQqIOgUCgUCoVCHQSFQqFQKBTqICgUCoVCoVAHQaFQKBQKhToICoVCoVAo1EFQKBQKwfaTGwAAABNJREFUhUKhUAdBoVAoFAqFLf4/sXDlPDzOMU0AAAAASUVORK5CYII=;" vertex="1" parent="1">
          <mxGeometry x="100" y="475" width="520" height="348" as="geometry" />
        </mxCell>
        <mxCell id="8AlbYs3zOn7eQTXVhcZB-3" value="" style="endArrow=none;html=1;rounded=0;strokeColor=#00CC00;strokeWidth=2;" edge="1" parent="1">
          <mxGeometry width="50" height="50" relative="1" as="geometry">
            <mxPoint x="625" y="719" as="sourcePoint" />
            <mxPoint x="573" y="718" as="targetPoint" />
          </mxGeometry>
        </mxCell>
        <mxCell id="8AlbYs3zOn7eQTXVhcZB-4" value="" style="endArrow=none;html=1;rounded=0;strokeColor=#00CC00;strokeWidth=2;" edge="1" parent="1">
          <mxGeometry width="50" height="50" relative="1" as="geometry">
            <mxPoint x="624" y="696" as="sourcePoint" />
            <mxPoint x="572" y="695" as="targetPoint" />
          </mxGeometry>
        </mxCell>
        <mxCell id="8AlbYs3zOn7eQTXVhcZB-5" value="" style="endArrow=none;html=1;rounded=0;strokeColor=#00CC00;strokeWidth=2;" edge="1" parent="1">
          <mxGeometry width="50" height="50" relative="1" as="geometry">
            <mxPoint x="625" y="672" as="sourcePoint" />
            <mxPoint x="572" y="672" as="targetPoint" />
          </mxGeometry>
        </mxCell>
        <mxCell id="8AlbYs3zOn7eQTXVhcZB-7" value="&lt;div&gt;increaseTimePressed&lt;/div&gt;" style="text;html=1;align=left;verticalAlign=middle;whiteSpace=wrap;rounded=0;fontColor=#00CC00;fontStyle=1" vertex="1" parent="1">
          <mxGeometry x="635" y="661" width="140" height="20" as="geometry" />
        </mxCell>
        <mxCell id="8AlbYs3zOn7eQTXVhcZB-8" value="&lt;div style=&quot;forced-color-adjust: none; color: rgb(0, 204, 0); font-family: Helvetica; font-size: 12px; font-style: normal; font-variant-ligatures: normal; font-variant-caps: normal; font-weight: 700; letter-spacing: normal; orphans: 2; text-align: left; text-indent: 0px; text-transform: none; widows: 2; word-spacing: 0px; -webkit-text-stroke-width: 0px; white-space: normal; background-color: rgb(251, 251, 251); text-decoration-thickness: initial; text-decoration-style: initial; text-decoration-color: initial;&quot;&gt;&lt;span style=&quot;forced-color-adjust: none; background-color: initial;&quot;&gt;stopPressed&lt;/span&gt;&lt;br style=&quot;forced-color-adjust: none;&quot;&gt;&lt;/div&gt;&lt;div style=&quot;forced-color-adjust: none; color: rgb(0, 204, 0); font-family: Helvetica; font-size: 12px; font-style: normal; font-variant-ligatures: normal; font-variant-caps: normal; font-weight: 700; letter-spacing: normal; orphans: 2; text-align: left; text-indent: 0px; text-transform: none; widows: 2; word-spacing: 0px; -webkit-text-stroke-width: 0px; white-space: normal; background-color: rgb(251, 251, 251); text-decoration-thickness: initial; text-decoration-style: initial; text-decoration-color: initial;&quot;&gt;&lt;br&gt;&lt;/div&gt;" style="text;whiteSpace=wrap;html=1;" vertex="1" parent="1">
          <mxGeometry x="636" y="682" width="110" height="20" as="geometry" />
        </mxCell>
        <mxCell id="8AlbYs3zOn7eQTXVhcZB-9" value="&lt;span style=&quot;color: rgb(0, 204, 0); font-family: Helvetica; font-size: 12px; font-style: normal; font-variant-ligatures: normal; font-variant-caps: normal; font-weight: 700; letter-spacing: normal; orphans: 2; text-align: left; text-indent: 0px; text-transform: none; widows: 2; word-spacing: 0px; -webkit-text-stroke-width: 0px; white-space: normal; background-color: rgb(251, 251, 251); text-decoration-thickness: initial; text-decoration-style: initial; text-decoration-color: initial; display: inline !important; float: none;&quot;&gt;startPressed&lt;/span&gt;" style="text;whiteSpace=wrap;html=1;" vertex="1" parent="1">
          <mxGeometry x="635" y="705" width="110" height="30" as="geometry" />
        </mxCell>
        <mxCell id="8AlbYs3zOn7eQTXVhcZB-10" value="" style="endArrow=none;html=1;rounded=0;strokeColor=#00CC00;strokeWidth=2;" edge="1" parent="1">
          <mxGeometry width="50" height="50" relative="1" as="geometry">
            <mxPoint x="410" y="544" as="sourcePoint" />
            <mxPoint x="410" y="453" as="targetPoint" />
          </mxGeometry>
        </mxCell>
        <mxCell id="8AlbYs3zOn7eQTXVhcZB-11" value="doorOpened, doorClosed" style="text;html=1;align=left;verticalAlign=middle;whiteSpace=wrap;rounded=0;fontColor=#00CC00;fontStyle=1" vertex="1" parent="1">
          <mxGeometry x="385" y="425" width="140" height="20" as="geometry" />
        </mxCell>
        <mxCell id="8AlbYs3zOn7eQTXVhcZB-12" value="" style="endArrow=none;html=1;rounded=0;strokeWidth=2;fontColor=#0000CC;strokeColor=#0000CC;" edge="1" parent="1">
          <mxGeometry width="50" height="50" relative="1" as="geometry">
            <mxPoint x="577" y="573" as="sourcePoint" />
            <mxPoint x="633" y="573" as="targetPoint" />
          </mxGeometry>
        </mxCell>
        <mxCell id="8AlbYs3zOn7eQTXVhcZB-15" value="setDisplayTime: integer" style="text;html=1;align=left;verticalAlign=middle;whiteSpace=wrap;rounded=0;fontColor=#0000CC;fontStyle=1" vertex="1" parent="1">
          <mxGeometry x="636" y="565" width="140" height="20" as="geometry" />
        </mxCell>
        <mxCell id="8AlbYs3zOn7eQTXVhcZB-16" value="turnMagnetronOn, turnMagnetronOff,&lt;div&gt;ringBell&lt;/div&gt;" style="text;html=1;align=left;verticalAlign=middle;whiteSpace=wrap;rounded=0;fontColor=#0000CC;fontStyle=1" vertex="1" parent="1">
          <mxGeometry x="535" y="410" width="120" height="50" as="geometry" />
        </mxCell>
        <mxCell id="8AlbYs3zOn7eQTXVhcZB-17" value="" style="endArrow=none;html=1;rounded=0;strokeWidth=2;fontColor=#0000CC;strokeColor=#0000CC;" edge="1" parent="1">
          <mxGeometry width="50" height="50" relative="1" as="geometry">
            <mxPoint x="551" y="467" as="sourcePoint" />
            <mxPoint x="541" y="511" as="targetPoint" />
          </mxGeometry>
        </mxCell>
        <mxCell id="8AlbYs3zOn7eQTXVhcZB-19" value="Controller&lt;br&gt;(Statechart)" style="rounded=0;whiteSpace=wrap;html=1;fontStyle=1;verticalAlign=top;" vertex="1" parent="1">
          <mxGeometry x="551" y="180" width="90" height="90" as="geometry" />
        </mxCell>
        <mxCell id="8AlbYs3zOn7eQTXVhcZB-20" value="(Physical)&lt;br&gt;Plant" style="rounded=0;whiteSpace=wrap;html=1;fontStyle=1;verticalAlign=top;" vertex="1" parent="1">
          <mxGeometry x="359" y="180" width="90" height="90" as="geometry" />
        </mxCell>
        <mxCell id="8AlbYs3zOn7eQTXVhcZB-21" value="input events" style="endArrow=classic;html=1;rounded=0;edgeStyle=orthogonalEdgeStyle;strokeColor=#00CC00;strokeWidth=2;align=center;verticalAlign=middle;fontFamily=Helvetica;fontSize=11;fontColor=#00CC00;labelBackgroundColor=default;endFill=1;fontStyle=1" edge="1" parent="1" source="8AlbYs3zOn7eQTXVhcZB-20" target="8AlbYs3zOn7eQTXVhcZB-19">
          <mxGeometry y="20" width="50" height="50" relative="1" as="geometry">
            <mxPoint x="389" y="130" as="sourcePoint" />
            <mxPoint x="439" y="80" as="targetPoint" />
            <Array as="points">
              <mxPoint x="499" y="200" />
              <mxPoint x="499" y="200" />
            </Array>
            <mxPoint as="offset" />
          </mxGeometry>
        </mxCell>
        <mxCell id="8AlbYs3zOn7eQTXVhcZB-22" value="output events" style="endArrow=classic;html=1;rounded=0;edgeStyle=orthogonalEdgeStyle;strokeColor=#0000CC;strokeWidth=2;align=center;verticalAlign=middle;fontFamily=Helvetica;fontSize=11;fontColor=#0000CC;labelBackgroundColor=default;endFill=1;fontStyle=1" edge="1" parent="1" source="8AlbYs3zOn7eQTXVhcZB-19" target="8AlbYs3zOn7eQTXVhcZB-20">
          <mxGeometry y="20" width="50" height="50" relative="1" as="geometry">
            <mxPoint x="469" y="210" as="sourcePoint" />
            <mxPoint x="499" y="320" as="targetPoint" />
            <Array as="points">
              <mxPoint x="499" y="240" />
              <mxPoint x="499" y="240" />
            </Array>
            <mxPoint as="offset" />
          </mxGeometry>
        </mxCell>
        <mxCell id="8AlbYs3zOn7eQTXVhcZB-23" value="Environment" style="rounded=0;whiteSpace=wrap;html=1;fontStyle=0;verticalAlign=top;dashed=1;strokeColor=default;align=center;fontFamily=Helvetica;fontSize=12;fontColor=default;fillColor=default;" vertex="1" parent="1">
          <mxGeometry x="191.5" y="180" width="90" height="90" as="geometry" />
        </mxCell>
        <mxCell id="8AlbYs3zOn7eQTXVhcZB-24" value="interacts" style="endArrow=classic;startArrow=classic;html=1;rounded=0;edgeStyle=orthogonalEdgeStyle;" edge="1" parent="1" source="8AlbYs3zOn7eQTXVhcZB-23" target="8AlbYs3zOn7eQTXVhcZB-20">
          <mxGeometry y="-20" width="50" height="50" relative="1" as="geometry">
            <mxPoint x="259" y="170" as="sourcePoint" />
            <mxPoint x="309" y="120" as="targetPoint" />
            <Array as="points">
              <mxPoint x="319" y="220" />
              <mxPoint x="319" y="220" />
            </Array>
            <mxPoint as="offset" />
          </mxGeometry>
        </mxCell>
        <mxCell id="8AlbYs3zOn7eQTXVhcZB-25" value="" style="shape=umlActor;verticalLabelPosition=bottom;verticalAlign=top;html=1;outlineConnect=0;" vertex="1" parent="1">
          <mxGeometry x="224" y="214" width="25" height="46" as="geometry" />
        </mxCell>
        <mxCell id="8AlbYs3zOn7eQTXVhcZB-27" value="" style="shape=image;verticalLabelPosition=bottom;labelBackgroundColor=default;verticalAlign=top;aspect=fixed;imageAspect=0;image=data:image/png,iVBORw0KGgoAAAANSUhEUgAAAggAAAFcCAYAAACtC0YfAAAR43pUWHRSYXcgcHJvZmlsZSB0eXBlIGV4aWYAAHjarZpZlis5ckT/sQotAfOwHIznaAdavq4hIpn5auqqkpJdj8FgAHD4YG4Gttn/89/H/Bd/sYRqYio1t5wtf7HF5jsX1X7/7ff9uedsvP9+/bn3X2d+ftHH+7XnTuA9PB9LfO+H9/7XRPnzzkR/8IVLvxkQPuv7nwuX/lnY/2KRdc7bn3/1+79zVj1nP7vrMeOG/GzqGWm+puFBNhbDHZZ5Ff5LXJf7aryq7Xa6aJeddvCarjnvgj0uumVcd8dtt3ifbmJj9NsX3r2fPtx7NRTf/Aw2uBD1cseX0MIKNfgw/Q4hRBP8xxZ31213vekqKy/Ho94xmWPIX77Mf3rg77zOmdbIw3ImoXdPgL0cjhmKnP7lMQLizhu3dB389fr8mR+BDUQwXTdXNtjteKYYyX3nVrgJEHgu8f7klytLUfM3SyJrJ4xxgRDY7EJy2dnifXEuBl8JUMdyH6IfRMCl5BdG+hhCJjaVPGJtxhR3n/XJP/cpFeKTQg7UERHqBCvGRP6UWMmhnkKKKaWcSqqppW5yyDGnnHPJqrleQokllVxKqaWVXkONNdVcS6211d58C5RkarmVVltrvbNmj6anzujOE70PP8KII408yqijjT5JnxlnmnmWWWebffkVVlxp5VVWXW317TapZHbcaedddt1t90OunXDiSSefcuppp3+i9kb1d69/EDX3Rs3fSOm58okad0vRRHcKJ5xJihkR89ER8aIIkNBeMbPVxegVOcXMNk9VJI+RSbFZznbjMiGM2/l03Cd235H723Ez+Po/xc3/ncgZhe7/IXLe7PCbuP1B1JaQcN6IPVUon9pA9fFM95X/4ez34v/6/u8mij5aB7LpMw2oB58NXpl9ztVIDV9bBiDL6ngObMeT7GuHeC+s1eXSbG7tHHSn1OXuZTF1hVw/o56HPxP8HPUZc4czaC78NOYsZx/XTfi6ygtct/sEkGzMXO8FeT1zGzH9HPM9ZEfFGpBc0fz1I2Gfz+x30vq1UBvtlMfgscYZhu/WXj83MtbvB/2ZSd+7MHoQZ9OAitvM13vyfbgUms3V+pNcnHVHu4e+bTIwJbaS1vIu+VpsHNmuZGZXTtdJD2IRFk4x5uJDK1Tgmth6Ane1UOxcHvJ/Bz9kte2z5BFSIz2ZaDtK1bU9o76MRBAz3ikiGc/8rZ9WKZBcVpmHur2b3xGLDkWzgQ0D5LQb0ql1V0hy0di5hTKe+4ydujp21DIxF6OCnvEtMgpfeberWTcei/4NCMbhymNBp/rI2XiwrKcytxJoFKpXgalyQwU3mCgfF2jtRtBQaNpK5cNKe6VAAZ+yG6XbdvGl5WnvbGuG7XupbGEc+xgwOktPv0zElruFrVCfcg1T1ft79xw4TCju+TT4dNrAHpcbJmF94Wt9Z8retzRq6nSDfm/6lZ8EfOctZF8j6bTLUGTzj2nnnbaYUgEczeseu76mbTgTb7dNNR/t4O6cWcqtu7JTrHnfmNoz+zC7sDPGrf3kxvfIcFf6WiiNL59oRn+eGVXAmrMs078n3SW91pwva/L5sjPgyzD5irnKtzdTWcMXEtmUQwdbOz4QcpYnh04r20+c2YEvf24F0wbSHmETLBfB7542+BXSHNs6Qmr8xARXN1mX8dOsyss8M+xOJeNAo7jnnqHYHdzqo1Ya16Q9NbKf+qh71b42hD2WstaqbQ/aQqqLgixxg2GhbaviYyNxPha705I7uSmTZji+w25bqm1VYzcd1LOhElcclCM78mukNMYoUQAQUyBbHV1K16ojt565BDaaLbGSmQJVLcTeaE0hM5FS5nXzTEF5ombZublUG2tpNr9+WpbAoxjP7vpAiRUNomp00d5RBSyEbstE6rPUsOdJcSz4G5kaxgC+7TZW09OgU4h9ATlATA2LqRZ4N4BGWqxvfQlePFCk9OquCAJHo/OTCIuS6oZ58HBIgALkiPrtLqmKSyHVoTapDEgJXxMrBu1A52auMZ6eY1OvNlDMZqmQ6nSKNTTDh/sAXZ/ESwWqeRHcfeDfU+4J69ryoFqYSnKwt5sJlZmAZKHcwVyXBtUIR0jHh44JdxB5X28CWA3b4gY1e+V+HsQpQkEMeL4JfO8L/FWj9DPBk84YieHUsp23cAJIqbzpze3FRDCNrru1DqKUh2FCCAZ+PydlmeJJw3pY49h4p47Hw7spstWBuxX3QfA81mj7gRYGgTIAXDwr65NfqrAjOSFrKLh52PJU7+DjxYbkIDpqckoCl8Pe10dALeIrIr5QY6NNrAa2KA4Uwgw5e5rIUDKTkfAKaJVYEU4BrIOTpoKAniYGYogkKUuTIfHOTOmocon1aT4H9gec5xto12mOrg8obKQv0nSmh90g45B9PRh6ARmItsyFDuSwF5VBeSMHIzjOzAhFfCPX7rlARQgnqFAveCf6GrUd7DBt5X06WUeyU1A50byac2Mv8Sc7nLJg5bGRnQXXRHrJ2kOoFtQeKfcgsgNh9yDqbYDVkd2QiQ58UV7rpuYcdQGJAAoAVdfTQlXVMUMzlWVHjWEbR6FUlWeBrZYn6Vo4U7FFGJbuKNtaynSgJHSYGzat6yUgcQ3hDCSwGGEDDA1rk595p4qbktpuZnOq/jxiH1QKBRawnU8ikjh9Ub2gfu4L2k4XIRF9uJtuh9oE5C8S/VKdqk02lAdEg+ZNbglMnl4bnnfyyD3167W/8GGJVPAaY6MTYKo4CS5y2ZXtu1YgIwI0+AMihXHpOjuIXWXKCzq7OxCz5TGAy6aRbhgCXoy4cAFIwCceOXPnjgqBIOAEBGQH/DNgdh/i8ui4Y3hHboKVMK01L3wEGLNNmRzL24kEN9pK6Y0G0UkolhY9phi8nE+eEBa+oqLd1DlD0hZggpMuylaBj92SupmN9LqmO8pTMg2iBajvGk/l7vFxQvgA9AfOOklLe2ngu1Ky0hiinBVwMf7CqQcBo01Aj0lMVAziCS3UK/XAqFjxVqMAsQNEoPo2TYNGFW2G0cKZj9QDVRxkaMhQKQP9EaxLZ1x4j3WQtSXRwmBmpP16OhjyTFka9/AdrCG+qUCQV7qj+jK3OIBYYTbOJyxqAPWiYlFihPHVGdhNdEXUSTgMBbO509s86aWElKGz+n2zDxeybbZs3XbtD4Dfy1vthRaI3atf+ja1KlGFkEEhx3ZkUnyY0ontnYr7BTp4kXQD7/d7SpbGD2Am4Mfoe8rRCp0HpsJr7BafGPCkBiugruD0TiJUVUUOpqlO4YrOe6Q0cGRbBjSS2ZGSoqNOWkK6ZwYUX9kdgXuDACEEiCBcmZSvoMxEP6C+ZwXq2XHG2dQ++dQEC7zR8SaXwgcs32DtCJDUkYP3EB6IAwQq0XwzszxJUI7SzSASQGoyrG/Ecp/ZE270joVsq9RKlu2SLfaT390i+QuIujeYtqSdIVrES4wAggnc0FfK9KwEVZznAX3w6YSe0I8RgCQmaBlBEzB3keKJrYFFBxEJ4vMm3kGL0ywTEACrpnSK7fomqdDo10QcYUhFIPwJ1YLvwhUMKuVc6JVkiF3nGAvtB4mYsVAulpY4kVw6BqEsG6LKp9Frbn0nB4ZY6cwezSax524N5RiDh/lEMBHOkFeN9BmU3paTaM3ic4GUIcLNii6isugFLsUm3a9iuvjXqR8AFRUnkJRSOpEbj2T0kKlN2B6CNWi1UJk62P956ojqT4U4ziI22oa97ou3lNSQVUy0kclDBzBALFHLQbwTxwrLPzhtPkB9YRq3yLC5f8K07gtKdBqN7o06M5Hzu61A472GaF0AvgirvEiRZkz1kkNRsIlsyHiBiZf6ZPF3WO5UL74VSQQuMvUwqf6aXWOejtVOPFr6GcGJDx6dAUmFb8LnLJWQrbhvCzqIB9VPwXwwyUezfJo26VANOoAwnwFuElsm3SAZVB/C0UPgSOuu9WDDxcFR4Q/bcRNu7AJMyBT4kIUX4LGjbMk22F7RsyQyY6CA7HKCULOlcStk7y81vpPf4nPA+QT8E5BAbuIUkOlG62Y7ghjCh3qBMhUB/lMW9eZ/Vj9WbyBmjKu3Qc44iyppiBkC6Ojybddwgb6OZr4I61NfTaWBvp6YSMoDu7WNqsMTGgYtmyprgHIMuDEDIsUiDX2dUko0Qxov1eDgkzxNtTSd9iSP2qKzbNEzapBbZuQJuEaH8671nXiE7HKEpEzQuyCY504t3qqD9W3xSHiwgBbegh4En1ojaovSIu4DMMwAKoVY1Ty7Vj9ZrZuyCFKQFGwiXVbP9wcZEiGQaSxlHVsbhJU58a7TqV+nRnuD/cTlMrQMzC62eUlBP7x104IOcDtWZkoIFQxCP1aYWGfoLtB5hxVjrrR1spM1k3Jiw7cKzXrkjPvpqm2gLjqdUXJbZ5a4pCKijA4xoDoOTUUiwthTVO8XGHvgGF0U0UWL1IMFv+Van3JlyucJEszhbAtEUY88kG3ttOZKs44VtCHBhhsX4affvxAxVRvwj8aYwoORIKMZ5gpn8tQy/aPn54hJimhlHX7QE+j1ZyoTL/EA7oDTAlQdpbW/T5rfPRp0e/zxBBhFmwzSPHMcYBMwbyejUZXZQxJ/AhC+/Pji+z69R4p3LqpcQi/WQK+hXYTZvpc0WlMcAVRBdbFjYp+UtItmkIN97ZkgAXByMkzxekmFJ6CVp2WF2exEFIR2JhJKrwYAhUpMlgKKIsAkFvujAR8qGCk4QQ2Kbw/nuo2RyhsWhOz2ePscroQhYy/LpmBBgi9r8VAn26GkDRBCeUGSWtD5zDx9bZ3uGAGrixBqaM9j8ihNJr+TAxlbR5Rg3JBy5q0XuvTMzt0h7wCjQx2rEyTfKrhHEoR7AC9GNt14vB1yDGJmu0Ekn0zybOg5FBtFCWre1o76Row8brRHYSNooKED1mCyYT7tiQV1pE5ng5U05KLIC25zzcA9nI4gdWR7ZRUMWCU85rzdv+sUb15OndhP27vT6aWz+/HUZrYZQlCLkSw60XvAuoQH7nTsgQ8v4nVLN2+TrkCLr6JiKdOskdQ6EaWFK3vLhGghFPEoCkc4wjQ0iI1YRZ+SwZCdlGOrEcXjtvSg8gNBTN9DRTtw8GSxukjLPkChALOjJJuFXEiSU7QoKQh3nRlYobcNmiy8QhQMbMixUKKxNYhGazOHZWzxLA5SwUZWRav0JFYITDoy8JSiHzRmHfOMe7o1vM7GlKcEeu9Fp5gkRjY5ekRQqJ5kp8Gih+nfEwJNV53oTiaNOorHNfW2BvTjQAQPpbvX0ROtxpdmAj0jfXXR1hNdgo0vu/I9aQSfdOx784Uh3V5cJI40ddeLfn0B8dJwBkAttS3FUj9Aj1jhchmejKiVqoMWxaMDWTY66BJD4UuQDUqcvEME06Jb66YUiFbqVySgjlnrNq7q7Hsakr/Ou2uH6j2Hv/6eZ8d7oEWt48tgWERjHQChekWdxbuCfqCjw8qVuFyzHB0Jk4/PUatHEl0b3oNZk+gdUGl4eb4zvxNL0H6P1Li6ag1dbf3XWdq+UxjN4ZXd97DpMwtxwyf1tYaGckb/bBE9IPvHt/1hG9jW5WweZ4bLa2BUsqO8dlC58/1wzaDdPpv57AX+EYDan5u5HP4zrjLzEeI+jo3vkM8I/EoLC9euZF7Hlp11qPz+TCG01S9OkjR3c0+LYnM/hmpkupO7G7XtX3vQSADZaj8m8/pda7V6LUQYeh2JVJ0a3c2h2d7N5f5o2vA9XTsA+4ZMyRL7WnJKu6jgoL0bgYB+A37hC+AWejwgsEy/eYBUqzpz1K2fd677a4T5wXhFbVxp8LOa1dkDEhIiBJ9AQhnqRKdm2SpQ1+6i3JDV6A/8j2yi2ZWA/MgZZVi9tAkgo6OB0fG714GtofHMAonQCdtSRKw+IZWz2BXCM8IWlwT0QSQD7ed5UFn3PgqanGLep9MvT7tfPonq76ofgjfpsEKidWIxmq1X/fiCcKb6SWK3JZ2BP8dyw9k84fcXd+m1BZkMI0qhSyQDpVFnpC5+Ls79ea+ZrUM4qYevi7D/esSfDDD/eMSfDDD/eMSfDDD/Zht/NMD8zRHbwv67nfp/eUicOmmyn+/mtzf+7fvfm4jyXo3I/C+zLDuia+9hpwAAAYVpQ0NQSUNDIHByb2ZpbGUAACiRfZE9SMNQFIVPU6VWKg52EHHIUAXBgqiIo1ahCBVCrdCqg8lLf4QmDUmKi6PgWnDwZ7Hq4OKsq4OrIAj+gDg5Oim6SIn3JYUWMV54vI/z7jm8dx8g1MtMszrGAE23zXQyIWZzK2LoFWEEEMIIwjKzjFlJSsG3vu6pl+ouzrP8+/6sHjVvMSAgEs8ww7SJ14mnNm2D8z5xlJVklficeNSkCxI/cl3x+I1z0WWBZ0bNTHqOOEosFttYaWNWMjXiSeKYqumUL2Q9VjlvcdbKVda8J39hJK8vL3Gd1iCSWMAiJIhQUMUGyrARp10nxUKazhM+/gHXL5FLIdcGGDnmUYEG2fWD/8Hv2VqFiXEvKZIAOl8c52MICO0CjZrjfB87TuMECD4DV3rLX6kD05+k11pa7Ajo3QYurluasgdc7gD9T4Zsyq4UpCUUCsD7GX1TDui7BbpXvbk1z3H6AGRoVqkb4OAQGC5S9prPu7va5/ZvT3N+PxGScoCIazhJAAAACXBIWXMAAA9hAAAPYQGoP6dpAAAgAElEQVR42uy9y44kWVL/b+5xv1/yVl3V0z0zoGGENILFPABrNogX4AHYsEJizQPwCPAIgMTit0Piv0CwYwFCoBmmu7q6Ki9xv3pEuPt/UfWxsfCOzIyIjIiMyDpHyqnpzAi/HD9+zOxrX/uaF8dxLG644YYbbrjhhhtm+G4K3HDDDTfccMMN5yC44YYbbrjhhhvOQXDDDTfccMMNN5yD4IYbbrjhhhtuOAfBDTfccMMNN9xwDoIbbrjhhhtuuOEcBDfccMMNN9xwwzkIbrjhhhtuuOGGcxDccMMNN9xwww3nILjhhhtuuOGGG85BcMMNN9xwww03nIPghhtuuOGGG244B8ENN9xwww033HAOghtuuOGGG2644RwEN9xwww033HDDOQhuuOGGG2644YYbzkFwww033HDDDTecg+CGG2644YYbbjgHwQ033HDDDTfccA6CG2644YYbbrjhHAQ33HDDDTfccMM5CG644YYbbrjhhnMQ3HDDDTfccMMN5yC44YYbbrjhhhvOQXDDDTfccMMNN5yD4IYbbrjhhhtuOAfBDTfccMON5x5xHEscx49+xg03nIPghhtuuPGZOAZhGDrj78bOhhe71eSGG2648WKcBBERz/PcZLjx5JF2U+CGG2648UIiPucYuOEchMc9aDfccMMN5wi4fdU5aM5BcB61G2648dmMQxtst49u/nxewpyl3YvkhhtuuHFaQc9zGB+3lz7+XKggeSkOlXMQ3HDDDTdOZC8Lw1CiKDr4vub7vv44NOFxe+MchBN5WIPBwK3az+CldJuWG2444/ecc+P7vv6byWQkl8ud/Fy9uDJHjMVisZDJZCJRFLnV64YbbrjhxkFHoVCQTCajTsIpBjIvTigJ52A6nUoYhm6VuuGGG264cfARBIHMZrMl23Rq48WlGHAO5vP5yT4UN9xwww03Tt8WiYimHE5xvDgEYTwe64NJpVJulbrhhhtuuHHw4XmehGEos9nsZNHsk0cQLIUiCALN81By4sZhXwjP846K9+EIjG644cZz7YdxHCuanc1mJZPJnNSedNIIgp3o6XQq0+nUrcrnXEy+L2EYHtXid86BG27s9l1w79T6+yFzFYahLBaLo9sfX7SDgIc2nU5lMpm4hfvMIwxDSaVSJwOnOYTJjc9p7ArZc5VhmwWwoKrz+Vxms9lJzd/JIwjT6VSCIBDfd52rj+F5zOfzk3DUfN+XdNr1KnPj5b+TURTtjI/lgrDNHCmcAZyE2Wx2UhV2/ilOOpEfHpnneSpS4cbhRnKzoBf9KWwiYRhu9ZKeck2zG5/nOwpZblcOhxvb7ZEg3kEQSBAEastwIpBpdg7CE5wD8jqz2UyCIFhauG7DPnx0wsJfLBayWCxOJip3a8WNz81IOQ7CcewxOGyr7Nexze1J4vKz2UzG47ETQjoChw3obLFYSKFQ+GycIjfccMONbR2HKIqUWH/M6fGTchB835cgCGQ8HjvE4IieCcjBSzeeyftzzoIbbrixDarA3pFUW3QOwhPGfD5XWMZxDo5jseMNuy5vbrjhhhuP75kEt6lUSnzfl9FodLROwlE7CNYBoPmSRQ6cQXr+QfvZfQtTHcOzThKO3HDjpa1xN/Zv05IoAigsCsDOQdjghaFUZDqdOsTg2BaPQQ0Osbm5DdSNl248jiG6dePw41gbDJ4EgjAajRwh8YiduM+Bf+CGG59TdOvG4Z1CKhvm8/nR7KdHjyBQreAW7vENnLZDNMVyDogbbrh37KXOOXwuhP+ORW3Ri49oVdjJiqJIRqORikc47/b4hlVog4fghhtuuOHG0+yg7/tSLBZVV8YqMh5ynz0qBMGy4pOcA2d8jm9QSeKcNzfcOM3h3tvjfB7IMtMJ8rmqxI4uxRBFkdaGWuPjFrLbXJ7bq3fDjZe2xlzjpePbUyGLohZMKtc5CLKsdeAQBDeee6N2joEbL9FQO9TvuJ0E1BXDMJTpdKolkId+Zs/uILAB4zGBHFhI5RibWLjxcjdq0lz2hXSbqRu72PRp0JMUejv0+nIljce7/1gunsjHEsjZbPYslXz+Mbw4TMJ8Pr+3YsEt5uOOtF/CvaAIKXKYygw3Pj+EAAh5sViI53kyn88PGh0mz+Ec39MY2MdDI01HkWKgbfMx1X+68Xk5Olb+1K1BN/blgGKQU6mU9jBJp9N7M9RJ5T7HOTi9wfObz+eqJnywcz9nmWMcx7JYLCQIgmfLsbjxBO/yE2T6ErzzbDYrcRxLGIZ6X8fcZc2N03MQeGfCMNQ1t2/DYtOzrn/Nyxj5fF7S6fRBUM70IV+QpPFHOQrnAN4BeRjnLJyGZ3vqzkEqldI1l0ql1Elww41dO9MY7Ewms1djDc8hiiJJp9Pakt2lzk57r43jWEn8h3iWB0MQiDQtO3M+n8t8Pl8i8LhxWhHRY47coZyI5Np5rLGSjazS6bTM5/O9vHC7er0OMY+ryMDOST9cwLTLZ2jr6dlz3R57/AHTuvuF7/uKJOxzPR00xRCGoUZrk8lkLxupG/szUqsW6WML81Ab0n33eN+1Ja97X5vnLpCIQ1Xx7Oocj93zru7nFFGefTtcIAdhGOoat79zyNjp79Xsu1EUSalUWnISdr3GDpZiQJZ3sVhofwVSCs45OGx0fcjN7lDPNnmeh9qC2zIzNkyQrGM1CM85j/u436fez7EiG8/dEjyp4ZFKpSQIAslmsxJF0d5TG864H86WiogEQaApK9LzJ+kg4MF2Oh1FEpLMXrdwT8tBWOd5HWqTTF5L8kWxa8xyXWwkuo/1d2ophkOtnZc4KGF8Tu0MeA7UzPu+L4vFQhaLhdzd3UmpVJJSqeQe1jPts4+ticfSfHEcSzqdXuJOeZ4nZ2dnks1md44QHSzFEMex9ru2pDA3jsOz3SZStI209mn4dvHi2U173f4Ru7q2Q0eu+5zHl7aut7lfy79JOqP2X7hVh3IYLAmSHxwEHOLxeCy5XE4KhYKEYbh22uGY9+rHeDP7LCFNBsGPzdmmHJ919lff9yWTyUixWJRMJrPTezxoisHzPMnn8zubPDe282xXbQjbQsm7eEbJY6xzvdsa6n2jVc+1ZlelUR7bwLbZjI4tYn/q/rHp/eJYYoxtoJPMAScdhH3Pw31kXNDadDotw+HwwT34pSI7z+GgriP4t+k7umqvs9LMuyYrHsxB6Pf7Mh6PJZPJ3Ftu4xyEw3jYqzatbSJhFuVTntM6zPlVnnnyO+tWIOxaLGadqOE5nMBVzyR5rascsedQ8zuUw/DUa0FIy/d9nSsIYvcNW621WCz2gpza95Drs3NAejedTkur1ZKLiwsJgkCjzZeELFljue93chfrbZt9eNUxcFpzudxO9TUO5iCEYSjD4VCy2awqiD22AF3N7uGMxzYvkSWYbvsSrrqWx16aVd09tzn/Y99ZJ0LYxXXsY7NaNa+PITOHJFmdGoKA4UmlUhsbS5xSfnY5z/YdXLVfJisa/u///k9yuZwEQaBphseex6kFattE5fvYV9d5Bx/7zjrHsPdYqVRO00GgbSUiD8moxcJztuWlQxJ2v7nuaoO2MOt9x9zmXOvA5ZsaSPt91tw6+b/n2NDWQVm2cby2MQT7cIC2jewPce77jInlFGzjXCS5AbtaN8mU2arnBXogInJ9fS1ff/21ytrP5/OTKn1cxxY8l9O+TkXePlAu++xLpdJO0wzPqqS4agIsfGf/9hKchF0s1F2Jcexqs31qFco6XJR1jrspNLeuk7CPNbDp/W1DxltnXrdZF/sSg1kH5TrEu4Oq676i6Mccn03Os47DgYPAZ1Cutam25+gS+Jz730u91n2cL33Ii08yfC2JJ/nvqs87B2F30f+uHARbUrUKPl3H4Dy19n7Vy7HK4Kwikz11Xe1LJ+Cp59lVyudQVRqP8SN2teb3ydhf5/gESpbomHQQ7ktdWWSV+VlnnqwjQUohqZfgxumOfdrG9KFv4j7HYJXTsMq5+NzHrpT5djGfFj1Ytdmts3hXbU67gOGS+djkJpxEqrYxFLuEip+6Aawz77uex13e7zrnPYQhW/V+7ZI3gECXbWv/2PPlO7ZqAgdjnf0A4iKfT6qGntLeus3+dyy8oFMc6eeasKRTkBSDcA7B8aMZ9qW1oh1PvZbkJrAOBLoORM3vrHNwaAThUBvJqndqm1TNvmrKVwlbPXbeQ2jd3+e87KqcF90ByIP3OXf2x6IFvGc4GOvwSpI8oVVVDi6oOl0HYV1dl6N2ELiBh4Q5kgjCLmpEjxkK2gWUvu0xdgElW+7BfZvoY+fZlXrfulH2LoVrVpVUrXMvu0BVHpujbSPuQxE3t6kEONZ3cpPjW6N+H3fnoWuwConrclPsOqWr42PlmS7iPp5rW/fc1uk8SQRhl964G8f3AiWrT47xRQPtOPWo6VBqcW7sNkha99klne9tn7F13h/6cYb49B2EfTzPg5MUnYPwsp2E53jx1qmisLyDQwkCuY31dIz2vud2W6d5V63Uj9kpOJXg8VhUUg85f8/iILjxMtED/v+uEYSHWjlj8PncfdC6dQ7WhWdfmkPg2OqHN1rrpIv2baAeqpI4pj3ZOQfbnXuf7/VBHQRIbKvyX3ah2kYjdiGvyq+syiFGUSTpdHqJKfzUB7IPAYxDbeqHKo2EHZ0kxz12zKeU5Fkn4T4xmlUiN/ua+8fIdttUeqw7j8fidBzqWvahnnlfeeFzGZhdkGjZe1OplDZums1mW6lCnqKRfUyqfR1O1jqqqevYgG0axK0jRc/z3XXq9PiYKismZpOFRWOSp7BzVzHAt/HUj2UcojSSObebzrbM+eSzuM8xtHyCx2SDt3mm69zzqrl+6DzrbiKbViCso+L2XJoGxzS2ubanzNu2ImL7FGaya+yQFWOnhFRswhPZ93nWOe6+5vbZOAjrMHfX2fSSYz6fL1VLbCtTu+kGvUro5VCytMdyjGQEv4va9fs2MLvx2rm+70XZRoxpG2XBVdHJKoTrsZd7nWqPY4jKn0sS+TmO+xSI/6G97L41so4zs25Ua3VKnivde0yOyKbGfV/Xvk4/lMc+g517EUqKDzHdd6GoR1Q5nU5lNBodLMWwr7GLqO+Q6Q5qtO8TTtp2DlYJHSVFtTaVqd3HnGzriBxi/T1WAnVM78ouNvldrINk6fVjsPx9gc5jKFnyGOsiHds0rHouGftDnWcdNHGbd3AXc7+L86y632RfjpPrxfAQxGVvdFPP9j7BlVarJe12W49Fw5JttPD3JWSzTY38NkjFY9/ZNve8ah6t4tuqa1v18m6iw79KcRPew0PfeyynuOl1rDqGyA+1/LfZJJ7rme6qo+ouoNdtxibXatfvJk7CYy3OkykF/s3lclIsFiWdTq89P7tygNhn7f5KKnYVYXeddNxj1xZFkeTzeZlOpyIiksnmZBZ6kopFPIkl8kKZp0IJU6Gk4ljSUSRelBaJc+LHKZHYk9APZe7NxBORzCIjmTAtUWoqoaQk8tLiSyiZaCYpmYp4kYSeLwsvI16c+3iNv73a5TmRWOLE76P403PzRPzYk6zE4vlDGaQrMpeKNOcdKYVjmfgVGWVS4slU4rAkoT8X8eeSijxJh2kRiSVMLWSeDsQLUlJMl3+A4ljb99jcb+OYnKSDsC6sZaHiVd3KNnkhFovF0oswm822go+2JUNtKvS0CllJRn3JTXAdY3KfId/HHFi1wlXnWgdCe+ylSBJaV51nnfvZ9Lmuq3u/i89s+jx2ARnvWkBr3Q1t3TWwi+e5DZnYOr3WyPL7xWIh2WxWPM+TIAgkn8+rg+z7vgRBILlcbumdWMcR3mf0vknKY5tUbzqdlslkItls9mOzKIklTnniRbFkQ0/iOC1pLysSi6QjT/JzkbE/kcCfSnqelnTkS+jPJZNdSOjH4qdi8SWWrBfJwkvL4tN3/VRKfPFl4YnM/azEkpJ0GIhIfH9Q4nny0R8wewrPRjzxJJY4CiX257LwfAnjnIh44ksoXpwSiVOSkUjy81AWqUgi3xM/yogf5iWStASyEEnNJF/wJRhOJJ1OS6FQUPtj06LJa3uuUvGjcBAeW3DJXN22LZ+BuReLhfi+L+l0WiO7pA75PhGCXbBeH5MdXqemfx2kYh1lvm0N31Nbd99ncDjmQ42Zjg323hXr/7ng2m2uax0W+S6IjZsgPttwZJIpUpt2mE6nUqlUJJPJyO3trTSbTd17+v2+VlXxDmcymb082/uUG5OpOFC3TR3/TZHdt2/fyvv37+Wu3ZJUPie5MJLMwpfYE4kzvkTifXQQQpEgG8o8G0l24Usm8iTyIpFMLPNULJF4Enu+pPxIIslKFBdExJdUPFfDvZC8eOJLMTVbwgx+sLZS/op5sp/xJJ1OSZgeSBjfireoyQe/JymZSBx1JfQ88f2eFCOR0IslkpR4cVoyUpRYshJ5Igs/EkktJJPxtPfG+fm5lMtlRbK31WO5L2100hyEx1CE5IbxlI5qePVIik4mE/l//+//qQe3zcLfppveprr2q86xyiF4Khxt278+JeJ+yMng/heLhczn8wd5CffBtxaOg1uCFv2m0eMuuAHboDXbXMuuUIhdEA73JXu9awRhm/OBLq56H9bZx2wTJH7/xRdfyGg0klarpZH0dDqVv/zLv5Tz83O5vr6WSqWiKMMqh3cfTtKqwMtWfO3csKTT8m//9m8ShqH8x3/8h7Q6ben2OpINRVJRJJEfyzwrsvBj8eNIUnEsGa8okipI7ImE3m+fUyyRiBeLSCRROpRY0pKKsuLFoaRkJr7MJRWL+FFWvCgrUSq5z66Yo5V7cQzEIF4qJWFqIplFQdKLogSZmUSphWTmefElkkV6JLEu2Vi8WCTjp8SPPUlFnviRSJzNSbvfky+++EK+/vpr+Z3f+R1pNptyfn7+JD2W++zGi1FS3CRNsA3xwkKCs9lMFouF/Ou//uu9VQ37qKdeNZLGfptoMjkHGN5NvrPK0D12jFU57sfy73wPJ2E+n8tisVjKxbEJZDIZhWntM7I8g/t6dKzzTNf5zkOVA8n1aNv1rnuMda9tm2Ns4zTtKwpZtUaf0xlY5bQ/xiVY9z2I41gymYzm2mu1mvzsZz+Tfr8v33zzjUynUymXy/JXf/VX8vbtWykUCpLJZGQ+n0smk9FUhF1fD8krr+JN4DSv2iMfC8q2RRAeImP6vi9v376VxWIh//AP/yB///d/L5FEEkssXuxJJorFF09m4kvkpcSLRT4mCkIJvVhCLxYvJSJhWrwoK75EEspUYnmYZOuLJxkRmXs2wbDybj46A54nEsfiSfzxP81fPc+XWGJJx7FkfU9GcUZCPyVeHIsvgUQiIlFOPElJLCJxeiqS+XR9c5HUIiUisYQSSSaTkTAM5Y//+I/lz//8z6VSqUihUFhZqfJUTZiTRRCSDX1WdW9c9Tu7iDdxEHjxME5BENxrBHfhIOwiotvGmGwTPa/jvOzi2uzv4U6sSvFYb3rVhma72a173k2N8EPXz7WwobO+MpnMUl5xEzjwoWtZRbZ77H7W+c5zjW2Ijrvee6xOx7alfnb9gTqAVrJXjUYj+d///V/58Y9/LD//+c913dzd3Um5XFbnAANBuoH1PxgMJJ/PSzabldFotISGinws406lUhKGoWSz2SXtkWazubQeuTfrQNh5gLi9KyfQQuetVkv++7//W/7xH//x4zmjT46NxDITkVwlLRKHIuOZxJ5IMrSIFyIShxJjjNd5PhJL8AkBSKdTS8/K+gae50sc4fRHksulZREsFG2IYhEvjsQTkTAlMvRiicO5SBRJnIlESp546Vii6vQjqzHyxPNFJO1L3I5FOiKhn5aPFx7IfD4XEZF/+qd/kl/84hdyeXkpxWJxbfLnc5DonyXFsA8Deh+UhnOAJsJgMNCX/BDd9LZ5kNsgCrsqg9wFNL4utJtsN2tRonW6ke2DX/AYPGuhU1To4Lg89RqcbPJhHIR1gpXHgo4wDFdqrOB4RFEkvV5P/ud//kfOz8+lWCzKf/3Xf0kcx1IsFlXdlWsoFAoymUwklUrJZDKRf//3f5c/+IM/kLOzM1ksFtLpdOTDhw9ye3sro9FIgiDQa8rlchIEgfR6PWm1WjKfz+Wv//qvV1aHsVdYRA7HYlepjfl8Lul0Wvekb7/99t7jB4P5Pp+4hNGntFH8gwv9OPe+/xE98DyZz6PfYhOfPq//vfSHhchMJCRTfSuf6iFWzV+w8sr+8z//U/70T/90o/f+OQWm0sf0Eu/iMzaviLcdx7H0+331pDflAuzqAe1LrnkXHuY2x9i2EuKpBn5TcaJ15+AxkSWMQ7lcXtLYeOomuwsHwTkM6607yxzfBEFIHuM+IjV/m0wm8u233ypiViqV1Pm1BMUgCDS1lk6n5Te/+Y2USiX58OGDjMdjefv2rfz617+WX//619Lv9yWOY81jX1xcSKVSkVKpJEEQyLt372Q6nSpnx0LYFvXA0blvP9zFfE+n0yWi+K7bEK/3vLwfGu84FvF8iaNYPvkIEh5IYdSSW0Eg1wnwnIOwgcFZ15EgNx8EgXieJ3d3d5LP59X7f+g8q/57FTlw04e4TpnjU43wvhbYoUQ/1vn8Y6z4bc/z0D3ac4xGI4Vok+fb18u8qfPomqKtXh+rHMl1CbrJMkebZrAqhTaK5nygmZanA9Gx1+vJP//zP0u1WpV+v7/03TiOJZ1OSzabXeI/pNNpyeVy6mxQqfUv//IvEsex/PKXv9RrzWazeg2z2WzJcNv031OHTRNms1n56U9/KqlUSiH2gw7fEwnjVeCCSByLn05JtFjIY2yFXa/DfD4vmUxmJdn6GMezlDmuOzHbTCAvURiGMpvNxPd9WSwWEsfxvTyEZGezJCt03Zdj0016G4O6Tt3sqvw0nIxcLqfzg2efzWZ/8BJvIxK0jTO3zZys4jBsahDXncf7jEgSKn7KtRzCoTj182yDFqz6/TblejaNwL8glHYd2HMnKxOA8+Eb4Cxg+Hu9nlSr1SWugK2SsJGnreqBQ5DJZCSTyUgul5O3b9/KeDxecmR418MwlPF4LJlMRoIgkEwms6QQuS6icJ/GiyUq2vLyZ7Fs94IWkXhhJKl7fIh9j0wms0TCfuo7Rto2Wc764hCEU9pQtzH+u2jMsW0TERTcyD3iFLDZsfltspFuI/KxjwYm26iPPfYZGxVugvwk5Z/3tRbXQRC2YUifSsvdh3q33IcWWEW7dRyCVU6iLU3kb1TmrDPH91XGzGYzmc1mSyWUq67d/j2dTv/AwEPIhtdgYW0R0UqiZHXQLtT3kuTPfZVQPrpOREQiT+JUfK+TEIuILyK+50l0wGu0juNzk3edg3BAh2Ido7YLg3pfGdNjxnOVPLGtLNjUKB7SkO/C+G/b+GaTRl3batwfypCvMwebbujH1rnxvqon+/9X1f8/ZNDuk09O/pvUAVnnGRKxT6dTGY/HSxyBVZUWSecABIHrH4/HslgsNLUKcpBOpxVNnc/nS71Mks7ItvufjYrT6fTzGED/o1GL55EsHlian4oqpFRIy2CyOgXie55E1Vikt1v04Ji7nToH4UAOwjqf2YURXqcZC+VHjx0jmUvd9NrWcYD24SDsAqZ7CEHYpvPbJmV0+9owDoEGHCPi8BhhdZXxTiIAyXSjrbCxz9am77ZJc/G94XAonU5HuQrZbHYJUbDvNAaYlAJ8hHQ6Le12W6bTqaZTqbbh85RMJtMXqwz9tvuS7/uSzWaXdE1W0AWXQv5a/LEqcPDUhx+JzD+hA6nYl/CBIslI5F7nQEQ+Ci4tdosu5PN5ddZ2VUHyIhwEu8j32Z7SQmbrQr3rGIJkaRSe+Sr40cL1fC6Z47NG2R6Ll9YyjJONnbgWXnKrBJdKpWQ2m0mpVFqq4ojjWLLZrG4WqxCDVUxtvg88mcvlluqnk4bUwqbJTc1uwrb0apVITLI0y0Z/HCPJ0k5uUvY6ZrOZpllspGPzu8n6cKt5YDdBO1f0+Fh17OQ82LlOfja5xu5r6sK6YL2Q502W3SUNC+skmadMrkd7vmQ5nCX4Ju/NChAl36dVnJ4oipZKRm2O3c5dUjSLv1uDzHXa/PwqZ9keOxn923WVTCtYrYNVe5ot3bVOxEPoE8YaB340GsnNzY3eAygBx8Yp4G+kCQuFgr6XqVRKrq+vJZvNynA41GPg3LBP4Hjkcrl7naNtkCZbQZZKpfT4IiJp35f5famd3Qbpavy9pxrfRfRDgYYdOAiWpLjLlOs+xJIOjiAcqsXoKvGlXQ42jCR0nzSWvDhsIBaOxhjZDZHN2G78ybIsS8Rk07N12BhxhFSsA2LZs3zPGgxbCmXzZEnD5/u+QpV8JmkMubakQ3hfVHQfNJx0XlZF3qucQXseu1kxd3a+uR9rYKxx3eTY1lFM5mUfqkZY1ZDKdt6z36FEKtmZz86XNbIY5ORxVnVQtc4ZOe5kzjRpQJNOj/2sdcS4Dr6bTqfVGUs63auuNUnWs2tklZFPynUnv7sqLbGKUP1Qusk6wKtIzg/1nWEP+NnPfiae58nbt29/kAJJVlHYuWMdWDShUCjIdDpdqnxgjnEUkhUYu0BQHyJ4R7H/yWwfEEmS44vO70t77eKY+wi6X1yKIWmk9zWSdaxEkfblTlYJEMXbzdLmB63xwnBxPyiuscHaTdcSDTFYQRAslRjxXRuR5PN5NfLMVz6f1xwm90AVCOxbrtUqwLGx2+tI9k6wzkiyCoB7sIbAnpNN2IpfWRKWnXfrnduNlWiYc2AwuT+u1xo3i9wkkZ1kpM28snlDYLPXZJ+zNYz2WVojaI2EbRVsI/GkkV9V62+JqBZx4BpWIW+2d4nlrBD18nvrqCQZ93bekyiSdVosMc/OqT2PrSKwjlASjeDeV62DpDOy6pnav1nj/JiA2ipH8D4HAaTP8zyp1+vyZ3/2ZzIajeTv/u7v9D1IOu/W4crlch3jpr0AACAASURBVBqNsoek02n5/d//fT0v82GdDMtBAMWwDtsuDJ9FPBS9ij7lEuTz1uvgHd6k/8Zno4OwCrbex80fgj2bzWal0WhINpvVlxWDQJ18uVzWUqZ2uy2ZTEbK5bJuQkHwUYazXC4vRfCTyUQ129koR6OR5vXYwMbjsfi+L7VaTWaz2ZI8a6VSkSiKVDilWq2qYQiCQMIwlGKxuLSxTSaTJcPB5jadTmU+n0utVltyYsbjsRQKhaU66+l0KrlcTnK5nBoPjlsqlXTzh5BVLpd14w6CQGazmRSLxaVNezgcLsGpIh+1CHK5nOY5RUQmk4mIiBQKBX1O8/lcZrOZVCoVdTiCIJDhcKhzzBiPx5LNZpccIchelMkWCgU1QNSVcw9suDz/XC6nczudThUWxvAWCgU9D/PBM6HJ2GKxkHw+rxv9fD6XyWQipVJpybi2222ddzZmnjNrk+9zH5TdMe9cL2uANWd144fDoXieJ8ViUQ3+dDqVKIokn8+rQZvP5zKdTlU2GCea32GoM5mMDAYDdU4Z5NC59+Sasw7YdDrVXh72u8VicYkEGIahlEolXfPT6VTfT+vsvH//fillwO8fktNe9fNQkDKdTpeIg+wXf/iHfyh/9Ed/JBcXFxIEgXzzzTfy1VdfyVdffSV3d3fi+768efNGfv7zn8vPfvYzOT8/lyAI5Pvvv5erqyt5//79UoCSTH3hIMBNSDZQ25aDkEQZU6nUspyw/0nV8DPX82LtrzvXz83xOWgvhk1y/rtCEHbhKNzXZRGDQzTNRmYhfl5Q61WziWI0IPXYSAyiEkYKY0CksFgsJJfLqQPAZigiqvlO1GgFXDB+6XRaer2elMtljUhSqZQ6GBhZjCCbHt+3mz+pDBsh060OURZkZcnRIthieRFBEOg85XI53cBwAmzEhLPDdXOdOG+01+XZYQS4x2KxqA4GBoBnSMogSUzjOMwBsrc8U6LYdDot+Xx+KfXApgzqQiooWVHCvRJhWqEcuzbsPeHsYSR55hY9so2BuDaumcZBzCVGixy5Rcp4PjDobX6e9cr6ZL1Z/g3nwPm1Drd1MJhH7gnRM1A661xxbXa+reFn/rkXzssa4t6z2ay8e/duqS3zOs3Q1mlzntzwMRK8W3ats37CMPrEI0hJOu1JKuWJ73s6J9lsTu8xiYZZR83Os72nVZ0sd7FnWjROn48XvVDvICPihSJxtLaDYHu6bJPOOSSx8eAIwn25uF06CEvQ1gYSnw85LslrZxM8OzuT9+/fqyjTdDqVN2/eyHA4XFJFq1ar4nmedDodyefzMhqNpFqtSrFYlLu7u6WotVKpyO3trURRpJHY5eWlCqpgJMvlsnz55Zfyq1/9Snzfl7OzMykWi7rZRFEktVpNgiCQTqcjxWJRjbo1fjbvm+QZsPGWy2XpdrtqqGazmdTrden3+zKdTnV+zs/PpdVqSa/XUyizUqnIbDbTFrgY4WKxKDc3N+pkBEEg5+fn0ul0dLObTqfy9ddfy7t372QwGMhsNpP5fC5ffPGFDAYDmU6nCqWC2AwGA0UgMpmMNJtNubu7U9JWFEVycXEh7XZbDWEcx1Kv12U4HEqv19O1A7ozGo2kVCrJeDxW5EbkY/e+m5sbjXSDIJCLiwsZjUaKCnCcKIqk2+0qkjIYDJZSO+l0WgaDwdL6vbi4kFarpRHnYrGQZrMpg8FA5Z5ns5meczQaaYvhbDYrlUpF+v3+kqJetVqV6+trVeILgkBev34tNzc3qvY2nU6lUqlIEAQyHo+VSFer1RRdsHB/LpeTXq+nDkAQBNJsNqXT6aihp7Mhx+QZge5wP0EQaEvku7s7yeVyauAbjYZ0u10l2zEfs9lM1ycOEetgNptJoVCQQqEg/X5fHY50Oi3FYlG63a5EUSSDwUCd2vtak2+KICS7kiZLIh9KZ3mRJxJFH5saxaH4/kIkTknK8yScR9pLwF4H73SyKZPdB3GwLSeB768rTrfKaFkUNJvN6voXEUlFsbxMF2G+0U3xftj0z3Oj4UeDICRRhGOBUbYZPGCMxdXVlfi+L/1+Xx2DSqWiPIDJZKKRQb1el1qtJtfX1worl0ol8TxPBoOBhGEolUpFqtWqbvZE3FdXVxKGocKj79+/l8vLy6XfNZtNjXD5t9FoyGQykfl8rtFYrVaTMAwV8WCjIBohshyPx4pMAAOPRiNNJ5RKJclms9pQJpvNSrlc1mvHUWg0Gvq7yWQis9lMGo3GEuEuDEPdzNlY7+7u9Jg0teFeK5WKVCoVPY/neVIul6VYLEoQBDKdTtW45/N53chGo5H4vi/FYlE5Iujigy4gXhPHsT4LoGvg7vF4LKVSScrl8hJCQbRMyqDf70s6nZZarabHXiwWUiwWlZ/CmikUCjKbzSQIAun3+5LP59X54RmSskmlUks19Hyf9BXOCekZru3y8lJRnsFgIN1uV/L5vF6vzeMT3edyOWXHM0eLxUKJttwbRob7s6ksUDfQAt4NnEYcstvbW11zzDfvQbFY1DTDeDzWZ/HFF19oOs7zPJ2L0WikRh+nHL0AUiv1el1Go5G+Z5v2aLCOwnOkbZPIpiVOWl4P88Bz26fxsQjOpwTGZ59jAGU7lXGwK00y2J8LMtnl/eTzeWm1WlKpVGQ8HstkMlHiHxAuKQecCqKy2Wwm1WpVhsOhbtTz+VxKpZLc3t7qJo9jMR6PlXzIMW39M9ElG+xgMJDFYqEbKJEE/41xxzBOp1MZDAa68Q6HQ80vk8PGIHDvs9lMI+fJZCLNZlPvh+PiIBGxLRYLjfAwFmxU6XRaOp2OlEolnbtqtao5c+Yon8/LYDDQz5FnJ7+KAeZlhFtAhAQaQh4fqJlcOt/n2ufzuWSzWXXceAbZbFam06kUi0WFicvlskrZYpRxvOCWWMLgcDhUSB9jZcvWQAKAorl2DCzXS2oIJIY0A+fkueVyOWm1Wnq/zGcQBEtpoXw+L71eTxEFnEX73Njw4jiWTqezlLcvFovS7/f1fjk3ziYpILthlkoldcoKhYKuR0vgnEwmeg3MyWQykUajoXwT1jrvC9wQ1gTHp0S1XC7re5Yss30MTbyPmHgY50B+0AvCciYsQmAdAusg7KsfAHuEVsR4InHmWALBlHzsz3z4YTlCp2D3/EMb1cc65p0KmmC7oZHHJCdOusHmAuEKEG1ZBraFwzEStgSReaGdKpsj3AXOA4R6d3cnpVJJKpWKphWAdGu1mqTTaalWqxpFk+OuVqsapRF1AocNh8MlFr1leltWOLln5gS4lOOAFljIkyZaGGtLsoLkSDTC72wO1ZLwVjHlkxoTtm7ePkci82RJoM35c89A3jxPW00B6sBcgMYkDYitmkiWXtoueKQHbFrIltmu0h5Iak8Aq3OttkoGR4frt2I8XJutrkiua3gPlm/As7e8Ff6eLN21PVPsurdMeJxgnAqOa6sckloBOJ2WtwHfIFm+iFPxUClukuO0bgC0aRC1LYpwn8FJ3qt1IPZppJZVA71PP89s7fyciKTFl+dplGR7cTgE4QEHYZWu+qqXc9uf5Ka9iceW9MpXfS+fz0un05Ef/ehH0mq1FJp8+/atnJ+fy2g00oh2MBhIpVKRbDYr/X5fKxVGo5FcXV1Jr9dTozOZTKRer8vd3Z2eG5QCFIJIiCidTSCTyWg+V2SZGAd3wV5/v99XcpYlStrSJzgLwMuQJjudjiInwP2dTkeurq6k3W5rxDydTn9QfYCjA9Tb6/UknU5Lt9uVL774QrrdrkZ83W5XfvSjH8nt7a2mS4bDoTSbTZlMJlrlMB6Pl3gARM9xHMv5+bleSyqVkru7O3n9+rWMx2NNt5Azh/MB/wFo3T5Py/6v1+vSarV0rm9vbzUNREQLoTSXy0m/31cDD3udZ8Mco5c/nU7l/Pxc0Sny9OTcIWX2+305Pz/XZ8McLBYL5VWwTiaTydKaA87/6quvZDQa6Zz2+31tUUxVAFA96RscvtFoJBcXF3qdmUxGWq2WnJ+fL5271+tJqVTSMlqR31aOsF5Bt4IgkLOzM+WtwFs4OzuTbrer78J4PJZ6va5VChZmByEZjUaK6HS7XU1vwdEZDAaKrFnugdV0sJt60slZubEmSk/tnrTqh33HXsOqoMTzRMJwIZ4nS+WX1km0ToB17nDUQYNsufWmzoJ1MuxxOIYVA/J9XwqpgtTmhYP7CJ6I5EQkLyKpSESiSDxZiMQiqb3bO/mBnD2I5iZk0ORcv1gOwqafOWYvC6icFxDIjpeCFxGIj/JGcshsriwAjBfRTzab1c3abjqwu9lQMWJEXpb4ZisdyFfDBKd8z5KarKqerb+38CtIBBsl57EvADwDNisgeAh0bGjZbFa63a4Ui0WFhm2Ebzc7olW70QHBW5QCI2m/x7OwES/PkBI5Ns0krA83BIMM0zxJMsOQ8hx47qSKiHrhX7B+uGZLXsO5sOx/1hdIC2gTaAXHIp2D82GrDJKGxPIHrL4ExpbnAZQP/wLnhu/xHoD+rGqLbFUOeUYgNRgr1jIOJAPnKInS8Ax5DiBYGChLxLMGHgTOIoGU4iYDlEPDwLtuGpcMeg55X6S/PvK0PBFZSMoX2YA3/mTvIE6JBOKJxB+LDdLy0bmii2Mu7YuIJ5l0ShZRJPNFKGG0g7nJfOKWfkoHsy6//PJLKRaL0mq1XLOmpzoQx+wgELHf3NxIqVRaKt+CzW1L4mCN1+t1VTsbDodyd3cnzWZTy7aGw6G0Wi0pFApSr9c1tQDRzvd9mUwmMhwOpVqtymw208oI8q3FYlHa7bZC9pAByV2HYSiDwUAuLy+Vq5DJZGQymah+QrfbXao3Z5FznXEcS7/fV+Ii89FqtZR0SQkjFQSQJzn/zc2NvHr1ainy6HQ6Uq/X1ThVq1W5vb1VAhywe6vVknw+r3MPgiHykaVva/n5Po7BeDyWVqsl1WpVSw1xVrLZrJydnS1xFeI4lkajoet0OByqhsNwOJRKpaJpmvl8Ljc3N1Kr1TTPnc/n9TjNZnNJtwFmP45do9HQMtPRaCSdTkeazaauozAM9dlSojqbzeT29lZJkVYnYz6f6zoicu92u9JoNNRYwP2oVqsKgRJtp1IpqVarutFR4QEJFR4F7YrZ9HK5nHS7Xf0d1wlZs1KpKEmx1+tJoVDQOS6VStLr9fTecSqn06nON7we+DI4Ggy4FSIf9SZADbgX0m4gIRzz5uZmyUk4RX7UffurFfPa9x5bKpXk/Pxcq3ems0B8L5YoJbLrcgZfREqZjAz8hXiLWPxQJPRFJPspjI8yIgtPYgkl+qSdTBweh5GkUr5MpjPxPh0rLSKh50kqjmXmf7rUSMQTT+K6L172kwRzKCIzT+I4+u39RB9P6YcpCaNIxJelkt2f/vSnGqycwvo6OElxU2j/Maj/OV84+Aa5XE5fQMRBLIkMFjgbGhEVL48lw2GQIZYBg8PAtxEqcDLRoyU7wsbHmSFtYElwVh/B1sRzzVYoKIqiJbIb/AQ+Z1M5sPBhhdvzshaYE6u2RzWFrYencgDjSxRPBQLMfiufa5ncGBeMRxiGKixFBGqRHiJeUgM270y0SeRsa/I5NiRRiwTYOQQuh+9gRVNwApK9B3AS7TXjHEDGs6iKlR5mzonuIZdapMGSIG0aBafPSjjbdQPMb0WBkuRU5t8+A6v/gFMDfMp7YBUCrfofvAKQI54X6xAnCAeJY+KEciyeH8eiEmRV98RTHsk+IJaAuU+12clkIq9fv5a/+Zu/kUajIblCSeaSkjgWkVxZfPE/GR/vB/+7rt3wvI9OQNHPi8wL4nlliT3T4Xkmkpp6UgxSUgzTkhGRyP9ImBTPE/FSEsW+zBcfvxOKSOx9tP2LbF78VEoykYhITvJSkpqUpdqvit8SyQ1jyfbSkpmcSW7qix+KeHFWUlKR7CwtElUllSovoaV/8Rd/IT/5yU80DRceDEo5AQThsV7uD5FrHuIvPDYsQclu9pvCcvZ3GLjBYCDNZlNzwJlMRtrttlQqFY3QUY8jpTAYDKRWq0kURYoUTCYTLaPrdrsKj1pSHAxyoN1GoyGtVkvS6bScn58rVI5hbjabS9K/RIiU2gVBIDc3N1oKhrEiR24FlMIwlH6/L2dnZxqtU2Pe7Xbl/Pxc2eQgI7VaTY2E7/syGAzkzZs3aiwxwNZQ3N3dadQOCjAajbRqwZYSok55cXGhRoJUgYWhSRfgNFF5UqvVlO/BM7WlldboYryoEKB8LwgCZcrz/V6vp+fDibLkU2vQLbxvxY2oIV8sFlIqlfQ8NOGBdW9LSTH8VliIqgsr993r9eTs7GwpN40mB2sOFUccRkvepIwV54BqA77P+bvdrs4x3JB+v6/cDT5n0zzMMShNsVjUNUWqC6SrXq8rmpbP57VUknWAnkLSOcFJ4H5QCAUVoRpk071qF/vjDySzxfZ0IT0k4vm+hOFvw3BLcL1v38WZtGmUJG/hIcGnbRCE2Wwmv/zlL+Vv//Zv5V/+5f+Tu1ZbxFtIHGfEjyNJeSKReOLL4qNz4KUl9m1874lISiTyZBZMJYwWcn5+LjNZyLg/+PgOLuaSiVLiS1qiVCzih+LFH+fLExE/9sWPfYnFk8iPJPJC8f2UePeQIbxPcxr5afHj6FNhpi9pSYuP/fAjib3oY3wdp0W8ucTeQkSy4sW+eBJLJGmJ4pnkcx8R3T/5kz+R3/u939MUsyUAb4NeJ/kun6WD8FAObRO28FO95FWetuUW3NzcKKkQEhhKhRCkzs7OZLFYKEmReu5GoyHv3r3TKMfzPKnVanJ7e6uGgU2cyJrIB5iVjZnNkeiKDR+nqFQqqcQwmwObNEx0rgFjBtzNBo+xgUR2c3Mj7XZbN59GoyHtdlv6/b5G+2dnZ+L7vrx//15RhkwmI9VqVT58+KDyt9Txv3//Xq9jMBjIV199JR8+fFjKkb9582ZJNwJNhHw+L8PhUCaTiUagjUZDPnz4sKRqWalU5ObmRgWdRD6K8AwGA7m7u1NVRNId7XZbyZY8B1I2fJ+XHyJdv9/XdYs4UqvV0s0TRxOiHYbRsvQzmYx0u13lb6Bz0e/35fb2Vg3/+fm59Ho9JXzidPm+r+kYSzz9/vvv9ZlPp1O5urqSVqulRhjS5mQyUXGh0Wgk9XpdU1BwKqgmuL6+1rU1Ho/l6upKut2uOhiz2UxqtZqSGXu93pLEMpLLrLFyuSy3t7ca9SNwdXd3J+12W52ger0ui8VCWq2WpnBsageNBtYYzwt9Ba690+n8IOJ+zsg/jpeDas/7lEv/ZLYoc1zneh8ihW+z/z02LBHyF7/4hfzu7/7uDwzZqv9+rHMhaKqt+rLfW2UXVrWhf+wzlgOjf/dEfM9fcrp+O0ci6XRqZdocpMDuNaeSunqWds+75Co8FwRIJEgJHlUGwOue50mpVNK2y+gD8LsoitQQZTIZ3eTIG5MfB1quVqtLksAo2fEy4ixgwCwCgTIddekYs0ajoQQ6ygkxKij32dryQqGwlMYgv42h6XQ6auAymYyUSiWFb0mpoEbItdZqNSkWi1oGOh6PVVwHg06EjJHFCQiCQHPcEOtwbkg/cP/ValUj0U6no/NEGobKBQR2QBEgdVqeiYX5OSYbYr/fVxQAw0kKgyjVljciEMScwBdAKInnyPO1MsSoc+KY0DeBjdOiCCA/ROylUkk5Jhhv7tGmvdBeoAqDNEuxWJRKpaJVKYvFQtcsETpRPak0q2CIKBJ8FPqZMJ84o4VCYYkXQ2lupVLReaWqx6p/2mjZdqTkfbPETa4dhO/UuAXHmoLFycUoJkl593WEfDAn/om3QqoW5/Mhx2eVzVi3hbJ1TB7rELzqmOzNtjldsimZ4yCIbBX5H/NLgaEmsmTzqVQqGsWxIROlj0YjbZLj+75Uq1VNOdicOU1lqI4A0uVeR6ORCv1ks1np9XoqeUyOvdvtqhwvZD9IcSAbwOQQ/HjxqHKwnAiMEqiClV5mPiipw2FA7Q8ng+9zfObJ9htAKMmK3dze3i4p/LGR20ZNVH0A7VtxKJvKwYGA6Gfba9NkiePy3EByrOEMgkDLAEFeINthnDDUFs4lEmf9sHHAEWATgctAsyYtF/tEXrQwf6lUUhQnybkAeaKaA0SBvP98Ple5b6u7YCWIbdfPIAgUFeOZLhYL6fV62g+C50GFihXKglDItbO5W16M7RVClG8Z8cwH9wR58uzsTOWSKU2lCoU0DmgTc8/zsE7YqToIxzRsjxPQHNtJFo6M/blPlMr+2Koe3qeHWrHbyhn785g9Sn7+PsfjoZ9ka3OcJKtP4hCEB7y2pyzq50QSrBdoS9QwBra5jS0B4yWwLFZeIFv2hscNVGznj02UDdTzPGk2m0vRZbfblWazqTmu8XismvgY38FgIJ1OR8mMbORs4OT7uXZeSK6Ja8Q5WNUylzkh6kfj34rY8HlL2kvKxVpxIKJB2xjI5p6tZ243FebfSs7aunPrvHAeG42CxljVQzZAyIwITPGcIcqVSqWlJk08K85r88+2+sKucUpUgeNx3iDKch32WVhSpd24USckjWIbQTEn3KuV7OZ8IAOgT8w7Bt8iDbYtN3NNn4fks+KabTUCTjKRP9wXEdHqHQtpW10Me2/j8VidB9AG7ssSM/e9j2ws4Ryb7Hgcq/7BY/tnkiX/GPdq1/dNma7tXrqL1sZ2fcNlsTyhVc8waYxXXUcyxZAkENpo/zEkwd4LHCG7v1gn+NgdhYMKJa3yIFd5d+v+POY57nLRJxXIaH17dnamxD7f96XX60m9XtdNG9GXQqGgpCsWIN0Uu93uEjMbeJ30BcJKNjdGOZv9QWwHSN7WzCNmMxwOl5orwSdggydqtsx+IlcEhYB1K5XKklbDcDiUer2uDYcoLeNarP49KQtbDz+ZTFRkivkejUby+vXrpQZKlqgXRZEaBGRMLflRRDSXjlFYLBbaTtcaQWSUQTwoyYN8iJAVvAz6cGBkXr16taTBMJvNPpKqTKRtzzMej7WUkd4GnU5H0zLk562mBOgSsD7P4uLiYqlCBqeOUkyOB6GQskq4FAgyscZIQSVVPkF1rIMUBIGubTbpdrstjUZDJbtJa5G+wXGcTqe6dnF6uLdarSb9fl+d5ul0Ks1mU0m/jUZDU0fValUFp+r1ulSrVanX64qIlMtlOTs7k4uLC938cd7L5bKSZvcVidtodp09Jo4/kuyiRGdaTzyJok/aJcYg3icyZx1tq1eSNHaPQfyborb2vbDqm8mofJvz2ADC/v/kHr2JsNBj502iDuui5FZ0zpISN20k+Fk4CPsy4skHu8920gwiUh7+aDTSboN4trbMDeh+MBjIZDJR9jWRO9wDoOq7uzvdeBESombbSgVbwR4+Y18cINV6va4OB7oEcCFQexwOh5q/n0wmasRsVQBGgqgZ44wzQGQ/HA41Pw50izEARaCrJT0nrBHkXvksGwNzxPdtzwgMDU2UhsOhRrCkX3CGOB6lmDwzoh9+Z/tc2L4KOGI8XyJQrhEDDXqBCiHOUVJu2bZTtiWFREBwJnCCmDvuyQpZ8ewoJ8S5hIDIvcMNAb2Bn0CqhudBagooHhKiLYOlcRlcFpvmoOrFlkQyR/ba7TO3KRrbQIm5o0Ml6yWTyej65bpxdjkWaxZuD/dun+Wp6R4ca4rhkKle3j0rYObGiaUY1oGSdrXI7QuzTzEKKwwEiSuOY21Ra/PRyA83Gg0plUrKGbi7u5NKpaLkPVj/5MMRh6HbHL8fj8cq+kLkRO61VqupLLIVsMHQAfsRqRQKBU01IMF7eXmpGzmOQqVS0agL54LSRyBFmP0Q4HCKiHJt/Xy329VOlKQ9KI8DBhYRub6+VjIkqAfpEX7ITxMRWnGdfr8v9XpdjUOn09HyOYiHGDHP85QQynxQrQIkCIcAQiFEP6Sr4SvYPLrVwYBgSgkixg3ynxVS4t4QVLLnwyGrVqvKBykWi+pwgFDQfwN9AuYDZMA2r+L54nxBhgzDUKszcM7gJsxmM5lMJnJ2dqYGnGMyx+iD0Om00WjIdDqVi4sLef/+vRJYKUXt9/taMsz9cv2QCnEa4P1AmgStw0GEh4EzQTqC9UnZZKFQkLu7u9NxDu7J0X9OzoJV+6R09hQi81MZz953chU89lSn4BAIgoViMVzD4VAjJptPZuO3howWvhhoG8lY/XsioCSEluwvb/svsHGCUgAnLxYLGQ6Hqsho5Z1tVQSVGEg1W3gQCJlySl5OyGJEf8jZAg/DWCf3huNkI0O7JqyEMCkaK5KEoWTjx/nB4No8oe1uyP2R1rFNesjxW1iUSBSym+0hAWPfckLIeXNsCH0cC3jeEg+t0BaEQpwsUAXbSdOiASAftoojKakLmkXqyqJCaDqQJ7VQKkiAldTmuonWkgqL3Af3aQmJOJsgYpRolstlTS8wn9wv/3ItVlOk3W6ryiipE9Ztv99XkiIOeRRF0m63lYdjSaPc73Gxyq0egP1XN72ld/9zRBEsl8lWNLjxQhwEDEKylvUpPAGMmc257WNh2i6FQPZs3EDMbM7Ug9vywVQqpXwFNqxisSi3t7dLJZHValXa7bbK3haLRTk7O9PcMqVtyMeSx4bRT2nfcDhcyomRz4djAGQH7MtngJ55NjbvZ8ltvKC2SQvoAIbSGhFr0PD6MTrAw0TytP5NpleYR6sqabkFtiuiVdprNBoKk3NffJf7sRsvPSgos4IbwDxZbgFrGW0GS6aiagBY1PbXwFHDENKzAbSKtEm/31djDfwP2992JmQ+LQmT6wSKhe2P4cf4IqudTH3gFFpHkTJc5timvqxQEWuBe2d+Mf5WuRECJA4nUb99py3hC2fHkkutY4YTxfvKHsEzRCk0mfrcVefDJBF1PfcgFM+LPl2HiCfpj//6nkTxXMSLVzZKSp4Xp4tnm2wKtU1V2LrfsT1R7PvEWk2y/uE9oAqqGwAAIABJREFUrduKmnfcBha8p/fd4y44FuseY9Uxk+j2U9WD7Ry8mBTDQ2mHp3rCh8jJkYf9yU9+ItfX17rpBUGgyEC/31cDgOAOJD+MAUbf1vBTncALY+WGbZWAZfGTd242mwqbdzod6XQ6S10e0c0PgkA78FnRm3q9LvP5XEVvMPQWxiZabjQaqo5nBXfu7u601BFxHaI6XmJSEB8+fJBmsymDwUDr20kfYBQRMGJeZrOZkkNtjr9cLmsvDNtQqNlsaj8GS5Ak/cAGSinozc2NIhN0syRyxQFChIdUCGmZu7s7NZQQ6TqdjvR6PTVOwOs4KCAKGEbSQKSQYIGTCoJzQZrE932p1+vS7/dV1AjHqVQqSafTWWohTp8EfoeeBSmF0WikaS16aZTLZU0z4fDilHBtNzc3es2sRQiYbNak0uz6BjUZDodLZMVyuaz9NWz6Q+SjqBJ9K3iHut2ulMtl5UmAGJBe48c2HMO5ubm5UU6HRSCts/U8SQSLHng/+Pux1tETSDDP9L2wzbVWVRck9+1tAjxb5bQKFVpnznYxrziDpM0IAmxQtIsAlnVqq7R2tS7Sx7iwdslL2Ccr2batZYNn0yGaJUqzC5dIiciSiB3OAFLMPHikmDEUdpOz2vvT6XQpkkP2uNFoKAELI4jXybXgfODAkLdm08QI2GY8fNf2iQBpgGmPI4ABtyVJsNpxjEipgIiA0CD7i9ORLE8E0uZ+kPYlikC1Ev6CjZRtqSDVAkhSgwYgooSh4x6ZDwy7lVy2HRM5B8bMRv1JVjlGnOtkvsi789/wMM7OzpaEmKxAE9E+a5M5I9UFasSaZW2JiKaESE1w7MFgoPwDUB4QELg4pNlIEdjSXxvls25tJ004JZATi8WiVjJgXJDuZv5teoINkmeEEwRHxBI9bQdLJMfb7fbBux6+xGHR1V6vpyXApLlWGf+nIjT23CBI7CubOgC7eu7wc9jr2dt2Hazui5x5lAmbXfES9jkgrt3d3SmxDKU8FhhVCigK2o5zkPkgwvX7fbm7u1PoGMnfdrutESApAWR2WXBs0qAEMO6B9a0QDNBtqVSSVqu11PQIMSHbRIh8LUiBNS5Eq/xUKhUlplmlwlarpYaLeSNXTNkbuX8EkPh8rVbTucM54Tw4ZsjyzmYzjUJR5rPRLoaNCJTzWD4Jjh3zgmwzzg2M+NFopKRNjBCy0axZuA4YVwh/8D1w7khDWKeBc9n1T7oHo4YjYmF3jCyaAChT5vN5TS3c3t6qccU5Q6+ByCuXy6maIRG+5a4gEsX83d3d6e8QyAKlYL2AupFC4nmAJFihIlv5AqpAP4r5fC4XFxd636SOLKJhHSn+O5fL6XOHv4L8OI4mjrpNL7ixndEajUaqFvujH/1oqSOr5fjsImq3kLxdE5sY+nVgfdsI7bHSR/aA8/PzpQZ2dt3u0kGw1T4vMsWwyknYlHCY5DEkv7urqICFMh6P5fz8fAkqxqDYvB8bFdEUESXsdIRjWq2Wpin4HaWEIqLtotnY0Bwgh4oxJuI6OzuT29tbJSwyr1bvn0VlxZuYI45tVeeIwDAeLHiiVmRrMWakPEhXWLKlLbGzbP5kQx3yzTbatc2biFhxJGwZqt3kISLSstme2wpXWYVEi0bYdMMq4wGqYtEYK86UhAAhV1mBLCIvjsezIoKGd4IRJd0BjMnxWJM270uzIxwO1jFoib1G5sdKEkNE5T5BukBPOL+VxCX9dh/EyvPC2cWhRVCJKiCImGhBkM4Bjbq4uNAqHLRARERJpRaCtQidTfHsanN9CNZed/+x+5+NypVfsmYq1cL5qxQGd8nL4tggB5VKRWq12lKJ8L5R3nWabT2VZ7DuZ0Ec0+m0nJ2dSavVkvF4vBGKkBSAstoWvLPrije9CARhlaOwyY3bzfep5KKHHv5oNJIvvvhCo1kiMWB+FhNEKx42cFscx1peRkRdr9el3W6rcURHgOoD22mPlw+HAIMNkZHSQTo4Em2TyoBUiYGEmW8JhAjslEolPRalY/V6Xbrdrn623W6rWBAbEukWPGeiYKJU6uExfM1mU4035MBKpbJEkqTyo9vtak+G+XwulUpFmx+JiKZV0IDAaeAZ0U/CRqpcnxVPoqOiLbU7Pz+XwWCw1IYZUSRST1EUSbPZ1DQHz9M6UMDxpD84FoJL4/F4SdMC0SzbX4DPWwPIxgEJ1la3XF5e6nPl3qvVqpbZskZBDEhJcX6u3RL4EJ7i2S4WC2k0GtpkCpEpeC08G/5FoRHnuFAoSK1Wk8FgoNyYarWqvTtSqZQ0Gg0pFotSq9WkWq2qUwDHhHkC/aKqgTU3n89VJCpJpDuJkbjWTYzhzg2JqdiyYmb1el0d5c91WFQXRJSS6qcEp9iITZtvvSgHYRUqsOnD2QdMiFcOrNrv92UwGEi73dbIhTwqqQUa+ZCXteI6wN02+sJo2OY3RGoQvdhcUcmznRHZJGlyRGUD6QfbIIpSMnK0GF5gdzZrfkcUa9UMQTEwjggWlUolrZlHEAoHZzQaqfGHMIbOAJAcmwxGhn4NsM5RqyT3jkFmYyL9gB4DcDSf4bjwFDB0XBeGnfvHSPL/OT9pIL7P70AccDqIvJlHIgyIk6AcaC2QQkL1EieK6JvOibYPBlGxdTIoc6VvBY7DdDrV1syIFUEkxYHBIbaqhzgUrGl0B3j26IAgvGR7fYCu4ZxSZUA6BmeGNUZ6jPfu/fv3eh00qsIZBeEolUpKDsURZ73wPSu8xLo7GcMjj7PvLSqGE7RPQ8jeRcrzFMWn9jVAOC0/aFtnLCkZv6+RfukPZV8VDRj16+trFSfK5XJac01uOYoiZeUTCVv4+PLyUtrttqYcgiCQ8/Nz6XQ6ChtNp1Nt58vvbOkc3jm8AdvUBIgdLQaY4FQqpNNpFc0BJRD5KOhkJZBhqNOZD/SDiA5H7Pb2dinvTNklokqo6VFy2Wg0FF2BeEc1Avfz4cMHTcvAu+h0OlqJAecBA1UqlZYUKmHS4yh1u13VQSA3bpEH4GZQFRAU/kZVAox5jDB9AnjuQRAoTwPnA0dORKRWq2m03ev1FNlgPkABiMDZ6LPZrDabYn3UajUJgkAjE44F54TIHaIh/AmQL0SJ7DrEYHKfNAYD/WH94Xwx7zitiCrZVBBORbVaVeSMOcZpxpDZSh04FzgZlj9BdEaVB07eaDSSy8tLrXr58OGDijbxHqAQeXl5qcJnp7i/3bfH2bTRPh0Eq2uSDILc+O2AZzQcDtWx3ZZzYDVh9jVORlXCCsA8JRe4K2cBowE7H0cAGNpuZsCeVriGB2vr/m2e3W6OeOUYLaoXrHdOxAc0zXXk83kl7xEZBkEgtVpNCZHAxcCvnIONHuNPuWEYhloNQUdI2P8cE1Y/x6J7IIaeSNA6M6AU9XpdnRgQlFqtpvfJhnh+fq75Tgw156IkkQoKDMl4PJZms6nRPQ2LrJ6F7TBpxZe4TvgA3JNVUgRRwuGxpDjmhnSD5RrYygtbAcMzxiimUimFb+EmEKmhtAgKRFUGz9iW0cJfgFg7Ho91roncKbeEmAh3hfVqWztTVUD+n7VUq9U0NYEziwOIY2DfGYiEOHzoYEwmE0W1BoOBXF5eqg4IKTccSpC4RqOhCB7ICw4TRq3RaCiSY0viHqvt3yQPvg6sv9W+dE99/X3ntU3Udj14L0CqWHNu/PA522Zqm/IqksjBvgn8JyU7tapN5zptO5N9yHcxMpmMdLtdbU4kIhqhQkpko6KEbjwe68ZOVHVzc6NRdKFQkEqlojoCcA5oeoMxgQE+Ho+l3W7r54ksyc1zHjYGSgWTAjQ4MZaLYDcWooDhcKjRNaQvKzbE/7cKgUDQnI9z2g56bNaUe3J+fm9V7jCUSEzbEkfWB2kRW4KHw0BHQNvYKNl10CIvVjCHSJ5nYIl9sPAtARBSH/l/nASr4GhV4JKdHklzwMBnXm06BEMNORXnBr0BnAjbVtkKNRFFW+0Ey5uxc8Q1WQ0DjoFDYA20XWdWYAs+CHNsnWSIg7ZLI+826BHrwKo8WtEq1gLETRxlUCOcLuvYWOXKx5j1yb9vQqC2pM9NhXnuIzo+xJ+wXQNZP6uO+5hozzopV3s9p9Cp8LkD3nXWAb+z/CLreLkUwxHnkzDi9FXAiDabTTWgEN08z1P4nBeIDc3ms2Fn00kPwxUEgVYw0JCHtAZ53sFgoBUVcAPoQlipVOT6+lqjt263K2/evNG6bxHRDn5xHCuXgmsGhub6YY3f3t4qQWw6ncrZ2Znc3d1pqSaVFKPRSHtGUOWRyWS0hJNI//LyUm5ubpQ3EASBvH79Wq6vr9XjpusjESUESJyuyWSyRDa8urpSFjy56svLS7m9vVUvfDKZqLCPJQWSWuj1ekss/GKxKO12Ww11FEWaBsKgki66vb3V/D3PEYEqDBZpANJRHLNer0uv19NUCPC55dZYuWJbcWG5LJbUWC6X5fb2domEyLOkzJIcso3QKZlknYMoTKdTfW6U/Pb7fbm6utL0EvAqnTWpVACOjqJI2zFTvUPXydFopNeFrsPt7a0+y2q1qkqhvJsgMqwl1ilrF4PGu8G9nxqZbh0EwY3jfWbrOhIENLzjhxon6SA8N9uYKMcyufkd0KwVMSIyJtLlYQO3IngTx7FcX18vQaFAysDubLTUu2MAiI6Hw6FGQlZ8h9p0ojRLfrSwuu04yEZrdf5tKSRRvfViuTbQCtIaRK7MExGz7ecOEY7ny3E4Dy+GbT1NyoLrsC+V7QmBkcQokF+3amc4Y5yH7/Ndm3KwKnFEhRYp4H6S1Re2XBHHyP6d+WAjseWeGD+cI9IEIApoMxClU03DNcGHsOe2a8HKFNvW2Kxj5s/q39vnSaqFtW618e07kyyltD8Qei3p1HamtDLakC1ty3AcJ1s1wTrGKbHRm20uBenxZAyN7EYi+LmNoBuP2xrbm+aQyEz6lCfuORahhcSJTC4vL3UTJycPUa1UKsnt7a2KuyCGxMZ/dXUlNzc38s0332i+uFQqyfv375fK9d68ebOUt6LxTbK9LRLPIAlsjLe3t9JoNDRaazabcn19rWWS5K6Rh67VagrDdrtd6ff78tVXXyk7PZPJyM3Njbx69erjQvpkFG5vb+Xs7GyJL0H0bY1Tq9XSqBtWb71el+vra3nz5s1SW+Xr62t59eqVGgbbJZEcOefh2jHS4/FYnxGphkajoV00y+WyGqNWq6UpIIwNvBLmgxx5v99XtIUSuk6no8gPn729vdVSSWr9kb9GrRByKCgGa2w0Gkm73daukZaLQsoE56darWpOnnJNuAN8zm42PEOik+vra+22iUOJaiK8CoiHIBuWv9FqtTRVBgnx9vZWLi4u1Ain02npdrtLBEmrhQGHAWfFVkjYPgKrSKOgXPAsQGfgfFCaCfJmU2GtVkuq1ao65McAPa/vIohzDk7Qdm0ykhoW9835PvgI6Zc40cnmT/tY/OTqqbGnLW2v19P8KdEbKlrz+VyVCcMwVH3ybDarCAIpgWKxqLAqgkgsFKB0yvaAijHUlpRkCXa2mYkVASKSxsFAUMl+l5y7bWQEImKjb9s3wnrAGAmuFxQFHkOhUFiqDbaKZVbohfNbNMOSr2ykbYVgVjWMsaI5pHw4rxUnsURKImTLbQBFIKXBObi/ZCMyG+1a0RPmiM+xxkhDUA6IfDbHwJGoVCqqHgnXAh4KhpYUCO2vrSCWjaB5PkmRHsoNk2iLnSuLzNjnZsu8iN7pykivErQ70M7gvaL6h3eI58d3WBc2z27VJfm8LfmzQlC2k+S6pYO7aOKUNAT2mDZSTPIPPn5G7uVhJdeufd8e422tY/Tv42Ycgjj3UlIMq+bJvjtWVp5xXwosKXK2q2fgv9QHsG8vlo2UUjJy4dT7E3GNRiPNPwOp8yDT6bTmRlkw9Xpd3r17p3XwdiOE/Ah0zUtPqmOxWGjDGkvaGwwG0mw2NQViN2UclHQ6rcTG0WikPSZsTp2oFaEkUhxsNEgaE8Wy2VHfD5RPGSgRrtXpr9Vq2sRqPp9rSZ5tsAP5bzQaKeERGNlq8nPMSqWifAZQkkqlovX53IdlXlvyHnl2IG4cOFj41POfn59rfhsHC+TACjLhMDKfNuVApM93EDBi3VABYXUEKD+EfGefl21JzfxZhATdgEqloj0PSC+wLplPdCmI/m1p29XVlSIBVFAgMU6qxJJHmZ/pdKrXCG+DVAc9SUAKWL8gAnyeKgfeIf6OI0NfC/tZNmJ0OliHJ7bTOQ7CCQa1DxnvpELic1eCpF/iA7C8gH2mItLptMKwRHxsWnShExGN9m5vb5fyvsDTtgWzLU1EDx/ngO8Cz9NU6MOHD1KpVDSyFPnY6yGZU/72229VtGgwGMiPf/xjub6+ltvbW82hN5tNyefz8v79eyVtWX0HjBWEs263u8RZuLy8lO+++07a7bZWJpyfn2sbawwXBEvIZrwQpVJJ3r17p+jLbDaTr776Sr7//nvpdrtqOEm5IOwDGdJWKWCIzs7O5ObmRp0fUj+UzmEQr66upNfryc3NjRrkWq0mnuep4A4tuXO5nNzd3S3xHxB+urm50bUHaRPEYbFYyMXFhYxGo6UmRPRG4LmxiVSrVbm+vl76fr1eV+OMg9FsNnX9g/ZgJGmYBU8ABxcnYzabyfn5udzc3Oh9QvqEXEtJL+cG0QI9WiwWqjdBp1JIikQ9NOqBrMr3zs/PpdVq6TOnKoJqGcv1odSWaGsymcjr16/VaUVgi/4TpF2o/OHa4MBQ6vj27Vt1HE6JhHCsHAQ3tksvrGoz/pxpr/Tn9gB2OWgtfHl5uQTrU6MPwYq8/sXFxZJUcRzH2oLYNtqg+yJlekRPRM78hGEovV5P3rx5o9979+6d1Go1laGN41j7O7x+/Vrz3vl8XisVbOdGlA6/+uorNSDD4VBLOjFeOAk2d9vr9eTu7k6q1apWbti2xvV6XY0X5zo/P9fnRtkmeWucrW+//VZqtZqiH9PpVHq9nhplEBNQDxwnHAgr6MRcY4gRJqJRFGWlPDt6QzCfkN96vZ7eD8JPQONnZ2eaAoJMCHlwNptJv98XEVEdB649CAI5OztTXglch2q1utRkCqQKfYfBYCBffvml/OY3v1HDH4ahNJtN6fV6WiliiaL9fl+RHdI7VlsBjgsObiaT0c6KOKcgHkEQyHg8VgeNNBVVD7a0VUS0VBEUxnbqTJIka7WaVs70ej1N51G+C6cDQ4/zQyllrVaTi4sLmU6n0ul0VMgKB52W6I1GQ5uvnZB/4JyDF2i/bJ8Sq43zHOOkUgzr1OnaHtu77myVvBY2d5tnJdfLBsdmWq1W9Xe2xIprBPGgsxzlgKQsgPKBQjGUbPhERBcXF6pBjywylRLkmC2sC1cAzXzIlxjXfD6vlQJEsFwryAHlN8gCwxmAcY5RsH0YSDcwd5APbZ7UQuR8n1QFkTTRO3wAIm2ukYjSMoExrhhdC4MTYQPl88N8A8uTC6fkEAeLigDuo9/vL1WtZDIZvUbWTzInDkqCk2JbZBeLRY2gmUMMfalUUrVL0BJ6UYB6WKidhmBcb5Ldb9MlturEQqDkt7lPjgESgLohMD5OmK2T/+6777T7Jg4FYkmUV5I2YO1OJhN1PHEEbIUEa8Y+w1KppPfAWiHNBtfnvlr0x2rVLbflvhwx/z6krbAKgrbtzZfOlWjisyrStIJsVnfjof102734OYK0Uxys++S/SSXcx+bZOQgbGuxVSMK+Fiu182/evNGNGGEbW3oIS7rdbi+RoTCW1PCzmVLB0G63lwhZ6Bxg4KzmPYYCeN06IuTqMQ6gD8Cp6PQT1fE78r5cK6WOyQ3GaulzTKtzz8aEAbFdCweDgW5gtiuZ7fLHZ+lBgTGljbMlJZJ/tyV7yY0Xw4fjYQmV9jx2U8fRwqmDI4EDY/PqtszOPm9LFIMXYh0syyPBQBPBWwEjOB04cjiU7XZb1TtpVU1+nYG0sRV1ymQy6oRatUgMju1mCeRveQmgImgXsInZv1tSKQhFUtXPzp0lSHJdzANIU1K+Go6KdQ5JLfB59DFs7xMQIsqAd9Hl7xCbePJ8jxHTHvvMIa7dttL+XEdyfnFYbQM0a7eeGxlKv8TJP4SnhcCMbVxjmaeUWRHZFQoFabfbS8xUNOGBpsnrNptN3WAp3YPshrHC2GezWbm5uVkqBYOIB7GOEsvr62sVvUHSeDweq/FGv3+xWEir1VK9ARYw14mRpeW0NW5IMBONT6dTVYLEyBLBNhoN6XQ6S+TAcrksg8FA+RyTyURevXqlokggC4gaoTFBJz/mDHTC8zyp1WrSarVU7Y/UDkJOOBz1el2Gw6F0Oh2NgvP5vLbwBoHgmPQawJG5uLiQdrutDsd8Ppfz83PpdrtLTiRdDpH4tZLGg8FgSd6aFrFEwfA0yKOz8YL6WCnWJKIGCpCstLDoAb/D+aGyBg4D5bv0VGBO6vW6lonaNAfODc/HKvrhBJBmwwmhesGWVZKiqNVqmipA1rnRaGgvDNADkJxut/uDrqQ4BTjZ1WpV2u22Igxuz9vP2Jfq30PG9FgM7SpHzbZAt7LzxzReJAdhXx0ck55foVCQ29tbjfxheiPQAjyLAUENj42JCNEyv0EHbJmgbRdq2+UChdMZETlmDDrRLSViNjImaiJqJJKnIoCcOWQy2z/ClpURtVGuaCN1jktEz3eAxLk++5KQjwZus9UI5XJ5CVUgFZN03Lh3S26zEs02BUWNP3wPjovDhL4E/A/WFvNJx0RecFAbK9wkIku9ImxUnCxLsoJaROc8L6Jh5ox1A0+FDnGgDzhr8GVwVmkuZbtxgkaQSqLNNsbeNvkCgbDdFq3zFgSB9kEAveIa6fpoU3KNRkOur6+XKhQsJG41EyziwxrmfaCFd7KUtFAoaCURmzLzTJWORbJOOe16StHzIY5rEcRjmJ9kKsaKxlmBtGMZLxbvsZvuvrwyYFxy2RZKhnSFXCwNcqzOPMQ+BH+IsEhTQAa0uW6IK5ybCArJWeBrjhnHsUasEMvoLHl3d7eEZDQaDd3o2SyBqGHcw3kgF849IcrUarVUoKZYLEq9XpdOp7Mk02s7LWL0IRDazo2pVEpb9nLdIh+7IF5fX2tpI7X+RJGw1THeCOlYJMZyPRDpmUwmCs9znvF4rNoWOBk0faLCgeifTpYYKIigGHe0I4bDoRp63/dVqtoqIXL/vV5PFTBtUyhSBhh/W7UAfwLDijS3bbtMW2mcOlIhaA2AOKDSaJ8R846x5pj1el0JhAg/wX+ggx3PvFar6b32ej0V7EL3ACIlDg1cBoi19rlDOAUtof8Cpas4J6SHrIok12WJoJvA+89hVFdxFOw1JfUQknvhY/uiq4zY/zO1kug2nbnNfO/zOb1oB8HyAO57uZ5y/NFopE1xMDZEfFYn30a3VmjJig4hUcyGbhsp2W56Nn/r+75uskC6COCADBDJk1og5WCJkURQlgxHaSVOipXPhe8A8YtrtPcPEmE7EUKqpFTQiuzgOHBsK4Nr+1mQq8MQ2I6W3AfXax010BuLYCBJnWzyQ/TJtdmGTknhIF50yv1wJGxuH8Njc/w8Q0vctIJQrJtkuS49KnCCcD6oFqGqpFQqafUCDH1KFEldFAoFrcBB4RCVQ6J5ShNxaDGuzKNtfGQ5AzhIFm2zrbXhSpAusQJHSEizBljbXId9v/k7ThprDYfblgjbNt7WCeZakop1STGhhwzxOshmsoPrKiO8ilvA3mHf2VVEtihBWkyKftnjPCQk99zEuFNCL7ZBuK1sOXvKJqh38tkk15NzEDZ8IPd1MHvqcWezmbx69Uomk4m0223p9XpK6uNB2qjGMvxFRJvwEF1jvBHxIRqdTqdSq9XUsEOQg2RlSWIfPnzQGn8+2+v1tL8DhoueDaAekLgw5Baqtj0aGN1uV0Wi2ID6/b6yyYHVbSWGJUHazd+KBUGks22Vgb9xODAilOKR2rHwOMROiJ7wBXDGqtWq3g+oAOgCA2OXy+WWOlVSXglXAoibGn2ucTQaKbqD04GSJMe3Spa2hTfPHZEnHBFSB6SnaHJkNdq5L3LxRPi2dwfnJ3XCOrBRJ2gB1RuWfArSZB0Zvktqx7bmRjAMzgXXZ9ULrXInz2M8HqvDgBy3fW5wYaiO4N2Al8J9gfrYdQ7fgUoG22viJRlHG526CoPnHTisdPk99vFZdHNMbny8LDZq2Gry0mktHyyVSnoeHAY2qVevXkmxWJRf/epXS8zvWq0mtVpNvvvuOy27Qpfg7du36gT0ej159eqV1Ot1+f777/UYpVJJKpWKfPjwQUlk9EFot9tas04EdXNzo47DdDqVH//4x9LpdOTDhw9qWL7++mtJpVLyzTffKCxOqgCxIZyHQqEg7969Uzg8jmN58+aN3N3dKflxNpvJ69evxfM8abfbahgos/vuu++0a2CxWJRKpSI3NzeKdsxmM/nRj34kHz580HMsFgv58ssv1eCQkmk2m9qJkuoQZKy///57ZbGnUim5uLiQDx8+KNnO9325vLyUbrerglZ0SSwUCirSRPkc/QsgZHqeJxcXF9Lv97XhlIjI1dWVtFotdVqiKJIvvvhCpYQtudP3fSVtspEgHGWJdWdnZ5r6ALm4urqSIAi07bN1YugjYds6Mw/07qAywnI1EHTqdDrqeJ2dnWnqAccHsutwONRqFrgdw+FQ1+vZ2ZmKLIE20QGUdBnljaAZ7969U4eD3w8GA0VegiCQN2/eyHw+l5ubG43KSElcX19rxQboGp0frTz49fW1ciMOXZGwz8G7eowyyLY805Z/3+fkPGWvPhYOAvdKms45CEf+8my78DCc3W5Xzs7ONAoloqKZTRRF0m63ZTgcysXFhUbW8/lcjTj160Th/X5f6vW69lxgM0WdjkhyNptpi2eEk1C9q1ar6rRgqBuNhqYkBoOBdDr0pFLdAAAgAElEQVQdmc/ncnl5qQ2HBoOBqgpiJBEmurq6UsKabep0dnambYFhnV9dXWlOn+j/8vJSdQzG47GMRiP54osv1OlA4pkctc2XY+j5HUqEr1+/VpQDwt3Z2ZkayeFwqJG8bVVMRI12A7/3PE8FjIig4TXAc8BRaDQaUigU1PgSjduOihBLQRJIIbFBWCTErhuuxzL6mXdIrDQdCoJAU1TwSfjMbDaTdrutRMFSqaQCX+Tq4V10u11Nl5GXJ1VQLBa1AgAxKdYgThtzAXyNwwFCxLGJ3knR4ETAA4AjMhwO1VHgd5PJRLkKoAo4wjS6os/JbDbT94XnyDNn3q1gF1UTzw1L79KIW1LuczsID/VNuc85YH+2qRWbqmXffeh8x+Ic4Lzajq9Hjz69VO7BqvTCKsjQ5j43RQ8sx4GyPmrkMdjk7m20Qs7z4uJCCVpAvrVaTWvacThsLTfnKhaLapAg7/m+ryVflGyxwSMLTNRly9LQOSiXy1qBwUuIUJKdJ2rw7+7upNlsKhRfLpel1+tpigQEAi4F7Hf78tr6flIfGARSM3d3dwotwyugBTa/I81gy/dg+dvWyKQc6IHBM8EoUqlAV0CiZBj9cCE4DpB7KpWSDx8+SLFY1JwgcsxE0xhFhI6sUBTogOWNUBoLN8O2B2ctQBSkNNN2aCQ1YUmw6CDw33AWSHNVKhXlC1iVQ7gkOAGsy0KhIHd3d1IoFNThgTjIHEIoBCEgnQYfgXcI4iPnQUUSJ4ZrsuWIVM9YLQvLS7C5d9QdebdQh7QtxlftEUnOAQ7QJimIdRok2ZxyFEXirfi7FaGynJhVvIkkcspzTPIo1tlTreDUfYbNluo9JAa16hi2nbt9B+zn7PdxSh8ysseIArG+Lc/pIX7BOte+z1LOz1u1IgHDbeoN9/t9ubq6WoJRYcVTroWsMs1qbEOdfr+v5Y1EiMPhUGVk2dxxCoCjganCMNQonQ2cHDi/J2eOEFI2m1V5Xit1SxmcLcMkj0ykaHPbRO2gA+TUYMNbcR2EmzguBhzIH+djMpnoZ9nUgOataBAbI6I9SeIV126vk/JTtAaIXIk+aJ1NJG676kGU5N5ZL5bcxjPEyPNyA7mzZmz/Au7bdoK0nyHiB5K0pbGWp4Ejiu4Az4PyVtukiXmwRhahIao+yP+DPNGAi+9SRsuaI8Vi+QW2cyLfwbG25bG2hJf1B6ICXwCnjfMw72yKOEW2BBXuBBGm5dOgnUGawvJAjgWCX8twy+M6CPY4VhPjueB1axSTHSqT3K3HDJ7lc/HfbrgUw96gn03SDUTDbCzkZDEyGKjJZKJQbRRF2hcAw9tsNqXVaqlhgLF/c3Mj5+fnMhqNZDgcKoxvlQ3J/QP3s0mUy+Wlqgdgahvp0eERfXuOU6lUVIwJjf5MJqN5Zlt+d3Z2JsPhUFGGXq+nCAbGiuPgKOE9p1IpaTabMhwOtSnUfD7XnD3sefLetpyUeUMMivng71SXkO7h+6R2aCDV7XaX6vdh1NNMCA6DlVHGyQDut6V/FxcX0u12tcKA3gqdTkeNHwbXltxZoqgVfqIqpdVq6docj8faVIprn06ncn5+ru3DSUmRnkqW9lkjgUNoN1vWIk4AHRxBRWw3RVJsk8lEkbD/n703jZEsr868T2wZ+77lUkt3m271y2LotputAYnxYDwgy6OR7EGMx8PYyBqPAMFoLGss/AVZGsm2jDTI9gcLWXyZL5bHMhpbMFho5jVD07SxGkO3+wWapiorM2Nf7o01IyLz/VD1O5y4FblUVWZWblcqVVVmxF3/9/8/5znPeR7GJgEd2h3hcFjLSwTPBBm0aBLwcO31el2Jr6A2kCYJlFKplHS7XfXkoJvEciAIrAh2eFdAohCyOltmTQdnmhZmf9gBgtca+6gzXsbxXpbIl9slgvBA0fq9TA6WcwBkS80f1j4TNPVmSg9EumRVdrK0bYWULbyBCxmY/Rz7oMZrRTeYhPmboMb29VsPBCunzKRO2YFWMuB7oEsWFCYiaw9N1mB1/Dk25w00b3/Os4HAZ9sE7X2ybGAySp4RCyIZIwsb3wWa5v4Ab1oEwLug2rZEfkZ7prVr5X5zfNutQObq9aawcKFFB7jPdLZ4e6g5R3s87h/jlPEEWkRgZd0trbcGmgTWYprx5rqu1Go1RaeQvm61Wlrrt1wXugxALsgSbenFvhs8A9uSSIDC+LJoF9fLc0BvxKIrBLKMb1uGsK2AZ7Wsuh+CYN/L01D+Pc5E77JT44IECPfTbsREeS+qaPczcJnoLdkK1jmWuQj9JBIJZbzbIAIlRiyYqdXW63XJ5XK6v1KppMxtFixQANd11cUum83KbDZTu2Iy2Wg0Kt1uV4rFogoTFYtF7UDguIVCQTNTAgOCgFu3bkkqldLFF3Y9JlSI1nA9uBomEgm1fmZBBnaGa5FIJBQ5WV9f1zZA9vHqq6/qeUQiEclkMiqUJHJbnplaMgZTBBC7u7vSaDSUI0FP/sbGxlw/fygUUlEjng2Iguu6WqtncUHgygYuGxsbWodH/vjWrVta+mC/7XZb75nlF1BysvuAhW/twWHrJxIJiUQiEo/H1RKaBY/FFk4HZSveC0o+sMf5GSUdi1bBs7DmUalUSomfoCrJZFLJjAgwJRIJdYOku4Z7zLhHiZF3CTJps9mUdDqtP4tGo7K1tSXJZFLft2QyKd1uV4MDy/NwHEey2eycTTT32AaYcB1sgLYo87XtmDYbXlQ39mbLXjj9uIIDW27zaidYTYRFOgj3QmI8DCfhPAciD7qmWaLlva6De/EUjiMwukQQ7nMDOmVBpDaKBK8VJWJhs0GLN9smc4MXQDQM452FzQr0oCMPIZCebmrYTAZ4MwC5su9QKKSTKjwDEdFzJbsDUgbStaiHFfghOyG4cBxH0RMyVxYva9pj+/zhMUDmZL8IHoG0hEKhORY/maNFDngGZBVWrtpyN6wPANkowYd3AmbxstdrnRnteVuSqJWItgqZZOf2PnIPLKLBGCC4ImunHm8NwjhfKxxFPZ7FMxaL6SJNFwSIAZk25R94G47jaCBHCYuAlncgHA5rCcXagvO8KacQnCCWZHUiGG/WAMsictadkK4W9oGbKkEM5Qz7bljPFAIU2lUXTcpnfbHyKideZtiX22WAcIJRKoEAGSu1aiBZatQssEzoSAhD1kO4JZfLzRkvUb8lcIAUt7S0JM1mUxeWcDisugLsE+nlQqGgi78Vk+n1emojzCQN0dEy4S1bHIIgxyGDgKPQ7Xa1DRQY2AYgLAJ2ERMR7a7g3Kml093AZ4HnMTGChc+CYsWT0IvgvodCIel0OmqIRUBBmcjaWFsnQ0iErusqKmP5C2gZ2H5uywex5069HUMvWy4giCRwoFxlbZeRziY4YXH3Eie5NvgZuIdaWB00yKIELKr2PKLRqKRSKQ2A7HsAlG8dGK1LpQ2gCGxspwWy09wbkAoULwl8bBBhUTu0Ebhey6mhcwMtC3gePA8CB1C0RcqGZ718avlJD5ODcD+ByaLz3U8F8jIAOtrtkqR4v5HVHVGbK1euSKvVkkKhoKQnFiT67fFOYFEja4tEIpJMJqVeryvTe3t7W0qlkqyvr0s6nVa2fy6Xk52dHXV3JCCAfEgmlM/nJRQKSbvdVjSDrOrmzZsqJjQej2VlZUUcx5F2u61yzsViUXw+n1QqFSUsAutTfiDrLhaLUqvV5oRsyuWydDoddV8UEc3cHMfRCYsMemtrS0sSw+FQCoWCGmCJ3BadunLlilQqFQ0o0GmgLx5vAqSEWRhYqJLJpLTb7bkaOy6Jto+fBR4BIqSLfT6fthZay2LHcZTDAEmx0WhoMEIffq1Wm0Mw8vm8BkzA+JRfIIXCTeDcLcMfcmi329XnWyqVtBxCSyHZfLfbVS0HeABk/WTkIFcERCBPjUZDAwNMnWq1mnbFTKdTyefzWlbjXoBC4RTK/SCopGQG9wDBJjot0F5AOIpxl06nxXEc5VRAZvS6TlIOqtVqEolEtCQEadcr4Vyv1+fq8+fJh8DC2Q8zQFjUjrwI3bAkw0XlC0um9eocnCbNg8sA4ZRm9rbutqh16SgGEcQ9zF7sBElWy/+BQamFomFQq9U0A0OPgLoxQkmW9IhOArD6ZDKRdrutHIRYLKbdD3gkkDGLiFy9elUXOIhjZKRk/ggyLS8vzzlBohFALbvb7SpcjzBQr9dT0ZpUKqXWwLR3oiFAMIJ4lCX80U3APlEcXFpaUr4D5zMYDCSbzSrqAMISj8cV5qZbJBwOKwze7Xa1K8I6L5LZQook6Nrd3dVFEvQDsR5Ic6g6chxIm0hNcz4sdnQW4A9A6Yf7C2LE/bCaEmTViURCbbhppeSzoBTWbhwona4UWzaC2IdAkm2rtGI1BFOgAQQtvFOQTHkPCEgIOghabfuuFQtDtMl1XW3BpQWY68G9lHeLc2W84b7Z7/elUCjIeDyWYrEo9XpduT7oOYB2wflB7fO4MuiDhHssIXP3EDXpw2TRloRtOVr2eCdR97fdJN7v3YuehNeefJGXxV7X9KCKjMeFQl+WGE5oA6oHhl5kXnIUimJMkp1OR/x+v2QyGVXWg/SGwBAcAWqo8BJoDyMDYvJiIrMQLvC99btH2pbjs89qtaoBCnLBrVZLM3ebQTMp40+AYBKTr9VySCQS0u/3NTCo1Wra6gkM3ev1FO2woiC2zQ60APlgu0jVajWFvDFUqlar6knAPsfjsQYxLFZMrBY9mE6nKjZEGSOfz2tWz2QBWY1OAct2p6QQDAYll8sp38PaMgeDQUVDrO1ztVqdI61FIhHp9/sqqW27KiirIBOMUJK1Ow4Gg5rV00qLWBEICRk0aoEIA7FYN5tNRQ5EROW8eWcYn9xjOh4sysS1k7ETjPJ3KBRSBIbzJOBCbwF0ympgUPYJh8NKMmTMUI6jnZF7haso7z+BDu2R3AdadUFoQERAtrhGS/LjHbRExfsNDqxo06EEcfYgPHq/4y13LpKWh1dj4fn9xIyOo5RwFN4DVqlzvyBrv/XhYZYgFj27o+C72MDoKK/vwnEQrGTng24wqMlcqI1aCVr7wGzLIuI3lBUIJIC6CUIspEZNl/O3UDR6+dRb7aChxMDPkEW2yoqYMYFUkOnZiYZaNkGOVUW0PchMuPyfjJnghqyUBRo+hBUgsrVGMnEmSu5xq9WaI+mRxc+p0d2pdTP5w7Gw6pMQ3qwLJfsBgeD5ECDBG7ATVjgc1gwJRMK2PvJMWRDxkRARRWqsRDOZOfuyCoGUA+BKAKnzzOlIsIsL9X4WC47D9RHI8fxBJdBCcF1XnyOaDByHsgpohg0yeGa0BFMuARWwzHqegQ1ILNcDbQ2CRM7RIkA8c2ShCT5pteQ4VvbW66Z5FkoMhxVKOi01+dNC2HyY53EYRc1LBOGcDFRqpSx4ZE/UsLe3t/XfTE4siAjOUJPlvGhbrNfrCsl1Oh1JJBKaeTBxYniEsA8Qey6XmyNJAtHDdSALLRaLSu4iyMhkMnMWx2RcxWJRxuOx/sGLgDp6IBCQRqMhpVJJg5LhcKglENv+iWQwLnpAwmSsViGx0+nI2tqakjIRmyoWizqhs3BnMhlJpVJzCwOtkvgasDCurq5qFonYUCaT0QXT2nlnMhlxHEcXNJu5sthiSsWChnfAysrKHFlvMBioSRflHlw90+m0mkIxTlZWVubUHblHlJgGg4F6CTDmuMd0JHS7XUUfQEEQ1+LaE4mEBiRk9el0Wrs9aFekpAakDw8GUiBtjiBXBAMEbcViUQMHUCJKIFwngRltt+FwWPr9viJfPEOMn6zTqbesw5jjHqP3gG4C0s1wdg4L4Z+SiexQGehpWZROw4L4sM/hLAUHFzJAOKoHw+JZKpW0Hk4rGLArbVh0Ilj5Wwv3sRiQcbJ/S/6jXAJpkc8TMLiuOwe9kVEzMVsXPzIyFi3q6nbgYq5DJmvbETkHuiks4kDwAnoCBM8xMWUCJaCu7EVgrHwzfecs3FY617bNWYlo7hvHt7LJQN4EJfTss6iiBMkfS8wEbidYIdPmeCA+ZLNwT7hOkAA7Fvic9WIYjUaK1FilTvs8FvlZcDz+RmOBY9t7wOeGw6HEYrE5/QPbUplMJufUO7leWzajVEQ5AxQLOWt7DlaO2iJAtq0XdCwYDGoAbTuBbJeEbYEFheN37NsiE4xt3k/rPcI9OktujocVSjqpRWmve7bIe+Ai1/3PQpAQPG8PymrAL9JXP6rjWuMQO/in06n2k5PNY71r28uAiBGTAQGAW4AIDjViFmsyT1q06CZgYut0OhqUoJuAWRDOdnYRYlKnbozoDLVfftZut6VQKKgi3c7OjrTbba2jc59h4bNAkL1B6hS53W0ACY19krlWq1XJ5XL6LMnu4AVwbvAfqN/7fD7lNED0i8fj0ul0tAxEGyo/hxxKEAFKABGUcoTP51PyHxn5bDbTLgDLqYhGo9oJYFtT7f1wHEeliRHTwu6Yrgl0CCAVkv3Dwl9aWtKygg26sDROJpNaFuDaKSXhFmpbFBuNhmpiWNIhugkQDWnjJJigZRakgMUd8SOuh3FOqyHkzlgsJo1G4y4yI5wIOjFsmyliX3SoNJtNNXiiZEdgSScQ4whNDQJmkCDeWe7BfpC0VxDpqOY/y3PY2dkRr1uTzT69gkyLatDWn8IKJ9l/H9UixTH2U2sk0fFyKk56QX6YQQJlQJKZRWJV9xpIeNe3o3TtPPcIwnH1/tqWL1TYmMzsAIhEIrK+vq6saxYba5hDbzaTV7Va1UkRqJ/FgxcM0h11b6BuXAdRIxS5zXbf3Nyccw9kMSbgsO2TXrc8rsmSPK3oEUgBgkwI1FhegpUIZr9WTtmbwVkhGyu0Q6bJAg4pkJfPut3xe3t/bNATi8UU2QCRIOOGeMcYopREgEQ2zf6wCuZ6ef4o90FYxVaZ4AZ+hHWv437C5rdiVnzfas4Hg0EtM1mWt9UwsE6YBIaUn9BIQDgLFGA0GqkK4mg0kk6no50BBD/wAFBHbLVac/wIOmZAPeAe8A6R5RMQMuZpu8RhlEUe7w8CAJA2HEAJjieTiT5fni3tx3SzEChA9rWdGg+dh3DICf60ZaEHnc9BJkx7qTwe1VrwsBEE0E87P1+WGB7yZoVrjnq/LCRMLlaEKBgMSrvdlmvXrkmj0dDzIDiAn+CFe9fW1jSTB4aPxWLSarWUgGXNf8gSLBMf2Nzv90u9XpfV1VUlDxIQLC8vS6vVkp2dHclkMgrX0nvO/uEhAIfbMgW959aCud1ua4BjvQSAyIGNmeSZDAKBwJyQjrWKpmzB4sB9Bu625QwEpqjRW/1+OAsrKyuKdlASsIsniyIBAOgO5QLrUcB1WVMogjoQJMoP3CObVVGW8WY5MPZtYNLr9aRcLs+VC8jUmYC5dmtjze+A/yEHEtQRsPGOcJ8JgggcILZCaIzFYvo9AgLrkUAQaa3CvQqQljRIoISeiA2Q6EywQRcdGwRNkBfpmOD5gmrQ7sm58FkIrgdZFl9uDxY87FdmsFyVe7E5PmsJK3O2tSi/LDE8jOjnzoCzEqpHOdhRKHRdVzKZjPISyHioiZbLZWm1WlKtVnUizOVyysRn0ED6SyaTqrIH2/3q1asSDAalUqlopok+favV0hePdr9OpyOu6+qCkEgk5Ic//OGcm+Pa2po0Gg3p9Xriuq66HIbDYXn11Ve1d5/ySKfT0bbKyWQiqVRKGo3G3OJWLBbFcRz1P+j1elIoFGQymajNMmTIUCgk1WpVSW0s7GTYZMilUklardac66UVX4Lglkwmxe/3S6VS0cUjFotJKpVSpIcgh4XRWlQXCgVpt9tK6kOoyEL4BC8IXNHmSYtpu93WQGV7e1t/Rla9vb0ty8vLc8ENCxhIgNUUyGQy0mg0dMGaTqfqBmp5AvhMUJaAeIhYEQGbdU60GgIEu5YkCHeE7xLE0dqby+W0dICuBpocZEq4l5IVplIpJRwyjgjcWq2WBiaJREKVQi1PA/dT0I/d3V0pFovS6/U0ELIoAQJXBHWU4Wxgnk6n9VlyP05jzfo8BAj7zcX3Wq45q8+G94t238sAwVO3O0rIf6+aDRnNInGOowo+EGwZjUZqwMMEDqy7u7urGTVlASZIggHLCQDipt7Noslin8/nNeO0YjC8XN1uVw2iKA10Oh3Z3t5W8SXrpmd9Afr9vmb2KysrCn8z8SJeFA6Hpdfric/nk3w+P9deB8yLVTXBwXg8VuMc6tdkvpYgh8RuOp2WXq+nKAJqgZZE5ziOrKysKIzM/SsUChqIobrHcbgmUIJsNqskRISjbN0cYR60IQgM4X6QCVBHR0AJpAENhVwuJ4PBQLN3MleLJGAFzdiCq4B3BSgNyBALK0EbJRLKSlbFk44G2hTJ4hlTkDUtMRKFRNoAp9OpxONxLX/Y9kvrqgg3wZYMCI5YCBBjspoS6XRazxPECCEuiL3W8ZNnZ+XCCXT4LKgOnRuIXnnJmyAwBGaL6roPAlFb7s+i7Ne7X5+IeJWSFvEO+LdFPhbV3L3HPg42/UH350xZaZ9AyZsggX/zzizivBxU7j6u7gj/w7pJJ7Xv47RxtX3Y6XRaSqWSEg7RCUin09Jut7XuymLTbrd10SGSZLHZ2NiQXC6nRDcgYwhwdgEgGEIZjtIFwQjytOvr67oQk5neuHFDMpmM1nvJLJmALasesSfq3KAZdsL2+Xxy69YtKZfL2gZnOzm8sBokNduJwCIPvB2LxeTmzZsaHECAdBxH5YW5r5YNDyKRzWal1WqpnC9kTHgeXC8ZaTab1eu0bYDWHpu6uPUG4Dy570D2HAe4OxKJqH8GKoHcO7Ju0JN4PK5ZNRA5pSaCCFpErXUxizFlEhwjUYBEWRI5ZAJZ1CPpIIAfkEgkFKGifkrJiYAAHgbKhJRdKJHwGWSxreS2RUx4RrQGI3+9tLQkmUxG1tfX54JS7gvP0F433USMMcaxJeshTAYh1ktkWxQoPMxa/pxg0j3OhydVNrkszdx7uQFNmdMWRPnP401nsjtIcetBtp2dHcnlclKpVJQRzmREfZiFDzTAmtlwrrabgO/QdUA2zmQIqYvPWYMfBHDIVqwglJ18gY1Z1GgLs0GBzUhQ+LPOlCyM1J9tWx9lBbJ+AgOY5Uzc1NW9bF72zTNEEtnyBQjO0Dvg3tHVYdn9ZNyUETgmLHZgZfaB3THwMwJA1kGQbJZ9sG/kkNFFEJG7jsM9tYEMkDzPkmOCfFklQktmJViks4LgKRQKKcGR58diTqcG32dRh/zHM6PMlUqlFCWIx+PSaDT0GLQlQlLENXE0Gul4tI6XZEwEKyAZIA22xZZxYTkakBEZs1b6GUTMmyXzflnimxW5gkBreS4Pqpp4r4jqcR7L1vVPQ8n3crt7Y644LnLmZYCw4KU7iSgZkhcMcCZy4GMm0Fwup4REyGcWvgViZnCk0+m7Pk8pw7bV0b/N5Aq5K5FIKOxKHXhtbU2Ji6jKUcsmgqWOz0LIcfg9iy/6+ZlMZk4oyXVdKZfLMhgMdDJg8SBI4VrxQWDh4jhWiIcgCaSArI97ymLOJEgZh4yTOjvESe4drpFWrwHEA3iaAJNFzh6HMhLIAotaoVDQVkvuHZ9jzNjWPyZt2xlig1u4KlailuyffXFuVtOCoAPlSyuSBApg9STI5LlWAhwLhxJY2oUbIitdD7ZkRGABEgHPhXIH5Swswcn6rWdDNpu9i/RJ6QmSIsqj1mYdVIjSEagVKJzVD+n3+1IsFueCxJOYP04iOPCWGR52dm9VUi+3+aDJS1K+cByERRyBoywn7BchH8dNRyv++vXr0mg0VE2ORQliGVAx8rPAv+gUNBoNzVjQ4CfLrdfrWncuFov6eSZxmOW4MVoTHAacXbwh2nGeEMEgFA6HQ9XZt4QxPCJ6vZ7UajWtfQ8GAzXascgDxDnbleG6rjSbTa0v53I5CQQCsrW1pUGJz+eTTCajpQsUKlmMarWaLoL4XjSbTX0m+XxeeQd0c9Df3m63dcGyZYB6va5QNBwJ1PcGg4Gsrq7K9va2VKtVDfrwZdja2lJOh23ZbDabcwu+z+eTarWqCxqtpaAb8DP8fr9Uq1XVr4BQCJmSfYL0EAxNp1NVe6TToNVqqYgXCBcaAqgXWqdPgjmOPZ1O1XsjFotpIFgoFOZkmtno9MBRk0W/3+9rzR8iLGOdcgZIiRUR43c8N8YhYmI8t+FwKKVSSabTqbTbbQ284G1AOAXNIThmsSIwwWX1sAvYovnrqPT09d8HHM93yJKtbS++nz77o9q43wcFMBeBGGqvG16U9QJhTbCoy35B3nHds+BpCgru5yL3Mr+wMOMi85Kj4B8gfmN1/8lEgbjH47FOPtjNoroYCASkWCxq3b3X66mbIv3nZEBI4yIiNJlMxHEctT5mAq3VaspRgHOAPn4mk9FsbDgcSr1el3Q6rcTHWCymboxIJhMINBoNrf3S3jgej5WQyQKDMVI0GlUpZRZMjgOHYGdnR5aXl3UC63a70u12JZVKadCBXLXf75d8Pq+TPcRJ3CCRpA4EArogsrhCiqPjgH3ivDibTiS8FJJ6rSqRcERCfr8EA37ZCfjktf/vlTvPNCHT/m10obN1S8bb25KIx8XpO+Lz+5RRf7v0Ehd/ICDuaCSVO5NiKp2RHdmRSDgqnXZLRHySTqfE77/Naei5ruzeuR7GkR07cCiYOOhUYDxjUETZiUBmMBhIvV7XskY2m1VyKwgTAQCBCKgOfAdaVeGIwC2AOwESgOYEpbNmsyn5fF6DYjphCOYozyCpzfOl82J7e1tSqZSEQiHlMkDCzWazOqHS+UGAR2lpd3dXO1sIHOlwAE0hcObdsI6He0HzXr8Gb0niQecx/f4hUIaDSiIghl7i5b3OwQd9dxFB8jD3YT9C3mlyXjzqwMC6atpAgHfSeoUcVJqxpeSjDi98qJIAACAASURBVPjORZvjw1LlYiKiFk90bGur1HhZxOn1h4GPYyHwrFWV8/aqQ2pED4DsEOh0NBrJ8vKybG5uqkKgyO3ug0qlohk2ioxbW1uyvLyssrxWnIYSA/VusngIYdlsViqVipTLZS0jQL68cuWKMsYtGY8XAaY6pRFQgnQ6LRsbG3L9+vU5W2DunzVrouWNCZISCTVo6tzxeFyq1ept+N91RXZ3ZNzvy0v/+B1ZWy5Kq1qX9v0On/qDWQMn79T4oiGR7R2ReDolmTsKlj6fX5ZicRnPdiQejch0MpHdO5k6gR2ZP4FiOp3WYIGg0JIKMVWi7GJlqCm70HWBhkQymVSkgg4G20XBMRinjHsr8MWCTOnGmiKBuHlbC1G7LBQKSixE34OFnBbLWq02VyaAs2L9S2hN7Xa7OvYIILa2ttRKnPtxHEnFkc97cm88Bq+C4mnXeriIXQ/WXM+rj7IfCnSuSgxnPThg8NKTff36dZ0UmVyodaLSZmV4aXerVCoKj0ajUanX67ogt1otyWazSpwDioZgRv272WxqX30sFpNbt27p7yEI4g+BMU0wGNTJt9VqaZYHD4CShvV+sJbPcCsgvaEKhrrg5uamrK6u6mAnq6TWbR0jmcTt9VFDJnCgBZJWPyBs+vtZmCB1Uufe3t4W1+mKU6/K1//pn6QvInbKebVSf6hj173zd/cOqt1qObLecu763D9+9yXJiEiukJZ4OifJYlknd+SEkZ4mmEulUrKxsSErKyt6b1HUtBbKlEr4rl3YrYGVRQvgIfA84T/Y1k1q+47jKNJBRw0ojnehBh3w+/1KpoRTwzgCPSNYIehwHEdbhukschxHSyLob/B7eBMIafGZM2HS9OMI4VBGTfzurAUIF3GzHCC6lEAFH8a4PNMBwsN8mYFQi8WiwuL8HHtjFq21tTXZ3NxU2JNsBlEfgotwOCypVEo6nY7MZjMtF1iXw1arpZMiPeKbm5tz9W0RUd157lO5XJbNzU0NNqbTqRIKm82mcghQ+dva2tLBGo/HVRgIb4LZbCarq6uyvr6u8Dp+D47jyK1bt/T7+XxeIWxEdnBz3NjYUPRlZ2dH90lwM5vN5Pr161KpVNTXAFfA8XgsjuOofgHlhmq1KsFAQBqVLdmsN87FxNERkU6jK9Loirz6muRE5M3vebck0hlVG7RQI7bfKA1CCCXAs0JFfNd2ZoDC0JFAAAiM3+v1VO0zFApJqVSSSqUypzJJp4KVwramUizMdCfAkeFdgOfT6/UUlSsWi9JsNueMn9DcAEnBl8Hn88nW1pZyTFKplAYTBM0QQe17eNC8chpRhcPOhZYpfxkcnM41DbQNHo/X9+Mku0FOLEAgM7Euaw8C7+/1QsDqhwPghWaO6uXGsyAcDstkMtE6KMqD1P2YuNAeAEHgHmCZ6/P5pNFo6KRK7zma+AQXmUxGyVmTyUR6vZ4iACIitVpNEomEiiXNZjPpdDrS6/VURMjn80m9XlfBnmw2q7A0x8vlcjqx9vt9zUDJ8Or1ugwGA4nFYnPkPtrRSqWSLgQsFqgfUuZwXVd5CeFwWCqVilr1YutLC57f79cJHiOgwWCgyn1kpdPpVOLRiAQCQWmek+Bg0dYSka//v38n73nf+3TxYyEXEQ3M2u22dr9Qax8MBnNIAVwRLJEphYXDYdUiICClxARKAx8FiWcQIcbMbDbTcgbZO+UMxvlgMJB2u63vAiqRcBRQGEUl0ufzSS6XU7IkwUI8HpdUKqVtkNPpVIrFos4DKIFGIhHluHS7Xen3+2oFjey0NTqyC/Aig6RFc5G3Hkxpxfq0LFoc+MwdgOCu39t24EWSxHzf+pvY0hx8kv3m0MMgtZfBxYOtgzwf7zjgmVlpckpy9t9eBGiRMeFRbGeqzdEyPB92fQpiFUFBKpWScrksmUxGIU506OEI8FLGYjEl/9HKSLCADwJwr1XJgxOAAQ81V7Jv6s0I6nAOwLeo121vb2srJdwAq4sA/AxBEgIc0r27u7tSKBRURhe4OZ1Oa/cD2Z0VsqGOzPkizsT/EZVKp9MK+abTaWk0GnPCTzDiqcETdY9GI2k1m/LCt/5BvvnNb8r4nE822WhIqlubcwZTcDysABL3HpKsXSBAeeziRLmBrggblFOusFyCQCCg5FTbdUK93xp/0QZq/RqsmBYBst0PdViMqmgdhffAWGBypbPEantQDoGXYoWhXNeda388U2WGQyRTlwv72Q4oeCeYV4/DnfhcBAg2kj9O16/DbMCd1WpVmeHA71boBbiTOhIQKn9YRK0ePj9nwqL3HbjJ+tpb1Ubsce3vvUqS9t4RXFgYmOCASZ3BCexshYJspmcDtr1sZW0GZkWS4A7s7OwotwL+AoZO9jPsk4XPRtO1+m1ewUWgN1WGE/nH774k29vb0m63tVOGMddutyUajaoEMV0EEFJpk4UngAooCytE0UXQpn2+lA68mTP6AzwzUCiCFxs8IOwE4gZZl8/a49sAx54b52pruNbdkXcFdGGvBfNUuDkeYYBwyTc4+wGebXP2zqfHOUbPFAfBKvadBlUuBHkgGZIJ0YFgF2uydCbeQCAguVxO4VG/3y+u6yrXgEmw1WqpOAyZlLX+ZYEGwqWzgeOLiHQ6HSkWi1oS2NnZEdd1lSkOtAthC2iY86QMgdoeddxyuaxs8Z2dHWm32/o5MkSRH9eyLSeCzgayV8ox5XJZyWoiouUO6uMECixsTPwEWsdhzHUWkDUWdRZMFkcQKgIqOmAINJHo5h7aroZcLqclHwu1g9ZYxcd8Pq/KljgvUvYgCKUkNJ1OpdPpqFw1bo1wJOiIoeSF9DTCU61WSzt66N7o9XpzJEVr5U1wy/chw1LmQvDLqo2eFxThMkA4+xtcGVqFH7Sl9lQiCDbiOexApVaz6IYxGR70Qi8SmjiKDbgUExgWaQR6gDO73a5mS8PhUHq9nvT7fZ2cqZcCvbKY9vt9/ax12uv3+9rCJiJaN6WeCszb7/dVyIjJodPpyGAwUFU7esyHw6H2sqPR32w2ZTweKyoC1NvtdrWOTF273+9ruYX2ShAVhHai0agS25iwWeRt+x0qkMPhUAaDwZx6XrfbVQ0JWkuZ+CljAIlfpM25wx3gXeFep1IpcV1XhYkoE6FKGYvF1CiJkgLcFkiOBBKMO5AsbMDtuwdZFJ0GFnZQLMpmPNNYLKbBKeUI9kVwg8Io73o6nVYBrl6vp90OjOPRaKTnQZkDYy+CY+Sg+/2+fhcyJEGtzd6888xeyOZh5hgrkOP9sxevYNGxdnZ2ZLYzu0urwSKr3Dcv8rJXJ8O9zI+Lzv9e5/eLuNm220X326LL1oiL50bpldLZcZeNTjWCYG8SzHlq4sDNBw3ug1zTHuTcLBzLhEQGzWQGGarZbEoqlVKBFsdxpFqtzgnBdLtd6XQ6kkgkdHJm4qY9kZavyWQio9FI1Q/pHUcVETIjojP9fl/W1tbmbKE3NjYkHA6rsBDIwGw2k+XlZSVUDQYDqdVqks1mddLf3d2VRqOh/fjBYFBc15VaraYBASY5zWZTQqGQ6hZwTq1WS8mQ1NpowyPQCYVCsr6+roJM3Ndms6mukUz83I+LtsXicVlaWpKtra056e9cLietVku63a7U63WVt55Op1KpVNSsKRKJqOYBzyIUCkmj0dBgFw4IAQftpfAeBoOBEk7hvRDIoc6IMiKtut4JEOIu3B3XdfUaOVeUN+EcxONxRRoYXzYYLxaLKhpl3w3KI81mU1zXlVKppIjdg5Q/7+d393/Aw+33pFGEywDhCB/xgoAL8i7v33GiCKeag+CNpoEvyTbvtcxwlAOXVqxGo6HdDPAIkKmlI4DsyZLBgI34tyXpcZ0shigJMqlGIhEllOGYyP6xtyW73t3dlWw2K51OR88HRAMWOTV+iI9cCwsNgQaCTrSGIYLDJE+mb1X3iHat0ZJl6FquRDweV60GSglcF66KnJfP55NSqaTnSlZ7HNbepx5BuNPqmcvlJJlMarsnpZ5kMinLy8taGiCwQgSJ8o6t9xM0sDCL/NiS1svEDoVCcy2PjHfMoiizWQlpsniQK/QK6MxxXVe7W2jvpYSHQqTV56C9l3IJwmMQKq3/Bu/bzs6OZDIZNRejhHeetssSw/ncQNYo217IAMELm7H4euUnF70AJ0E08nZUsFjBJ6CXm4mNAMHrOMmi7DiO1mjZrKkS33ddV1EKWrTgJNTrdYnFYhpAIZTEBIrfA9oF+A7APbDoDP3sCN3QKkkmiDy0VZWMx+O6kFDXptYrIkogY5FnwaEsYiFwFiyLHnGvd3Z2tC10NpvpQnARN2r5IDm02sIvIahGKdN2hNDqyPMnOB0Oh8qlsaRQAl6eK8gP4ksEgEiRWxMlSlh8n3fAvkf2fbVurEyEqMstLS0pqkZgCT+JcUxnBZyEZrOpZQveDZRDad08j9tlgHC+Nt4FODbH+VxPdEY9rDa3ZUKziFqlQtu+tEj04yQ83Fk88/m89v67rivtdlvd+obDofZZU0oYDAYqoZzJZJSj0G63dWJHxQ4yFxa3wOjwB+J3oOV6va7mTgQlg8FAgxJau+r1utbr0b5Hong0GmmdluyPOrPP59PrhBfguq4Ui0UVhMJDAkSDzziOI6lUSjkMXH84HJZsNiutVkv3wX3qdrta9+52u3LlyhUZDAZ6TRDLQDy2t7fnWjsvHIJwp84O9yMcDmt9vd/v62JIDzwOn3ANcBeF+wH3BP0CNCcIEJH1xl6btlvgevQJaEcEIYJAi7w4JY9kMqnwP+U2kC2eK14J0WhUXNdVoi3203T7cF4YdTWbTVUcRXIaDhB/UDHFt2MvI6a95qmDeAl2kb7Hpf2OFoJv7s+uLNZI2K/+b4OxRcnUeWrtPI9lBi9XxWpqHGeQEDzJi7RM6MMEEbatg+zZkjus97v3RSArPa6BDzRONguCAAQPLM/iDrQJEoKuPO58ZO6QULgmel9hkvM3x6cbwNaSbcZlBVNoMQuFQgr3zmYzJakB4dPyRiBElhgIBLTuRc86z4dr4n4gbASBk2eXSqWUeAmETXkAfgVkNRAD9P5hw6OhwPnDWL+I5QURkWqtJm956ikdTzzHdDp9Z+Fzxe/3KSxJZwLPlmCXcgNjmXFMp4HXSIexyFhOJBKKoqHiaE2CrGU4wb4tsdn2RUodHBPEgVIH4xiODyUMullslwbnCrLANdp5A2SNe+edhxaRofeaWxZ91qtgeBgdl13xiYhfdsU39+d2Xnfn53ss7t6EiWdpg4i9UNeHgTRcVFfH+0ms7T1irrWt6mcyQLgnWMOjb8BieFC9xYq5HHeJAaJWvV5XmWW/3y+ZTEZ/BrQKmxpbXn4OLErQQBYGGRDp5M3NTclkMjrxpdNpqVarIiJzBEPOAedGK8xUrValWCxqmYbFA8dHdPSBgVmMYZiDGBB8JJNJqdVqsrKyovec86ftEWdLbKt5huj2W8VGjr++vi6PPPKIEtcikYhUq1V1sSRIqlQqWjahrx9p6osKO9I90Ov15MUXXzzU95588klZXl5RXxDa/zBBikajKrAFcXA4HCosT0DabrdleXlZuxZAtjDZCgaDc2UGK+BEiyKBKe8HPiaWrT0ej6VYLCqPhufO+0Yg02q1FJEgkAXVyuVyWnYBPcjn83PZ9VnNqr2Bwb0qJj6s+d4bMC1CRO6n2+IibLToHtax80wHCAxqggEgzHupL59EBIwyXbPZVAY0pD40AFjkOXcU5JhsmRyBcmOxmLTb7buiwVAopJ8HrkWoyUq4ooIYDocVkWDQYHRE1kbQsrKyIiKi50RbGBMLGRmcB1AdrgsRJZAE9glqYDUPEonEnGKjdcAkiyRgsWJL3Ev2BVMddj0ERn5GG+VF2l566SW5cePGPX/vlVdekVdeeUV8Pp+8//3v18zcm6XwTjLW+AylIysBa1UzCRbQsaDkgRspnJq1tTUtGdCymM1mZWlpSZrN5hw8vrS0JNVqVT0mCFoJfm1wO51OFT3A4dNKDlvXUi+h7yzD7lyDV2b+tPEQbLveQfO4V/Ttcpu/N8ehLuw/rYNbRJRMZPXJT8tGW9mVK1ek0WholgRz205EtpWLzIdaaTwe1y4Fx3G0FkymjTgR/g1MsplMRjqdjkKpsLCRyiUjp2c8HA5Lr9fTl7Jarcqjjz4q9XpdF15Mf7ySs7TAgXaQoVHjhfjluq5cv35dNjc3dfK1rHVcHWlF5Od0K6DHjx7+9va2NJtNKZfLaj7FdYJ2UEPnJbmIwYGI3Fdw4M3YvvSlL6nxF3wQSnvWLtoqXYqIDAYD9UAgwHAcR8c5hFRKYozTaDSqbbbU/zOZjGQyGSmVSvqsU6mUlEolyWazEo1GteW2UCioYRnjCLIr10Cwwf/D4bBqZsBxSCQSajt9ELx7VgIDb8a9V/ngYV7fYUstl8HBwUEWSd5RBwnBkx4Q3qjcDmKyDy7WDuBFCMJeJin2ZbBoxFHWtba3t2V5eVkzG8dx9Oe5XE7G47HU63WdEIHDESAiowmHw9rCxUIdDAal2Wxqnb5YLIrrutpxMBqNJJ/PazkDvwdIi+12W4mK3FOOw31lMk2lUlKv1xWCzeVyqtsAGQ2pXlowGZQgC+12W19i2OXoIbRaLVlbW9Oec4SQcrmcBAIBqdfrEo/H1YOCbg4kgQkwsMDmmMDheD8MBgMlslG/vtzufXvhhRfURIv7yViwUsm1Wk3i8biiVDw3kR8rjCIERmBKiQ3yKdAyZSh4AIiC0bGQTqe1DAZaRJstgQZtk4wZUDcQCXwlCCDohrIaCfBqLPl5UW33Xo2b7Hf240XtJZrkdfPzHncvwTj+DQpIq7EVS/LKoR82aDiKxfpe5uLz1KG03zi4n/tquQjnpsTgffG87mPeVsaTGoj3cv6dTkdr/bFYTCHN8XisrV8QuLrdroRCISkUCjoRNZtNCQaDKqhEXzc1fjwWGEiFQkFJeTDIy+Wy8g5QJczlclpqqN/xJvD5fHM8Btjqw+FQcrmcRCIRzfIJSjB/ajQaEggEtHMCZ73d3V1d6AmOWCBwY7x27Zo0Gg2ZzWZSKpXUZpp9FgoFCQQCEovFZDQaqRkPx0EUqtfrydramtaNYcsXi0VVcLQqjZfb3du1a9ek2WyKiEi/39+37PDOd75TkZl0Oq0qla7rqolWPB5XLYNeryfpdFpLb3QaUB5CNdNxHHWGJBiAtGoNp0RkTlYd4iM6GzhUUoKCJGv1MGazmeTzeeVUEHQi52ydKIvFogYNJ2mGcxRz234LDQisyI81Kk7Lhlvt5XZ6t4caltl6n+15Pozc6MPeWJwqlYpkMhn1PQDyhjNAzza1c6s3kM1mpVarabaPKBGTMBPexsaGpFIphXdhihcKBe06iEajkkgk5rIHetGRLabOj8BSs9nUQKDb7crS0pJCrrTNUWcGHaBTIBKJSK1Wm+MrRKNR2draUgtm66SXTCY1s6NDwdt+Zy1+yeQgJK6urspoNNIJD7IZEDZ1zEsC0/yWTqXkZ37mZ+Tnfu7n5I1vfKO8613vkscee0w++MEPyhte//o9v/f1r39dg0C6U3hXrWSzRafgkyB6tb6+roqedBQwjkDCGCPRaFRhf5/Pp4qNiB4h8IUvCB4mSCfT7QN6wTsBMdZ2AllTJwi8cBe83QtnJSO1pD4vj4Ig6jhIbA86h15ulwHCwg1I3ZKabHBw2utNMKrJomynBYueLZ3woiJGY2v7IAW2TguaQPZjvwdBkFY/SGBWp5sJArgWNji/p3SAYBKyyED0LOBM+FbMhgkfvgKTOnoLtt0QsiJkU+vkSMBjOzAs34SABEte2rWm06kaTXknvdCdxexyE/npn/ppedNP/qQ+S2smNplM5Pojj8gH/sW/2PP7N2/e1Odv4WzaSukYYIzCNYBMi5Ih74MdC14CHYqMaHIwL1hiI63CECKn06kMBgMRue0GieMdwYDlAdG1wBjC4ApEzs47i2r3pzkwsP/3BghclxcZOQ3z5+V2+rcTKzHYBZOsBMEcXn4LizEx3Q/0z0Jp623exfooSgxLS0s6WSI6Q512e3tbF0X8FVAjpHcbGWSseplg0+m0NBoN9XVIJpNausB0KZlMKpEPOBV9g1arpfsTEXXGQ1CGDI3zAMaHbIZ5FAEGcsocdzweq7wtxjh0dKCHjwQ1JDPEczCXQgXPXruISC6XU1Eb6s3ZbFbr2yK3HR5xp+Qe4xS4XC7L+vr6hX+x3/GOdygCZcWSfD6fSm+nUikZjUbytre9TZ5//vm79lGpVOQNb3iDdDodVUVkIYaMC/wPHyYSiegCkEqllGRLQJ1MJtVEDMQK5AyVR96tTqej4wd4fDgcqq8JaBolPLuwg0h1Oh0teVj9epAq1DsxiyKIXSQk9CAEsMMEHos6Dbx8Ki+Piw6OvZIqnjutnnsZNd1PcLJXwHK5+B8cGO117++H/wH/wKK5R/UMTixA8JYQ0PEXuS0Ve9QklOMW2vD5fNJoNOTxxx+XTqcjoVBIfRPIfizx0Io7EdmTUZHR+Hw+7WyADIiU7M2bN6VQKCjaEIvFlLRIsAWLFdJiNBpVZUfuMZ+hzLCxsaEIgrXvJauycK0VuCGTQ6wGZriIqAkTC5MVWhoMBiqiw/0ALYC1jngUJQ5aM0FAOEfspckgKTdc9O3pp5+ey5CtTLVtP7X23k888YR873vfu2tf6+vrcu3aNR3z9FxTvgItIniF2Go7WOykCFLgXXBt+YifE9zAfYhEIhKNRqXb7Uo+n9djxGIxee211+TJJ5/UYxM8owpKYMA4oyQBidmqtZ646dIDHGsRguCdd08r+hGJRJQIex6CChIrx3FOjOh5bhAEr92zVTs7i3Vjsibr0kgdk+wIMtRsNpNarSaRSEQzfxbGWq0m5XJZX5hAICAbGxtSKBRUu6DVailRjJovLHLreogcbqlUUtg2EokohwGFQibQ9fV1yeVyqpqXTqel1WqpNwMvMgTIYrE4Z7rEtXOcYDAo1WpV8vm8dmhMJhMlh0EypPWy0+nMCS2RCWaz2bleetAUMiAruANKwX3fq6f6Im2FQkHRKhFRIq2IqAU5BmMiogjRou173/ue/MRP/ITqD7Tbbe1GQGug2WzKbDbT94CSWKfTkXg8rgv/bDZTrkI6ndaSGvwXi6LBocGtEX8RvEngL4A8FItFaTab+j4QMOOwCgIHgsfCyTXFYjENMs/atldnmDdbPS0Lkt/vl+Xl5XMnjQ6Cm8vlpFKpnAtn2RMLL62QA5knRDSbNZyllxICFfa11D5psRL5sTWnXcj5Pgsziy6lERZX6vyY8NhWKT4HGkEbk0UeUB2kg4G2MCvcBHRrSUzWIZHMCiY6+yAj5ThcGwgGXAE6POA4cI5LS0sK6TKJoeBIIOOFLBkn8CSwNqYUQgZ7kbe3vOUtOraAlxGzshA3z5ZFcr8gHQib8cgzAPliPzx3C3VScmAMidyWNYYHw1jgMxZJw2iq1+upZwddEvy/1WrJ9va2HhvVT/g9oFciouPFturyPdxNz1qy4m1vXBQUnDZHx/MYHHjfl5WVFR3XlwHCPd48InzbwrRosB8VcnEs0EswqBKtEOjQmicwYHHEUIgaKteM2xwiQMC+qMwB4ZJpUR4AOiUzZ0IF2mLBpBUTLgM6A5AbOTaZ1mAwkEAgoDbBLPJM5JSFyNow1GFSRxWS3nPrVknrJ6Qyq8Ro3QFBHSgrUCqhrXFnZ0eJi/1+X0WluC8XvcQAWoC5VyAQUC8LnoH1BxER6Xa7EovF5PHHH1+4T8Y0gQZupRyHsQ/hlZ8z1ngf6Oix4lhwd9g38wBlDNBGC0UTHNJ2axUUs9msomW2nIYQGWRKkdu8KIzP9uqe2s+IaVHHw16f38tMbr9jHdRuaTlVe+3f8hYWGdud9IY89nnf/H6/5PP5A4O7yxKDuWHU370iSA9yww4SmrA1uKMkb1hRIMdxpFqtKiqSy+WUyIXaIQIzqP/1+32JxWKSSqVka2tLF8hgMCiZTEZu3Lihk/xkMpFisagtXf1+Xx5//HFpt9vSaDQ0i8cZ7+bNm8oBAPpH7IYJmRbJ7e1t7Qbo9/uqVYD/A1bREArJNrlOghsWgeXlZZlOp1Kv15VVXi6XVTuBBSedTkskEpGbN29KMpmcE2qq1WraajkYDOR1r3udrK+vq8PkbDaTlZUVDXRqtZqS4s4iRHxUW+IOHG8JwNTsd3d3lewXCoVkc3NThbUmk4mUSiV57bXXFu63UqlINptV10c7DnmvA4GAVCoVicViKnedzWal0WhoJw2iR/1+X3USEEqaTqfSbrf1HaIEgroo6pmQYlOplKJvlLsymYwGJt5SH+6SBAWcIwnLrVu3JBaL3UWm9ooOLQoMvDbV+82B+4kRLdr/IuVDb7eXd16zP/d2UdmgYa9j3k+idVjBHzhDx7X97u/+roTDYfnN3/xN/Vm73ZbPf/7z0u/35aMf/aisra2dyPsYjUbv4sIdxRp0FOJKpy5AgAyE1fFBxkunfaM0QgZbLBZFRKTX62l2hXAMAQGEvlQqJZlMRjY3N8Xv90sikZBsNit+v1/a7ba4rivZbFbK5bJ2F9AuViwWZWlpScmFq6urWq/t9/vS6XTk6tWr4vf71dQJQlkymRQR0QkaTwaU6kAGRqORXL16VSF7FBQTiYR2QjiOo50R1HTb7bZ0Oh0taRB0IMqUTqeVK4E2w5UrV+Z0D2C6s89QKCTValWCwaAkk0ltAcX+OZfLSSaTmZMBvqjb4088IclkUgmno9FI6/g4HRJklctlXRB9Pp8ady3aQqGQ7pdgEmEwbJdns5lks1mV5GYcxWIx5ThY3w66VNANQZSLMYrAF74ioAeUKWzJjZIJ5TIWUES1KGPwnmAFDdF4MpnIysqKGoOdVGngqPaxl5TyorLCot+f5MbzO4758zaAQwAAIABJREFU+Dvf+Y785V/+pTzzzDNzv/vkJz8pP/rRjyQajcpzzz0nf/EXf6EE+eNOii9LDPcwmK0r23nYaCkEskUMxorLwCAH9qcFEle6brerC9xwOJSlpSVxHEcnY9jdqM1Np1OtzZIZwSwnK7L95rQNJpNJhYoRT2KiJxskA4dkRn2fUoftPkDp0LawZbNZRUYIbNDCFxFta6PeS3lkPB5rbZm2R84/lUpJt9tVRIF6M8x0EVHomkXxIm5XrlyRcDisXgMskmTUPPt4PC6tVusuIh8B6KItHotrGYAJnhIU5SGydco8kUhEOp2OcmmsHTklIasUilgS6p6MfwSZbDsuGhiUO+Ab8A4ydlBRZHxxDYx/WihRUwSROkvbXsjGfhyE08ZJuB/0tt/vzz2rP/zDP5SPfOQjd+k9/OhHP5Jvf/vb8vnPf17+/M//XMbjsbzwwgsL9/m1r31NPve5z8lf/dVfXWgk8qEFCLyg50VX28JHtkPAykSDlJAlWXtnFmnbo0zWQ9YELMl3rTARPeTWeZGF2C6+NtuyIkosIrQsWsIfXSbsl3qw1W/nxQLqnUwmc9ceiUS0nQz0yLLprU68V7uCRQidA8YQgQX8CBajs9wR86DbM888I4VC4a5eeRZvgkICR+r63FOQo1deeWVxgJCIz7VMwq8BAUAZMRwOz41ZCIt79WhbQiLjz5YhrbgXVs38znEc6fV66j5K8DkajRS9YNygu8C5ci6MdYJrFE8f9uL+oHDzIq6B9+dnOUlrNpvy7LPPSqfT0Z/96q/+qnz5y1++q+6P2Nf169cVSVuk+fGlL31JPvaxj8lzzz0nn/nMZ+TjH//4Zcu0nLAXA1kHC9VxwHKLzJps7e3IblwwKJ1OR173utdJpVLRFq9WqzVHXGQxxKyJFjOy3Xw+r853ZNv5fF7rvru7u5qVQ/ZD3946OHKcUqkknU5HOwSGw6F6H+RyOWV4l0olqdVq2onBxA305rquhMNhjaTL5bIiEbRT5vN5qdVqUiwWZTgcynA4lNXVVXVlpDSSy+Wk1+sp+RAUAOMlBH3q9bqsrq5KvV6XdDotOzs74jiOXLt2TarVqqTTaRWgKhaL0uv1dLGwan4XbYNTMhwOFYFhgczlcuI4jraNIjLVaDQkkUiI3++XarUq169fl5dffnnP/dvgHtTJKnti+oWxl+u6srKyoiJLPOtUKqX6C3iIMOZoXQR549xpF0bbgGtA6ItuhkQioagSpahAIKDXyVghGOD9QKyM8WOVQxcZMXl/ftj5gmCJpOBe57K9smnrirgoCLAqq8dVErHJ0nEHH9aAj43AwFvCwEiOgHhpaUleffXVu/b5hS98Qd797nfL5z73OXn11Vfly1/+spZ6TxoRup/7QdJ41PfeL5fbfW1kOPApyIaZeCyMak1nFimgsT+gcvt9JhUGvg14yLpYdMniWezZD8JNMMo5poV/bfnHOyHyMrLA2Guw+yBTDAaDMplMtFMBeNn2uHP+BIyj0UjhZjI7asugDF75ahYMu8/gnYngom0WPbBBOFm8RfC4f3TXwKXZLwAhGOA5WLlsKwTGYkQmzsRsx4J9NxgH9plTOmDRsyJgPHMQOES96LQhQLRtwnS+gHSwWLJY2/2eBAJ1HMc47bLQR7FtbGzIN77xDfn7v/97mc1m8sILL8g3vvEN2dzc3Lcc4f3/ovbDD3zgA/J3f/d38iu/8ivy0ksvyS/90i+dSHBwHJ17ZxZBOG9bKBTSTJ8seGlpac66lolya2tLlpaWJJPJaPnAdV1FHMh8sE9Op9M6kCFPJRIJicViOpmikggBrdfrSbPZlHK5PCdDu7GxofbIZDPWZIqJ1XEchewhkc1mMxkOh8oct9EqqATnCQqQzWbnJHer1ao6N5Iduq4rjUZjTiip3+9LtVrVcyUIq1QqKuhEsFGpVCSRSEgikVCtCKy0L9qWTCalWq0q4ZQSAmTUfD6vLaOj0UgqlYqUy2V9PqFQSF588cWF+y6VSmqTjM6AJYyCcLVaLRX3ogSBaBbohd/vV1EkGN6TyURljjOZjAai3W5X90mACnIF8ZAACPMzOA3WDZZOBfxKyAoJZCORiDiOowjgWbMK93ZanOft5ZdfnutO+K3f+i0REfnsZz8rq6urC7/DmGIcTKdTeeyxx+763C//8i/L6uqqPP/88/J7v/d70uv15G/+5m/23O9F2S4RhAfYgPGZqIBIIfaBEKCwZaVkcbwj02Py5t9kfGTIlqWNghwZGSgFiz0ZJJCaiCh8ChqBfa7tKKFVErIZ2V0oFNL2NSZWsn2CE2u0hFEO5QnaQS0Cwj7JbiF42tqzleqF/GkNviAu2kXgIvRYLxqH8DPs87ee88hQs4CDHsA3abVaC/d99epVHaMIb7EYUfKyvBA6JyCvEiAjvEWAB+RPR4M1dAINAD1jfDMWaC1utVrKRSgUCuK6rnS7XRkOh9LtdpV3QSBOIEAgbruDaKk9y0JJ53173/veJy+++KJ85StfkUAgIF/96lflxRdflPe+9717fueRRx4REZEbN25oR9Vb3/rWuc+Mx2P54z/+Y2k0GvLpT39avvjFL4rI7fbei44g+B/GQD7sn/vdhyUhHRv0coeDkM/npdvt6oIHxwDfe8iEZEZ0KojcJtuwmDL5TqdTFSBCgRAyohUZYhLFhIbF3CpWiohKF7daLW0ZQ6621WppzzwwPqRGFlrq+9YES+S230IqlZJGo6HXg2FSvV6XTCaj17G0tKS+ERAJWaRAJJLJpHo40KeOqE4kEpF6va5ZI7AyyATnTQBy0TYMh5BXJmCA60FmHY1GxXEcKZVKKpQVDAblxo0b+763iGTxtyWoJhIJ6fV6atJFC6HjOJJMJtX0y0oad7vdudKC67qa5RFoYnoGgZFAmE6IdDot6XRakTo+n0gk9FoJbGjFBUUA7aLrg/IdPKGDeAf7zUu8f16DJ2tpv98xvJC4dVFdpMlwmI4EyiwEkNawyULv3nO/17nZnvNxl9MOuz366KPyzDPPyK/92q/JL/7iL4rf75ennnpq7jOgj3/wB38gn/jEJ+QjH/mIRKPRY9NL8Abvi8bAfn8WlVEe1EzsoZcYTtrk5LjNmnjhEomEOI4jjUZDAwCg9Ha7rRNqPp+X8XgsjuMo2zqTyUgymZStra25wCOXy8nm5qZaPqMXMBqNpF6va/04Go1KIpGQGzduKPkLnXq0C/C8r9VqmomNRiNZWVlRZzzQgmKxKJPJRKrVqn4P5i996QQh9JY7jiP1el0z+atXr0q/35eNjQ3dLzBxtVrV4A1Rp83NTYXDEdepVCq64I9GI7l27ZpUKhWp1+synU5lNpupToPjODIYDMTn80mhUDhzEPFRbBACHceRbrcro9FIFSjD4bC0221Fjmjzu3nzptbk9+peePzxxyUUCkmz2dTANJlMyu7uru4TyB/xJUptiF4Nh0Op1+vKGUCsCYEvfoa2Bgsii3qlUlFkYWdnRwmWNgmIRqNSq9W0k8O6QSIUZrlCtORatKrZbGq743HNcUeRtOwnLreXCM9pUFBkAwl6oKzW75c3vvGNC6/n0Ucf1fmX7fd///flT//0T6XT6civ//qvL9RA+PSnPy3veMc75G//9m/lve99r3z4wx/WMtxZWvPObIBw2m/w/QYIoAeZTEYnNgiDwJnAnHAQ6EhgEV1aWtLFudPpaEZIPXkwGGjZIZvNzsnmDgYDuXbtmnYLUJvPZDISiUS07Qu+ARnncDjU+j0TOv3mfJb68GQyUfEiar4oMsK/oB+90+lIIBCQTCajCz8EOPZB90G/35eVlZU5QiX7pMuh3+9Lu93WlkkCFKDkbDYr2WxWhZPOSwvtvWzoVwQCAa35gzLhaQA65TiOqhMuLS3JD/dQTxS53bkCd4ByGuOYbB39DhQ3cQ5lTCGyhM4Btu6YPSWTSWm32xrsgn4QSMfjce1o4d1AbZQSHEiU7YBgHFhLaqvmCk+C7ItgGNb7WSwzeIOA09jO2Ov1HlgsKZfLyRe+8IWFv/ujP/qju36WyWTmuAt7IcLvf//75f3vf/+RXet5aLv2n4WBfxrrM9RSgVL5GS1gKLeRyVl7XbJgJIhjsZjWYNG0p77O5IWkMdAU9XpgU+xs0+m0DAYDJZAB4cdiMa23MhGSQYIGWPMcMjY08a22PYZLWPFasx7c8tBgQE8BqJNzBgIH6eE8Wq2W7pP6OPVkKxmLsBOBCfu+aAIn+XxezYu4XyyYBLIErSK3bbFR/3R7PfnhgpYvEZE3v/nNmtHzDOE2IIAFp4UgmLZYSg2dTkfHtoio7DPjh/EGIkZwQLBISYJyFCJQKEXCl3FdVzKZjPR6PWWpt9ttyeVyMhgM5rpfCB4o64Go0Z553syaTtv2oCjNWdqsTsNlgHCIBfUoREEO2of9+XFmk9YQiYUXgiGTn52UbI3cWz+07WjAoaAQkL5QQrTGRpaLwMSHlDV/CBTgKljnRkoOZFMw1YmogaRZ0OEA2H0TJXPf4SpQ7+Sayd4oU9iWRzI5K7hkN5AF9sXxLQmSYGx3d1euXbt2YQKEtbU1LbFMp9O72lwZV7FYTIMooP3nv/GNPbMpLLftPu14EhENAFmIeH4EFAQRiB3xbpD5E7gw7vijLat3xpvVM7Gtuygr8p4Fg0Hp9XrSaDQU5fL5fNJut+dKHSAh/OHdtUJeB6GaB81jizJ6bzlgv9r+Xp0JhzVwWvTz0+BWubOzo6XG87xR7jsOhHy/sXPUQeGJlhi8hJ9Fi+693lDvdyyR47hfiNFoJI888ojWU5GcxT0RUiEEKmt4RBCQSCS0XZEFP5vNiuM4ep9wUWRRZHLEQrrb7apt7e7ursrOWttkMiXOp1QqqRgSbYzxeFxbwcgcQR+AlrnuYDAo6XRaut2u1pBd15VcLifdbndu0gc16fV6c5bV8Xhcz53zymazKrFLtloul1UeGPZ9Pp+XXq+n9fbd3V3JZDJaprkoGz4fhUJB4f5AIKBBQzKZVMlj0KBUOi3/53//7z33+da3vlWdOa3rI86NBK68W7PZTCWLCRrI6hH5gi+CvDgaBtYwCeSN4DeZTEqj0Zh7N1KplCIL1rsDF1Q6IkDyKLtwjltbWxKLxSSdTus9abVaUq1W1QCKcoS3hdA7b91PskPSchjXx0VExP0SJft7gm/bRWJRxUUBy73Mlw9iGETrdaFQ0CTkPGx09nQ6nX2Dg4OCvIPWuP1Iokd9L4On7QYf5+eP+lzJcIDDyaZh+6MXAPvassDJhNCst9KwZNHUcAkkaD8kW6T/nw6B0Wik5Q4WUiY2NBFYJIBTbdDA5EqnBeUCrslqINjsFHSESYhjAP8nEgnlLNjzJJvkXtl7yzmSfUJy49rIbvkeDoBnsZf9KMaibXm1RkXA//a57xccPPnkk/ps2S/8hul0KtlsViaTidaSudfcdyvIxXhhcd/Z2VF0ySYLtMySwYNERCIRaTabc2UIL1JCWYV3kHcoFouJ4zhq+sU4IfC0zqYEvnuxxM/StsiY6TSWG8bjsWxsbJy7rqPz1m56qgOEwwyeh/VAUBGs1WpqTcuiW61WZWlpScrlsmZiqH3lcjlt30Ijfnl5WSH/7e1tJZGhXUDdGMteEIFutyuu60qpVFLuApErFsrWawHbZtp6EB4ik0IEB4IjJk4gDpwj9tHdblfy+fxc2QJJZOrDkBKxrAbeplcdF8xQKCTtdlvbMoGug8GgbG5uSj6fl1AopOWGRqOhPBCkq7e2tiQajaoN9UXYYPvXajUJBoMSj8cVOWJ8IWbluq4899xze+4rlUzJlStXdAGFHIqiHOZkCCXBa3EcRzqdjj5fSm6dTkcDQbQParWaLC0tqSV6KpWSW7duKRkRdK3Vasl0OpXV1VUNjOmaSKfTikqMRiMNkOERgORZoiRBCW2gtPNi8ASh+LjcBh9GoHAWzJkuonfKWdrOPLbzMImM9F/D8CZDo5UM6eTpdCrpdFp7tJmkyP7J5Onph6mNJTOIg0UHYPRns1ntdIhGo1IoFBTWJwNcWlqSSqWi/AZEbOghB91goYZgSCcBbUEgI0yo/J8sbmlpaa6kANoBAmK5FdTF7bMDHrMyu9SG2Tdci+l0qippvV5PyZ7cw4uyQfgjkER8yhLzQIP2Cw5ERN76trfqM7Dqh/bdQhjLCnpFo1FxXVcRAmr6LM42+9/Z2dEOBBZ4niOcBVsioGOF66NTZTgcSr/f19IHjqmcG10T+JsMBgNpNptqUz0ajfSd63Q6KvB11r089jNlushW6JfbGQgQvOIh+y30i0QjDiPYwees94GtyxxVEMHijlBSOBxWkxzL8GYx7PV6Ws9lIur1emqtjDARLG3qrbRxhUIh6XQ6mvED4Xc6nTk1x62tLYnH4zKZTFTqeTAYSKFQUNEaggYrvMSCgIUzz4iFHoiYoGEwGEg8HleuA1B2JpORer0upVJJ66A26CGAwKaa8gG/I7uDUzGbzaRQKEi9XldDKwIkGPGgFywcF0lN0Y4VFj0gdRj9P/jBD+TrX//6vvt529veplwUEdGOGzJtdAeGw6GOA3gw/X5f8vm8vnsEdalUSstPuC2Gw2EdxwQ38G0sSRBOwWg0Umll13W1qwG5Zrober3eXEfF7u6ujg9rzmR9SAic6DJaNBcdJBx02HmJYGs/oSTvfvcqD3jnRuu3sSgYsB1DnMOic7GCO/cj1sN5XG77B3D3qllwGOEqkqajRokeWonhrENLwKPA/4j4sEiS1TNhWzGY8XisaAPaBdb+OJlMSrPZ1Afe7XZleXlZHfHI1CKRiCoQomiXzWY1cABapUSwvr6uAcx4PFYSGbVcRHAqlcqcpXM8HpdAIKBQMhkYBLjhcKg1YMSKXn31VeVc5PN52d7e1j52YO9gMChbW1vKUdjd3ZV0Oi2VSkUZ6L1eTx555BG5deuWNJtNRVtWVlak3W5r6QX/Cr5/UbZut6vulp1OR9rttjG28slWZUvqtdq++3jjG94g8XhcGo2G8hZw/JxOp+r6iSvpbDZT4SwryV2r1SSZTCpxdm1tTarVqqIOiIhRliDQzGazMh6PNdAmKEilUrK5uaktiZTYGo2GykQPh0O5evWq6jvQlYP+Ag6kvV5PksmkakFQDoRXsbGxoajbWZ3zFrU5nvYSw+V2urfLAOEBEAQgUBj0THiQ5yBEwcxm0qJboNlsaqYE3wBkIJFIaO+/bc3K5XIK2WJXm0wmlUdABwCkRttmmc1mNavj52ShlBWAesnahsOhLsr4MeDYJyJ3idtAFCNQIPtE5dF2eMCLoMwBsx3jHFARtBG4H8DGlBtgqHuJmhdhI3gDZkdDot1u72nfbLdnn312btGk9RA0zO/3SyaT0VKC4ziq0Mi4Br2Jx+PaWQOaQfkKng6dONlsVmazmeTzebWJxkuDd6vf70s8HleUbTQaaekAbkO321UhsVgspugcXTvwWeisQEYcxMp1XVXwjMViqhp5Vra9dBC8SMJpDA4w6KI8dNY3UGHHcc4Nt8J/Wgb2Wbuh0+lUrly5Ijdv3pTV1VVd3FlAeSnhHTDBWdGaaDSqkyBBRygUkmq1qgs+KnYIMtEDDjxKKxsTZyaTmUMPAoGAtotRnyYAoXWQSZ1zs3oMcAesRCpKerRJcpxSqSTValVFa1jUyQzhI8CBsEx7eufJgFF4hI0OCRTuBOp7oVBIxYIw2wkGg7K8snIhAgSEkOj9n81m8vzzzx8YHKRSKXn22WfV/IhxSGCG0BHkQLpmQJ+A7CljUdoiM4/FYtLpdDT447m0Wi1JJpNzCwItvKlUak7xkPFFSWFpaUk9Reh64N2gjRj43Ip+8V5C1ESPg1bdVqulqMtZW6j2mj+9XIRTtej4/bKysiJXrlyZU3M963+i0agUi0V55JFHdF67DBDuYSK7H8Om+/ljddoh+R31iwJkakl0LNxkx7R42Ywf6Nz2kAPVWv4EtT6yda6LfdrzINPb3t6ec1aEg8G+yLq5Fyy4fM+2M3IMsjZ61K2QDagILz3ogVdVj8DC1sZtfzmTM9kfEzjnCUeCfYNM2PZHuBKgIKkLgCKkjUXxdDqVb3/72/LNb37zUES717/+9XNKm4hmebNQODR2DPMHoiLPkwDFijER+LEPnr99pmh7WGVN+3lLWrVjwsp+83vbz0+bLTwcK9ZlN8aU12SJ/3tr64vG8GHMihZpHOyVJFm9BH7uPablKdgSg/f4XoEpe58Ok7ztNZ97+WGH3ZaXlxf6IZyXLRAIyMrKirbP3muifD/r3XEl2SdOUjzJ7Tgj593dXen3+7K8vKyGR5QNcrncXC95r9dTWWMWaRQSU6mUCrpsb2/LcDiUXC6ni6s1uYEgBjTKwsr+aO8iu2fidBxHVldX9XzI1JPJpIzHY52sEbWBS2FNclKplDpU4qOQz+c1y9ze3pZWqyXLy8s6aYvIXL88okZkarRSIofruq6SPoGoqVt7s9lUKiXNZlNc11VDq1QqJclkUr0mzvvWdRx5+eWX5fnnn9/XkdFuV9bW5D3veY8qbiKMlc/nVXtDRNTDAfIgbZMQbxm/IGerq6tKhuNZlstlfW4ch/ZGeC+UKChjcU4icpd6KB0PEBIJOJeXl+fGO+UW3iukpR3HURIsgXej0ZDl5WVdWB90jjrubP2w53dQSeFeSg73c0/22nckErkQJGIM+s76unrxnG2OaGNSA+4kC7JdCrYDIJFI6OJG5kPvNiUHJkYsbTFjIivm52Qx1uwGwSVgYqszj4CO67pzkzpeBog8IZaEiIyVUUadkWtCYMa2MiKvDEpC6xt1ZVAOAhK6LeBdTKdT/RmfJTgiSuZnmGFZ3od9OS9Kf3Wj0Tj0Z9/0xjdJLp/Xbg+7MFNeIgjF68CiW3yH+j1IDuORdkTGFEExYxDrb94NuiZYMEAfCCAYV5wXn8WoDCMyUCjGNkFHPB4X13UlEomI67pahiAwoYsGDoZVhzyr237kxEVExZMuP6Cp8aDbdr8vw3Zbtns9EdDYyUSGrZYM2+27/uyY+WEyHMqw3Zax48iup+titr09971FnznsBmfqTK9zl0v9/W0scpVKReLxuNZffT6fNJtNNW6CUNdoNJSMSG200+lIpVJR3Xsm1GazKdlsdk71DRIZLHFkm6118/LystTrdXVvxPOeAKFcLmv7IMxtSGCz2UzS6bSeOy8yZQcEkKgX7+zsSLPZlFQqJdFoVNEAmOy4L85mM2k0GjKbzeTKlStzXIN+vy/lclnLCuFwWOr1uqRSKSXBBQIB2dzclFgspi9cLBbThRH+wWQyUXJQMplUAZ7L7XbA9I53vEMRHdd11RWUiazZbM6JLCGKRBCLuBEtivA/aJejWwXeTDKZVBGxRCKh3ARMxyAaYk0eCoX0c3AFXNdVwS+C462tLR1zEIAxlcpmswql4xhaKpXU9bNWqymZkuCHwAfZ39Nu9nVQR8IikuJhggXbteQtZxzldhRCVN//4hflh7/zOzJ77TXxX70q5f/wH+Spj31MWj/4gbzw+tcv/M67NzclubIi6//3/8o//ef/LNOXXhL/yoqk/uW/lLd+5jMSvHNeze9/X/7+jW/88f177DFZ/tSn5KmPfey+3rszP3ectxLDSWUAEP2QEgbmtixw9A+YYMmgRERFjqwHAhMe9f7RaKTZGxkZWTSELDQLIpGIbG9vKywMWRIiWafTUegfiB6nSTI3CIm4MVqeAjbQruvqZyEZUntGyz6RSNwlHQ1cDPrC4m+lmxOJhFr8gjTAlEdUCWSE+wfMTDkGTQZrFnWRt+XlZXnnO9+pC2csFpNutztnNkb5igmNZ4gGAoGerVsj9MV9Z59wc3huvBu019rxji4C45q/GSO8T1ZgC0EsSnXIOBMkwn+hXZjPTyYTFfeyXihIkI/HY/WvOMhA6aB/7+UZcxhY32vSZP9eZOV8UNfCou9bp0+rGWP3Cb/ntGXAzsaGfP8XfkHSH/iA/NTXvialj35Utj7xCam/8ookV1flLd/6ljz1D/8gvscek/AHPyhPfetb8tS3viWRTEaa3/uefOdd75JAuSz/z//4H1L6jd+Qzp/8iXznT/7kruP89He/Kz/93e9K9sMflq2Pf1w6hyzhPayg8bjQoBMNEBYRe/b7s+jlOex3jrv31+/3S6PRkFKppJkWEx8CL2RDQPPWh346nSoPAGa/iMxNZOFwWBEA9sOLi8lNr9ebQzQajYZC/3yWdi9aztBogP8gIgrdYq/MwgvMa0VlMNaxbZyI6CQSCWk0Gtq+ZLM0FhgmdktGExFt2aRmzIIA4Y3Aimfd7Xa14wK2OpP+9vb2kcGZZ3V78sknpVQqzblkIs4Fl0BE5gioLA4EapZQSPBA2cEGd5DOYKQTJPf7fc1O7YJMuyrdPZQlCEDQ6aADBjIwSAJdPqARjBm0N+AcIMoF0kDgQuBKCYtuCy+Zej8hpHvpxPLOQ4cloC3iRVh3y4OyVEtwtMRHr3PmXnOoJTvfy1x9XFu/WhURkac//Wkp/+RPyls+8QlJffKT0v3hDyWSTsvq00/LylNPiS8SkWCxKCtPPy0rTz8toWhUbn7pSxJ8+9vlPf/9v8uj//yfy9Of/KQUf/u3ZetTn5JBqzV3nPwTT0jpDW+Qn/rt3xYRkcEd3Y/jSGgf9I8N6o76WZzqFOs01wN3d3dVAwBfAZHbNp9XrlxRiBQEoFgsymQyUTEaYPV0Oi23bt2SbDartVlEjayD4/LysoxGI2k2myp+FIvFZHl5WSqVimZ5+Xxednd3pdVqKVy8s7Mj2WxWNjc3FV5FfIl+c/p3V1ZWZDabSaVSkVgsJvV6Xb0ZEL0BxSiVSnLz5k3tkx8Oh7KysiKu68qPfvQjJVEWi0WVxkX3AVShVqtpZjsYDGR1dVX3OZlMpN/vy/Xr12Vh4KwGAAAgAElEQVRra2uuS2JtbU1arZbyHPguapK23fQibo8//riWefDdiEQi2qJ648YNSaVSqn+xuroq9XpdZcAh4CKORUaPYqLrurp4Q2Ld3NxU+e5+vy8rKyvafkmAiQsn78tsNlPiImU4AolIJCKtVkv5OqPRSFZXV+XWrVtKoB0Oh1IqlWQwGGj5gkAiEonIxsaGZDIZ/RvXUdvhk0gkpFqtKkHXMv4fJp/lMCRD27FEsOb9vteJEv7SYV0Fj4rAeRRb6E4g+uJnPys/8aEPSf51r5N3ffazh/pu63/9Lyn8638tIUOSfOLf/Bup/5f/Iv1qVWK53F3fmd0JJgPnxKPjMkA4oY0MpVwuy/b2tuRyubtc5SgtkLlZXQQWPzwFgNVhhyN2RKYDmY+fQUTsdrs68WF4hCY/qASe9yz09M5D1CJoAOHo9/u6z2w2q9l/NBqd0/rHY4KJlcBhMBjIysqKwr/j8VjRAYtgwJRnksPoh/sG5EzHRjQa1ey21+up1W8wGFRNiWAwqKWOQqFwYUybbEnh+vXrWuKhjETtdzAYSCgUkkwmo8EepTBv6QdyLPoc3HvkvkGo6CBIJpO6T8oKZPigYHRE4CUyHo+12wAuC2gZ6FI6ndbuF7pi+BxoGogD6B5dF/ASEOhiXDEO4a1gMAbCt1+54LTAxotUE70SzbbFG+7Q/dTGrSPmw9zyjz8uy3/4h1L5T/9JGr/zOxJ45hlZ+4//UZ780IckeGe+22sb//VfS/hDH5r7WaJcvo3AerqefvA//6f4AwGpfPnLIiKSunr1QgYIl10M97nNZjMplUpy69YtKZfLyoZGqIhJ1e/3SzqdVtllFrlIJCKpVEqq1apaKqOEV61WdXG3wkBWPAkOgIjoxCoi2uIIGTIQCEgikZBKpaKTPAIxHBtzJeSagYmxk/b5fNJut6VQKGggkkwmpVKp6KTM9WxubkqpVFLYGF0I9knNmZICBDQEm0AsgMCRAOZ6KId0u10lQwaDQb02eBYQ7i7Sls/n5bHHHpvjkWB5zGIKIRFORyAQkFQqJfV6XfkGBLKQSzHBAqWi5AQHAZ8QOmgQX6rX65JIJNSwKZlMqpohZSn4D7bTh06Jer0+RzzkPSAAZCwTFEO6pFzG7/kbqXIbIMTjcSXmcj9OQ4BwPwGF14adMgKBltWLuN+y6kO/Tr9fnv7Up+RdGxvy+Be/KJE3vUlu/vt/L9/9sz87OBt+9lmZeUiokzuBgc+jj/Hqv/pX8v1f+AXZ3tiQNz//vETvzHOXCMIxIwIM3PsZbId5Wa2jm61vHzUiYTMkCFQIklgZY69ICZk/9XiyMCY0JioCAdrGyADJ7rykJchZVmyGCY/v054GAsHnmEisKY9tVePzlEXgUBAUWdITNWZa1yzJkTq0vVf2mHaSs3U1SGUsHtacimdqM6S9ZGfP8xaLRqVcLs9ljQhZMb54/lb4h+dv2eXW/Ip7CyeG+01GyRjgntufUWLyioLZjWdta+HW1dMez4437zix+7O1WOsqaQl5/I5xbN897/g5ilo7+/a6Y3rvhfdY3nfDnuMigybvPuxxeQ/hnnj5FAeVU/YTWeJ8DsOLeJBt0GxK57XXZOWppyT18z8vj//8z8vXCwWp/tmfifzGb+z73fjb3y7Od74z97Pqiy/eTnA8AcDPTSbiP0aSs10rjmpdPY77fokgPMADHgwGksvl1I2OTIruBCZE2NqhUEghzdlsJp1OR1vHyOio/WJBS1cExEPIhxAK4SiwoIMeELzQn07WRTYHwRLIF9MpSh0sEv1+X3w+n2QyGW1HA5LOZrMqXYs4TjqdVhiaEkMqldIFwhI16YAgCOr3+1IsFlX9juvJ5/Piuq5OkJRFrOANpE3IZuhNnGfFNi0rlMvy+je8QR0P4agwfuzzGI/HUi6XFaoXES1TWYdN7ru1MYfQatUbCRRyuZzyQehqgATLz3AAxWjJ7/drlw+OjPY8rYgYvIdyuaxcA8Z8KpVSPwbKIJTS6DKi6wEHUoIkdBJ4X+ykexq4B/ca5O7l/Mg7etDnD4tUPKytX6vJi888I7eee06m47GMXVem7bYk3v3uA7+78rM/K85/+2/yw698Rbb7felVq/L9//pfJfjss5JaW7vnZPQSQbjcDnxZ0um0ugoysWIWBNwNox4FQhHRLJt+c9Tp+OxkMpHBYCCtVkvJf2jM0zGA2UmlUlH2PyqO3W73LhTBkhRHo5EUCgVxHEeVB/v9vhQKBQmFQurdADIBsRHlQgIi4FmuKZfLSbfblV6vp+qOlBe63a4GHpDlNjc3tS1tMplIJBKRSqUy19mwtrYm9XpdHMcRkdvyz3A/CBKYBOlzr9frEg6HJZFI6D0/r1sqndasGdEpyjc8I3QLKBmhHUDgFovFpN1uK9Pf2mbDT6DOT+A3Go0kHo9rkEBHDWO3WCxKu93WrB29AXguVhyLfUKahCtgyYzj8VhyuZy2JMLZWV1dVe4LmgwYR3W7XQ0IksmkqkXaLhpIira7xttmeNLBwYMswos6uO7HZvhB0dy9kNcHaT/OP/GExP/dv5PvfOAD8vKjj8ruaCS7nY781Fe/euB3H/ln/0xu/tt/K6/87M/K9554QnYHA5GlJXnmr//6WNCC8xBkXAYI97kBp29ubs45NGJSE4lEtAvB7/dLtVqVYDCoRK5MJiPValXq9brk83kVlHFdVxqNhpL/YH27rnv7BbmT1dHaVavVFFpOpVKysbEh0WhUstmsZogEGcvLy2qtHAwGld2OE2IkElE1vLW1Na03u66r2T2TDs6RxWJR+QLWjCcWi0kqlZLRaKQoAwJIw+FQXNeVwWAghUJBiZyZTEaazaYUi0Wtmfv9frlx44Ykk0lJp9O6gHQ6HRH5sXEUyMRoNJJeryeFQkGCwaDe5/O6vf3tb5fRaCSdTke1IURETYyQN7beIK7rSqlUUu7LYDCQ9fV1iUQiugCHQiG1Aue+Y5/s8/kkl8up9TPBQqlU0tJVPp+XVqulokboDxCAQFwEzWIcYtDVbDa1O4J2Wtd1VUSM4GUwGEi9XpdAIKB8GN6NXq+nnS2BQEA2NjZ0vNB94TiOtNttyWQyKsDlbf07qYz5/2/vS2IkOautb1blVFmVmVWVWVMPbrDw8AwYhEEg/fol80s22AZLz5ZsMzSGhW3AEguGDWxANmwslgwWehueQAjQsx4sYIFhgZgMm3YvsBdu7O6ururKysp5zqz8F/a53Pw6IjMiKiKHqnukUndXZ0ZGRnzx3encc/1oyx4mlOSHEZMlDi+ZCJm58pS5nZ+n//P883TpoYdo9ze/ocV3vINuefTRGzIA8fe9j6LGwLa5cJj+73/9F73x6U/T9v/+LyVuvpn+4/HHKZHNDrwm/p//6cv9hLOpDoJDb8puuIkbo+wk9Y8aGep3qLn52aoDIhfS6iAAgWAFdjWiK2xIiUSCSwKYJIdWSbwPmynSxEixYkOWojIYy4zyANjaqBcfHh5yO+HCwgLPPVhYWKBms8n1ffyuVCqxYJLsW4dgDVLAEKtByQFp/0KhwBkQ3A9MisT9A4nO1IaQg4FQn4OE9NbW1g3EMxAcoQcBZT68D+nj44pbbrmFSYL7+/u0sbHB6X8oUyJF3+l0+Lrs7OzQ2bNnebYCMjkoOUFcC2sBmx2cPDleGWugVCoNdLNIQqHM8CC6B0cB8t7Q5UCZAGsxnU6zjDcUFjFDBM9bp9Ph12FtEBGXu6B3sLKyQqVSieWeUVoDmbJer99Q85f7lZ0WwrD9btiwo2EGftjwJ1OfwRweZZYCMPdCCiJJYaRx6hqgnGU1NMux0YrF6NYHH6RbH3zQ9jV3//d/W/5+PhKhm++9l26+917L/8/edhv9v//5H1++K4KYo9g0Jw6jtHl+8xCUg+D1wgnCHeYvpNNpdggQpeMmQ1++2WzyXALwEdB6BqdGbpzYDMDWxiKAeiF0FpDqRZoX6VrU9sFxQKtirVZjLXtEfSgJoMUMKouQyAXzHCOYUZ+GoQYZTDo72MBKpRJzBNBTjw0ZmQC8vlqtDjDKE4kEcxDwUKHNFJLLcMBQG2+1WsdCC90Ot99+O2d0YNArlcrAjAWk8eUYY+gcSCGtSqXCXAUpxIW0PjJGkBGXRNxYLEblcpnbG+G4gXeDdYj1Nzc3x/oJKG1gPDnWD8oRKKkh+wHBIziucDTAvQAhExwaDGfCpFCUqOBwgFcBkSg5RGjcHASn0sl2Qdeo4zjJhLgZBHWUzOv169eP1E0xCyiXy1wem+UyxcRKDF5TVNMCbKLr6+s8zRFOAwxTrVbj30McqFAo8GYcjUY5rY7IFz3b+/v7LPRTq9VofX2dOp0OHbyl+IVNL5FIcFtkq9WidDrNCxSDnQ4PDymbzfJMA6RmQVbb399npwNcCbRAYjNeW1ujfD7PmzzkmsvlMmc60PpZKBQ4aoRGBESSQHSMRqOUSqWoWq3yZ6DTYWVlhXK5HEf/YNSjzAIHYW1tjZrNJu3s7DAxERmFXC7HvIxsNutqqNE0Y3V1lW655RYqlUrcunp4eMjXHdwP2RqYz+eZjyDFhtAK2Wg06MyZM3Tt2jXObnW7XcpkMtRoNPieVatVWl5eZh2LSqXCmSopxAWDvbq6SoVCgZ0WrIVqtcprpN/vs2BTuVwekGBeXl6mXC7HjgDkvPEMgNOztbXFGzKiZTyDuVyOSwxwzOGs4jkCjwcO8iQUAr3uf1aqelblBb9VZYd1Y4xCvV6n7e1tnn9xHGYW4F50u10qFou+OAcnqsRw3JwEdDEg6gXfYODivkXGw0YIAwa1OYj9SB2DRqPBx00kEpxVgGhNOp3mTRDZh/RbJLXFxUVOC0vxo3w+z/K05jFhRGQbGQiMcAZAfMOwKIjbIIJE7zz4C/1+nzKZDBPUQEySPekgGIL7ANY5BkCFw2EulyDrgrIOIltkT+AUoa2OiFhsCTMFjouDAGPZ7XaZWwC1QvT6I0OD8o28vmhXBR8GHSC1Wo3LVYjgZYkOwkgopaFbBCUnmd5HpgptsnLeB0oDsViMO4CwvrCWYrEYqzci4wV+CUivmEMCh6LdbtPy8jL/Pz4vEolwFwzIj3j+5ubmaG9vjwm/4EqYsxWC3peOYrjtyrZBOQZmkCTbWN2g1WrR9vb2scvwHbfuh7lJXEAndTuvdTGrByUINJtNSqfTdOXKFa6pJRIJrmXCYGEjRZSdTCZZ5wBDlJBdwCbZbDYpmUxylIN5DZJDAW4ANmts5KjdYgOEgmK5XGa1OERtaIlDSho69yhNIGJDi1o8HudNf3FxkQ4ODgbEm9bX1znzUKlU+HqUy2UuuSCyQ5obLZxIbW9tbbEMMDbuZDI5IOsL8adcLsd8DYz3BZsd5w2DcFyQSqVYrhvy1si4oO1QRsu4bygTRKNRnswJZyqVSnGnA9btwsIC5XI5HmkuNSiQ8UG5q9/vUz6fZ3VGXHNIJ+PZSKVSVCqVWLgJJQCsazgSaMeVpQh0wuTzeRZfggMIHg8IwXiG4HzCOY5EIizUhAwEBpAlk0l2LOxmLjjZy4btVW4MtRUXwW54lDmQyYqoKLUQ/NwbsUfZDZVymwGZ9Z8gbeYkPn9sDgIWqSTTOCUDuXEqrB6yoJwEed4wqlKQBdEaHkyUG2CQ0cqFzANeB0KYbN0DyUhqxMupa5jSCJ0DqdMu3wOOA84H54lzRw2ZiAaG10AqF6lqfD6UDCURSpInTTlYfDb+n4hYlQ+RBX4PhUVJwsH5IfMBISdcd0l+wnc/LinMxFvfV4oF4frg3+AbSHEqU4JXri9TZQ/3C/dOClqZz7I8B0mSgsSz5IxgPgLKcHDeoOmB9S95O3IQmDlHQIohmddBkmFxPpK0jNfKzxq2V/hhJOzEjuycASuBNzunZRR3warFcZghd/qd5PqR53mSBMqOmjnwYuPMn6BGc08kg+B2ER71PUGi1+tROp1mpjhS3+gCANELRC20jiGKRwQOchhGRqfTaRaNkWIvaDtD2h9ROGRqe70e7e/vc783rs/BwcGAkE2/36disUjLy8vcogZJZGQLkKUA6REqjfhO9XqdxXVgjCuVCq2srPCEvna7zRMekS0AuRIdHpj8BwPRbDa5Tg3CYbVapbW1NSqXyzcQ0NAtgcgT2gd4L0iPZ86cmflN6Ka3ZizgGsNwIzuE64B7DGcQ5SCUEqB/AYcKnThwziC+lUwmBxQqZXSPNSvnICBThPu4vLzM0Tu4DihRoUyCMhPGm8NhxehyaDDg3CHOhRJCrVajdDrNBEQ4vng2kLnCZyUSCV5veA7wDIPzM649JogSgOnsjIOT4OUYR+limEYct+/DZfJp8bicLDK7OeuTWhAYVrSzs0PXr1/nmvjGxgan/5GyxAyC/f19/r+FhQV+P6YaIhrO5/O8sVWrVVpfX6dkMsnDh5DmXVpaYgGjSCTCJENozssRy+gOwFAlDDOq1WpULpep0WjQxsYGp5cRHSClu7e3R8lkkorFIpPYQBCEg5PNZun69essTgOBGpRJQNKEeuTc3Bzl83na39/nqBVTIiXzHgOHMH0SNedQKEQHBwd8nZFV2Nvb45o8iI9Xr16d6YcVRhDtiGhdbbVaPC200WhQsVjkrAy6DKRgFtL/4CLU63Xa3NzkejzKCFtbW1QoFDjFD6EiOIjIQCGrhDWDttMzZ87Q3t4er+1CoUBra2vckQPnZXV1lVUz4cSi7Hbt2jX+HKI3uSW7u7u8H0CfA0JPyGTFYjFutUTnA0pQIE0ikxUKhXigmZVQUpB7jN/8ADO74+TH6jy86CO4fT2yOscBx7UrQ4WSvKZe3oqSMEFwZWWFpZSR/kQPOYwYugTAUygWi1QoFCidTvMmC9b3ysrKQIsW1BFBTEPmAJkAbOD5fJ4WFxf5d71ej7MWmPKI80TEl06necRvvV5ngxOJRKher3Pkvrm5SUTE+g3hcJgymQwPyoHoTK/Xo62tLc5ESGfh1KlTHAXv7u5SKpWiTCbD5Lrd3V1ue8tkMpwpQWSK9rZms8mKfadOnWLmO5wFiEdBzAodELOMzc1NKpVKHGlDBAjCUxCbgkMKgSioH4bDYV4zUoCI6N9THldWVjjrAmdhY2ODu1bAf8AQJThjkUiEstksO5TggmC6JsoJEEFaXV1lEabd3V0+JoiHMOxra2ssldxsNvk+Q48BpF08MyihYIQ5zqnf71Mul+PvKKehxmIxblGWG33QGcqgyINmuWSUUJIsXZrlAycliaMEauCmoJQ062UGBGJwymfezk1LncZJbc9JesxKNCSo8sLq6irlcjne7DqdDq2srAxMywMRTPb0o98bKokLCwssJJRMJlm3AHXSWCxGlUqFlpeXOauA0bSyFXB+fp4ymQz3dstpfZBjRlvc8vIy1Wo1Vq8DgVIeE6UHkL7ksB+0tS2LISdICct5CvjOMFDoaIDWfrlcZiXEbrdL2WyWDg4OeCIkeAQgdMLpgdATJmXCsMj0NyLZ9fV1KhaL9Pa3v31mH9TbbruNszH5fJ7VJzGQCW2zEBTqdDrcwQHuCBFxxgmcDxhpkEvhiEH0Cp0O4CmASCiFraAxgA4VlDGgCAqNjVQqRTs7O5RKpfj5hOiW7D6QE0xROotGo6yZgCwZRprv7e2xM05EbGySySSvV5QDQYpFBJtMJimXy9HCwgLrjkiOj9ybjrKvyCFR2D+s9j5ZHjIFkez2TZPXJf+EkUerpxx0JcuQVnux2z161LmaAdbW1hadOnWKlpaWBvhNs/oDcu7a2hqdO3fOETnajpvi5gc2D7wiP23f3DidAyuSjd8/4/JCkaYHSxrpW9leJsld0DmA4cTfUefHxgiWtRyMg0WAwTeo28v57hCWAREStV0iYo6EJDWWy+WBdjhEjShHIDrE9zCFn8rlMmcYcO0R2UoBJHlOaFcE0Qzn3BCz2OEUgG8hj4HzgYOByFES7nAdUU9GjR4O26wCThx4Atjc8d1x36AXAD4M2gBBdEVNH62JyMJg5DeMCYiEcm6B/DfWn2xxxOcSEXfISG0BCDdh7cFoYQ1CeAzngPkfuLfVapW7G8B/gOMqSZY4R6xnkDIxfwLnLqfggYuD9YP/Cyp17HQegZf9bBghEk6DFWnRJD4GuZeura0dq+4iq/u7tbXFJGovQfOJLDGM6jiYpXRSt9ulU6dO0c7ODm+C7Xab0un0wJRB1OaxycmZ7aurq1wPxjGz2Szt7e3x8ZDer9frA5s99AKQMYCBRhYB54nacS6X41a3er1O6+vrdHBwwDr+iP7b7TZzGMB1QD05kUiwU4BJlIhcW60WZbNZLr3ASZHXBAJIUJ8kIioUCkxkw/dHOhldD91ul9bX17k0giwCvjfY8CilVCoV1gxA5CwdkVkDHIJWq0WnT5+mg4MD5pegtFCr1dh4IrKPx+N0cHDAbZHYnLe3tymZTDLfIJPJDAxLajabvOawvlCOajabVCqVBrpxYrEY5XI5dsRwv6QokRxEBg4CCLj4uxyYBAEj6Yisr69TLpdjQ9fpdCiTyXAZDA4B1hZKS8iGQZYcew6Oube3xx0ishMkaP5B0Me06pCAY2ZnqMzR634bMWhOnIQyNHhas+okjH0WQ9Ds4HEOVkG0hE0SUQ3mAEQiEVYUhLFFa6Nk9SPFDsMNfX1IGMMgIksh+5qxEDEXAlEUhImguYASBPrfEXGhTREiQzIiRJ0WWQtkIZDBwCYMIRu0j+G8UBrAhi+vB3gFmA8BvgVKEbIVDREijonrjBZRnA8En3CN5RwOqbMw6oGdNuDcQYxFGl2mw/E6lHWwsSP1iWuKbBJIfKFQiMcny2soWwOXlpZYb0IKFSEjBQVPqedRq9UGrj0yFOguQKlC6nXgPNHxgPWBkedSdAv6G1BPJCIu08H4Ye3heZPZFqw32ekAbo25Z/nZJivbTY+6/8jnDfsC9iRziiN+kE1xY+Ts9Be8AgPF3OCf//wnPf/88/S3v/2NPvCBD9BnP/tZet/73kcvvfQSPfnkk5af8Zvf/Ib3qGeffZZ++ctf0nPPPUf33HMPv+7xxx+nCxcu8L9vuukmeuqpp+iBBx6gH/zgB/T888/fcOxHHnmEvv71rzs6bzxjw0pE0xwoj10Hwe5iOeEcOK3HWNURg/DU4vE4XblyhdbX1ykej1M0GqWtrS3a3t7mjQViQbu7uzz0CD386AjAJg4W/vXr15lvEA6HeWwuUvT4rFKpRMVikYcUYVLj7u4uM9ghFnP9+nWecIipf2CDo69cijyhZx3G//Lly3xOEEq6cuUKKy4uLi6y+BLa2SQxDXMTMPkSZZiDgwNaWVlhZwJqkJVKhcWOILC0t7fH6fZUKsUkM9Tm4ShgVDXei1o5yI2zhnPnzrGxXVhYoO3tbb4PiUSCYrEY7ezsUL1eZyObSCRY9z6VSnGdf35+nq5evcr3DWJBV69epXQ6zQY2Ho9zJ0m32x3I1pTLZe6gwT3e3t7mEctQ3PzXv/5FyWSSu1xWV1dpd3d3QMwJ6x2lNziFkUiEDg4OeE1jyuMbb7xBq6urvB+APwFnBWOtIQWN9ZtIJKharfJQKTgJ4FrgmFatgXCSZeZvWP3dap/B/8NJGcY/sDuG1LswdTDwg8wlspdSIMn8bKcR7agOCLdwO82xUqnQJz7xCdrZ2aFHHnmEDg4O6Omnn2aC96c+9Sn6zGc+Q0RvcnXOnz9PDz/8MDt2vV6PXnzxRSIievnll284l4WFBXriiSfoiSeeoNOnT9M3vvEN2t7epptvvpnOnz9Pjz32GBERPfjgg3T+/Hm64447XDlYVtcWjpeT6zkJcaaJlBi8qGxNKxCdooQAIhciYKj+gYWP3m5E8GbkhzZBHA/St3jYYQQRASG6k+N5weSGhoIUsEF7FxwRqUCIejA2D0QYqFUjewAiJt6H+4NMA5wPlDeQMZBKjahTSwEknCs+C7wOZBoajQYbEpQqcHxJQkP0iesJgp4cSjSLTGmUB7BeZB8/MkG4viBvmtcZJR2UFFCqQgkH90iKCUGzAusQaxOZLKwZzG/A33E8GEbJj0A2CQYXjoYkscIo45kC/wKfjWyV1BpB9gDOBJxbZKfq9Tqrf0ohKcynQKeP3JCDyGyaEb7b95udCeZkRpNfgIyBm5ZCK2Elq4mSQQZfEm+88QYREX3ve9/j8ukjjzxCly5dorvuuou++tWvUigUoh//+Md099130+c///mBc37ttdeoUCjQhz70IXrxxRfpy1/+8sC5b2xs0NNPP826GB/+8IfpwoULdN9999G9995LjUaDfvazn9ETTzzhu57KtHMQJkJSnDWpS7vvgzq3bCNEWyKIV5LIB3lkGOBCocAGUJLr0MqIqBodBo1Gg3kJiOoKhcKAAd7e3ma2NjTuG40Gra2tcUQNZwUiTShDwLjiHLGhwLggQiV6U5sglUoxmRDOENraMHgHjgucKaRz5RRHqfuPdrZEIsG1cPS4r62tMfEMGQhIV8OAybHArVaLeQdwbNbX12eSfwAHDU4gDDE2ulQqRa1Wi7kJstQEch+md4IPA4OMjAAIf91ul18H3gMcR6kKKksgMPJoV4V8MaaYIjtg/g5rH4RZfM9ut0tLS0tM7sW6hwS3nPYJkSZcj0ajwbNBUMrC2HDoRkhSMLQZ5Lr0e08x1SyDCqqs1GmRFZLrwnSErDoQhpUVrEoYQQHXDbysxcVF+vnPf07vete7brieVtH4n//8ZyIi+tznPkfXrl1jh8Pq2qErCyUtK62Ik6QUOVYOgh8P3qj3jbOLIRwOUzabpUuXLvEDZpK7UHOHISsWi6wKt7i4yG1WIIJh4t3u7i5PXoS6IMoKMg0cj8cpn89TLBYbqAUXi0Um7+Ec9vb2KJVKsYE/d+4cFQoFnvyIB2RpaYmuXr3KJESUAEAEw2adyWR4dKtkz2cyGSaigU5OmD8AACAASURBVFeRyWTYWEleBFjtOC6yCmtra/T6669TMplkgSCo8FWrVZawhjMCJ0xmENBjjwgUZYZ0Oj0z09bOnDnD3w9Gfmtri/b39zmDABJss9lkhcV6vU6JRIIWFxdpf3+fKpUKZxgWFhbo0qVLPO+j3W7T6dOnWewL9xftodgsoYXQ7XYHDDIyRyCgwgHNZrP8O3RVrK6u0uHhIfNl8GzgmO12m2q1Gi0tLVE8Hqf9/X3mL/T7fdrY2KCdnR12WuD84v34PihJXL9+nRKJBB0cHHD5A50cMq1//fp1zkIEIZTkheznxRgNk4oGB8rq9WYX2LDvbZaJg3YQ3va2txER0fnz5+mee+6h97///fSRj3zEUami3+/TxYsX6eMf/zjdfvvtRET017/+lY9p4uLFi0RE9M53vnOsdnEabNpUlBiOchHcyDFbPWTDyCKuUy9vpU0xVhgdBaVSiaOrxcVFNtBg+6+srHCtvVgsUqVSoaWlJUokEhz1YOTz8vIydz4gPYsecjzw5XKZstksR1x7e3uslgcOAngOW1tbTNrB4BooIoJdjk6Js2fPUrfbpc3NTTo4OODBOEh3I0IHx0JKQCPtDbEmZBFQJgF5rNFo8HmD1dzv97lTYXV1levp+/v7fF1h2JBhwPApGQ3VajU2TtB3aLVaFAqFaHV1dWYcBHx/OZcCWRQ4nShJgfyHay4HVyG7ha6Cra0tLh1VKhVen9AOwHvhhOH+YhBYKpVi7QmoEG5ubnJpoVKpULVaZXEutKaCIwR9BGR5QqEQDxOTiqHpdJq1EEqlElWrVYrH47S6usptxXIUNMoWrVaL6vU6jwRfW1ujXC7HNWesYzg62WyW1xnKIsMM4FH3ESczG4Y5CXYt48OOI7MHdoGbm2FSViWLINpCU6kU/epXv6Jf//rX9KMf/Yh++9vf0rPPPksvvPDCSG2TdrtNf/zjH+mZZ56hdDpNt912G7388sv06KOP8nd9/fXX6b3vfS+/55Of/CTdcsstMxPlm+2pfrb7j5WkKL+MG1ENt576ONqUMGYYQj9wBJACBdMbNVEYRcm0hmiNHOGbSCRY8Q1ytpgGCeY2ShfNZpOPB7U8RP2YkgdH5dq1awN1ZUxIlOOjke5HdIV0MjZ3WeZA18TS0hITy1BeARkRHASUMtBdgI4EPMBwjpAyXlxcZOOOGRBwfuA0IS2NbhFM60NUAecMMr74PaYOzgpKpRIb8k6nw9cGxhDXAaUm3A9Ey+iSQY0fSoa43hBUgliQlKxG+yvuLTYeZDNQpuj3+7S/v89cBziOkNNGehtZKESx4JbA2CDFj44ePBtYs5gMury8PODAYJoj1itURVOp1MBcBjkbAnsSZMXxvaza/6yyCqMM86h9zY6UbZLaRg2PQhZm1KAkHNdu0qOUhbc67rDvIV8XhBZNv9+nM2fO0NNPP01///vf6bnnnqNMJkM//OEPR7734sWL3P762muv0Z133kl/+ctfBoSqlpaW6Itf/CJ94QtfoPvuu49++tOfjq3TyY+yud9dJlPBQbB70GaFg4BaPch1SM0iSpUz7iHoAocBBCkYLplel9ELNj3UZFEqgEHHBj8/P08HBwfsNMgJkXgQ0D2BDRDngcgexhqbNAhictofiJPz8/MDegyydx3fCb/HMXC9QI7EuRMRp4sl4RCbupzMF4lEqFgsDkzNxPpB1gIERmQh5CAtvK/VatmmGKcJyPhI44w6P9aebJ9FiQvXA2sO5D7wRCSjHe8xa/NSmAq8Edn2J8mzMqJcEBMnZdYAJQYcG04IJMMlwQ5rB4YeAPkS3x2lDXwXKfSEzBlaZOX8B1OBTqrhYd1jzXmJiL3U5UdNlHS6t5rZA6tJi1ZKkaMCLvPHVHqUBtdvXLhwgT760Y9y6+w999xD7373u+nKlSsj3/u73/2OiIi+9rWv0cMPP0y/+MUvqFAo0KuvvsqvyWaz9OSTT9JTTz1F3/zmN4mI6B//+MfUZQgmYfPG7iAMcxZmyUHAxrG1tcVGFv3f6AeXgkFo94JqYqPRoHa7TRsbG1QqlTi6r9VqrLkPg4p0O1KnRMTs7FQqxRkDqX2PCX4gnC0vLw/wBQqFAjNy4QQgOkN6utVq8aaOVC0EjKT4EbgWSEFvbW0xIQ7pb6S5cU2azSYtLi5y9gQlCxDxJI8DNetTp06xgalWq9RqtWhzc5OjPxgRiEi94x3vYG4FjAsyPOBiTDOi0ShtbGzwukAEfvbsWXbu6vU61et1On36NDtduEZoPS2Xy9xhkE6naW1tjfL5PJMSy+UybW5u8ppBWQtrAURUlDZAzA2FQrz2lpeX6eDggGq1Gg9eAjcARgWCTiDOYj1JLgSc7V6vR2trawPPRrPZpHNvTbSEg5LL5XguBJzUSqXCg9BQUimVSpRKpfjc8X5kFvb29vgcZTu2Fw0EmX1zYuyPku20KhFYdR/gGbfLSNjt19IRsHIMzGxGEMhkMrS3t0ff//736fLly/TSSy/RhQsX6N577x36vl6vR6+++irdf//99Ic//IFefPFFeuGFF4iI6Pe//73le5BdmqbZLSemzdFc0E4IMdMKSCRL2WFs2ugiQIQNIhYGeaAFEpFYtVplYwpuAzZ+mW0AG12WBBARQy0P1xFpYLDDV1dXqdls0vb2Nm/GSPMi2ut0Ohy1o3Wy1WpxmheTGGUqGdEe7iH+DgdBRqlExHK75jWQ7HE83IgYMAxod3d3INsQjUZ5LDTS1YgAkVWBQ4IOB5QqqtXqVJMV5fhkpL6hIIhoHJkZOToZHSe4fyDolUolvi64f7jXmA1SrVa5ZIPIHw5XsVjkcgW4K/v7+8xlAfkP54qW0lwux6WlRqPBczlkyyb4EVJqGa25GCCGzAa+I36H0gUcFRwHXJtut8u8Hsg/w+nFM4yukJ2dnRvS9Xge3e5xyFq5LcEeJfCyK+l63aOtdBlMZ8Z8jak9Y2e4nUpNExGdPXuWvvKVr9B3v/td+slPfkJEb2qDPPTQQ0PfV61W6eWXX6bHH3+cxZkymQydOXOGLl68OPT+IBvll70L8hhB2s6xOQjSE7dKezkZ5ey0HoPPsyLl+AVEP2DYSyCalZCvg9SrHUDQMmvRozDM67X6TKtztzqG/J38bnafZ3XcYrHo6vq6fT2cj1GAUt60Cybh+1utBatrI9eHvC/5fN7RtbH6f6v7a95bMypFZoHoTfKXzO7IY8r3WK0XJ88t9pRCocCOuhwR7mSvCIVC7OjD4MFphTFzS1A0VValsyGVUM3rJ4+L7yYdFrNF0WybtNIucJKdsNpnTR6CPLb8DlbXZtS9Q5DkBp/+9Kfpgx/8IF2+fJnS6TTdeeedNxzj29/+Np06dWrgc5555hl6z3veM/C6b33rW7S/v09EbxISJSeK6E3VxXPnzv3bSIbD9J3vfIeSyaTr5xhZrSAdCASWUt10JjMIVlkDtxfvqJ0QCoUimKyg0/9zQuIb9RqrVjsvG67V+8ZZqhxlwL20OVppFgyL7q0Ej8zygtyzpWNid92HlRtKpRItLy+7MmShUIhuvfVWuvXWW21f88ADDwz8+/Tp03T69OkbXnfXXXfx3+++++4b/v9jH/vYwL8jkQjdf//9R3L0g8pQBI2J6SCY0stOamNOGLXqJCgUk3UORj2DTp5TJ8/6uJ2doJyDII5r/mmlfGhmG5C1sOIVuA3WhgES4Jubm77OuZg2lMtl28zvrEyWHfuwJvPvTiMKpxdVHYTjAbRXSgloxexnFNw879N47tPuJJjOgJUKoJVGgswumC2OQWRX6vU6bW9vUzabpVgsdmwcBXScFYvFoWVhdRBsFq5kWgdBUpTGxA2TWDF9zgHIdlLWVzH7DoLdIKJhr3GSYQzqOR/1fUwHdpQWARFxO7BpfK3S+sPY6qYOgZ1T4MRJwHc5SvZGSjuPQqvVou3t7WO3Pzs1/n46CW6ndE5tBsFKB8FPkqI6A8fDQQDTXrMH6lS4WTfTlEUwyYgS6NYYds5ezsPqM0dNCpR/Wk2sNM/FSmzJdJjcGKtZiab9hCTCagbBwkkwF4fT/lzFyTAWaA9VqIPg1PiPo6XM7V43qUBGZgSI/i0eJac+IuqUGQs7cSg7rpj8txy0BQdIYX9/1EEY8tCMyh54fXg1g3A8jIU6h4pJBAteSJdWxzD3NbPl2uwIkMbc7nyctCzKEeqmvL3ZLmm2Kw7jiTnJHOBYctS4OvnW9wg6JtNur8bexWC2zIzqZDiqcdEFOlsPjt6v6Y98ptW4T/Ka2A2Iw/eHGJncl6S4ENL6UA+Fzgo4OFJeHPLS0phDelqOrLZySGDAZQnAdBLssgbDygxy74WwG+bBqLNvGN23Zsj4WRIL6hqP1UEwJ4pZtd648VjtLgw+o9/vUywWYyEWr9Kpk9wET9KG7JeTaLVuzHXmdxvdqBrvcYnc/azPz8oz6KXdWkbx0qiDWyO7c3q9Hr3++us0NzdHr776Ko/Z7nQ6dPnyZbp06RLPkQiFQlSr1ahWq/FgNchDyxHWUvtAGn/pHJhZBrvSgpNrIB0BKHCGQqGBWSIK4vH2fl6PIGWXJy61fBSVKTslL1m+wBREK4940oY8qE1Pyyw3OoxerpGTuvhR+/k1C3F8v58sIWA0dzQaZTVJpOErlQpdunSJbrrpJjo8PKROp8NGBM7A9vY2dTodOnXqFK2trTGHAPLo6AyD7DY+G5NAUU4wCYQmV8HsnnAq2WwGX3JwGGSvgxzoNAtrApkDTLYNqvNgZjMIpkjSKKN9FB1xM3UWtKc1TQ6CGqWjXyOr0btW7x1VEpn2DUDXUjDPuhyOhEwmEbFxqFarFA6H2UhgPgrGXi8tLdH+/j6XIrrdLuXzeR4BPz8/T9lsdmCaKiZvYm6FdELAmo/FYo6yXV4UHE1gngrG3JvPwjARpmEOuXw2nTroZleGm/VuSkxb8Tvs2kNlR1alUqHDw0OedjsLjnJ4UpuOlZPg5waGmxiNRikcDtOXvvQlvjlBeLJB3WwvBmaWIrQgtCr8cjb9OCc3Q2lmwRh6uSamo+X1unrJ1kwiW4hZDJFIhBqNBsXjcdY9KBQKlEqleKorIu96vc6dOxjQhe8DYzI/P0+tVovK5TJduXKFut0uraysUL/fp3w+z1NfrcY545zsxkBbXT+5L4/iB1m1OuI8MEwNJRLpOJkZl2H31WtwN0pjw+o7mNfHbRZSDvrCoLhwOMxZHtzPaXfAx97FYDoJ5t/9fIixoNrtNj366KOONz0v3RJWdW63C9fr9/Ti7bvZ+K0yL1bn7uU8RjkIXgyU1Wbl5VzN15iOJSKzYa9xcn+8nIsfx3BiUJ2s0VGf7XWd2xH/THLeMAPn5FytDMNRHQacL1L+IA+ipCAdCSJiBwEBDQYI4U/JH8D3hPPZaDSYg2AnhmRlhJ0aXlOy2Um2zbxX8/PzEyMg+xEQHiXowHUzh0L52eYYlCDgxNocnWQQnGQWnKqpueE6eN2w3UqSTmp2hElI8nIOVobQi3Ngxbh2G30OU7IzyWLDjKV5z8zPtjJ0o67DuJxAL/fQSXZq1DVx8h6vhsGqVXDUvXezgVsZTbto1sk0RPl5Ms2PdY4x54ikDw8PKR6PU7lcpmazSbu7u0wqhCNgtoXj2UVZAcfFe8w1I9e+uY6cBDTme508J8cRJ7XUNpFhTU6jl0kNbPGyYKycjHGJu/hhcJwqrR0lsjedA5Cnjhp9yjS+Wb4aJsTlNtq0OpdR98+LQfVi/IMSCfLDMXFjQIbdN7tJhX4/18OcfycOqnmu0hGen5+npaUlqlarNDc3R4VCgQ4PD6ndblO5XKZIJDJUZhkOAvgGkndg5RyYRn7Y97W7tsPugd2ESIU6CJ4zCFb9tV55CH5sGF4iHi9liWlxcJyIoLiN2t1ce8mq9ruN083x3Bp3MyVodf7ma6bJQRjl1FqtC/M+m/928h43Dqv8u5PPGlcAMMwhNjOjTu4jDHs8HqdEIkGPPfYYRSIR+tOf/kTz8/PMT7ASMIIQUbfbpXa7Ta1Wi9ddNBodyF6MmsOATIZTfoHV8U7CFN1x8VtOtINgOgmjnAMnpCTzfU7qTX5sMn7U04ZtQnYMX7/a85xs2na90U4zCGYKG3VIc6zstKYCR9UInaRb/XJgx8Fj8AKrHvdRz6QVnwVtYDIiNa+/1b01j22uVyfn5/e6kobXDtFodKBcsLCwQIeHh9RsNm9g6IPrgmOiq6HZbFI0GuU2R0gpy/ePGtZklxkYRhxE9m+Wjfs0H9ctpHqm04zp1DkIVi2Ho77ISVBgG2YQrAyDFyKWFZPefA0eeGxa2IjwOvMYVg7CsGgZNVJzIzrqPQ5SqS2I43o95iiHdFLRjJNylbl27LJPZqrbCRF21LGt2s9Mp8LKEXHr+FmJvg27J4eHh2zcMdY8HA7T5uYmJRIJWlpaona7TdFolGKxGC0uLlK9XufuCBwDJEi0PobDYZ5+6mRYk5c1pCWF6XaG/Lw/Y9dBGJU1mBUvLugshN1NNj13Kya9nfF3ki7DvTGP6eYYTqO5aXcAg5ow6DarMM2zKbx8P0Q8Xq6LWy6MlXNsrmUrJ8Ncp5KBPsyxH3afrJyMaDQ60MZ4xx13UDwep7m5Odrc3KRsNkt33nknt8a1223OJKCcgPej1IDXyO9ilh3gXKDzwa0ToPoYJwNjdxCkDOgsp3mCMB5W6cFRm5tXNT+7tKtdJsBJmnbUa6xqytO8BoK4x275H07v8aRayLwa+nEd24kja+V0mzCnE5ota1ZcgVHrHYYaLZDtdpsikQjzC6TDjp9wOMwcBRwD2QaUJ0wHzGqks1Xro9u2vVmBZjxmwEEYVtOadpKL3zMC8OewbIDd9fJimN1umkdVHLPalILYaEb1Z0/DxuKFPDhrm1xQnQVeO4OCcPzMz4UyoumgyXVvli5g1IcNlDM5WnI/MAfdmVye+fn5gc+EToSUUYbjgqyJ3TM0yVHVCnewckRnjoNgesNOpjgG3dJ0lJswatOyS/0Pqws6SakGFSn6UfaxEsI6KmHSTVQTtFHwc90E4UQctwhtmgyRU5LoMNElOUzJqn3RLsNqpx8jDT90E9DhYMXnALfIFJdSg68lk6lxEKxaHf0ySkFkDKzUHk1NcKuUpN3vh206k1ykfm0SkmmtD53iJBsQK6EtO20DM6NgtjnCuNuNXpadH1Lm2Or59sI5mOXsge5DM+AgWPX0TuvNl966dATMP/HQ2zk5dhkQOQf+OEF2PugceIXixufDjOrN7i5E+sg2mD+yw8hUIZUBi9lGisyBXWujXxm/WXUQNIsyBRkEebPctgWN9aK8xew1xXzMfmT54DsZCGI+uFYSwZO4BkGo0c3aOSsUR1nTTrX6rWa2SAcB3QrymJKHYDoKch+Jx+O8byGT4OR8nQZv+sxNN2Z+FoPpDJgL0q18Lx4Gt61zVlwAafyHXXi7h85JrdnJ/AI/CIeTMOhWWu9+fE5Qkxmnue6vmZfjsRm74cWMmmgoX4+WSBAN5UCkWCxGsViMWq0WCygNG9zkdlLipLpl9Jmzh+lA+iliNTEOQhDHtKrLScYvHiyrkadWrOBpwKw8kOM2uOO4P5OS9VWoQRmVhbD6P7RARiIRisVi1Gg0qNlsDrQ1WqkoepGWV0wfkFUCYdWXcfWTdBDcfgE79TLzmMO4A1ZdBN1ud+h56Qbuz2bph2qiX/dDNzzFcc1sIAgCrJQV5XN0HHkHJxGdTodardZAJvyo927s0xyPYjCGzSI3NQRMso5dScPMHPh1ruMyvkddAH54mkE7CH4M9fJy3Sb1ObohawZh2Npw8tlzc3MUjUYHWhul4ej1egO8qVHy14rpX4/tdpsajQZnkfyYtDkWBwGTy7AIW60WRaPRkZuprKXIHmHpENjJDKMn2Mr4B/FwW5EU3fIH/J5s6OQ9R52iOSwb5Bexy6/jSPgx1MuLZr/V+QYh/uPk3IKCl7KYl2fBi4iYk2NbGUYnqojjcATt1qTd95yfn+cfvAZzH2TQ5FSLRjGdzkEoFKJOp0ONRoOdAyuZ8alxEKSYR7fbpU6n47q0YBJs5LQyO+/WSv9/HNGZl88ZtQn5GXVYGY9hEcKoY5hyrVZDcUYZJPket+Om7Y7jZ+TjpT1qUkQvJ73t49rs/fhcqw4fP4yXE4d4WrknXkqyCKKwd8p2R9kqaT7PitlzEur1OpNXYSfn5+ePFBiEg9wksACR+pAPvpuHwywfTGMpwK9N3Y/zNxeEXbRs91lWG4XVMfyI0oO4b34dy8sExUnVc4MyqH6saS8OkZVDGrRBdfuMjHOtes02yA4HGRiYJdjjpsly0pyDfr9PzWaTQqEQRSIRdhRisdh0OghI8TebTapWq9RsNgfSIW7aEXEsLw/OuKKoaSI2jkqHDmsttfp9UI7YtIspeWF3T8pBcJJKn1QGwct19FI+8INXEiQfZxLHxnvi8TiFw2FOPatDcHwQCoWo1+tRrVbjSZ4Y7IV14bXc4KuDINPFh4eH1Ol0BhwEkwfgZBMYFhl52RS9Tj8MQus/qGE05jUzNwNT8dDJxEEnehN2jgjea2UE3Oo+OLmWTq6jF2MyTUbYD0Pt5dzdrE+7rhOvz60fzpoXB8HNWnFjxL2UDNxkNCTHIJ1OUyQSoUgkcoODMC0idV72XcW/+Xn1ep3L8pFIhKLRqGUXn5v7HQ7qhDGXvNFoUKlUokajQbVajYUc/KrDBrGA/DJafkYIw4z9qNe4dSi8jBceRuzC+VgpTo5yZvy6H7MklBTUuvfDCDvlWCBSdSpDPqln30lpxss5eRnr7eb7ujnvw8NDWlpaong8znXpSRhhL8+cl7LSpJyKcXGLTICM32q1qFgsUiKRoEqlQtFolO81nke3Ikphv268vDG9Xo9arRbV63UqlUqUy+XolVdeoatXr1I+n+dBJH5ExnZdDH5uRFLWNMjNy0lbipNNx49arfQyreZGOHmPlVKb0+PI/7caejPqfo0ijfphYCdp2LyopZnvMa+Rk/XntPsDpOKgNk4n19FrGt3r/RlHecltmQHR5O23306Li4vU7/ep1Wq5Oi+/HOVxdWkF0SUU1Ln6cc1AMO31ejzyu9FocEcDyg1On/HAMgjIHCB7UKvVqFarUavVokgkQsvLy5RIJPhLHFUHwcobDsozHIeioVf51iD66GV7qJdUqBxtK8/R7bHm5uYoEom4ehCtOCtO2g/HkZ3yK8LxYvzMOmS32x3pcJsw32N3bnKip9nSPE2Ollvnc9S6Gya45kfd32pk86hjz83NUafToVdeecVT5DuuqNwvYu2k+BVBfa6TgAiOYCaTYRsrx3/DKXTb2eCrgwDeQafTYScBXk0mk6FkMskLwS9d/lF1Vi83zY8sxFFFgSYNeR7Y8N1kkyD5KcsM5pCrcd4PPxwEv9Lix50gZiqWBjWULIjIdxY6H5wGBbjOcOqi0Sh1u11HWbxxRMdB3YtpIeeO67iHh4cUiUS41BCLxThwlg6C1EZw+gyG/foCcsoYnAN4uolEwhdVJ8XkHlynmzEIiVZRzrQ/iEe9B16ckGm/BsdtVG7Q2Ru3g+O8RKFuCJG6507Xegsq6DCB4Kzf71On06FIJMK22c2sBt84CDKd0ev1qNPpUK/XG2BUKiaz4flZHhnWToXoGCmvSUUe43YOTA6O/Pe42mon5SCcNOfA7XHGIYY0q/dD9+bg1owsI8A2d7tdCofD3OngxCH1zUFAbQwOAjZJMCnNNjnF7GURRi16mT0IykBOk3aCXXQAzz3INa8Owmxv/Fbt2mrcdZ34mVWA3ZWihShDyKBxWLbJ1wwCnAQYiHA4zAQzdQ6OnwMhF5/8DBjGoD53mhwEM4MQj8eZexOkMzMtcxVmTZ5XJ4EqJukgjMr4+NHpITvGpJMg/1/uT8M+M3zUh022s0kBnvn5eVpYWAj04R633Omw93jZsCdp6DQyDG5TSCQSXPtTxbrZj/KOU3AzLgnuk3ZdJ5l5cCK4J6W1ZbYfr7fbpzw7CDJC7PV6NzgH8Xj8WEfcs+wgHDfi2bStHTCIlXcz+5vxcTRik5Kf91uUSmEPK8K0mU2QmX87G+bJQZDOgfRIZN1j1jf5oL0+9aCPr4MgvfUgSy0KjXRnKYOgDsL47rFd26tVuUGSyn1zEExHAU7BuIlZQdQUvQyXGZcjopHTbGzAboaSKdRBOAkZBH0WpiejYM5nsMORSgzyg6xkdINedEFJgE6TgxAU78LttEbNkDh/EDVroFAophFy/LcTrYxQ38VOZifQoRti8DfUbwfBrTGfZMuOQqFQKIIJtPFvq7EFYT8OHqThUgdBHYRZzyiMA0FNktPnWqE4uXbFNwdBMR4DM6m++knp2iucYRxDyxQKxQnLNHgpMejGr1AoFArF8YarDII6BgqFQqFQnAyozJtCoVAoFAp1EBQKhUKhUKiDoFAoFAqFQh0EhUKhUCgU6iAoFAqFQqFQB0GhUCgUCoU6CAqFQqFQKNRBUCgUCoVCoQ6CQqFQKBQKdRAUCoVCoVCog6BQKBQKhUIdBIVCoVAoFOogKBQKhUKhUAdBoVAoFAqFOggKhUKhUCjUQVAoFAqFQqFQB0GhUCgUCoU6CAqFQqFQKNRBUCgUCoVCoQ6CQqFQKBQKdRAUCoVCoVCog6BQKBQKhUIdBIVCoVAoFOogKBQKhUKhUAdBoVAoFAqFOggKhUKhUCjUQVAoFAqFQqEOgkKhUCgUCnUQFAqFQqFQqIOgUCgUCoVCHQSFQqFQKBQKdRAUCoVCoVCog6BQKBQKhUIdBIVCoVAoFOogKBQKhUKhUAdBoVAoFAqFOggKhUKhUCjUQVAoFAqFQqEOgkKhUCgUCnUQFAqFQqFQqIOgUCgUCoVCHQSFQqFQKBTqICgUCoVCoVAHQaFQKBQKhToICoVCoVAo1EFQKBQKwfaTGwAAABNJREFUhUKhUAdBoVAoFAqFLf4/sXDlPDzOMU0AAAAASUVORK5CYII=;" vertex="1" parent="1">
          <mxGeometry x="366.5" y="218" width="74.72" height="50" as="geometry" />
        </mxCell>
        <mxCell id="8AlbYs3zOn7eQTXVhcZB-28" value="" style="sketch=0;pointerEvents=1;shadow=0;dashed=0;html=1;strokeColor=none;fillColor=#434445;aspect=fixed;labelPosition=center;verticalLabelPosition=bottom;verticalAlign=top;align=center;outlineConnect=0;shape=mxgraph.vvd.cpu;" vertex="1" parent="1">
          <mxGeometry x="578.5" y="221" width="40" height="40" as="geometry" />
        </mxCell>
      </root>
    </mxGraphModel>
  </diagram>
</mxfile>
